M48
METRIC,LZ,000.000
;FILE_FORMAT=3:3
;TYPE=PLATED
;Layer: PTH_Through
;EasyEDA v6.5.40, 2024-05-01 14:29:32
;7703e67730494ffebf129c6139567d94,10
;Gerber Generator version 0.2
;Holesize 1 = 0.305 mm
T01C0.305
;Holesize 2 = 0.310 mm
T02C0.310
;Holesize 3 = 0.800 mm
T03C0.800
;Holesize 4 = 1.050 mm
T04C1.050
%
G05
G90
T01
X055800Y-029750
X055800Y-027500
X056300Y-046300
X060223Y-042621
X037900Y-033700
X040500Y-033700
X038800Y-037500
X036409Y-035159
X043000Y-029400
X042400Y-035450
X014700Y-060000
X016700Y-060000
X038150Y-064500
X036000Y-064500
X022300Y-063000
X019100Y-066200
X012400Y-054600
X015000Y-053500
X040500Y-050700
X038200Y-043800
X034500Y-036700
X033000Y-030600
X022073Y-037592
X028000Y-037800
X019005Y-048862
X020455Y-050263
X055800Y-024300
X050500Y-021800
X012600Y-037900
X012700Y-034600
X026300Y-041300
X020300Y-038600
X015300Y-033600
X012100Y-033500
X035800Y-049700
X042700Y-051800
X056200Y-040700
X059350Y-038050
X035900Y-053700
X039110Y-060615
X041711Y-060615
X044600Y-064600
X045000Y-067400
X014976Y-011593
X019150Y-005050
X022100Y-018900
X022100Y-021000
X027900Y-021800
X029000Y-039000
X030700Y-039000
X007800Y-029700
X008700Y-029700
X007800Y-020900
X008800Y-020900
X064900Y-059600
X064900Y-060700
X059300Y-044500
X059300Y-045700
X058100Y-047400
X062000Y-052950
X018100Y-031500
X018400Y-028500
X013800Y-017200
X006900Y-009300
X032100Y-000700
X035600Y-007700
X035052Y-010719
X036400Y-009400
X033000Y-017100
X013600Y-020600
X021400Y-023600
X006960Y-003937
X060065Y-011353
X029100Y-056250
X030800Y-017500
X045150Y-018850
X025556Y-007652
X026557Y-019955
X024656Y-064566
X023266Y-069723
X062416Y-028157
X063666Y-028157
X013153Y-042461
X007352Y-048512
X006402Y-047012
X017655Y-047662
X013603Y-043611
X052663Y-054814
X053813Y-054864
X053813Y-056014
X044011Y-059315
X052863Y-067150
X038502Y-070917
X010566Y-066904
X007366Y-064084
X015854Y-068017
X030378Y-067412
X021234Y-049098
X021057Y-055296
X023343Y-038075
X026238Y-033071
X032858Y-036559
X033000Y-032700
X073619Y-064366
X033100Y-047650
X036609Y-047562
X036398Y-043078
X029700Y-053650
X055014Y-033408
X057965Y-024556
X053964Y-030458
X041261Y-024556
X012192Y-022885
X016000Y-015500
X023206Y-006152
X065366Y-019105
X035859Y-061966
X040510Y-038260
X062916Y-011003
X028100Y-046600
X029700Y-044900
X026500Y-044900
X026500Y-048100
X029700Y-048100
X018550Y-064000
T02
X058200Y-058900
X058200Y-060200
X058200Y-061600
X048300Y-027100
X048300Y-029100
X048300Y-031100
T03
X001325Y-029625G85X001925Y-029625
X005405Y-029625G85X006205Y-029625
X005405Y-020975G85X006205Y-020975
X001325Y-020975G85X001925Y-020975
X003100Y-042300
X003100Y-044300
X003100Y-046300
X003100Y-048300
X003050Y-055800
X003050Y-057800
X003050Y-059800
X003050Y-061800
X061350Y-032630
X061350Y-033900
X061350Y-035170
X043700Y-043700
X045700Y-043700
X047700Y-043700
X049700Y-043700
X064900Y-002600
X062900Y-002600
X060900Y-002600
X058900Y-002600
T04
X059900Y-067201
X062400Y-067201
X071850Y-033159
X071850Y-035699
X071850Y-038239
X038510Y-023767
X038510Y-028647
X028970Y-002600
X026430Y-002600
X053083Y-002601
X050543Y-002601
X003101Y-010933
X003101Y-013473
X040321Y-002601
X042861Y-002601
X045401Y-002601
X003100Y-038040
X003100Y-035500
X003100Y-032960
X018770Y-021900
X016230Y-021900
X071868Y-041560
M30
