G04 Layer: TopLayer*
G04 EasyEDA v6.5.40, 2024-05-01 14:29:32*
G04 7703e67730494ffebf129c6139567d94,10*
G04 Gerber Generator version 0.2*
G04 Scale: 100 percent, Rotated: No, Reflected: No *
G04 Dimensions in millimeters *
G04 leading zeros omitted , absolute positions ,4 integer and 5 decimal *
%FSLAX45Y45*%
%MOMM*%

%AMMACRO1*21,1,$1,$2,0,0,$3*%
%AMMACRO2*4,1,5,0.2528,0.1,0.2528,-0.1,-0.2522,-0.1,-0.2528,0,-0.1528,0.1,0.2528,0.1,0*%
%AMMACRO3*4,1,5,-0.1,0.2528,-0.1,-0.1528,0,-0.2528,0.1,-0.2522,0.1,0.2528,-0.1,0.2528,0*%
%AMMACRO4*4,1,5,-0.1,-0.2527,-0.1,0.1528,0,0.2527,0.1,0.2523,0.1,-0.2527,-0.1,-0.2527,0*%
%AMMACRO5*4,1,5,0.1,-0.2528,0.1,0.1527,0,0.2528,-0.1,0.2522,-0.1,-0.2528,0.1,-0.2528,0*%
%AMMACRO6*4,1,5,0.2528,-0.1,0.2528,0.1,-0.2522,0.1,-0.2528,0,-0.1527,-0.1,0.2528,-0.1,0*%
%AMMACRO7*4,1,5,-0.2528,0.1,-0.2528,-0.1,0.2522,-0.1,0.2528,0,0.1527,0.1,-0.2528,0.1,0*%
%AMMACRO8*4,1,5,-0.2527,-0.1,-0.2527,0.1,0.2522,0.1,0.2527,0,0.1527,-0.1,-0.2527,-0.1,0*%
%AMMACRO9*4,1,5,0.1,0.2528,0.1,-0.1528,0,-0.2528,-0.1,-0.2522,-0.1,0.2528,0.1,0.2528,0*%
%AMMACRO10*4,1,4,0.2828,0.9899,0.9899,0.2828,-0.2828,-0.9899,-0.9899,-0.2828,0.2828,0.9899,0*%
%AMMACRO11*4,1,4,0.9899,-0.2828,0.2828,-0.9899,-0.9899,0.2828,-0.2828,0.9899,0.9899,-0.2828,0*%
%ADD10C,0.5000*%
%ADD11C,0.2794*%
%ADD12C,0.2032*%
%ADD13C,0.3000*%
%ADD14C,0.4978*%
%ADD15C,0.2790*%
%ADD16MACRO1,0.864X0.8065X-90.0000*%
%ADD17MACRO1,0.864X0.8065X90.0000*%
%ADD18MACRO1,0.864X0.8065X0.0000*%
%ADD19R,0.8640X0.8065*%
%ADD20R,1.9000X2.2900*%
%ADD21MACRO1,0.8X0.9X-135.0000*%
%ADD22MACRO1,0.8X0.9X45.0000*%
%ADD23R,0.9000X0.8000*%
%ADD24MACRO1,0.8X0.9X30.0003*%
%ADD25MACRO1,0.8X0.9X-99.9994*%
%ADD26MACRO1,0.8X0.9X80.0006*%
%ADD27R,0.8999X1.0000*%
%ADD28R,1.3000X0.3000*%
%ADD29R,3.5000X2.3500*%
%ADD30MACRO1,0.864X0.8065X-135.0000*%
%ADD31R,4.5999X1.0008*%
%ADD32R,3.4011X1.6002*%
%ADD33R,1.3005X1.1506*%
%ADD34MACRO1,1.35X1.41X90.0000*%
%ADD35MACRO1,1.35X1.41X0.0000*%
%ADD36R,1.3500X1.4100*%
%ADD37R,2.8000X0.8000*%
%ADD38R,2.0000X2.0000*%
%ADD39O,1.7314926000000002X0.3430016*%
%ADD40R,2.9000X6.7000*%
%ADD41R,1.0000X0.8999*%
%ADD42R,1.1000X2.5000*%
%ADD43MACRO1,3.6X2.34X0.0000*%
%ADD44R,0.6000X1.3000*%
%ADD45R,3.5000X2.5000*%
%ADD46R,0.6000X0.4000*%
%ADD47R,0.4500X0.2500*%
%ADD48R,0.2500X0.4500*%
%ADD49O,1.499997X0.27000199999999996*%
%ADD50O,0.27000199999999996X1.499997*%
%ADD51O,0.2800096X0.8999982*%
%ADD52O,0.8999982X0.2800096*%
%ADD53R,5.5000X5.5000*%
%ADD54R,0.5050X0.2000*%
%ADD55R,0.2000X0.5050*%
%ADD56MACRO2*%
%ADD57R,1.7000X1.7000*%
%ADD58MACRO3*%
%ADD59MACRO4*%
%ADD60MACRO5*%
%ADD61MACRO6*%
%ADD62MACRO7*%
%ADD63MACRO8*%
%ADD64MACRO9*%
%ADD65MACRO10*%
%ADD66MACRO11*%
%ADD67R,0.8000X0.9000*%
%ADD68MACRO1,0.8X0.9X-45.0000*%
%ADD69MACRO1,0.8X0.9X135.0000*%
%ADD70MACRO1,6X2X-99.9999*%
%ADD71MACRO1,6X2X-100.0001*%
%ADD72R,6.0000X2.0000*%
%ADD73MACRO1,0.8X0.9X-134.9987*%
%ADD74MACRO1,0.8X0.9X-135.9995*%
%ADD75MACRO1,0.8X0.9X-49.9999*%
%ADD76MACRO1,1.377X1.1325X0.0000*%
%ADD77R,1.3770X1.1325*%
%ADD78MACRO1,1.377X1.1325X-90.0000*%
%ADD79R,1.0160X1.1430*%
%ADD80MACRO1,1.3005X1.1506X-135.0000*%
%ADD81C,1.7000*%
%ADD82O,1.7999964X1.1999976*%
%ADD83O,1.9999959999999999X1.1999976*%
%ADD84R,1.4000X1.4000*%
%ADD85C,1.4000*%
%ADD86O,1.5999968X0.8999982*%
%ADD87R,1.6000X0.9000*%
%ADD88C,0.6100*%
%ADD89C,0.6200*%
%ADD90C,0.0126*%

%LPD*%
G36*
X6471767Y-1975510D02*
G01*
X6467906Y-1974748D01*
X6464604Y-1972513D01*
X6462420Y-1969211D01*
X6461607Y-1965350D01*
X6461607Y-1705610D01*
X6462420Y-1701698D01*
X6464604Y-1698396D01*
X6467906Y-1696212D01*
X6471767Y-1695450D01*
X6606489Y-1695450D01*
X6610400Y-1696212D01*
X6613702Y-1698396D01*
X6615887Y-1701698D01*
X6616649Y-1705610D01*
X6616649Y-1965350D01*
X6615887Y-1969211D01*
X6613702Y-1972513D01*
X6610400Y-1974748D01*
X6606489Y-1975510D01*
G37*

%LPD*%
G36*
X741629Y-2239975D02*
G01*
X738835Y-2239619D01*
X733552Y-2236774D01*
X728065Y-2234844D01*
X721766Y-2234133D01*
X602081Y-2234133D01*
X597712Y-2233168D01*
X594207Y-2230424D01*
X592226Y-2226462D01*
X590296Y-2218944D01*
X589991Y-2216454D01*
X589991Y-2190140D01*
X590753Y-2186279D01*
X592988Y-2182977D01*
X596290Y-2180793D01*
X600151Y-2179980D01*
X728980Y-2179980D01*
X729996Y-2179015D01*
X729996Y-2050135D01*
X730758Y-2046274D01*
X732993Y-2042972D01*
X736295Y-2040788D01*
X740156Y-2039975D01*
X919835Y-2039975D01*
X923747Y-2040788D01*
X926998Y-2042972D01*
X929233Y-2046274D01*
X929995Y-2050135D01*
X929995Y-2229815D01*
X929233Y-2233726D01*
X926998Y-2237028D01*
X923747Y-2239213D01*
X919835Y-2239975D01*
G37*

%LPD*%
G36*
X1788363Y-2530856D02*
G01*
X1784451Y-2530094D01*
X1781200Y-2527909D01*
X1778965Y-2524607D01*
X1778203Y-2520696D01*
X1778203Y-2415082D01*
X1778965Y-2411171D01*
X1781200Y-2407869D01*
X1785264Y-2403805D01*
X1788515Y-2401620D01*
X1792376Y-2400858D01*
X2028647Y-2399995D01*
X2030628Y-2399182D01*
X2123694Y-2278227D01*
X2126691Y-2275586D01*
X2130501Y-2274316D01*
X2134514Y-2274620D01*
X2138070Y-2276449D01*
X2222500Y-2344013D01*
X2224989Y-2346909D01*
X2226208Y-2350516D01*
X2226005Y-2354326D01*
X2224430Y-2357831D01*
X2108708Y-2520188D01*
X2101189Y-2527909D01*
X2097887Y-2530094D01*
X2093975Y-2530856D01*
G37*

%LPD*%
G36*
X1438351Y-2530856D02*
G01*
X1434490Y-2530094D01*
X1431188Y-2527909D01*
X1428953Y-2524607D01*
X1428191Y-2520696D01*
X1428191Y-2421026D01*
X1428953Y-2417114D01*
X1431188Y-2413863D01*
X1434490Y-2411628D01*
X1438351Y-2410866D01*
X1698040Y-2410866D01*
X1701952Y-2411628D01*
X1705203Y-2413863D01*
X1707438Y-2417114D01*
X1708200Y-2421026D01*
X1708200Y-2520696D01*
X1707438Y-2524607D01*
X1705203Y-2527909D01*
X1701952Y-2530094D01*
X1698040Y-2530856D01*
G37*

%LPD*%
G36*
X1698345Y-2730855D02*
G01*
X1694484Y-2730093D01*
X1691182Y-2727909D01*
X1688998Y-2724607D01*
X1688185Y-2720695D01*
X1688185Y-2621026D01*
X1688998Y-2617114D01*
X1691182Y-2613863D01*
X1694484Y-2611628D01*
X1698345Y-2610866D01*
X1937207Y-2610866D01*
X1938883Y-2610154D01*
X1965248Y-2583840D01*
X1968500Y-2581656D01*
X1972411Y-2580843D01*
X2088032Y-2580843D01*
X2091943Y-2581656D01*
X2095246Y-2583840D01*
X2097430Y-2587142D01*
X2098192Y-2591003D01*
X2098192Y-2650693D01*
X2097430Y-2654604D01*
X2095246Y-2657906D01*
X2091943Y-2660091D01*
X2088032Y-2660853D01*
X1999183Y-2660853D01*
X1997506Y-2661564D01*
X1931162Y-2727909D01*
X1927860Y-2730093D01*
X1923999Y-2730855D01*
G37*

%LPD*%
G36*
X6196736Y-2870708D02*
G01*
X6192824Y-2869946D01*
X6189522Y-2867761D01*
X6187338Y-2864459D01*
X6186576Y-2860548D01*
X6186576Y-2670810D01*
X6187338Y-2666949D01*
X6189522Y-2663647D01*
X6192824Y-2661462D01*
X6196736Y-2660650D01*
X6452412Y-2660650D01*
X6456324Y-2661462D01*
X6459626Y-2663647D01*
X6495948Y-2699969D01*
X6497624Y-2700680D01*
X6946595Y-2700680D01*
X6950456Y-2701442D01*
X6953758Y-2703677D01*
X6955993Y-2706928D01*
X6956755Y-2710840D01*
X6956755Y-2800553D01*
X6955993Y-2804414D01*
X6953758Y-2807716D01*
X6950456Y-2809951D01*
X6946595Y-2810713D01*
X6488023Y-2810713D01*
X6485432Y-2811424D01*
X6389014Y-2869285D01*
X6386525Y-2870352D01*
X6383782Y-2870708D01*
G37*

%LPD*%
G36*
X740156Y-3020009D02*
G01*
X736295Y-3019196D01*
X732993Y-3017012D01*
X730758Y-3013710D01*
X729996Y-3009849D01*
X729996Y-2881020D01*
X728980Y-2880004D01*
X600151Y-2880004D01*
X596290Y-2879242D01*
X592988Y-2877007D01*
X590753Y-2873705D01*
X589991Y-2869844D01*
X589991Y-2843631D01*
X590296Y-2841142D01*
X592226Y-2833624D01*
X594207Y-2829661D01*
X597712Y-2826918D01*
X602081Y-2825953D01*
X721766Y-2825953D01*
X728116Y-2825242D01*
X733552Y-2823311D01*
X736396Y-2821533D01*
X738987Y-2820416D01*
X741781Y-2820009D01*
X919835Y-2820009D01*
X923747Y-2820771D01*
X926998Y-2822956D01*
X929233Y-2826258D01*
X929995Y-2830169D01*
X929995Y-3009849D01*
X929233Y-3013710D01*
X926998Y-3017012D01*
X923747Y-3019196D01*
X919835Y-3020009D01*
G37*

%LPD*%
G36*
X4610150Y-3799992D02*
G01*
X4606239Y-3799230D01*
X4602988Y-3796995D01*
X4600752Y-3793744D01*
X4599990Y-3789832D01*
X4599990Y-3720134D01*
X4600752Y-3716274D01*
X4602988Y-3712972D01*
X4606239Y-3710787D01*
X4610150Y-3709974D01*
X5159806Y-3709974D01*
X5163718Y-3710787D01*
X5167020Y-3712972D01*
X5169204Y-3716274D01*
X5169966Y-3720134D01*
X5169966Y-3789832D01*
X5169204Y-3793744D01*
X5167020Y-3796995D01*
X5163718Y-3799230D01*
X5159806Y-3799992D01*
G37*

%LPD*%
G36*
X5760161Y-4919980D02*
G01*
X5756300Y-4919218D01*
X5752998Y-4916982D01*
X5750814Y-4913731D01*
X5750001Y-4909820D01*
X5750001Y-4688586D01*
X5750661Y-4685080D01*
X5752439Y-4682032D01*
X5755182Y-4679746D01*
X5758484Y-4678578D01*
X5869025Y-4660138D01*
X5870041Y-4659426D01*
X5869990Y-4410151D01*
X5870752Y-4406239D01*
X5872988Y-4402988D01*
X5876239Y-4400753D01*
X5880150Y-4399991D01*
X6329832Y-4399991D01*
X6333744Y-4400753D01*
X6337046Y-4402937D01*
X6339230Y-4406239D01*
X6340043Y-4410151D01*
X6340043Y-4499813D01*
X6339230Y-4503724D01*
X6337046Y-4507026D01*
X6333744Y-4509211D01*
X6329883Y-4509973D01*
X6161024Y-4509973D01*
X6159296Y-4510684D01*
X5891022Y-4778959D01*
X5889701Y-4781397D01*
X5860694Y-4907127D01*
X5859678Y-4909769D01*
X5857951Y-4912055D01*
X5852972Y-4916982D01*
X5849721Y-4919218D01*
X5845810Y-4919980D01*
G37*

%LPD*%
G36*
X6920179Y-5090007D02*
G01*
X6916267Y-5089194D01*
X6913016Y-5087010D01*
X6910781Y-5083708D01*
X6910019Y-5079847D01*
X6910019Y-4601006D01*
X6909308Y-4599279D01*
X6843014Y-4532934D01*
X6840778Y-4529683D01*
X6840016Y-4525772D01*
X6840016Y-4500981D01*
X6839305Y-4499254D01*
X6830720Y-4490669D01*
X6828993Y-4490008D01*
X6560159Y-4490008D01*
X6556298Y-4489196D01*
X6552996Y-4487011D01*
X6550812Y-4483709D01*
X6549999Y-4479848D01*
X6549999Y-4400143D01*
X6550812Y-4396232D01*
X6552996Y-4392980D01*
X6556298Y-4390745D01*
X6560159Y-4389983D01*
X6895795Y-4389983D01*
X6899706Y-4390745D01*
X6903008Y-4392980D01*
X7277049Y-4767021D01*
X7279233Y-4770323D01*
X7279995Y-4774184D01*
X7279995Y-5079847D01*
X7279233Y-5083708D01*
X7277049Y-5087010D01*
X7273747Y-5089194D01*
X7269835Y-5090007D01*
G37*

%LPD*%
G36*
X5305552Y-5826455D02*
G01*
X5301640Y-5825693D01*
X5298338Y-5823508D01*
X5161991Y-5687161D01*
X5160314Y-5686450D01*
X5066436Y-5686450D01*
X5062524Y-5685637D01*
X5059273Y-5683453D01*
X5057038Y-5680151D01*
X5056276Y-5676290D01*
X5056276Y-5436514D01*
X5057038Y-5432653D01*
X5059273Y-5429351D01*
X5062524Y-5427116D01*
X5066436Y-5426354D01*
X5417159Y-5426354D01*
X5421020Y-5427116D01*
X5424322Y-5429351D01*
X5443372Y-5448401D01*
X5445607Y-5451703D01*
X5446369Y-5455564D01*
X5446369Y-5816295D01*
X5445607Y-5820206D01*
X5443372Y-5823508D01*
X5440121Y-5825693D01*
X5436209Y-5826455D01*
G37*

%LPD*%
G36*
X7010196Y-6109970D02*
G01*
X7006285Y-6109208D01*
X7002983Y-6107023D01*
X7000798Y-6103721D01*
X7000036Y-6099810D01*
X7000036Y-5750966D01*
X6999325Y-5749290D01*
X6940702Y-5690666D01*
X6939025Y-5690006D01*
X6924243Y-5690006D01*
X6920331Y-5689193D01*
X6917029Y-5687009D01*
X6903008Y-5672937D01*
X6900773Y-5669635D01*
X6900011Y-5665774D01*
X6900011Y-5640984D01*
X6898995Y-5639968D01*
X6534200Y-5639968D01*
X6530340Y-5639206D01*
X6527038Y-5637022D01*
X6520738Y-5630672D01*
X6519011Y-5629960D01*
X6370167Y-5629960D01*
X6366306Y-5629198D01*
X6363004Y-5627014D01*
X6360769Y-5623712D01*
X6360007Y-5619800D01*
X6360007Y-5500166D01*
X6360769Y-5496255D01*
X6363004Y-5492953D01*
X6366306Y-5490768D01*
X6370167Y-5490006D01*
X6839000Y-5490006D01*
X6840728Y-5489295D01*
X6887057Y-5442966D01*
X6890359Y-5440730D01*
X6894220Y-5439968D01*
X7269835Y-5439968D01*
X7273747Y-5440730D01*
X7277049Y-5442966D01*
X7279233Y-5446268D01*
X7279995Y-5450128D01*
X7279995Y-5685790D01*
X7279233Y-5689650D01*
X7277049Y-5692952D01*
X7210704Y-5759297D01*
X7209993Y-5760974D01*
X7209993Y-6099810D01*
X7209231Y-6103721D01*
X7207046Y-6107023D01*
X7203744Y-6109208D01*
X7199833Y-6109970D01*
G37*

%LPD*%
G36*
X6440170Y-6119977D02*
G01*
X6436309Y-6119215D01*
X6433007Y-6116980D01*
X6430772Y-6113729D01*
X6430010Y-6109817D01*
X6430010Y-5920130D01*
X6430772Y-5916269D01*
X6433007Y-5912967D01*
X6436309Y-5910732D01*
X6440170Y-5909970D01*
X6759854Y-5909970D01*
X6763766Y-5910732D01*
X6767017Y-5912967D01*
X6769252Y-5916269D01*
X6770014Y-5920130D01*
X6770014Y-6109817D01*
X6769252Y-6113729D01*
X6767017Y-6116980D01*
X6763766Y-6119215D01*
X6759854Y-6119977D01*
G37*

%LPD*%
G36*
X4704181Y-6290005D02*
G01*
X4700320Y-6289192D01*
X4697018Y-6287008D01*
X4692954Y-6282944D01*
X4690770Y-6279642D01*
X4690008Y-6275781D01*
X4690008Y-5984189D01*
X4690770Y-5980328D01*
X4692954Y-5977026D01*
X4819294Y-5850686D01*
X4820005Y-5849010D01*
X4820005Y-5430164D01*
X4820767Y-5426252D01*
X4822952Y-5422950D01*
X4826254Y-5420766D01*
X4830165Y-5420004D01*
X4929835Y-5420004D01*
X4933696Y-5420766D01*
X4936998Y-5422950D01*
X4939233Y-5426252D01*
X4939995Y-5430164D01*
X4939995Y-5849010D01*
X4941011Y-5849975D01*
X4945786Y-5849975D01*
X4949647Y-5850737D01*
X4952949Y-5852972D01*
X5077002Y-5977026D01*
X5079238Y-5980328D01*
X5080000Y-5984189D01*
X5080000Y-6279845D01*
X5079238Y-6283706D01*
X5077002Y-6287008D01*
X5073700Y-6289192D01*
X5069840Y-6290005D01*
G37*

%LPD*%
G36*
X6150152Y-6839966D02*
G01*
X6146292Y-6839203D01*
X6142990Y-6837019D01*
X6140805Y-6833717D01*
X6139992Y-6829806D01*
X6139992Y-6300978D01*
X6139484Y-6299352D01*
X6112459Y-6267856D01*
X6110630Y-6264757D01*
X6110020Y-6261201D01*
X6110020Y-5794197D01*
X6110782Y-5790285D01*
X6113018Y-5786983D01*
X6209334Y-5690666D01*
X6209995Y-5688990D01*
X6209995Y-5500166D01*
X6210808Y-5496255D01*
X6212992Y-5492953D01*
X6216294Y-5490768D01*
X6220155Y-5490006D01*
X6299860Y-5490006D01*
X6303721Y-5490768D01*
X6307023Y-5492953D01*
X6309258Y-5496255D01*
X6310020Y-5500166D01*
X6310020Y-6264249D01*
X6310223Y-6265672D01*
X6339636Y-6368643D01*
X6340043Y-6371336D01*
X6344920Y-6829704D01*
X6344158Y-6833616D01*
X6341973Y-6836968D01*
X6338671Y-6839203D01*
X6334760Y-6839966D01*
G37*

%LPD*%
G36*
X5900166Y-6844995D02*
G01*
X5896305Y-6844182D01*
X5893003Y-6841998D01*
X5890768Y-6838696D01*
X5890006Y-6834835D01*
X5890006Y-6265976D01*
X5888990Y-6265011D01*
X5760262Y-6265011D01*
X5756351Y-6264198D01*
X5753049Y-6261963D01*
X5750814Y-6258661D01*
X5750102Y-6254750D01*
X5754878Y-5780024D01*
X5755690Y-5776214D01*
X5757875Y-5772912D01*
X5761177Y-5770727D01*
X5765038Y-5769965D01*
X5959043Y-5769965D01*
X5960719Y-5769254D01*
X6099302Y-5630672D01*
X6100013Y-5628995D01*
X6100013Y-5430977D01*
X6098997Y-5429961D01*
X6030163Y-5429961D01*
X6026302Y-5429199D01*
X6023000Y-5427014D01*
X6020816Y-5423712D01*
X6020003Y-5419801D01*
X6020003Y-5170119D01*
X6020816Y-5166258D01*
X6023000Y-5162956D01*
X6026302Y-5160772D01*
X6030163Y-5159959D01*
X6369862Y-5159959D01*
X6373723Y-5160772D01*
X6377025Y-5162956D01*
X6379260Y-5166258D01*
X6380022Y-5170119D01*
X6380022Y-5419801D01*
X6379260Y-5423712D01*
X6377025Y-5427014D01*
X6373723Y-5429199D01*
X6369862Y-5429961D01*
X6181039Y-5429961D01*
X6179312Y-5430672D01*
X6170726Y-5439257D01*
X6170015Y-5440984D01*
X6170015Y-5635752D01*
X6169253Y-5639663D01*
X6167018Y-5642965D01*
X6070701Y-5739282D01*
X6070041Y-5740958D01*
X6070041Y-5785764D01*
X6069228Y-5789676D01*
X6067044Y-5792978D01*
X6060643Y-5799378D01*
X6060033Y-5801004D01*
X6069990Y-6229908D01*
X6085027Y-6614769D01*
X6085027Y-6834835D01*
X6084214Y-6838696D01*
X6082030Y-6841998D01*
X6078728Y-6844182D01*
X6074867Y-6844995D01*
G37*

%LPD*%
D10*
X6670040Y-3914139D02*
G01*
X6664197Y-3919981D01*
X5439918Y-3919981D01*
X5350002Y-3830065D01*
X5350002Y-3755389D01*
X5035041Y-3755389D01*
D11*
X2474975Y-4684776D02*
G01*
X1849120Y-4684776D01*
X1819402Y-4655057D01*
X1761744Y-4655057D01*
X830326Y-5586476D01*
X830326Y-5654802D01*
X305054Y-6180073D01*
D10*
X1725015Y-1680006D02*
G01*
X1594987Y-1680006D01*
X1555000Y-1719994D01*
X1380015Y-1719994D01*
D12*
X3640836Y-3515868D02*
G01*
X3640836Y-3440937D01*
X3399790Y-3199892D01*
X3024886Y-3199892D01*
X3024886Y-3166871D01*
D11*
X2795015Y-5005070D02*
G01*
X2795015Y-5224970D01*
X2689857Y-5330123D01*
X2689857Y-5509988D01*
X3215004Y-5509988D01*
X3215004Y-5619978D01*
X2844800Y-5004815D02*
G01*
X2844800Y-5409945D01*
X2879852Y-5444997D01*
X3374897Y-5444997D01*
X3700018Y-5770118D01*
X3700018Y-6249923D01*
D10*
X5781497Y-2189987D02*
G01*
X5781497Y-1819988D01*
X5741492Y-1819988D01*
D11*
X4515104Y-1884934D02*
G01*
X4795011Y-1605026D01*
X5804915Y-1605026D01*
X6169913Y-1240028D01*
X6352286Y-1240028D01*
X6476745Y-1115568D01*
D13*
X5114180Y-2622885D02*
G01*
X5222092Y-2622885D01*
X5249986Y-2594990D01*
X5249986Y-1819986D01*
X5398490Y-1819986D01*
D12*
X2695041Y-4315079D02*
G01*
X2695041Y-4284080D01*
X2699750Y-4279371D01*
X2699750Y-4177771D01*
X2699750Y-4047515D01*
X2230140Y-3577904D01*
X2044720Y-3392484D01*
X2044720Y-3131820D01*
X2044720Y-3096417D01*
X1970879Y-3022579D01*
X1305560Y-3022579D01*
X1271325Y-3022579D01*
X1036340Y-2787594D01*
X1036340Y-2555239D01*
X1036340Y-2519837D01*
X1016802Y-2500302D01*
X854118Y-2500302D01*
X752518Y-2500302D01*
X747821Y-2504998D01*
X657428Y-2504998D01*
X2745079Y-4315079D02*
G01*
X2745079Y-4284080D01*
X2740370Y-4279371D01*
X2740370Y-4177771D01*
X2740370Y-4030690D01*
X2270759Y-3561079D01*
X2085340Y-3375660D01*
X2085340Y-3131820D01*
X2085340Y-3079592D01*
X1987704Y-2981960D01*
X1305560Y-2981960D01*
X1288150Y-2981960D01*
X1076960Y-2770769D01*
X1076960Y-2555239D01*
X1076960Y-2503012D01*
X1033627Y-2459682D01*
X854118Y-2459682D01*
X752518Y-2459682D01*
X747821Y-2454986D01*
X657428Y-2454986D01*
D10*
X1910079Y-6620002D02*
G01*
X1810004Y-6720078D01*
X1810004Y-7109968D01*
X607060Y-7109968D01*
X607060Y-6289039D01*
X755904Y-6140195D01*
X881379Y-6140195D01*
D12*
X3044952Y-5004815D02*
G01*
X3044952Y-5055107D01*
X3072384Y-5082539D01*
X3627374Y-5082539D01*
X3999991Y-4709921D01*
X4610100Y-4709921D01*
X4769865Y-4549902D01*
X4769865Y-4370070D01*
X3106420Y-3327400D02*
G01*
X3106420Y-3256279D01*
X3186429Y-3256279D01*
X3266947Y-3336797D01*
X3266947Y-3370326D01*
D11*
X2175009Y-1190010D02*
G01*
X2059995Y-1190010D01*
X2059995Y-949998D01*
X1929996Y-819998D01*
X1929996Y-689998D01*
X2109503Y-510491D01*
X2109503Y-330507D01*
X2644902Y-5005070D02*
G01*
X2644902Y-5059934D01*
X2596895Y-5107939D01*
X2512059Y-5107939D01*
X2359659Y-5260339D01*
X2325370Y-5226050D01*
X2048509Y-5226050D01*
X2695041Y-5004935D02*
G01*
X2695041Y-5109933D01*
X2419324Y-5385650D01*
X2419324Y-5573979D01*
X2744972Y-5005070D02*
G01*
X2744972Y-5164838D01*
X2594990Y-5314820D01*
X2594990Y-5619978D01*
X2894843Y-5004815D02*
G01*
X2894843Y-5175407D01*
X2945765Y-5226329D01*
X2944873Y-5004815D02*
G01*
X2944873Y-5085079D01*
X3085769Y-5225973D01*
X3085769Y-5226329D01*
D12*
X2994919Y-5004815D02*
G01*
X2994919Y-5065011D01*
X3059943Y-5130037D01*
X3819946Y-5130037D01*
X4069989Y-4879987D01*
X4699993Y-4879987D01*
X4969992Y-4609988D01*
X4969992Y-4369968D01*
D11*
X2474975Y-4534915D02*
G01*
X2074925Y-4534915D01*
X1961134Y-4421123D01*
X1463802Y-4421123D01*
X305054Y-5579871D01*
D10*
X604994Y-779998D02*
G01*
X614994Y-769998D01*
X849998Y-769998D01*
X690118Y-929894D02*
G01*
X850900Y-769112D01*
X850900Y-109220D01*
X890015Y-70104D01*
X3210052Y-70104D01*
D11*
X2474975Y-1789937D02*
G01*
X2474975Y-2074926D01*
X2729229Y-2329179D01*
X3263900Y-2329179D01*
X3263900Y-1956054D01*
X3495040Y-1724913D01*
X4050029Y-1724913D01*
X4495038Y-1279905D01*
X5294884Y-1279905D01*
X5915152Y-659892D01*
X6079997Y-659892D01*
X6290056Y-450087D01*
X6290056Y-260095D01*
X2210054Y-2100071D02*
G01*
X2299970Y-2100071D01*
X2643377Y-2443479D01*
X3316477Y-2443479D01*
X3430015Y-2329942D01*
X3430015Y-1999995D01*
X3554984Y-1875028D01*
X4265422Y-1875028D01*
X4675377Y-1465071D01*
X5409945Y-1465071D01*
X5994908Y-880110D01*
X6124956Y-880110D01*
X6489954Y-515112D01*
X6489954Y-260095D01*
D10*
X2105659Y-5529579D02*
G01*
X2265753Y-5529579D01*
X2320330Y-5475003D01*
D14*
X2147570Y-5325110D02*
G01*
X2105659Y-5367020D01*
X2105659Y-5529579D01*
D11*
X2474975Y-4434839D02*
G01*
X2344927Y-4434839D01*
X1876044Y-3965955D01*
X853947Y-3965955D01*
X389889Y-4430013D01*
X309879Y-4430013D01*
D15*
X2297435Y-6782562D02*
G01*
X2217414Y-6782562D01*
X2217414Y-7167879D01*
X2594762Y-7167879D01*
X2594762Y-7081520D01*
D10*
X3105911Y-6450076D02*
G01*
X2755391Y-6299962D01*
X2229865Y-6299962D01*
X2594762Y-7081520D02*
G01*
X2933700Y-7081520D01*
X3159757Y-6855462D01*
X3159757Y-6449987D01*
X3105993Y-6449987D01*
D12*
X2898140Y-3675379D02*
G01*
X2896232Y-3899992D01*
X2899994Y-3899992D01*
D11*
X2944875Y-4314952D02*
G01*
X2944875Y-4104894D01*
X2481579Y-3641597D01*
X2481579Y-3248405D01*
X2884931Y-2845054D01*
X3370072Y-2845054D01*
X3685031Y-3160013D01*
X4029963Y-3160013D01*
X4177029Y-3012947D01*
X4541011Y-3012947D01*
D10*
X2045461Y-5026405D02*
G01*
X2114804Y-5095494D01*
X2318258Y-5095494D01*
X3442936Y-4314149D02*
G01*
X3526749Y-4314149D01*
X3613292Y-4400692D01*
X3613292Y-4483107D01*
D14*
X3442939Y-4314149D02*
G01*
X3449248Y-4307839D01*
X3639820Y-4307839D01*
D12*
X657352Y-2554986D02*
G01*
X500126Y-2554986D01*
X500126Y-2454910D01*
X657352Y-2454910D01*
X657352Y-2605023D02*
G01*
X784860Y-2605023D01*
X784860Y-2499613D01*
D11*
X6476639Y-964945D02*
G01*
X6426911Y-964945D01*
X6291579Y-1100277D01*
X4500118Y-6739889D02*
G01*
X4510024Y-6750050D01*
X4510024Y-7009892D01*
X4546854Y-7046721D01*
X6803390Y-7046721D01*
X6925056Y-6925055D01*
X6925056Y-6754876D01*
X6839965Y-6670039D01*
X6750050Y-6670039D01*
D10*
X4277613Y-2315463D02*
G01*
X4279900Y-2180081D01*
X5050027Y-2180081D01*
D11*
X2215040Y-720702D02*
G01*
X2320584Y-615157D01*
X2320584Y-615154D01*
D10*
X2255514Y-70104D02*
G01*
X2270000Y-84330D01*
X2270000Y-480057D01*
X2080519Y-669533D01*
X2080519Y-819683D01*
X2116048Y-819683D01*
D11*
X1725015Y-1540002D02*
G01*
X1715010Y-1550007D01*
X1599994Y-1550007D01*
X1338201Y-2470863D02*
G01*
X1219200Y-2351862D01*
X1219200Y-2288539D01*
X4277593Y-2455390D02*
G01*
X4277362Y-2455621D01*
X4126052Y-2455621D01*
X5114188Y-3012922D02*
G01*
X5363514Y-3012922D01*
X5396359Y-3045767D01*
X5114290Y-3077971D02*
G01*
X5117084Y-3080765D01*
X5306313Y-3080765D01*
X5361431Y-3135884D01*
X5639815Y-3135884D01*
X5639815Y-3119881D01*
D13*
X5114290Y-2947923D02*
G01*
X5423408Y-2947923D01*
X5595620Y-3119881D01*
X5640070Y-3119881D01*
D11*
X5725109Y-2600096D02*
G01*
X5796460Y-2528745D01*
X5796460Y-2455618D01*
X5114188Y-2817901D02*
G01*
X5116997Y-2820710D01*
X5696435Y-2820710D01*
X5725109Y-2792036D01*
X5725109Y-2600096D01*
X4541011Y-2687828D02*
G01*
X4538218Y-2690621D01*
X4380991Y-2690621D01*
X4277613Y-2587244D01*
X4277613Y-2455418D01*
X5639866Y-3259886D02*
G01*
X5628929Y-3270824D01*
X5546397Y-3270824D01*
X5501386Y-3315835D01*
X5501386Y-3340841D01*
X2945767Y-5226329D02*
G01*
X2945767Y-5364987D01*
X2969996Y-5364987D01*
X2969996Y-5364987D02*
G01*
X3190824Y-5364987D01*
X3190824Y-5341343D01*
X3164941Y-4434967D02*
G01*
X3291979Y-4434967D01*
X3412804Y-4314139D01*
X3442944Y-4314139D01*
X3164941Y-4384929D02*
G01*
X3334715Y-4215155D01*
X3343960Y-4215155D01*
D10*
X3819908Y-4379973D02*
G01*
X3819908Y-4320034D01*
X3699769Y-4199892D01*
X3389884Y-4199892D01*
X3374621Y-4215155D01*
X3343960Y-4215155D01*
D14*
X3566198Y-4661184D02*
G01*
X3660922Y-4755908D01*
X3660922Y-4756198D01*
X7169993Y-6439992D02*
G01*
X7173371Y-6436613D01*
X7361859Y-6436613D01*
D12*
X3187750Y-3369995D02*
G01*
X3359988Y-3369995D01*
X3389985Y-3399993D01*
X3229990Y-3769995D02*
G01*
X3285827Y-3714158D01*
X3285827Y-3655921D01*
X3104997Y-3612743D02*
G01*
X3104997Y-3655136D01*
X3135790Y-3685928D01*
X3165797Y-3685928D01*
X3229990Y-3750122D01*
X3229990Y-3769995D01*
X3065015Y-3612642D02*
G01*
X3065015Y-3769995D01*
X3090011Y-3769995D01*
D11*
X2644142Y-3455540D02*
G01*
X2623820Y-3435217D01*
X2623820Y-3307079D01*
X2594869Y-4315203D02*
G01*
X2594869Y-4230370D01*
X2477744Y-4113248D01*
X2477744Y-4103395D01*
X2477744Y-4103395D02*
G01*
X2382111Y-4007761D01*
X2369393Y-4007761D01*
X2369393Y-4007761D02*
G01*
X2334259Y-3972628D01*
X2334259Y-3807460D01*
X3085769Y-5226329D02*
G01*
X3085769Y-5211315D01*
X3200808Y-5211315D01*
X3330823Y-5341343D01*
D10*
X3330829Y-5341340D02*
G01*
X3420844Y-5251325D01*
X4049996Y-5251325D01*
X4049996Y-5285686D01*
D11*
X2228291Y-4988278D02*
G01*
X2149833Y-4909820D01*
X2123440Y-4909820D01*
X2474973Y-4834892D02*
G01*
X2091941Y-4834892D01*
X1897303Y-5029530D01*
X1897303Y-5140883D01*
D10*
X1790776Y-5034356D02*
G01*
X1790776Y-4995854D01*
X1900430Y-4886200D01*
D11*
X2475072Y-4885054D02*
G01*
X2331516Y-4885054D01*
X2228291Y-4988280D01*
D14*
X2875285Y-6816242D02*
G01*
X2962757Y-6816242D01*
X3037840Y-6741160D01*
X881379Y-6280304D02*
G01*
X753264Y-6408420D01*
X736600Y-6408420D01*
D10*
X3450005Y-6909993D02*
G01*
X3486683Y-6946671D01*
X3654425Y-6946671D01*
X3654552Y-6946645D02*
G01*
X3654552Y-7015226D01*
X3731006Y-7091679D01*
X3850218Y-7091679D01*
X3850218Y-7091679D02*
G01*
X3971036Y-7091679D01*
X4045458Y-7017258D01*
X4045458Y-6946645D01*
X5089982Y-6714997D02*
G01*
X5286331Y-6714997D01*
X4322439Y-5740859D02*
G01*
X4322439Y-5852815D01*
X4401108Y-5931484D01*
D11*
X4170934Y-6061455D02*
G01*
X4170934Y-6136639D01*
X4459986Y-6425437D01*
X4459986Y-6459981D01*
X2625090Y-940054D02*
G01*
X2625090Y-835660D01*
X2890774Y-569976D01*
X2970022Y-569976D01*
X3469893Y-70104D01*
X5700013Y-70104D01*
X5890006Y-260095D01*
X3024886Y-1189989D02*
G01*
X2875025Y-1189989D01*
X2845054Y-1160018D01*
X2845054Y-1119886D01*
X3394963Y-569976D01*
X4539995Y-569976D01*
X4539995Y-260095D01*
X2875025Y-940054D02*
G01*
X2875025Y-854963D01*
X3299968Y-430021D01*
X4291075Y-430021D01*
X4291075Y-260095D01*
X4285995Y-260095D01*
X2474975Y-4584954D02*
G01*
X1955038Y-4584954D01*
X1886204Y-4516120D01*
X1588770Y-4516120D01*
X324865Y-5780023D01*
X305054Y-5780023D01*
X2474975Y-4484878D02*
G01*
X2234945Y-4484878D01*
X1846071Y-4096004D01*
X923797Y-4096004D01*
X389889Y-4629912D01*
X309879Y-4629912D01*
X2175007Y-1389987D02*
G01*
X2625003Y-1389987D01*
X2984992Y-1749983D01*
X3079993Y-1749996D01*
D10*
X6476644Y-964920D02*
G01*
X6598008Y-843556D01*
X6786166Y-843556D01*
X6786168Y-843559D02*
G01*
X7199403Y-843559D01*
X7203777Y-839185D01*
D11*
X7386853Y-1015542D02*
G01*
X7345474Y-1056921D01*
X7177323Y-1056921D01*
X6786166Y-1056921D02*
G01*
X6727494Y-1115593D01*
X6476644Y-1115593D01*
X7203777Y-1052542D02*
G01*
X7199401Y-1056919D01*
X6786168Y-1056919D01*
X3700018Y-6249923D02*
G01*
X3700018Y-6595110D01*
X3450081Y-6595110D01*
X3450081Y-6769862D01*
D10*
X2734990Y-5619978D02*
G01*
X2904997Y-5619978D01*
X2910001Y-5624982D01*
X2910001Y-5624982D02*
G01*
X3075000Y-5624982D01*
X3075000Y-5619978D01*
D11*
X3024886Y-1439926D02*
G01*
X3130041Y-1439926D01*
X3219958Y-1530095D01*
X3929888Y-1530095D01*
X4370070Y-1089913D01*
X5230113Y-1089913D01*
X5780024Y-540004D01*
X5910072Y-540004D01*
X6089904Y-359918D01*
X6089904Y-260095D01*
D13*
X5114290Y-2752852D02*
G01*
X5398515Y-2752852D01*
X5398515Y-2752852D01*
X5432043Y-2752852D01*
X5584952Y-2599944D01*
D10*
X4322445Y-5540857D02*
G01*
X4335449Y-5553862D01*
X4652441Y-5553862D01*
X585335Y-609996D02*
G01*
X695960Y-499371D01*
X695960Y-393700D01*
X434594Y-610107D02*
G01*
X435102Y-780034D01*
X1659381Y-2469387D02*
G01*
X1659381Y-2380742D01*
X1849881Y-2189987D01*
X1877060Y-2189987D01*
X1622983Y-2189987D02*
G01*
X1492986Y-2059990D01*
X1359992Y-2059990D01*
X1839976Y-2849879D02*
G01*
X1919986Y-2849879D01*
X2150109Y-2620010D01*
X3329940Y-2620010D01*
X3569970Y-2379979D01*
X3569970Y-2050034D01*
X4279900Y-2050034D01*
X4279900Y-2180081D01*
X2169922Y-2620010D02*
G01*
X2171031Y-2620865D01*
X2048200Y-2620865D01*
D11*
X1730476Y-689482D02*
G01*
X1730476Y-745464D01*
X1990006Y-1004994D01*
X1990006Y-1205011D01*
X2025017Y-1239997D01*
X2175012Y-1239997D01*
D13*
X1631622Y-448388D02*
G01*
X1631622Y-606610D01*
X1714492Y-689482D01*
X1730476Y-689482D01*
D10*
X2879364Y-2034994D02*
G01*
X2879364Y-2049376D01*
X3000070Y-2170079D01*
X3000070Y-2199081D01*
X3000598Y-1964997D02*
G01*
X3121329Y-2085728D01*
X3121329Y-2129078D01*
X3299993Y-1709996D02*
G01*
X3045000Y-1964989D01*
X3000608Y-1964989D01*
X3559992Y-769998D02*
G01*
X3639992Y-849998D01*
X3639992Y-939998D01*
X3342642Y-1169819D02*
G01*
X3407260Y-1169819D01*
X3505200Y-1071879D01*
D11*
X3024880Y-1340104D02*
G01*
X3389884Y-1340104D01*
X3979923Y-750062D01*
X4679950Y-750062D01*
X5054295Y-375716D01*
X5054295Y-260070D01*
D10*
X3559992Y-769998D02*
G01*
X3342640Y-987353D01*
X3342640Y-1029817D01*
D11*
X2325115Y-1789937D02*
G01*
X2325115Y-1960115D01*
X530100Y-1960115D01*
X310083Y-1740098D01*
X310083Y-1347317D01*
D10*
X2060079Y-2629915D02*
G01*
X2051034Y-2620873D01*
X2048205Y-2620873D01*
X1529996Y-3179993D02*
G01*
X1559996Y-3149993D01*
X1809996Y-3149993D01*
X1270000Y-3459987D02*
G01*
X1529996Y-3179993D01*
D12*
X3070097Y-3899915D02*
G01*
X3279902Y-3899915D01*
X3450081Y-3729989D01*
X3450081Y-3670045D01*
D10*
X3000070Y-2199081D02*
G01*
X2980987Y-2179998D01*
X2789994Y-2179998D01*
D11*
X2175007Y-1539999D02*
G01*
X2265011Y-1539999D01*
X2325001Y-1599989D01*
X2325001Y-1639989D01*
X2245006Y-1719996D01*
X2209995Y-1755007D01*
X2209995Y-1889996D01*
X2824993Y-1790011D02*
G01*
X2824993Y-1980620D01*
X2879369Y-2034997D01*
X3024880Y-1389887D02*
G01*
X3640076Y-1389887D01*
X4150108Y-880107D01*
X4940051Y-880107D01*
X5308295Y-511863D01*
X5308295Y-260070D01*
X3024992Y-1140023D02*
G01*
X3140014Y-1140023D01*
X3169810Y-1169822D01*
X3342640Y-1169822D01*
X2425006Y-940010D02*
G01*
X2425006Y-444990D01*
X2609999Y-259994D01*
X2642997Y-259994D01*
X1899996Y-1540002D02*
G01*
X1939998Y-1499999D01*
X1939998Y-1439999D01*
X2175012Y-1440022D01*
D10*
X1725018Y-1539999D02*
G01*
X1899993Y-1539999D01*
X1899996Y-1540002D01*
X1725018Y-1680009D02*
G01*
X1899993Y-1680009D01*
X1899996Y-1680006D01*
D13*
X1808378Y-271630D02*
G01*
X2109495Y-271630D01*
X2109495Y-330504D01*
D10*
X1829488Y-590499D02*
G01*
X1914984Y-505002D01*
X1915007Y-505002D01*
X1915007Y-505002D02*
G01*
X1990524Y-429486D01*
X2010481Y-429486D01*
X1457154Y-1366057D02*
G01*
X1497589Y-1159255D01*
X1497589Y-1159255D02*
G01*
X1532846Y-978936D01*
X6225311Y-1749983D02*
G01*
X6225311Y-1624677D01*
X6299062Y-1550926D01*
X6714642Y-1550926D01*
D13*
X5114180Y-2687878D02*
G01*
X5292117Y-2687878D01*
X5385010Y-2594985D01*
X5385010Y-2189987D01*
X5438495Y-2189987D01*
D11*
X657349Y-2705100D02*
G01*
X870432Y-2705100D01*
X880008Y-2714675D01*
X3024990Y-1089974D02*
G01*
X3124989Y-1089992D01*
X1557167Y-841054D02*
G01*
X1676049Y-841054D01*
X1920003Y-1084996D01*
X1920003Y-1289999D01*
X2175007Y-1289999D01*
X2175007Y-1340004D02*
G01*
X1664980Y-1340004D01*
X1501046Y-1503941D01*
X1432839Y-1503941D01*
D13*
X1707842Y-1203939D02*
G01*
X1712389Y-1208478D01*
X1712389Y-1340004D01*
X1732145Y-1066055D02*
G01*
X1732145Y-1040500D01*
X1803831Y-968822D01*
D11*
X3124995Y-1089992D02*
G01*
X3185167Y-1029817D01*
X3342640Y-1029817D01*
X2474975Y-4384802D02*
G01*
X2415031Y-4384802D01*
X1620012Y-3590036D01*
X310134Y-3590036D01*
X310134Y-3549904D01*
X3589995Y-5369991D02*
G01*
X3910990Y-5690986D01*
X3910990Y-6061532D01*
X3164946Y-4684897D02*
G01*
X3229897Y-4684897D01*
X3309990Y-4764986D01*
X5934991Y-3804996D02*
G01*
X6134988Y-3604999D01*
X6134988Y-3516985D01*
X3164840Y-4534915D02*
G01*
X3275075Y-4534915D01*
X3309874Y-4569968D01*
X3849877Y-4569968D01*
X4049775Y-4370070D01*
X4370070Y-4370070D01*
X3164840Y-4834889D02*
G01*
X3725163Y-4834889D01*
X3960113Y-4599939D01*
X4569968Y-4599939D01*
X4569968Y-4370070D01*
X3164941Y-4485004D02*
G01*
X3471418Y-4485004D01*
X3473322Y-4483100D01*
D12*
X2645003Y-4315079D02*
G01*
X2645003Y-4145000D01*
X2629994Y-4129991D01*
D11*
X1209997Y-3349990D02*
G01*
X1156012Y-3296005D01*
X310006Y-3296005D01*
X2029995Y-3859992D02*
G01*
X1529996Y-3359993D01*
X1529996Y-3359993D01*
D10*
X6025006Y-2555011D02*
G01*
X6025921Y-2555925D01*
X6724624Y-2555925D01*
X5741492Y-1819986D02*
G01*
X6004664Y-1819986D01*
X6074669Y-1749983D01*
X310006Y-4229988D02*
G01*
X750003Y-3789992D01*
X1259997Y-3789992D01*
X5585104Y-2600096D02*
G01*
X5579988Y-2594980D01*
X5579988Y-2429995D01*
X5604763Y-3919981D02*
G01*
X5729986Y-3794760D01*
X5729986Y-3430015D01*
X5910072Y-3249929D01*
X5909818Y-3119881D01*
X5639815Y-3119881D01*
D12*
X3164941Y-4585078D02*
G01*
X3245086Y-4585078D01*
X3321187Y-4661179D01*
X3415563Y-4661179D01*
D10*
X5630011Y-4629988D02*
G01*
X5634913Y-4634890D01*
X5634913Y-4869662D01*
X6022340Y-4262120D02*
G01*
X6680200Y-4262120D01*
X6681215Y-4261104D01*
X6539986Y-4119991D02*
G01*
X6708013Y-4288017D01*
X6708013Y-4444974D01*
X4889992Y-6885310D02*
G01*
X5089992Y-6884987D01*
X4889982Y-6734657D02*
G01*
X4889982Y-6531881D01*
X4901877Y-6519986D01*
X6750050Y-6670039D02*
G01*
X6750050Y-6539992D01*
X6849872Y-6439915D01*
X6970013Y-6439915D01*
X6240043Y-6719976D02*
G01*
X6390055Y-6869988D01*
X6749973Y-6869988D01*
X2799989Y-3779992D02*
G01*
X2644140Y-3624143D01*
X2644140Y-3595522D01*
X2268674Y-4104995D02*
G01*
X2207259Y-4043580D01*
X2207259Y-3759200D01*
X3299993Y-3059988D02*
G01*
X3290013Y-3050009D01*
X3155317Y-3050009D01*
X3449998Y-3669990D02*
G01*
X3389985Y-3609977D01*
X3389985Y-3539997D01*
D15*
X3560825Y-4101084D02*
G01*
X3589020Y-4101084D01*
X3880104Y-3810000D01*
X3880104Y-3750055D01*
D10*
X3819992Y-4379991D02*
G01*
X3909992Y-4289991D01*
X3909992Y-4079991D01*
X4019991Y-3969992D01*
X4409991Y-3969992D01*
X4409998Y-3755313D01*
X4085297Y-6449987D02*
G01*
X4049991Y-6414681D01*
X4049991Y-5069989D01*
X1635305Y-5154978D02*
G01*
X1755927Y-5034356D01*
X1790776Y-5034356D01*
X1499996Y-5349989D02*
G01*
X1635302Y-5214683D01*
X1635302Y-5154980D01*
X3599990Y-6449987D02*
G01*
X3101530Y-6449987D01*
X2875279Y-6676237D01*
X4219983Y-6584670D02*
G01*
X4085313Y-6449999D01*
X3815003Y-6449999D01*
X5374436Y-5950330D02*
G01*
X5419989Y-5995883D01*
X5419989Y-6469987D01*
X5369989Y-6519986D01*
X4659990Y-6519986D01*
X4595307Y-6584670D01*
X4219981Y-6584670D01*
X5374436Y-5950330D02*
G01*
X5176900Y-6147866D01*
X4882438Y-6147866D01*
D11*
X880008Y-2345334D02*
G01*
X820341Y-2405001D01*
X657430Y-2405001D01*
D12*
X3004667Y-3050006D02*
G01*
X3025005Y-3070344D01*
X3025005Y-3327245D01*
X4239988Y-3544994D02*
G01*
X4299663Y-3604666D01*
X4409998Y-3604666D01*
X3187750Y-3569995D02*
G01*
X3359988Y-3569995D01*
X3389985Y-3539997D01*
D11*
X5114180Y-2882912D02*
G01*
X5837110Y-2882912D01*
X6025006Y-2695016D01*
D13*
X4541027Y-2622895D02*
G01*
X4435099Y-2622895D01*
X4407578Y-2595379D01*
X4407578Y-2315372D01*
X4277575Y-2315372D01*
X5579996Y-2749994D02*
G01*
X5579996Y-2599999D01*
X5584982Y-2599999D01*
X5114175Y-3207887D02*
G01*
X5247899Y-3207887D01*
X5247899Y-3477099D01*
X5239986Y-3484994D01*
X4839985Y-3484994D01*
X4839985Y-3604651D01*
X4541027Y-3207887D02*
G01*
X4417077Y-3207887D01*
X4394989Y-3229983D01*
X4394989Y-3450000D01*
X4429988Y-3484994D01*
X4649993Y-3484994D01*
X4649993Y-3604651D01*
X3850970Y-2376678D02*
G01*
X4227184Y-2752892D01*
X4541032Y-2752892D01*
X3850970Y-2864662D02*
G01*
X4315320Y-2864662D01*
X4362102Y-2817881D01*
X4541032Y-2817881D01*
D10*
X5634906Y-5020320D02*
G01*
X5639582Y-5024978D01*
X6009518Y-5024978D01*
D11*
X2419324Y-5573979D02*
G01*
X2261031Y-5732271D01*
X2016252Y-5732271D01*
X2048532Y-5226075D02*
G01*
X1839493Y-5435114D01*
X1839493Y-5555513D01*
X2378760Y-4202379D02*
G01*
X2281377Y-4104995D01*
X2268674Y-4104995D01*
D15*
X3095071Y-4315122D02*
G01*
X3095071Y-4279818D01*
X2875279Y-6676237D02*
G01*
X2728762Y-6676237D01*
X2687599Y-6717400D01*
X2602506Y-6717400D01*
D11*
X2475077Y-4784973D02*
G01*
X1854662Y-4784973D01*
X1484657Y-5154978D01*
D13*
X5114175Y-3142894D02*
G01*
X5262892Y-3142894D01*
X5309997Y-3189986D01*
X5309997Y-3604651D01*
X5034988Y-3604651D01*
D12*
X1484657Y-5154978D02*
G01*
X1370002Y-5269633D01*
X1370002Y-6233670D01*
X1370002Y-6002174D02*
G01*
X1372189Y-5999987D01*
X1469997Y-5999987D01*
D11*
X1670050Y-5999987D02*
G01*
X1830070Y-6160007D01*
X1929892Y-6160007D01*
X2422397Y-6652513D01*
X2457450Y-6652513D01*
X3215004Y-5619978D02*
G01*
X3264992Y-5669965D01*
X3264992Y-5990003D01*
X2594990Y-5619978D02*
G01*
X2364991Y-5849978D01*
X2364991Y-5990003D01*
X3449993Y-6769978D02*
G01*
X3486665Y-6733301D01*
X3654407Y-6733301D01*
X4045564Y-6733301D02*
G01*
X4219991Y-6735310D01*
X3654407Y-6733301D02*
G01*
X4045564Y-6733301D01*
X2474975Y-940054D02*
G01*
X2474975Y-610870D01*
X2618740Y-467105D01*
X2690113Y-467105D01*
X2897124Y-260095D01*
X2524963Y-940028D02*
G01*
X2524963Y-795873D01*
X2555643Y-765192D01*
X2674975Y-1790014D02*
G01*
X2674975Y-1976196D01*
X2655669Y-1995502D01*
X2606929Y-6454139D02*
G01*
X2468112Y-6454139D01*
X2465623Y-6456629D01*
X2602484Y-6782488D02*
G01*
X2686458Y-6782488D01*
X2720213Y-6816242D01*
X2875279Y-6816242D01*
X2454783Y-7081520D02*
G01*
X2435862Y-7081520D01*
X2326642Y-6972300D01*
D13*
X902370Y-4669843D02*
G01*
X1178976Y-4393262D01*
X1178976Y-4393262D02*
G01*
X1178976Y-4382424D01*
X1315331Y-4246069D01*
D10*
X751586Y-4518913D02*
G01*
X1028192Y-4242307D01*
D13*
X902370Y-4669843D02*
G01*
X902370Y-4684036D01*
X735185Y-4851222D01*
D10*
X640161Y-4701184D02*
G01*
X640161Y-4630351D01*
X751519Y-4518992D01*
D11*
X2474975Y-4634992D02*
G01*
X1899920Y-4634992D01*
X1846071Y-4581144D01*
X1675384Y-4581144D01*
X305054Y-5951473D01*
X305054Y-5979921D01*
X2475077Y-4734940D02*
G01*
X1796704Y-4734940D01*
X1765444Y-4766200D01*
X1360342Y-4361098D02*
G01*
X1211140Y-4361098D01*
X1178976Y-4393262D01*
X4269993Y-5180076D02*
G01*
X4359909Y-5089905D01*
X4629911Y-5089905D01*
X5620004Y-4100068D01*
X5620004Y-4070095D01*
X4051020Y-3825963D02*
G01*
X4051020Y-3733977D01*
X4239996Y-3545001D01*
D15*
X2602506Y-6652374D02*
G01*
X2757576Y-6497307D01*
X2757576Y-6454139D01*
D11*
X1941626Y-5331122D02*
G01*
X1855688Y-5331122D01*
X1695427Y-5491383D01*
X1695427Y-5816465D01*
X2075522Y-6196561D01*
X3585903Y-6196561D01*
D13*
X5640070Y-3119881D02*
G01*
X5640070Y-3035045D01*
X5580125Y-2975102D01*
D10*
X4652518Y-5275834D02*
G01*
X4652518Y-5553963D01*
X6006591Y-1135379D02*
G01*
X6074663Y-1135379D01*
X6599936Y-610107D01*
X7386827Y-610107D01*
X7386827Y-864870D01*
D11*
X2457450Y-6782562D02*
G01*
X2292604Y-6782562D01*
X2040127Y-6530086D01*
X1614931Y-6530086D01*
X1520189Y-6435089D01*
X1421384Y-6435089D01*
X1731670Y-6284973D02*
G01*
X1846684Y-6399987D01*
X1854987Y-6399987D01*
X1421384Y-6284976D02*
G01*
X1929892Y-6284976D01*
X2362200Y-6717284D01*
X2457450Y-6717284D01*
D12*
X1897379Y-5140960D02*
G01*
X1579879Y-5459984D01*
X1579879Y-6284976D01*
D11*
X1219987Y-6233693D02*
G01*
X1219987Y-6140297D01*
D10*
X881379Y-6140297D02*
G01*
X1239997Y-5781680D01*
X1239997Y-5459989D01*
D11*
X1319974Y-6233685D02*
G01*
X1319974Y-6159964D01*
X1300307Y-6140297D01*
X881379Y-6140297D01*
X914400Y-6592417D02*
G01*
X914400Y-6434950D01*
X1168641Y-6434950D01*
X1370076Y-6486144D02*
G01*
X1370076Y-6534912D01*
X1483613Y-6534912D01*
X1665478Y-6716776D01*
X1665478Y-6936739D01*
X914400Y-6936739D01*
X914400Y-6732523D01*
X1210335Y-6796709D02*
G01*
X1270000Y-6737045D01*
X1270000Y-6486283D01*
X1320037Y-6486397D02*
G01*
X1320037Y-6561328D01*
X1356868Y-6598158D01*
X1356868Y-6598158D01*
X1410207Y-6651752D01*
X1410207Y-6796786D01*
X1219962Y-6486397D02*
G01*
X1219962Y-6527037D01*
X1056639Y-6690360D01*
D14*
X1410332Y-6796707D02*
G01*
X1415338Y-6801713D01*
X1585391Y-6801713D01*
D11*
X4541011Y-2947923D02*
G01*
X4299965Y-2947923D01*
X4299965Y-2940050D01*
X2875025Y-1789937D02*
G01*
X2875025Y-1880107D01*
X2960115Y-1964944D01*
X3000502Y-1964944D01*
D12*
X2622295Y-3107689D02*
G01*
X2775965Y-3255010D01*
X2944875Y-3255010D01*
X2944875Y-3327145D01*
D11*
X3389983Y-3399990D02*
G01*
X3370844Y-3380854D01*
X3370844Y-3330841D01*
X3310000Y-3269995D01*
X3299993Y-3269995D01*
X3164840Y-4934965D02*
G01*
X3245104Y-4934965D01*
X3279902Y-4970018D01*
X3579875Y-4970018D01*
X2457500Y-6847509D02*
G01*
X2389995Y-6847509D01*
X2389995Y-6924987D01*
X2454757Y-6989749D01*
X2454757Y-7081520D01*
X2602484Y-6847586D02*
G01*
X2664968Y-6847586D01*
X2664968Y-6914895D01*
X2594863Y-6985254D01*
X2594863Y-7081520D01*
D10*
X6390518Y-5024991D02*
G01*
X6400502Y-5034981D01*
X6615013Y-5034981D01*
X6629499Y-5049466D01*
X6629499Y-5364888D01*
D11*
X2474975Y-4934965D02*
G01*
X2409952Y-4934965D01*
X2370074Y-4975097D01*
X2370074Y-5043931D01*
X2318258Y-5095494D01*
X2544825Y-4314952D02*
G01*
X2544825Y-4255007D01*
X2378709Y-4255007D01*
X2378709Y-4202429D01*
X3044952Y-4314952D02*
G01*
X3044952Y-4210050D01*
X3225038Y-4029963D01*
X3459988Y-4029963D01*
X3914902Y-3575050D01*
X3914902Y-3325113D01*
X3994911Y-3245104D01*
X4080002Y-3245104D01*
X4247134Y-3077971D01*
X4541011Y-3077971D01*
X3094990Y-4314952D02*
G01*
X3094990Y-4249928D01*
X3243834Y-4101084D01*
X3560825Y-4101084D01*
D12*
X2644140Y-3595522D02*
G01*
X2723593Y-3674976D01*
X2985008Y-3674976D01*
X2985008Y-3612741D01*
X2994995Y-4009991D02*
G01*
X3100070Y-4009897D01*
X3150108Y-3960113D01*
X3329940Y-3960113D01*
X3789934Y-3500120D01*
X3789934Y-3370071D01*
X2994913Y-4315205D02*
G01*
X2994913Y-3955034D01*
X2979927Y-3940047D01*
X3025140Y-3612642D02*
G01*
X3025140Y-3704844D01*
X2979927Y-3750055D01*
X2979927Y-3940047D01*
D11*
X4050029Y-3370071D02*
G01*
X4115054Y-3370071D01*
X4342129Y-3142995D01*
X4541011Y-3142995D01*
D12*
X2985008Y-3327145D02*
G01*
X2985008Y-3184905D01*
X2895091Y-3184905D01*
X2895091Y-2944876D01*
X3314954Y-2944876D01*
X3615181Y-3245104D01*
X3994911Y-3245104D01*
D11*
X2175002Y-1489963D02*
G01*
X2014981Y-1489963D01*
X2014981Y-1679955D01*
X1899920Y-1679955D01*
X2175002Y-1640078D02*
G01*
X2074925Y-1640078D01*
X2074925Y-1839976D01*
X750062Y-1839976D01*
X465073Y-1554987D01*
X465073Y-1093215D01*
X310134Y-1093215D01*
X6134988Y-3390011D02*
G01*
X6349636Y-3390011D01*
X6439656Y-3299990D01*
X6134988Y-3516985D02*
G01*
X6412654Y-3516985D01*
X6464647Y-3464991D01*
D10*
X4652518Y-5275834D02*
G01*
X5808360Y-4119991D01*
X6539986Y-4119991D01*
X6670040Y-3989938D01*
X6670040Y-3914139D01*
X6670042Y-3914142D02*
G01*
X6814997Y-3769187D01*
X6814997Y-3615334D01*
X6814997Y-3615334D02*
G01*
X7184951Y-3615334D01*
X7184951Y-3569921D01*
D11*
X6590284Y-3299968D02*
G01*
X7184897Y-3299968D01*
X7184897Y-3315970D01*
X6615323Y-3464991D02*
G01*
X6615653Y-3464661D01*
X6814997Y-3464661D01*
X2374900Y-940054D02*
G01*
X2374900Y-784860D01*
X2310638Y-720597D01*
X2215134Y-720597D01*
X2324861Y-940054D02*
G01*
X2324861Y-834897D01*
X2116074Y-834897D01*
X2116074Y-819657D01*
D13*
X1051864Y-1423162D02*
G01*
X1352059Y-1423162D01*
X1432836Y-1503939D01*
X1208151Y-536829D02*
G01*
X1252915Y-536829D01*
X1557139Y-841052D01*
D16*
G01*
X6439663Y-3299993D03*
G01*
X6590313Y-3299993D03*
D17*
G01*
X6615311Y-3464994D03*
G01*
X6464661Y-3464994D03*
D18*
G01*
X6814987Y-3615317D03*
D19*
G01*
X6814997Y-3464661D03*
D20*
G01*
X5398490Y-1819986D03*
G01*
X5741492Y-1819986D03*
G01*
X5438495Y-2189987D03*
G01*
X5781497Y-2189987D03*
D21*
G01*
X2010443Y-429480D03*
G01*
X2109436Y-330487D03*
D22*
G01*
X1829528Y-590583D03*
G01*
X1730535Y-689576D03*
D23*
G01*
X6476745Y-1110386D03*
G01*
X6476745Y-970381D03*
D21*
G01*
X2116107Y-819624D03*
G01*
X2215100Y-720631D03*
D23*
G01*
X3342640Y-1029817D03*
G01*
X3342640Y-1169822D03*
D24*
G01*
X3000670Y-1964996D03*
G01*
X2879429Y-2034995D03*
G01*
X3121320Y-2129080D03*
G01*
X3000079Y-2199079D03*
D23*
G01*
X1899996Y-1680006D03*
G01*
X1899996Y-1540002D03*
G01*
X1724990Y-1680006D03*
G01*
X1724990Y-1540002D03*
D25*
G01*
X1532926Y-979018D03*
G01*
X1557237Y-841145D03*
D26*
G01*
X1457161Y-1366163D03*
G01*
X1432850Y-1504036D03*
D27*
G01*
X435025Y-780110D03*
G01*
X605002Y-780110D03*
D18*
G01*
X880110Y-2345322D03*
D19*
G01*
X880110Y-2194661D03*
D18*
G01*
X4890007Y-6885318D03*
D19*
G01*
X4890008Y-6734657D03*
D28*
G01*
X657352Y-2355037D03*
G01*
X657352Y-2405049D03*
G01*
X657352Y-2455037D03*
G01*
X657352Y-2505049D03*
G01*
X657352Y-2555036D03*
G01*
X657352Y-2605049D03*
G01*
X657352Y-2655011D03*
G01*
X657352Y-2705049D03*
G01*
X657326Y-2195042D03*
G01*
X657352Y-2225039D03*
G01*
X657326Y-2275052D03*
G01*
X657352Y-2305050D03*
G01*
X657326Y-2755036D03*
G01*
X657352Y-2785059D03*
G01*
X657352Y-2835046D03*
G01*
X657352Y-2865043D03*
D29*
G01*
X7099274Y-4959121D03*
G01*
X7099274Y-5564098D03*
D17*
G01*
X2757564Y-6454139D03*
G01*
X2606915Y-6454139D03*
D30*
G01*
X1790777Y-5034357D03*
G01*
X1897302Y-5140882D03*
D17*
G01*
X1635315Y-5154988D03*
G01*
X1484668Y-5154988D03*
D31*
G01*
X6724650Y-2555925D03*
G01*
X6724650Y-2754045D03*
D32*
G01*
X7245350Y-2314625D03*
G01*
X7245350Y-2995345D03*
D31*
G01*
X6714642Y-1550923D03*
G01*
X6714642Y-1749069D03*
D32*
G01*
X7235342Y-1309649D03*
G01*
X7235342Y-1990369D03*
D16*
G01*
X3004668Y-3049993D03*
G01*
X3155318Y-3049993D03*
D18*
G01*
X4409991Y-3604667D03*
D19*
G01*
X4409998Y-3755313D03*
D33*
G01*
X3654425Y-6733311D03*
G01*
X3654425Y-6946671D03*
G01*
X4045559Y-6946671D03*
G01*
X4045559Y-6733311D03*
D34*
G01*
X6195019Y-6154978D03*
G01*
X5995014Y-6154978D03*
D35*
G01*
X6629501Y-5364883D03*
D36*
G01*
X6629501Y-5564886D03*
D37*
G01*
X6200013Y-4444974D03*
G01*
X6708013Y-4444974D03*
D34*
G01*
X6195019Y-5879980D03*
G01*
X5995014Y-5879980D03*
D38*
G01*
X7105015Y-6014973D03*
G01*
X6665010Y-6014973D03*
D39*
G01*
X5114188Y-3337915D03*
G01*
X5114188Y-3272917D03*
G01*
X5114188Y-3207918D03*
G01*
X5114188Y-3142919D03*
G01*
X5114188Y-3077921D03*
G01*
X5114188Y-3012922D03*
G01*
X5114188Y-2947923D03*
G01*
X5114188Y-2882925D03*
G01*
X5114188Y-2817901D03*
G01*
X5114188Y-2752902D03*
G01*
X5114188Y-2687904D03*
G01*
X5114188Y-2622905D03*
G01*
X5114188Y-2557906D03*
G01*
X5114188Y-2492908D03*
G01*
X4541037Y-3337915D03*
G01*
X4541037Y-3272917D03*
G01*
X4541037Y-3207918D03*
G01*
X4541037Y-3142919D03*
G01*
X4541037Y-3077921D03*
G01*
X4541037Y-3012922D03*
G01*
X4541037Y-2947923D03*
G01*
X4541037Y-2882925D03*
G01*
X4541037Y-2817901D03*
G01*
X4541037Y-2752902D03*
G01*
X4541037Y-2687904D03*
G01*
X4541037Y-2622905D03*
G01*
X4541037Y-2557906D03*
G01*
X4541037Y-2492908D03*
D40*
G01*
X4827600Y-2915386D03*
D41*
G01*
X5089982Y-6714997D03*
G01*
X5089982Y-6885000D03*
D18*
G01*
X5634918Y-4869656D03*
D19*
G01*
X5634913Y-5020310D03*
D18*
G01*
X5800018Y-5020306D03*
D19*
G01*
X5800013Y-4869662D03*
D42*
G01*
X5112435Y-5553862D03*
G01*
X4882438Y-5553862D03*
G01*
X4652441Y-5553862D03*
D43*
G01*
X4882448Y-6147866D03*
D44*
G01*
X6390513Y-5024983D03*
G01*
X6263513Y-5024983D03*
G01*
X6136513Y-5024983D03*
G01*
X6009513Y-5024983D03*
G01*
X6009513Y-5564962D03*
G01*
X6136513Y-5564962D03*
G01*
X6263513Y-5564962D03*
G01*
X6390513Y-5564962D03*
D45*
G01*
X6200038Y-5294985D03*
D46*
G01*
X2602484Y-6652488D03*
G01*
X2602484Y-6717512D03*
G01*
X2602484Y-6782485D03*
G01*
X2602484Y-6847509D03*
G01*
X2457500Y-6652488D03*
G01*
X2457500Y-6717512D03*
G01*
X2457500Y-6782485D03*
G01*
X2457500Y-6847509D03*
D47*
G01*
X1421307Y-6284950D03*
G01*
X1421307Y-6334988D03*
G01*
X1421307Y-6384950D03*
G01*
X1421307Y-6434962D03*
D48*
G01*
X1370025Y-6486296D03*
G01*
X1320012Y-6486296D03*
G01*
X1270025Y-6486296D03*
G01*
X1220012Y-6486296D03*
D47*
G01*
X1168704Y-6434988D03*
G01*
X1168704Y-6385001D03*
G01*
X1168704Y-6334988D03*
G01*
X1168704Y-6284976D03*
D48*
G01*
X1219987Y-6233693D03*
G01*
X1270000Y-6233693D03*
G01*
X1319987Y-6233693D03*
G01*
X1369999Y-6233693D03*
D49*
G01*
X2175002Y-1090015D03*
G01*
X2175002Y-1140028D03*
G01*
X2175002Y-1190015D03*
G01*
X2175002Y-1240028D03*
G01*
X2175002Y-1290015D03*
G01*
X2175002Y-1340027D03*
G01*
X2175002Y-1390014D03*
G01*
X2175002Y-1440027D03*
G01*
X2175002Y-1490014D03*
G01*
X2175002Y-1540027D03*
G01*
X2175002Y-1590014D03*
G01*
X2175002Y-1640027D03*
D50*
G01*
X2324988Y-1790014D03*
G01*
X2375001Y-1790014D03*
G01*
X2424963Y-1790014D03*
G01*
X2474975Y-1790014D03*
G01*
X2524963Y-1790014D03*
G01*
X2574975Y-1790014D03*
G01*
X2624988Y-1790014D03*
G01*
X2674975Y-1790014D03*
G01*
X2724988Y-1790014D03*
G01*
X2775000Y-1790014D03*
G01*
X2824988Y-1790014D03*
G01*
X2875000Y-1790014D03*
D49*
G01*
X3024987Y-1640027D03*
G01*
X3024987Y-1590014D03*
G01*
X3024987Y-1540027D03*
G01*
X3024987Y-1490014D03*
G01*
X3024987Y-1440027D03*
G01*
X3024987Y-1390014D03*
G01*
X3024987Y-1340027D03*
G01*
X3024987Y-1290015D03*
G01*
X3024987Y-1240028D03*
G01*
X3024987Y-1190015D03*
G01*
X3024987Y-1140028D03*
G01*
X3024987Y-1090015D03*
D50*
G01*
X2875000Y-940028D03*
G01*
X2824988Y-940028D03*
G01*
X2775000Y-940028D03*
G01*
X2724988Y-940028D03*
G01*
X2674975Y-940028D03*
G01*
X2624988Y-940028D03*
G01*
X2574975Y-940028D03*
G01*
X2524963Y-940028D03*
G01*
X2474975Y-940028D03*
G01*
X2424963Y-940028D03*
G01*
X2375001Y-940028D03*
G01*
X2324988Y-940028D03*
D51*
G01*
X2544927Y-5004943D03*
G01*
X2594940Y-5004943D03*
G01*
X2645003Y-5004943D03*
G01*
X2695041Y-5004943D03*
G01*
X2745079Y-5004943D03*
G01*
X2795092Y-5004943D03*
G01*
X2844901Y-5004943D03*
G01*
X2894939Y-5004943D03*
G01*
X2944977Y-5004943D03*
G01*
X2994990Y-5004943D03*
G01*
X3045053Y-5004943D03*
G01*
X3095091Y-5004943D03*
D52*
G01*
X3164941Y-4935093D03*
G01*
X3164941Y-4885054D03*
G01*
X3164941Y-4835017D03*
G01*
X3164941Y-4784979D03*
G01*
X3164941Y-4734940D03*
G01*
X3164941Y-4684903D03*
G01*
X3164941Y-4635119D03*
G01*
X3164941Y-4585080D03*
G01*
X3164941Y-4535043D03*
G01*
X3164941Y-4485004D03*
G01*
X3164941Y-4434967D03*
G01*
X3164941Y-4384929D03*
D51*
G01*
X3095091Y-4315079D03*
G01*
X3045053Y-4315079D03*
G01*
X2994990Y-4315079D03*
G01*
X2944977Y-4315079D03*
G01*
X2894939Y-4315079D03*
G01*
X2844901Y-4315079D03*
G01*
X2795092Y-4315079D03*
G01*
X2745079Y-4315079D03*
G01*
X2695041Y-4315079D03*
G01*
X2645003Y-4315079D03*
G01*
X2594940Y-4315079D03*
G01*
X2544927Y-4315079D03*
D52*
G01*
X2475077Y-4384929D03*
G01*
X2475077Y-4434967D03*
G01*
X2475077Y-4485004D03*
G01*
X2475077Y-4535043D03*
G01*
X2475077Y-4585080D03*
G01*
X2475077Y-4635119D03*
G01*
X2475077Y-4684903D03*
G01*
X2475077Y-4734940D03*
G01*
X2475077Y-4784979D03*
G01*
X2475077Y-4835017D03*
G01*
X2475077Y-4885054D03*
G01*
X2475077Y-4935093D03*
D53*
G01*
X2820009Y-4659985D03*
D54*
G01*
X2902254Y-3410000D03*
G01*
X2902254Y-3450005D03*
G01*
X2902254Y-3489985D03*
G01*
X2902254Y-3529990D03*
D55*
G01*
X2985008Y-3612743D03*
G01*
X3025013Y-3612743D03*
G01*
X3064992Y-3612743D03*
G01*
X3104997Y-3612743D03*
D54*
G01*
X3187750Y-3529990D03*
G01*
X3187750Y-3489985D03*
G01*
X3187750Y-3450005D03*
G01*
X3187750Y-3410000D03*
D56*
G01*
X3187717Y-3369993D03*
D55*
G01*
X3104997Y-3327247D03*
G01*
X3064992Y-3327247D03*
G01*
X3025013Y-3327247D03*
G01*
X2985008Y-3327247D03*
D57*
G01*
X3045002Y-3469995D03*
D58*
G01*
X2944991Y-3327270D03*
D59*
G01*
X2944986Y-3612722D03*
D60*
G01*
X3144986Y-3612711D03*
D61*
G01*
X3187710Y-3569997D03*
D62*
G01*
X2902264Y-3370007D03*
D63*
G01*
X2902268Y-3569997D03*
D64*
G01*
X3144994Y-3327270D03*
D33*
G01*
X7177328Y-1056919D03*
G01*
X7177328Y-843559D03*
G01*
X6786168Y-843559D03*
G01*
X6786168Y-1056919D03*
D65*
G01*
X1839468Y-5555488D03*
G01*
X2016252Y-5732272D03*
D66*
G01*
X1808388Y-271606D03*
G01*
X1631604Y-448392D03*
D67*
G01*
X3473297Y-4483100D03*
G01*
X3613302Y-4483100D03*
D68*
G01*
X2419316Y-5573996D03*
G01*
X2320323Y-5475003D03*
D69*
G01*
X2048543Y-5226083D03*
G01*
X2147536Y-5325076D03*
D26*
G01*
X1732151Y-1066062D03*
G01*
X1707841Y-1203935D03*
D70*
G01*
X1208139Y-536835D03*
D71*
G01*
X1051855Y-1423160D03*
D72*
G01*
X2364993Y-5989980D03*
G01*
X3264992Y-5989980D03*
D67*
G01*
X2594990Y-5619978D03*
G01*
X2734995Y-5619978D03*
G01*
X3215004Y-5619978D03*
G01*
X3075000Y-5619978D03*
D18*
G01*
X4650107Y-3755383D03*
D19*
G01*
X4650104Y-3604742D03*
D18*
G01*
X4840099Y-3755383D03*
D19*
G01*
X4840097Y-3604742D03*
D18*
G01*
X5034917Y-3755383D03*
D19*
G01*
X5034915Y-3604742D03*
D23*
G01*
X3450005Y-6909993D03*
G01*
X3450005Y-6769988D03*
D18*
G01*
X4219991Y-6735311D03*
D19*
G01*
X4219981Y-6584670D03*
D17*
G01*
X3566204Y-4661174D03*
G01*
X3415554Y-4661174D03*
D67*
G01*
X2454757Y-7081520D03*
G01*
X2594762Y-7081520D03*
D34*
G01*
X1410332Y-6796712D03*
G01*
X1210327Y-6796712D03*
D67*
G01*
X3229990Y-3769995D03*
G01*
X3089986Y-3769995D03*
D35*
G01*
X4322450Y-5540862D03*
D36*
G01*
X4322445Y-5740857D03*
D23*
G01*
X4277588Y-2455392D03*
G01*
X4277588Y-2315387D03*
D73*
G01*
X2378743Y-4202396D03*
G01*
X2477736Y-4103403D03*
D23*
G01*
X2875279Y-6816242D03*
G01*
X2875279Y-6676237D03*
G01*
X914400Y-6732422D03*
G01*
X914400Y-6592417D03*
G01*
X2644140Y-3595522D03*
G01*
X2644140Y-3455517D03*
D35*
G01*
X5374441Y-5750336D03*
D36*
G01*
X5374436Y-5950330D03*
D23*
G01*
X6024981Y-2554986D03*
G01*
X6024981Y-2694990D03*
D74*
G01*
X2268665Y-4105005D03*
G01*
X2369374Y-4007754D03*
D23*
G01*
X881379Y-6140297D03*
G01*
X881379Y-6280302D03*
G01*
X3389985Y-3399993D03*
G01*
X3389985Y-3539997D03*
D75*
G01*
X2318294Y-5095523D03*
G01*
X2228305Y-4988276D03*
D23*
G01*
X5639866Y-3119881D03*
G01*
X5639866Y-3259886D03*
D69*
G01*
X3343943Y-4215163D03*
G01*
X3442936Y-4314156D03*
D67*
G01*
X5585104Y-2600096D03*
G01*
X5725109Y-2600096D03*
G01*
X3330829Y-5341340D03*
G01*
X3190824Y-5341340D03*
D76*
G01*
X6749986Y-6869991D03*
D77*
G01*
X6749973Y-6669989D03*
D18*
G01*
X6234988Y-2554669D03*
D19*
G01*
X6234988Y-2705328D03*
D78*
G01*
X6969980Y-6439987D03*
G01*
X7169990Y-6439987D03*
D16*
G01*
X6074662Y-1749996D03*
G01*
X6225312Y-1749996D03*
D18*
G01*
X879998Y-2714668D03*
D19*
G01*
X880008Y-2865323D03*
D23*
G01*
X2048205Y-2620873D03*
G01*
X2048205Y-2480868D03*
D67*
G01*
X1478203Y-2470861D03*
G01*
X1338198Y-2470861D03*
D79*
G01*
X1748205Y-2672461D03*
G01*
X1659305Y-2469261D03*
G01*
X1837105Y-2469261D03*
D17*
G01*
X585323Y-609998D03*
G01*
X434674Y-609998D03*
D18*
G01*
X7386861Y-864911D03*
D19*
G01*
X7386853Y-1015568D03*
D80*
G01*
X1178974Y-4393260D03*
G01*
X1028105Y-4242391D03*
G01*
X751512Y-4518985D03*
G01*
X902380Y-4669853D03*
D67*
G01*
X3085769Y-5226329D03*
G01*
X2945765Y-5226329D03*
D81*
G01*
X5989954Y-6720078D03*
G01*
X6239967Y-6720078D03*
D82*
G01*
X162534Y-2962554D03*
D83*
G01*
X580517Y-2962554D03*
G01*
X580517Y-2097531D03*
D82*
G01*
X162534Y-2097531D03*
D84*
G01*
X310006Y-4229988D03*
D85*
G01*
X310006Y-4429988D03*
G01*
X310006Y-4629988D03*
G01*
X310006Y-4829987D03*
G01*
X305003Y-5579998D03*
G01*
X304977Y-5780023D03*
G01*
X304977Y-5980023D03*
G01*
X304977Y-6180023D03*
D86*
G01*
X6134988Y-3263011D03*
G01*
X6134988Y-3390011D03*
D87*
G01*
X6134988Y-3516985D03*
D81*
G01*
X7184948Y-3315919D03*
G01*
X7184948Y-3569919D03*
D57*
G01*
X7184974Y-3823919D03*
D85*
G01*
X4369993Y-4369993D03*
G01*
X4569993Y-4369968D03*
G01*
X4769993Y-4369968D03*
G01*
X4969992Y-4369968D03*
D81*
G01*
X3850970Y-2376652D03*
G01*
X3850970Y-2864662D03*
D57*
G01*
X2896997Y-259994D03*
D81*
G01*
X2642997Y-260019D03*
G01*
X5308295Y-260070D03*
G01*
X5054295Y-260070D03*
D85*
G01*
X6489979Y-259994D03*
G01*
X6290005Y-259994D03*
G01*
X6090005Y-259994D03*
G01*
X5890006Y-259994D03*
D81*
G01*
X310083Y-1093317D03*
G01*
X310083Y-1347317D03*
D57*
G01*
X4032072Y-260070D03*
D81*
G01*
X4286072Y-260070D03*
G01*
X4540072Y-260070D03*
D57*
G01*
X310006Y-3804005D03*
D81*
G01*
X310006Y-3550005D03*
G01*
X310006Y-3296005D03*
G01*
X1876983Y-2189987D03*
G01*
X1622983Y-2189987D03*
G01*
X7186802Y-4156049D03*
D88*
G01*
X5579973Y-2974975D03*
G01*
X5579973Y-2749981D03*
G01*
X5630011Y-4629988D03*
G01*
X6022340Y-4262120D03*
G01*
X3789984Y-3369995D03*
G01*
X4050004Y-3369995D03*
G01*
X3880002Y-3750005D03*
G01*
X3640912Y-3515893D03*
G01*
X4299991Y-2939999D03*
G01*
X4239996Y-3545001D03*
G01*
X1469999Y-5999987D03*
G01*
X1669999Y-5999987D03*
G01*
X3815003Y-6449999D03*
G01*
X3599992Y-6449999D03*
G01*
X2229993Y-6299987D03*
G01*
X1910003Y-6619976D03*
G01*
X1240002Y-5459984D03*
G01*
X1499996Y-5350002D03*
G01*
X4050004Y-5069992D03*
G01*
X3819982Y-4380001D03*
G01*
X3450005Y-3669995D03*
G01*
X3299993Y-3059988D03*
G01*
X2207259Y-3759200D03*
G01*
X2799994Y-3780002D03*
G01*
X1900478Y-4886223D03*
G01*
X2045512Y-5026279D03*
G01*
X5579999Y-2429992D03*
G01*
X5050002Y-2180005D03*
G01*
X1259992Y-3789984D03*
G01*
X1270000Y-3459987D03*
G01*
X2629992Y-4129989D03*
G01*
X2029993Y-3859987D03*
G01*
X1529994Y-3359988D03*
G01*
X1210005Y-3350005D03*
G01*
X3580002Y-4969992D03*
G01*
X4269993Y-5179999D03*
G01*
X5619978Y-4069994D03*
G01*
X5934989Y-3804996D03*
G01*
X3589985Y-5369991D03*
G01*
X3910990Y-6061532D03*
G01*
X4171061Y-6061532D03*
G01*
X4459986Y-6459981D03*
G01*
X4499990Y-6739991D03*
G01*
X1497584Y-1159255D03*
G01*
X1915007Y-505002D03*
G01*
X2210003Y-1889988D03*
G01*
X2210003Y-2099995D03*
G01*
X2789986Y-2180005D03*
G01*
X2899994Y-3899992D03*
G01*
X3069996Y-3899992D03*
G01*
X780008Y-2969996D03*
G01*
X870000Y-2969996D03*
G01*
X780008Y-2089988D03*
G01*
X880008Y-2089988D03*
G01*
X6489979Y-5959982D03*
G01*
X6489979Y-6069990D03*
G01*
X5929985Y-4450003D03*
G01*
X5929985Y-4569993D03*
G01*
X5809995Y-4739995D03*
G01*
X6200013Y-5294985D03*
G01*
X1810004Y-3150006D03*
G01*
X1840001Y-2850006D03*
G01*
X1380007Y-1719986D03*
G01*
X689990Y-929995D03*
G01*
X3210001Y-70002D03*
G01*
X3559987Y-770001D03*
G01*
X3505200Y-1071879D03*
G01*
X3639997Y-940003D03*
G01*
X3299993Y-1710004D03*
G01*
X1359992Y-2059990D03*
G01*
X2140000Y-2359990D03*
G01*
X695960Y-393700D03*
G01*
X6006515Y-1135278D03*
G01*
X2910001Y-5624982D03*
G01*
X3080004Y-1750009D03*
G01*
X4515002Y-1885010D03*
G01*
X2555646Y-765200D03*
G01*
X2655671Y-1995500D03*
G01*
X2465628Y-6456629D03*
G01*
X2326640Y-6972300D03*
G01*
X6241567Y-2815717D03*
G01*
X6366611Y-2815717D03*
G01*
X1315338Y-4246067D03*
G01*
X735177Y-4851222D03*
G01*
X640156Y-4701184D03*
G01*
X1765452Y-4766208D03*
G01*
X1360347Y-4361103D03*
G01*
X5266334Y-5481370D03*
G01*
X5381345Y-5486374D03*
G01*
X5381345Y-5601411D03*
G01*
X4401108Y-5931484D03*
G01*
X5286324Y-6714997D03*
G01*
X3850208Y-7091679D03*
G01*
X1056639Y-6690360D03*
G01*
X736600Y-6408420D03*
G01*
X1585391Y-6801713D03*
G01*
X3037840Y-6741160D03*
G01*
X2123440Y-4909820D03*
G01*
X2105659Y-5529579D03*
G01*
X2334259Y-3807460D03*
G01*
X2623820Y-3307079D03*
G01*
X3285820Y-3655923D03*
G01*
X3299993Y-3269995D03*
G01*
X7361859Y-6436613D03*
G01*
X3310000Y-4764989D03*
G01*
X3660927Y-4756200D03*
G01*
X3639820Y-4307839D03*
G01*
X2969996Y-5364987D03*
G01*
X5501386Y-3340836D03*
G01*
X5796457Y-2455621D03*
G01*
X5396356Y-3045764D03*
G01*
X4126052Y-2455621D03*
G01*
X1219200Y-2288539D03*
G01*
X1599996Y-1550009D03*
G01*
X2320594Y-615162D03*
G01*
X6536639Y-1910486D03*
G01*
X3585895Y-6196558D03*
G01*
X4051020Y-3825976D03*
G01*
X6291579Y-1100277D03*
G01*
X2810002Y-4659985D03*
G01*
X2969996Y-4489983D03*
G01*
X2650007Y-4489983D03*
G01*
X2650007Y-4809997D03*
G01*
X2969996Y-4809997D03*
G01*
X1854987Y-6399987D03*
G01*
X5819978Y-5889980D03*
G01*
X5819978Y-6019977D03*
G01*
X5819978Y-6159982D03*
D89*
G01*
X4829990Y-2709994D03*
G01*
X4829990Y-2909994D03*
G01*
X4829990Y-3109993D03*
M02*
