G04 Layer: TopSolderMaskLayer*
G04 EasyEDA v6.5.40, 2024-05-01 14:29:32*
G04 7703e67730494ffebf129c6139567d94,10*
G04 Gerber Generator version 0.2*
G04 Scale: 100 percent, Rotated: No, Reflected: No *
G04 Dimensions in millimeters *
G04 leading zeros omitted , absolute positions ,4 integer and 5 decimal *
%FSLAX45Y45*%
%MOMM*%

%AMMACRO1*1,1,$1,$2,$3*1,1,$1,$4,$5*1,1,$1,0-$2,0-$3*1,1,$1,0-$4,0-$5*20,1,$1,$2,$3,$4,$5,0*20,1,$1,$4,$5,0-$2,0-$3,0*20,1,$1,0-$2,0-$3,0-$4,0-$5,0*20,1,$1,0-$4,0-$5,$2,$3,0*4,1,4,$2,$3,$4,$5,0-$2,0-$3,0-$4,0-$5,$2,$3,0*%
%AMMACRO2*4,1,5,-0.3028,-0.1509,-0.3035,0.0208,-0.174,0.1509,0.3035,0.1509,0.3035,-0.1509,-0.3028,-0.1509,0*%
%AMMACRO3*4,1,5,-0.0212,-0.3035,-0.1507,-0.1737,-0.1507,0.3035,0.1507,0.3035,0.1507,-0.3028,-0.0212,-0.3035,0*%
%AMMACRO4*4,1,5,-0.1507,-0.3035,-0.1507,0.1737,-0.0212,0.3035,0.1507,0.3028,0.1507,-0.3035,-0.1507,-0.3035,0*%
%AMMACRO5*4,1,5,-0.1507,-0.3035,-0.1507,0.3028,0.0207,0.3035,0.1507,0.174,0.1507,-0.3035,-0.1507,-0.3035,0*%
%AMMACRO6*4,1,5,-0.1739,-0.1509,-0.3037,-0.0208,-0.3029,0.1509,0.3037,0.1509,0.3037,-0.1509,-0.1739,-0.1509,0*%
%AMMACRO7*4,1,5,-0.3038,-0.1507,-0.3038,0.1507,0.1737,0.1507,0.3038,0.0207,0.3023,-0.1507,-0.3038,-0.1507,0*%
%AMMACRO8*4,1,5,-0.3035,-0.1509,-0.3035,0.1509,0.3028,0.1509,0.3035,-0.0208,0.1737,-0.1509,-0.3035,-0.1509,0*%
%AMMACRO9*4,1,5,0.0212,-0.3035,-0.1507,-0.3028,-0.1507,0.3035,0.1507,0.3035,0.1507,-0.1737,0.0212,-0.3035,0*%
%AMMACRO10*4,1,4,-0.2827,-1.0617,-1.0617,-0.2827,0.2827,1.0617,1.0617,0.2827,-0.2827,-1.0617,0*%
%AMMACRO11*4,1,4,0.2828,-1.0617,-1.0618,0.2827,-0.2828,1.0617,1.0618,-0.283,0.2828,-1.0617,0*%
%AMMACRO12*4,1,4,0.2828,-1.0618,-1.0618,0.2828,-0.2828,1.0618,1.0618,-0.2828,0.2828,-1.0618,0*%
%ADD10MACRO1,0.1016X0.4032X0.432X0.4032X-0.432*%
%ADD11MACRO1,0.1016X-0.4032X0.432X-0.4032X-0.432*%
%ADD12MACRO1,0.1016X-0.4032X-0.432X-0.4032X0.432*%
%ADD13MACRO1,0.1016X0.4032X-0.432X0.4032X0.432*%
%ADD14MACRO1,0.1016X-0.432X0.4032X0.432X0.4032*%
%ADD15MACRO1,0.1016X-0.432X-0.4032X0.432X-0.4032*%
%ADD16MACRO1,0.1016X-0.95X1.145X0.95X1.145*%
%ADD17MACRO1,0.1016X0.601X-0.0354X0.0354X-0.601*%
%ADD18MACRO1,0.1016X-0.601X0.0354X-0.0354X0.601*%
%ADD19MACRO1,0.1016X0.45X0.4X0.45X-0.4*%
%ADD20R,1.0016X0.9016*%
%ADD21MACRO1,0.1016X-0.5714X0.1897X0.1214X0.5897*%
%ADD22MACRO1,0.1016X0.5126X0.3158X0.3737X-0.4721*%
%ADD23MACRO1,0.1016X-0.5126X-0.3158X-0.3737X0.4721*%
%ADD24R,1.0015X1.1016*%
%ADD25C,1.8000*%
%ADD26MACRO1,0.1016X0.65X0.15X0.65X-0.15*%
%ADD27O,1.9015964X1.3015976000000002*%
%ADD28O,2.1015960000000002X1.3015976000000002*%
%ADD29MACRO1,0.1016X1.75X1.175X1.75X-1.175*%
%ADD30MACRO1,0.1016X0.5906X0.0203X-0.0203X-0.5906*%
%ADD31MACRO1,0.1016X0.0203X0.5906X-0.5906X-0.0203*%
%ADD32MACRO1,0.1016X-0.4033X-0.432X-0.4033X0.432*%
%ADD33MACRO1,0.1016X0.4033X-0.432X0.4033X0.432*%
%ADD34MACRO1,0.1016X2.3X0.5004X2.3X-0.5004*%
%ADD35MACRO1,0.1016X-1.7005X0.8001X1.7005X0.8001*%
%ADD36R,0.9656X0.9081*%
%ADD37MACRO1,0.1016X-0.6502X0.5753X0.6502X0.5753*%
%ADD38MACRO1,0.1016X-0.705X-0.675X-0.705X0.675*%
%ADD39MACRO1,0.1016X0.705X-0.675X0.705X0.675*%
%ADD40R,1.4516X1.5116*%
%ADD41MACRO1,0.2032X-1.4X0.4X1.4X0.4*%
%ADD42MACRO1,0.1016X-1X1X1X1*%
%ADD43MACRO1,0.1X0.7X0.7X0.7X-0.7*%
%ADD44C,1.5000*%
%ADD45O,1.8330926000000003X0.4446016*%
%ADD46MACRO1,0.1X1.45X3.35X1.45X-3.35*%
%ADD47MACRO1,0.1016X-0.5X0.45X0.5X0.45*%
%ADD48O,1.7015968X1.0015981999999999*%
%ADD49R,1.7016X1.0016*%
%ADD50C,1.8016*%
%ADD51R,1.8016X1.8016*%
%ADD52R,1.2016X2.6016*%
%ADD53R,3.7016X2.4416*%
%ADD54MACRO1,0.1016X0.3X0.65X0.3X-0.65*%
%ADD55MACRO1,0.1016X1.75X1.25X1.75X-1.25*%
%ADD56MACRO1,0.1016X0.85X-0.85X-0.85X-0.85*%
%ADD57MACRO1,0.1016X0.3X-0.2X-0.3X-0.2*%
%ADD58MACRO1,0.1016X0.225X0.125X0.225X-0.125*%
%ADD59MACRO1,0.1016X-0.125X0.225X0.125X0.225*%
%ADD60O,1.6000222X0.3700272*%
%ADD61O,0.3700272X1.6000222*%
%ADD62O,0.38160960000000005X1.0015981999999999*%
%ADD63O,1.0015981999999999X0.38160960000000005*%
%ADD64MACRO1,0.1016X-2.7501X2.7501X2.7501X2.7501*%
%ADD65MACRO1,0.1016X0.2525X0.1X0.2525X-0.1*%
%ADD66MACRO1,0.1016X0.1X0.2525X0.1X-0.2525*%
%ADD67MACRO2*%
%ADD68MACRO1,0.1016X0.85X0.85X0.85X-0.85*%
%ADD69MACRO3*%
%ADD70MACRO4*%
%ADD71MACRO5*%
%ADD72MACRO6*%
%ADD73MACRO7*%
%ADD74MACRO8*%
%ADD75MACRO9*%
%ADD76MACRO1,0.1016X0.6502X-0.5753X-0.6502X-0.5753*%
%ADD77MACRO10*%
%ADD78MACRO11*%
%ADD79MACRO12*%
%ADD80MACRO1,0.1016X0.4X-0.45X-0.4X-0.45*%
%ADD81MACRO1,0.1016X0.0354X0.601X0.601X0.0354*%
%ADD82MACRO1,0.1016X-0.0354X-0.601X-0.601X-0.0354*%
%ADD83MACRO1,0.1X1.5058X2.7808X0.4639X-3.1281*%
%ADD84MACRO1,0.1X1.5058X2.7808X0.4638X-3.1281*%
%ADD85MACRO1,0.1X-3X1X3X1*%
%ADD86MACRO1,0.1016X-0.4X0.45X0.4X0.45*%
%ADD87MACRO1,0.1016X0.601X-0.0354X0.0354X-0.6011*%
%ADD88MACRO1,0.1016X0.6003X-0.0459X0.0249X-0.6016*%
%ADD89MACRO1,0.1016X0.6003X-0.0458X0.0249X-0.6016*%
%ADD90MACRO1,0.1016X0.0876X0.5957X0.6018X-0.0172*%
%ADD91MACRO1,0.1016X-0.6885X0.5663X0.6885X0.5663*%
%ADD92MACRO1,0.1016X-0.6885X-0.5663X0.6885X-0.5663*%
%ADD93MACRO1,0.1016X0.5663X0.6885X0.5663X-0.6885*%
%ADD94MACRO1,0.1016X-0.5663X0.6885X-0.5663X-0.6885*%
%ADD95MACRO1,0.1016X0.432X0.4033X-0.432X0.4033*%
%ADD96MACRO1,0.1016X0.508X-0.5715X-0.508X-0.5715*%
%ADD97MACRO1,0.1016X-0.508X0.5715X0.508X0.5715*%
%ADD98MACRO1,0.1016X0.8666X0.053X-0.053X-0.8666*%
%ADD99C,0.0125*%

%LPD*%
D10*
G01*
X6439663Y-3299993D03*
D11*
G01*
X6590313Y-3299993D03*
D12*
G01*
X6615311Y-3464994D03*
D13*
G01*
X6464661Y-3464994D03*
D14*
G01*
X6814987Y-3615317D03*
D15*
G01*
X6814987Y-3464667D03*
D16*
G01*
X5398489Y-1819996D03*
G01*
X5741490Y-1819996D03*
G01*
X5438489Y-2189995D03*
G01*
X5781490Y-2189995D03*
D17*
G01*
X2010443Y-429480D03*
G01*
X2109436Y-330487D03*
D18*
G01*
X1829528Y-590583D03*
G01*
X1730535Y-689576D03*
D19*
G01*
X6476746Y-1110383D03*
G01*
X6476746Y-970384D03*
D17*
G01*
X2116107Y-819624D03*
G01*
X2215100Y-720631D03*
D20*
G01*
X3342640Y-1029817D03*
G01*
X3342640Y-1169822D03*
D21*
G01*
X3000670Y-1964996D03*
G01*
X2879429Y-2034995D03*
G01*
X3121320Y-2129080D03*
G01*
X3000079Y-2199079D03*
D19*
G01*
X1899996Y-1679996D03*
G01*
X1899996Y-1539996D03*
G01*
X1724997Y-1679996D03*
G01*
X1724997Y-1539996D03*
D22*
G01*
X1532926Y-979018D03*
G01*
X1557237Y-841145D03*
D23*
G01*
X1457161Y-1366163D03*
G01*
X1432850Y-1504036D03*
D24*
G01*
X435025Y-780110D03*
G01*
X605002Y-780110D03*
D25*
G01*
X5989954Y-6720078D03*
G01*
X6239967Y-6720078D03*
D14*
G01*
X880110Y-2345322D03*
D15*
G01*
X880110Y-2194673D03*
D14*
G01*
X4890007Y-6885318D03*
D15*
G01*
X4890007Y-6734669D03*
D26*
G01*
X657349Y-2355030D03*
G01*
X657349Y-2405043D03*
G01*
X657352Y-2455030D03*
G01*
X657349Y-2505043D03*
G01*
X657352Y-2555030D03*
G01*
X657349Y-2605043D03*
G01*
X657349Y-2655004D03*
G01*
X657349Y-2705042D03*
G01*
X657336Y-2195041D03*
G01*
X657352Y-2225038D03*
G01*
X657336Y-2275042D03*
G01*
X657339Y-2305037D03*
G01*
X657336Y-2755033D03*
G01*
X657339Y-2785046D03*
G01*
X657354Y-2835036D03*
G01*
X657354Y-2865036D03*
D27*
G01*
X162534Y-2962554D03*
D28*
G01*
X580517Y-2962554D03*
G01*
X580517Y-2097531D03*
D27*
G01*
X162534Y-2097531D03*
D29*
G01*
X7099286Y-4959108D03*
G01*
X7099286Y-5564107D03*
D12*
G01*
X2757564Y-6454139D03*
D13*
G01*
X2606915Y-6454139D03*
D30*
G01*
X1790777Y-5034357D03*
D31*
G01*
X1897302Y-5140882D03*
D32*
G01*
X1635315Y-5154988D03*
D33*
G01*
X1484668Y-5154988D03*
D34*
G01*
X6724637Y-2555935D03*
G01*
X6724637Y-2754055D03*
D35*
G01*
X7245337Y-2314635D03*
G01*
X7245337Y-2995355D03*
D34*
G01*
X6714637Y-1550936D03*
G01*
X6714637Y-1749056D03*
D35*
G01*
X7235337Y-1309636D03*
G01*
X7235337Y-1990356D03*
D10*
G01*
X3004668Y-3049993D03*
D11*
G01*
X3155318Y-3049993D03*
D36*
G01*
X4409998Y-3604666D03*
G01*
X4409998Y-3755313D03*
D37*
G01*
X3654412Y-6733306D03*
G01*
X3654412Y-6946666D03*
G01*
X4045572Y-6946666D03*
G01*
X4045572Y-6733306D03*
D38*
G01*
X6195019Y-6154978D03*
D39*
G01*
X5995014Y-6154978D03*
D40*
G01*
X6629501Y-5364886D03*
G01*
X6629501Y-5564886D03*
D41*
G01*
X6200018Y-4444982D03*
G01*
X6708018Y-4444982D03*
D38*
G01*
X6195019Y-5879980D03*
D39*
G01*
X5995014Y-5879980D03*
D42*
G01*
X7105014Y-6014979D03*
G01*
X6665015Y-6014979D03*
D43*
G01*
X310006Y-4229989D03*
D44*
G01*
X310006Y-4429988D03*
G01*
X310006Y-4629988D03*
G01*
X310006Y-4829987D03*
G01*
X305003Y-5579998D03*
G01*
X304977Y-5780023D03*
G01*
X304977Y-5980023D03*
G01*
X304977Y-6180023D03*
D45*
G01*
X5114188Y-3337915D03*
G01*
X5114188Y-3272917D03*
G01*
X5114188Y-3207918D03*
G01*
X5114188Y-3142919D03*
G01*
X5114188Y-3077921D03*
G01*
X5114188Y-3012922D03*
G01*
X5114188Y-2947923D03*
G01*
X5114188Y-2882925D03*
G01*
X5114188Y-2817901D03*
G01*
X5114188Y-2752902D03*
G01*
X5114188Y-2687904D03*
G01*
X5114188Y-2622905D03*
G01*
X5114188Y-2557906D03*
G01*
X5114188Y-2492908D03*
G01*
X4541037Y-3337915D03*
G01*
X4541037Y-3272917D03*
G01*
X4541037Y-3207918D03*
G01*
X4541037Y-3142919D03*
G01*
X4541037Y-3077921D03*
G01*
X4541037Y-3012922D03*
G01*
X4541037Y-2947923D03*
G01*
X4541037Y-2882925D03*
G01*
X4541037Y-2817901D03*
G01*
X4541037Y-2752902D03*
G01*
X4541037Y-2687904D03*
G01*
X4541037Y-2622905D03*
G01*
X4541037Y-2557906D03*
G01*
X4541037Y-2492908D03*
D46*
G01*
X4827610Y-2915386D03*
D47*
G01*
X5089989Y-6714995D03*
G01*
X5089989Y-6884995D03*
D48*
G01*
X6134988Y-3263011D03*
G01*
X6134988Y-3390011D03*
D49*
G01*
X6134988Y-3516985D03*
D36*
G01*
X5634913Y-4869662D03*
G01*
X5634913Y-5020310D03*
D14*
G01*
X5800018Y-5020306D03*
D15*
G01*
X5800018Y-4869656D03*
D50*
G01*
X7184948Y-3315919D03*
G01*
X7184948Y-3569919D03*
D51*
G01*
X7184974Y-3823919D03*
D52*
G01*
X5112435Y-5553862D03*
G01*
X4882438Y-5553862D03*
G01*
X4652441Y-5553862D03*
D53*
G01*
X4882438Y-6147866D03*
D44*
G01*
X4369993Y-4369993D03*
G01*
X4569993Y-4369968D03*
G01*
X4769993Y-4369968D03*
G01*
X4969992Y-4369968D03*
D54*
G01*
X6390518Y-5024992D03*
G01*
X6263518Y-5024992D03*
G01*
X6136518Y-5024992D03*
G01*
X6009518Y-5024992D03*
G01*
X6009518Y-5564971D03*
G01*
X6136518Y-5564971D03*
G01*
X6263518Y-5564971D03*
G01*
X6390518Y-5564971D03*
D55*
G01*
X6200030Y-5294980D03*
D50*
G01*
X3850970Y-2376652D03*
G01*
X3850970Y-2864662D03*
D56*
G01*
X2896998Y-259995D03*
D50*
G01*
X2642997Y-260019D03*
G01*
X5308295Y-260070D03*
G01*
X5054295Y-260070D03*
D44*
G01*
X6489979Y-259994D03*
G01*
X6290005Y-259994D03*
G01*
X6090005Y-259994D03*
G01*
X5890006Y-259994D03*
D50*
G01*
X310083Y-1093317D03*
G01*
X310083Y-1347317D03*
D57*
G01*
X2602486Y-6652475D03*
G01*
X2602486Y-6717499D03*
G01*
X2602486Y-6782473D03*
G01*
X2602486Y-6847497D03*
G01*
X2457503Y-6652475D03*
G01*
X2457503Y-6717499D03*
G01*
X2457503Y-6782473D03*
G01*
X2457503Y-6847497D03*
D58*
G01*
X1421300Y-6284962D03*
G01*
X1421300Y-6334975D03*
G01*
X1421300Y-6384961D03*
G01*
X1421300Y-6434974D03*
D59*
G01*
X1370016Y-6486283D03*
G01*
X1320003Y-6486283D03*
G01*
X1270016Y-6486283D03*
G01*
X1220003Y-6486283D03*
D58*
G01*
X1168697Y-6434999D03*
G01*
X1168697Y-6384988D03*
G01*
X1168697Y-6335000D03*
G01*
X1168697Y-6284987D03*
D59*
G01*
X1219978Y-6233680D03*
G01*
X1269991Y-6233680D03*
G01*
X1319978Y-6233680D03*
G01*
X1369990Y-6233680D03*
D60*
G01*
X2175002Y-1090015D03*
G01*
X2175002Y-1140028D03*
G01*
X2175002Y-1190015D03*
G01*
X2175002Y-1240028D03*
G01*
X2175002Y-1290015D03*
G01*
X2175002Y-1340027D03*
G01*
X2175002Y-1390014D03*
G01*
X2175002Y-1440027D03*
G01*
X2175002Y-1490014D03*
G01*
X2175002Y-1540027D03*
G01*
X2175002Y-1590014D03*
G01*
X2175002Y-1640027D03*
D61*
G01*
X2324988Y-1790014D03*
G01*
X2375001Y-1790014D03*
G01*
X2424963Y-1790014D03*
G01*
X2474975Y-1790014D03*
G01*
X2524963Y-1790014D03*
G01*
X2574975Y-1790014D03*
G01*
X2624988Y-1790014D03*
G01*
X2674975Y-1790014D03*
G01*
X2724988Y-1790014D03*
G01*
X2775000Y-1790014D03*
G01*
X2824988Y-1790014D03*
G01*
X2875000Y-1790014D03*
D60*
G01*
X3024987Y-1640027D03*
G01*
X3024987Y-1590014D03*
G01*
X3024987Y-1540027D03*
G01*
X3024987Y-1490014D03*
G01*
X3024987Y-1440027D03*
G01*
X3024987Y-1390014D03*
G01*
X3024987Y-1340027D03*
G01*
X3024987Y-1290015D03*
G01*
X3024987Y-1240028D03*
G01*
X3024987Y-1190015D03*
G01*
X3024987Y-1140028D03*
G01*
X3024987Y-1090015D03*
D61*
G01*
X2875000Y-940028D03*
G01*
X2824988Y-940028D03*
G01*
X2775000Y-940028D03*
G01*
X2724988Y-940028D03*
G01*
X2674975Y-940028D03*
G01*
X2624988Y-940028D03*
G01*
X2574975Y-940028D03*
G01*
X2524963Y-940028D03*
G01*
X2474975Y-940028D03*
G01*
X2424963Y-940028D03*
G01*
X2375001Y-940028D03*
G01*
X2324988Y-940028D03*
D62*
G01*
X2544927Y-5004943D03*
G01*
X2594940Y-5004943D03*
G01*
X2645003Y-5004943D03*
G01*
X2695041Y-5004943D03*
G01*
X2745079Y-5004943D03*
G01*
X2795092Y-5004943D03*
G01*
X2844901Y-5004943D03*
G01*
X2894939Y-5004943D03*
G01*
X2944977Y-5004943D03*
G01*
X2994990Y-5004943D03*
G01*
X3045053Y-5004943D03*
G01*
X3095091Y-5004943D03*
D63*
G01*
X3164941Y-4935093D03*
G01*
X3164941Y-4885054D03*
G01*
X3164941Y-4835017D03*
G01*
X3164941Y-4784979D03*
G01*
X3164941Y-4734940D03*
G01*
X3164941Y-4684903D03*
G01*
X3164941Y-4635119D03*
G01*
X3164941Y-4585080D03*
G01*
X3164941Y-4535043D03*
G01*
X3164941Y-4485004D03*
G01*
X3164941Y-4434967D03*
G01*
X3164941Y-4384929D03*
D62*
G01*
X3095091Y-4315079D03*
G01*
X3045053Y-4315079D03*
G01*
X2994990Y-4315079D03*
G01*
X2944977Y-4315079D03*
G01*
X2894939Y-4315079D03*
G01*
X2844901Y-4315079D03*
G01*
X2795092Y-4315079D03*
G01*
X2745079Y-4315079D03*
G01*
X2695041Y-4315079D03*
G01*
X2645003Y-4315079D03*
G01*
X2594940Y-4315079D03*
G01*
X2544927Y-4315079D03*
D63*
G01*
X2475077Y-4384929D03*
G01*
X2475077Y-4434967D03*
G01*
X2475077Y-4485004D03*
G01*
X2475077Y-4535043D03*
G01*
X2475077Y-4585080D03*
G01*
X2475077Y-4635119D03*
G01*
X2475077Y-4684903D03*
G01*
X2475077Y-4734940D03*
G01*
X2475077Y-4784979D03*
G01*
X2475077Y-4835017D03*
G01*
X2475077Y-4885054D03*
G01*
X2475077Y-4935093D03*
D64*
G01*
X2820009Y-4659990D03*
D65*
G01*
X2902247Y-3409998D03*
G01*
X2902247Y-3450003D03*
G01*
X2902247Y-3489982D03*
G01*
X2902247Y-3529987D03*
D66*
G01*
X2985000Y-3612741D03*
G01*
X3025005Y-3612741D03*
G01*
X3064984Y-3612741D03*
G01*
X3104989Y-3612741D03*
D65*
G01*
X3187743Y-3529987D03*
G01*
X3187743Y-3489982D03*
G01*
X3187743Y-3450003D03*
G01*
X3187743Y-3409998D03*
D67*
G01*
X3187725Y-3369995D03*
D66*
G01*
X3104989Y-3327245D03*
G01*
X3064984Y-3327245D03*
G01*
X3025005Y-3327245D03*
G01*
X2985000Y-3327245D03*
D68*
G01*
X3044995Y-3469994D03*
D69*
G01*
X2944990Y-3327273D03*
D70*
G01*
X2944990Y-3612718D03*
D71*
G01*
X3144989Y-3612718D03*
D72*
G01*
X3187712Y-3569995D03*
D73*
G01*
X2902280Y-3370008D03*
D74*
G01*
X2902280Y-3569995D03*
D75*
G01*
X3144989Y-3327273D03*
D56*
G01*
X4032073Y-260071D03*
D50*
G01*
X4286072Y-260070D03*
G01*
X4540072Y-260070D03*
D68*
G01*
X310008Y-3804006D03*
D50*
G01*
X310006Y-3550005D03*
G01*
X310006Y-3296005D03*
G01*
X1876983Y-2189987D03*
G01*
X1622983Y-2189987D03*
D76*
G01*
X7177338Y-1056919D03*
G01*
X7177338Y-843559D03*
G01*
X6786178Y-843559D03*
G01*
X6786178Y-1056919D03*
D77*
G01*
X1839468Y-5555488D03*
G01*
X2016252Y-5732272D03*
D78*
G01*
X1808391Y-271602D03*
D79*
G01*
X1631607Y-448398D03*
D80*
G01*
X3473300Y-4483100D03*
G01*
X3613299Y-4483100D03*
D81*
G01*
X2419316Y-5573996D03*
G01*
X2320323Y-5475003D03*
D82*
G01*
X2048543Y-5226083D03*
G01*
X2147536Y-5325076D03*
D23*
G01*
X1732151Y-1066062D03*
G01*
X1707841Y-1203935D03*
D83*
G01*
X1208139Y-536834D03*
D84*
G01*
X1051855Y-1423161D03*
D85*
G01*
X2364992Y-5989988D03*
G01*
X3264993Y-5989988D03*
D80*
G01*
X2594996Y-5619988D03*
G01*
X2734995Y-5619988D03*
D86*
G01*
X3214994Y-5619988D03*
G01*
X3074995Y-5619988D03*
D14*
G01*
X4650107Y-3755383D03*
D15*
G01*
X4650107Y-3604733D03*
D14*
G01*
X4840099Y-3755383D03*
D15*
G01*
X4840099Y-3604733D03*
D14*
G01*
X5034917Y-3755383D03*
D15*
G01*
X5034917Y-3604733D03*
D19*
G01*
X3449993Y-6909986D03*
G01*
X3449993Y-6769986D03*
D14*
G01*
X4219991Y-6735311D03*
D15*
G01*
X4219991Y-6584661D03*
D12*
G01*
X3566204Y-4661174D03*
D13*
G01*
X3415554Y-4661174D03*
D80*
G01*
X2454760Y-7081519D03*
G01*
X2594759Y-7081519D03*
D38*
G01*
X1410332Y-6796712D03*
D39*
G01*
X1210327Y-6796712D03*
D86*
G01*
X3229993Y-3769992D03*
G01*
X3089993Y-3769992D03*
D40*
G01*
X4322445Y-5540857D03*
G01*
X4322445Y-5740857D03*
D19*
G01*
X4277591Y-2455379D03*
G01*
X4277591Y-2315380D03*
D87*
G01*
X2378743Y-4202396D03*
G01*
X2477736Y-4103403D03*
D19*
G01*
X2875279Y-6816239D03*
G01*
X2875279Y-6676240D03*
G01*
X914400Y-6732419D03*
G01*
X914400Y-6592420D03*
G01*
X2644139Y-3595519D03*
G01*
X2644139Y-3455520D03*
D40*
G01*
X5374436Y-5750331D03*
G01*
X5374436Y-5950330D03*
D20*
G01*
X6024981Y-2554986D03*
G01*
X6024981Y-2694990D03*
D88*
G01*
X2268665Y-4105004D03*
D89*
G01*
X2369374Y-4007755D03*
D20*
G01*
X881379Y-6140297D03*
G01*
X881379Y-6280302D03*
G01*
X3389985Y-3399993D03*
G01*
X3389985Y-3539997D03*
D90*
G01*
X2318294Y-5095523D03*
G01*
X2228305Y-4988276D03*
D20*
G01*
X5639866Y-3119881D03*
G01*
X5639866Y-3259886D03*
D82*
G01*
X3343943Y-4215163D03*
G01*
X3442936Y-4314156D03*
D80*
G01*
X5585104Y-2600086D03*
G01*
X5725104Y-2600086D03*
D86*
G01*
X3330821Y-5341345D03*
G01*
X3190821Y-5341345D03*
D91*
G01*
X6749986Y-6869991D03*
D92*
G01*
X6749986Y-6669981D03*
D36*
G01*
X6234988Y-2554681D03*
G01*
X6234988Y-2705328D03*
D93*
G01*
X6969980Y-6439987D03*
D94*
G01*
X7169990Y-6439987D03*
D10*
G01*
X6074662Y-1749996D03*
D11*
G01*
X6225312Y-1749996D03*
D36*
G01*
X880008Y-2714675D03*
D95*
G01*
X879998Y-2865320D03*
D19*
G01*
X2048200Y-2620863D03*
G01*
X2048200Y-2480863D03*
D86*
G01*
X1478201Y-2470863D03*
G01*
X1338201Y-2470863D03*
D96*
G01*
X1748200Y-2672463D03*
G01*
X1659300Y-2469263D03*
D97*
G01*
X1837100Y-2469263D03*
D12*
G01*
X585323Y-609998D03*
D13*
G01*
X434674Y-609998D03*
D36*
G01*
X7386853Y-864920D03*
G01*
X7386853Y-1015568D03*
D98*
G01*
X1178974Y-4393260D03*
G01*
X1028105Y-4242391D03*
G01*
X751512Y-4518985D03*
G01*
X902380Y-4669853D03*
D86*
G01*
X3085759Y-5226316D03*
G01*
X2945759Y-5226316D03*
D50*
G01*
X7186802Y-4156049D03*
M02*
