G04 Layer: BottomSolderMaskLayer*
G04 EasyEDA v6.5.40, 2024-05-01 14:29:32*
G04 7703e67730494ffebf129c6139567d94,10*
G04 Gerber Generator version 0.2*
G04 Scale: 100 percent, Rotated: No, Reflected: No *
G04 Dimensions in millimeters *
G04 leading zeros omitted , absolute positions ,4 integer and 5 decimal *
%FSLAX45Y45*%
%MOMM*%

%AMMACRO1*1,1,$1,$2,$3*1,1,$1,$4,$5*1,1,$1,0-$2,0-$3*1,1,$1,0-$4,0-$5*20,1,$1,$2,$3,$4,$5,0*20,1,$1,$4,$5,0-$2,0-$3,0*20,1,$1,0-$2,0-$3,0-$4,0-$5,0*20,1,$1,0-$4,0-$5,$2,$3,0*4,1,4,$2,$3,$4,$5,0-$2,0-$3,0-$4,0-$5,$2,$3,0*%
%ADD10C,1.6256*%
%ADD11C,1.8000*%
%ADD12O,1.9015964X1.3015976000000002*%
%ADD13O,2.1015960000000002X1.3015976000000002*%
%ADD14MACRO1,0.1X0.7X0.7X0.7X-0.7*%
%ADD15C,1.5000*%
%ADD16O,1.7015968X1.0015981999999999*%
%ADD17R,1.7016X1.0016*%
%ADD18C,1.8016*%
%ADD19R,1.8016X1.8016*%
%ADD20MACRO1,0.1016X0.85X-0.85X-0.85X-0.85*%
%ADD21MACRO1,0.1016X0.85X0.85X0.85X-0.85*%
%ADD22MACRO1,0.1016X-0.4032X0.432X-0.4032X-0.432*%
%ADD23MACRO1,0.1016X0.4032X0.432X0.4032X-0.432*%
%ADD24MACRO1,0.1016X-0.432X-0.4032X0.432X-0.4032*%
%ADD25MACRO1,0.1016X-0.432X0.4032X0.432X0.4032*%
%ADD26MACRO1,0.1016X-0.4X-0.45X0.4X-0.45*%
%ADD27MACRO1,0.1016X0.4032X-0.432X0.4032X0.432*%
%ADD28MACRO1,0.1016X-0.4032X-0.432X-0.4032X0.432*%

%LPD*%
D10*
G01*
X1419987Y-7099985D03*
G01*
X1940001Y-7099985D03*
D11*
G01*
X5989954Y-6720078D03*
G01*
X6239967Y-6720078D03*
D12*
G01*
X162534Y-2962554D03*
D13*
G01*
X580517Y-2962554D03*
G01*
X580517Y-2097531D03*
D12*
G01*
X162534Y-2097531D03*
D14*
G01*
X310006Y-4229989D03*
D15*
G01*
X310006Y-4429988D03*
G01*
X310006Y-4629988D03*
G01*
X310006Y-4829987D03*
G01*
X305003Y-5579998D03*
G01*
X304977Y-5780023D03*
G01*
X304977Y-5980023D03*
G01*
X304977Y-6180023D03*
D16*
G01*
X6134988Y-3263011D03*
G01*
X6134988Y-3390011D03*
D17*
G01*
X6134988Y-3516985D03*
D18*
G01*
X7184948Y-3315919D03*
G01*
X7184948Y-3569919D03*
D19*
G01*
X7184974Y-3823919D03*
D15*
G01*
X4369993Y-4369993D03*
G01*
X4569993Y-4369968D03*
G01*
X4769993Y-4369968D03*
G01*
X4969992Y-4369968D03*
D18*
G01*
X3850970Y-2376652D03*
G01*
X3850970Y-2864662D03*
D20*
G01*
X2896998Y-259995D03*
D18*
G01*
X2642997Y-260019D03*
G01*
X5308295Y-260070D03*
G01*
X5054295Y-260070D03*
D15*
G01*
X6489979Y-259994D03*
G01*
X6290005Y-259994D03*
G01*
X6090005Y-259994D03*
G01*
X5890006Y-259994D03*
D18*
G01*
X310083Y-1093317D03*
G01*
X310083Y-1347317D03*
D20*
G01*
X4032073Y-260071D03*
D18*
G01*
X4286072Y-260070D03*
G01*
X4540072Y-260070D03*
D21*
G01*
X310008Y-3804006D03*
D18*
G01*
X310006Y-3550005D03*
G01*
X310006Y-3296005D03*
G01*
X1876983Y-2189987D03*
G01*
X1622983Y-2189987D03*
D22*
G01*
X2786007Y-580146D03*
D23*
G01*
X2635357Y-580146D03*
D24*
G01*
X2485626Y-2285269D03*
D25*
G01*
X2485626Y-2435919D03*
D26*
G01*
X425089Y-5156299D03*
G01*
X285089Y-5156299D03*
D27*
G01*
X1550084Y-4256072D03*
D28*
G01*
X1700734Y-4256072D03*
D18*
G01*
X7186802Y-4156049D03*
M02*
