G04 Layer: TopSilkscreenLayer*
G04 EasyEDA v6.5.40, 2024-05-01 14:29:32*
G04 7703e67730494ffebf129c6139567d94,10*
G04 Gerber Generator version 0.2*
G04 Scale: 100 percent, Rotated: No, Reflected: No *
G04 Dimensions in millimeters *
G04 leading zeros omitted , absolute positions ,4 integer and 5 decimal *
%FSLAX45Y45*%
%MOMM*%

%ADD10C,0.2000*%
%ADD11C,0.1524*%
%ADD12C,0.2540*%
%ADD13C,0.1500*%
%ADD14C,0.2032*%
%ADD15C,0.2030*%
%ADD16C,0.1520*%
%ADD17C,0.1501*%
%ADD18C,0.2500*%
%ADD19C,0.4000*%
%ADD20C,0.3000*%
%ADD21C,0.0140*%

%LPD*%
D10*
X7176249Y-4569475D02*
G01*
X7271753Y-4569475D01*
X7176249Y-4569475D02*
G01*
X7176249Y-4528581D01*
X7180821Y-4514865D01*
X7185393Y-4510293D01*
X7194283Y-4505721D01*
X7207999Y-4505721D01*
X7217143Y-4510293D01*
X7221715Y-4514865D01*
X7226287Y-4528581D01*
X7226287Y-4569475D01*
X7176249Y-4475749D02*
G01*
X7271753Y-4475749D01*
X7176249Y-4475749D02*
G01*
X7176249Y-4434855D01*
X7180821Y-4421393D01*
X7185393Y-4416821D01*
X7194283Y-4412249D01*
X7207999Y-4412249D01*
X7217143Y-4416821D01*
X7221715Y-4421393D01*
X7226287Y-4434855D01*
X7226287Y-4475749D01*
X7176249Y-4382277D02*
G01*
X7271753Y-4382277D01*
X7176249Y-4382277D02*
G01*
X7271753Y-4345701D01*
X7176249Y-4309379D02*
G01*
X7271753Y-4345701D01*
X7176249Y-4309379D02*
G01*
X7271753Y-4309379D01*
X6525513Y-7134727D02*
G01*
X6525513Y-7216769D01*
X6484620Y-7175621D02*
G01*
X6566408Y-7175621D01*
X5666740Y-7175748D02*
G01*
X5748527Y-7175748D01*
X543514Y-3262800D02*
G01*
X534624Y-3253656D01*
X520908Y-3249084D01*
X502620Y-3249084D01*
X489158Y-3253656D01*
X480014Y-3262800D01*
X480014Y-3271690D01*
X484586Y-3280834D01*
X489158Y-3285406D01*
X498302Y-3289978D01*
X525480Y-3299122D01*
X534624Y-3303694D01*
X539196Y-3308266D01*
X543514Y-3317156D01*
X543514Y-3330872D01*
X534624Y-3340016D01*
X520908Y-3344588D01*
X502620Y-3344588D01*
X489158Y-3340016D01*
X480014Y-3330872D01*
X573740Y-3249084D02*
G01*
X596346Y-3344588D01*
X619206Y-3249084D02*
G01*
X596346Y-3344588D01*
X619206Y-3249084D02*
G01*
X641812Y-3344588D01*
X664418Y-3249084D02*
G01*
X641812Y-3344588D01*
X694644Y-3249084D02*
G01*
X694644Y-3344588D01*
X694644Y-3249084D02*
G01*
X726394Y-3249084D01*
X740110Y-3253656D01*
X749000Y-3262800D01*
X753572Y-3271690D01*
X758144Y-3285406D01*
X758144Y-3308266D01*
X753572Y-3321728D01*
X749000Y-3330872D01*
X740110Y-3340016D01*
X726394Y-3344588D01*
X694644Y-3344588D01*
X788116Y-3249084D02*
G01*
X788116Y-3344588D01*
X845520Y-3249084D02*
G01*
X836376Y-3253656D01*
X827232Y-3262800D01*
X822660Y-3271690D01*
X818088Y-3285406D01*
X818088Y-3308266D01*
X822660Y-3321728D01*
X827232Y-3330872D01*
X836376Y-3340016D01*
X845520Y-3344588D01*
X863554Y-3344588D01*
X872698Y-3340016D01*
X881842Y-3330872D01*
X886414Y-3321728D01*
X890986Y-3308266D01*
X890986Y-3285406D01*
X886414Y-3271690D01*
X881842Y-3262800D01*
X872698Y-3253656D01*
X863554Y-3249084D01*
X845520Y-3249084D01*
X533618Y-3532743D02*
G01*
X524474Y-3523599D01*
X511012Y-3519027D01*
X492724Y-3519027D01*
X479008Y-3523599D01*
X470118Y-3532743D01*
X470118Y-3541887D01*
X474436Y-3550777D01*
X479008Y-3555349D01*
X488152Y-3559921D01*
X515330Y-3569065D01*
X524474Y-3573637D01*
X529046Y-3578209D01*
X533618Y-3587353D01*
X533618Y-3600815D01*
X524474Y-3609959D01*
X511012Y-3614531D01*
X492724Y-3614531D01*
X479008Y-3609959D01*
X470118Y-3600815D01*
X563590Y-3519027D02*
G01*
X586450Y-3614531D01*
X609056Y-3519027D02*
G01*
X586450Y-3614531D01*
X609056Y-3519027D02*
G01*
X631916Y-3614531D01*
X654522Y-3519027D02*
G01*
X631916Y-3614531D01*
X752820Y-3541887D02*
G01*
X748248Y-3532743D01*
X739104Y-3523599D01*
X729960Y-3519027D01*
X711926Y-3519027D01*
X702782Y-3523599D01*
X693638Y-3532743D01*
X689066Y-3541887D01*
X684494Y-3555349D01*
X684494Y-3578209D01*
X689066Y-3591925D01*
X693638Y-3600815D01*
X702782Y-3609959D01*
X711926Y-3614531D01*
X729960Y-3614531D01*
X739104Y-3609959D01*
X748248Y-3600815D01*
X752820Y-3591925D01*
X782792Y-3519027D02*
G01*
X782792Y-3614531D01*
X782792Y-3614531D02*
G01*
X837148Y-3614531D01*
X867374Y-3519027D02*
G01*
X867374Y-3614531D01*
X930874Y-3519027D02*
G01*
X867374Y-3582781D01*
X889980Y-3559921D02*
G01*
X930874Y-3614531D01*
X489938Y-3803639D02*
G01*
X571726Y-3803639D01*
X3076287Y-77228D02*
G01*
X3085431Y-86372D01*
X3099147Y-90944D01*
X3117181Y-90944D01*
X3130897Y-86372D01*
X3140041Y-77228D01*
X3140041Y-68084D01*
X3135469Y-59194D01*
X3130897Y-54622D01*
X3121753Y-50050D01*
X3094575Y-40906D01*
X3085431Y-36334D01*
X3080859Y-31762D01*
X3076287Y-22618D01*
X3076287Y-9156D01*
X3085431Y-12D01*
X3099147Y4559D01*
X3117181Y4559D01*
X3130897Y-12D01*
X3140041Y-9156D01*
X2978243Y-68084D02*
G01*
X2982815Y-77228D01*
X2991705Y-86372D01*
X3000849Y-90944D01*
X3019137Y-90944D01*
X3028281Y-86372D01*
X3037171Y-77228D01*
X3041743Y-68084D01*
X3046315Y-54622D01*
X3046315Y-31762D01*
X3041743Y-18300D01*
X3037171Y-9156D01*
X3028281Y-12D01*
X3019137Y4559D01*
X3000849Y4559D01*
X2991705Y-12D01*
X2982815Y-9156D01*
X2978243Y-18300D01*
X2948271Y-90944D02*
G01*
X2948271Y4559D01*
X2948271Y4559D02*
G01*
X2893661Y4559D01*
X2616268Y-77182D02*
G01*
X2625412Y-86326D01*
X2639128Y-90898D01*
X2657162Y-90898D01*
X2670878Y-86326D01*
X2680022Y-77182D01*
X2680022Y-68292D01*
X2675450Y-59148D01*
X2670878Y-54576D01*
X2661734Y-50004D01*
X2634556Y-40860D01*
X2625412Y-36288D01*
X2620840Y-31716D01*
X2616268Y-22826D01*
X2616268Y-9110D01*
X2625412Y33D01*
X2639128Y4605D01*
X2657162Y4605D01*
X2670878Y33D01*
X2680022Y-9110D01*
X2586296Y-90898D02*
G01*
X2586296Y4605D01*
X2586296Y-90898D02*
G01*
X2554546Y-90898D01*
X2540830Y-86326D01*
X2531686Y-77182D01*
X2527368Y-68292D01*
X2522796Y-54576D01*
X2522796Y-31716D01*
X2527368Y-18254D01*
X2531686Y-9110D01*
X2540830Y33D01*
X2554546Y4605D01*
X2586296Y4605D01*
X2456248Y-90898D02*
G01*
X2492824Y4605D01*
X2456248Y-90898D02*
G01*
X2419926Y4605D01*
X2479108Y-27398D02*
G01*
X2433642Y-27398D01*
X4522683Y-776277D02*
G01*
X4513539Y-785421D01*
X4508967Y-799137D01*
X4508967Y-817171D01*
X4513539Y-830887D01*
X4522683Y-840031D01*
X4531827Y-840031D01*
X4540971Y-835459D01*
X4545543Y-830887D01*
X4550115Y-821743D01*
X4559005Y-794565D01*
X4563577Y-785421D01*
X4568149Y-780849D01*
X4577293Y-776277D01*
X4591009Y-776277D01*
X4599899Y-785421D01*
X4604471Y-799137D01*
X4604471Y-817171D01*
X4599899Y-830887D01*
X4591009Y-840031D01*
X4508967Y-746305D02*
G01*
X4604471Y-723699D01*
X4508967Y-700839D02*
G01*
X4604471Y-723699D01*
X4508967Y-700839D02*
G01*
X4604471Y-678233D01*
X4508967Y-655373D02*
G01*
X4604471Y-678233D01*
X4508967Y-625401D02*
G01*
X4604471Y-625401D01*
X4508967Y-625401D02*
G01*
X4508967Y-593651D01*
X4513539Y-579935D01*
X4522683Y-570791D01*
X4531827Y-566473D01*
X4545543Y-561901D01*
X4568149Y-561901D01*
X4581865Y-566473D01*
X4591009Y-570791D01*
X4599899Y-579935D01*
X4604471Y-593651D01*
X4604471Y-625401D01*
X4508967Y-531929D02*
G01*
X4604471Y-531929D01*
X4508967Y-474525D02*
G01*
X4513539Y-483669D01*
X4522683Y-492813D01*
X4531827Y-497385D01*
X4545543Y-501703D01*
X4568149Y-501703D01*
X4581865Y-497385D01*
X4591009Y-492813D01*
X4599899Y-483669D01*
X4604471Y-474525D01*
X4604471Y-456237D01*
X4599899Y-447347D01*
X4591009Y-438203D01*
X4581865Y-433631D01*
X4568149Y-429059D01*
X4545543Y-429059D01*
X4531827Y-433631D01*
X4522683Y-438203D01*
X4513539Y-447347D01*
X4508967Y-456237D01*
X4508967Y-474525D01*
X4252843Y-826259D02*
G01*
X4243699Y-835403D01*
X4239127Y-849119D01*
X4239127Y-867153D01*
X4243699Y-880869D01*
X4252843Y-890013D01*
X4261733Y-890013D01*
X4270877Y-885441D01*
X4275449Y-880869D01*
X4280021Y-871725D01*
X4289165Y-844547D01*
X4293737Y-835403D01*
X4298055Y-830831D01*
X4307199Y-826259D01*
X4320915Y-826259D01*
X4330059Y-835403D01*
X4334631Y-849119D01*
X4334631Y-867153D01*
X4330059Y-880869D01*
X4320915Y-890013D01*
X4239127Y-796287D02*
G01*
X4334631Y-773681D01*
X4239127Y-750821D02*
G01*
X4334631Y-773681D01*
X4239127Y-750821D02*
G01*
X4334631Y-728215D01*
X4239127Y-705355D02*
G01*
X4334631Y-728215D01*
X4252843Y-611883D02*
G01*
X4243699Y-621027D01*
X4239127Y-634489D01*
X4239127Y-652777D01*
X4243699Y-666239D01*
X4252843Y-675383D01*
X4261733Y-675383D01*
X4270877Y-670811D01*
X4275449Y-666239D01*
X4280021Y-657349D01*
X4289165Y-629917D01*
X4293737Y-621027D01*
X4298055Y-616455D01*
X4307199Y-611883D01*
X4320915Y-611883D01*
X4330059Y-621027D01*
X4334631Y-634489D01*
X4334631Y-652777D01*
X4330059Y-666239D01*
X4320915Y-675383D01*
X4239127Y-581911D02*
G01*
X4334631Y-581911D01*
X4334631Y-581911D02*
G01*
X4334631Y-527301D01*
X4239127Y-497329D02*
G01*
X4334631Y-497329D01*
X4239127Y-433575D02*
G01*
X4302627Y-497329D01*
X4280021Y-474469D02*
G01*
X4334631Y-433575D01*
X4026298Y-500057D02*
G01*
X4026298Y-581845D01*
X5358086Y-90840D02*
G01*
X5358086Y4663D01*
X5390090Y-90840D02*
G01*
X5326336Y-90840D01*
X5296364Y-90840D02*
G01*
X5232610Y4663D01*
X5232610Y-90840D02*
G01*
X5296364Y4663D01*
X5109918Y-90896D02*
G01*
X5109918Y4607D01*
X5109918Y-90896D02*
G01*
X5069024Y-90896D01*
X5055562Y-86324D01*
X5050990Y-81752D01*
X5046418Y-72608D01*
X5046418Y-63718D01*
X5050990Y-54574D01*
X5055562Y-50002D01*
X5069024Y-45430D01*
X5109918Y-45430D01*
X5078168Y-45430D02*
G01*
X5046418Y4607D01*
X5016446Y-90896D02*
G01*
X4952692Y4607D01*
X4952692Y-90896D02*
G01*
X5016446Y4607D01*
X7379131Y-3675336D02*
G01*
X7379131Y-3720802D01*
X7420025Y-3725374D01*
X7415453Y-3720802D01*
X7410881Y-3707340D01*
X7410881Y-3693624D01*
X7415453Y-3679908D01*
X7424597Y-3671018D01*
X7438059Y-3666446D01*
X7447203Y-3666446D01*
X7460919Y-3671018D01*
X7470063Y-3679908D01*
X7474635Y-3693624D01*
X7474635Y-3707340D01*
X7470063Y-3720802D01*
X7465491Y-3725374D01*
X7456347Y-3729946D01*
X7379131Y-3636474D02*
G01*
X7474635Y-3599898D01*
X7379131Y-3563576D02*
G01*
X7474635Y-3599898D01*
X7401793Y-4021846D02*
G01*
X7392649Y-4026418D01*
X7383505Y-4035562D01*
X7379187Y-4044452D01*
X7379187Y-4062740D01*
X7383505Y-4071884D01*
X7392649Y-4080774D01*
X7401793Y-4085346D01*
X7415509Y-4089918D01*
X7438115Y-4089918D01*
X7451831Y-4085346D01*
X7460975Y-4080774D01*
X7469865Y-4071884D01*
X7474437Y-4062740D01*
X7474437Y-4044452D01*
X7469865Y-4035562D01*
X7460975Y-4026418D01*
X7451831Y-4021846D01*
X7438115Y-4021846D01*
X7438115Y-4044452D02*
G01*
X7438115Y-4021846D01*
X7379187Y-3991874D02*
G01*
X7474437Y-3991874D01*
X7379187Y-3991874D02*
G01*
X7474437Y-3928120D01*
X7379187Y-3928120D02*
G01*
X7474437Y-3928120D01*
X7379187Y-3898148D02*
G01*
X7474437Y-3898148D01*
X7379187Y-3898148D02*
G01*
X7379187Y-3866398D01*
X7383505Y-3852682D01*
X7392649Y-3843538D01*
X7401793Y-3838966D01*
X7415509Y-3834648D01*
X7438115Y-3834648D01*
X7451831Y-3838966D01*
X7460975Y-3843538D01*
X7469865Y-3852682D01*
X7474437Y-3866398D01*
X7474437Y-3898148D01*
X7382802Y-3416363D02*
G01*
X7373658Y-3425507D01*
X7369086Y-3438969D01*
X7369086Y-3457257D01*
X7373658Y-3470973D01*
X7382802Y-3480117D01*
X7391692Y-3480117D01*
X7400836Y-3475545D01*
X7405408Y-3470973D01*
X7409980Y-3461829D01*
X7419124Y-3434651D01*
X7423696Y-3425507D01*
X7428268Y-3420935D01*
X7437158Y-3416363D01*
X7450874Y-3416363D01*
X7460018Y-3425507D01*
X7464590Y-3438969D01*
X7464590Y-3457257D01*
X7460018Y-3470973D01*
X7450874Y-3480117D01*
X7369086Y-3386391D02*
G01*
X7464590Y-3386391D01*
X7369086Y-3386391D02*
G01*
X7369086Y-3345497D01*
X7373658Y-3331781D01*
X7378230Y-3327209D01*
X7387374Y-3322637D01*
X7396264Y-3322637D01*
X7405408Y-3327209D01*
X7409980Y-3331781D01*
X7414552Y-3345497D01*
X7414552Y-3386391D02*
G01*
X7414552Y-3345497D01*
X7419124Y-3331781D01*
X7423696Y-3327209D01*
X7432586Y-3322637D01*
X7446302Y-3322637D01*
X7455446Y-3327209D01*
X7460018Y-3331781D01*
X7464590Y-3345497D01*
X7464590Y-3386391D01*
X7369086Y-3292665D02*
G01*
X7437158Y-3292665D01*
X7450874Y-3288093D01*
X7460018Y-3279203D01*
X7464590Y-3265487D01*
X7464590Y-3256343D01*
X7460018Y-3242627D01*
X7450874Y-3233737D01*
X7437158Y-3229165D01*
X7369086Y-3229165D01*
X7382802Y-3135439D02*
G01*
X7373658Y-3144583D01*
X7369086Y-3158299D01*
X7369086Y-3176333D01*
X7373658Y-3190049D01*
X7382802Y-3199193D01*
X7391692Y-3199193D01*
X7400836Y-3194621D01*
X7405408Y-3190049D01*
X7409980Y-3180905D01*
X7419124Y-3153727D01*
X7423696Y-3144583D01*
X7428268Y-3140011D01*
X7437158Y-3135439D01*
X7450874Y-3135439D01*
X7460018Y-3144583D01*
X7464590Y-3158299D01*
X7464590Y-3176333D01*
X7460018Y-3190049D01*
X7450874Y-3199193D01*
X140820Y-1041885D02*
G01*
X45570Y-1041885D01*
X140820Y-1009881D02*
G01*
X140820Y-1073635D01*
X140820Y-1103607D02*
G01*
X45570Y-1167361D01*
X140820Y-1167361D02*
G01*
X45570Y-1103607D01*
X140987Y-1320106D02*
G01*
X45483Y-1320106D01*
X140987Y-1320106D02*
G01*
X140987Y-1361000D01*
X136415Y-1374462D01*
X131843Y-1379034D01*
X122699Y-1383606D01*
X113555Y-1383606D01*
X104665Y-1379034D01*
X100093Y-1374462D01*
X95521Y-1361000D01*
X95521Y-1320106D01*
X95521Y-1351856D02*
G01*
X45483Y-1383606D01*
X140987Y-1413578D02*
G01*
X45483Y-1477332D01*
X140987Y-1477332D02*
G01*
X45483Y-1413578D01*
X6350650Y-3060471D02*
G01*
X6350650Y-3155975D01*
X6350650Y-3060471D02*
G01*
X6391544Y-3060471D01*
X6405260Y-3065043D01*
X6409832Y-3069615D01*
X6414404Y-3078505D01*
X6414404Y-3087649D01*
X6409832Y-3096793D01*
X6405260Y-3101365D01*
X6391544Y-3105937D01*
X6350650Y-3105937D01*
X6382400Y-3105937D02*
G01*
X6414404Y-3155975D01*
X6444376Y-3078505D02*
G01*
X6453266Y-3073933D01*
X6466982Y-3060471D01*
X6466982Y-3155975D01*
X6496954Y-3060471D02*
G01*
X6496954Y-3155975D01*
X6526926Y-3060471D02*
G01*
X6526926Y-3155975D01*
X6526926Y-3060471D02*
G01*
X6590680Y-3155975D01*
X6590680Y-3060471D02*
G01*
X6590680Y-3155975D01*
X6620652Y-3060471D02*
G01*
X6656974Y-3155975D01*
X6693296Y-3060471D02*
G01*
X6656974Y-3155975D01*
X6350038Y-3584028D02*
G01*
X6350038Y-3679532D01*
X6350038Y-3584028D02*
G01*
X6390932Y-3584028D01*
X6404648Y-3588600D01*
X6408966Y-3593172D01*
X6413538Y-3602316D01*
X6413538Y-3611460D01*
X6408966Y-3620350D01*
X6404648Y-3624922D01*
X6390932Y-3629494D01*
X6350038Y-3629494D01*
X6381788Y-3629494D02*
G01*
X6413538Y-3679532D01*
X6448082Y-3606888D02*
G01*
X6448082Y-3602316D01*
X6452654Y-3593172D01*
X6457226Y-3588600D01*
X6466370Y-3584028D01*
X6484658Y-3584028D01*
X6493548Y-3588600D01*
X6498120Y-3593172D01*
X6502692Y-3602316D01*
X6502692Y-3611460D01*
X6498120Y-3620350D01*
X6488976Y-3634066D01*
X6443510Y-3679532D01*
X6507264Y-3679532D01*
X6537236Y-3584028D02*
G01*
X6537236Y-3679532D01*
X6567208Y-3584028D02*
G01*
X6567208Y-3679532D01*
X6567208Y-3584028D02*
G01*
X6630962Y-3679532D01*
X6630962Y-3584028D02*
G01*
X6630962Y-3679532D01*
X6660934Y-3584028D02*
G01*
X6697256Y-3679532D01*
X6733578Y-3584028D02*
G01*
X6697256Y-3679532D01*
X5438061Y-1591764D02*
G01*
X5433743Y-1582620D01*
X5424599Y-1573730D01*
X5415455Y-1569158D01*
X5397167Y-1569158D01*
X5388277Y-1573730D01*
X5379133Y-1582620D01*
X5374561Y-1591764D01*
X5369989Y-1605480D01*
X5369989Y-1628086D01*
X5374561Y-1641802D01*
X5379133Y-1650946D01*
X5388277Y-1660090D01*
X5397167Y-1664662D01*
X5415455Y-1664662D01*
X5424599Y-1660090D01*
X5433743Y-1650946D01*
X5438061Y-1641802D01*
X5477177Y-1569158D02*
G01*
X5527215Y-1569158D01*
X5500037Y-1605480D01*
X5513499Y-1605480D01*
X5522643Y-1610052D01*
X5527215Y-1614624D01*
X5531787Y-1628086D01*
X5531787Y-1637230D01*
X5527215Y-1650946D01*
X5518071Y-1660090D01*
X5504609Y-1664662D01*
X5490893Y-1664662D01*
X5477177Y-1660090D01*
X5472605Y-1655518D01*
X5468287Y-1646374D01*
X5589191Y-1569158D02*
G01*
X5580047Y-1573730D01*
X5570903Y-1582620D01*
X5566331Y-1591764D01*
X5561759Y-1605480D01*
X5561759Y-1628086D01*
X5566331Y-1641802D01*
X5570903Y-1650946D01*
X5580047Y-1660090D01*
X5589191Y-1664662D01*
X5607225Y-1664662D01*
X5616369Y-1660090D01*
X5625513Y-1650946D01*
X5630085Y-1641802D01*
X5634657Y-1628086D01*
X5634657Y-1605480D01*
X5630085Y-1591764D01*
X5625513Y-1582620D01*
X5616369Y-1573730D01*
X5607225Y-1569158D01*
X5589191Y-1569158D01*
X5664629Y-1569158D02*
G01*
X5664629Y-1664662D01*
X5664629Y-1569158D02*
G01*
X5696379Y-1569158D01*
X5710095Y-1573730D01*
X5718985Y-1582620D01*
X5723557Y-1591764D01*
X5728129Y-1605480D01*
X5728129Y-1628086D01*
X5723557Y-1641802D01*
X5718985Y-1650946D01*
X5710095Y-1660090D01*
X5696379Y-1664662D01*
X5664629Y-1664662D01*
X6016337Y-2154689D02*
G01*
X6012019Y-2145545D01*
X6002875Y-2136655D01*
X5993731Y-2132083D01*
X5975443Y-2132083D01*
X5966553Y-2136655D01*
X5957409Y-2145545D01*
X5952837Y-2154689D01*
X5948265Y-2168405D01*
X5948265Y-2191011D01*
X5952837Y-2204727D01*
X5957409Y-2213871D01*
X5966553Y-2223015D01*
X5975443Y-2227587D01*
X5993731Y-2227587D01*
X6002875Y-2223015D01*
X6012019Y-2213871D01*
X6016337Y-2204727D01*
X6091775Y-2132083D02*
G01*
X6046563Y-2195583D01*
X6114635Y-2195583D01*
X6091775Y-2132083D02*
G01*
X6091775Y-2227587D01*
X6171785Y-2132083D02*
G01*
X6162895Y-2136655D01*
X6153751Y-2145545D01*
X6149179Y-2154689D01*
X6144607Y-2168405D01*
X6144607Y-2191011D01*
X6149179Y-2204727D01*
X6153751Y-2213871D01*
X6162895Y-2223015D01*
X6171785Y-2227587D01*
X6190073Y-2227587D01*
X6199217Y-2223015D01*
X6208361Y-2213871D01*
X6212933Y-2204727D01*
X6217251Y-2191011D01*
X6217251Y-2168405D01*
X6212933Y-2154689D01*
X6208361Y-2145545D01*
X6199217Y-2136655D01*
X6190073Y-2132083D01*
X6171785Y-2132083D01*
X6247477Y-2132083D02*
G01*
X6247477Y-2227587D01*
X6247477Y-2132083D02*
G01*
X6279227Y-2132083D01*
X6292689Y-2136655D01*
X6301833Y-2145545D01*
X6306405Y-2154689D01*
X6310977Y-2168405D01*
X6310977Y-2191011D01*
X6306405Y-2204727D01*
X6301833Y-2213871D01*
X6292689Y-2223015D01*
X6279227Y-2227587D01*
X6247477Y-2227587D01*
X2079571Y-436D02*
G01*
X2082985Y9083D01*
X2082805Y21836D01*
X2079571Y31534D01*
X2066640Y44465D01*
X2057123Y47518D01*
X2044369Y47698D01*
X2034672Y44465D01*
X2021740Y38000D01*
X2005754Y22014D01*
X1999289Y9083D01*
X1996056Y-614D01*
X1996056Y-13545D01*
X1999109Y-23065D01*
X2012040Y-35996D01*
X2021740Y-39230D01*
X2034672Y-39230D01*
X2044189Y-35819D01*
X2104179Y-18575D02*
G01*
X2113696Y-21628D01*
X2132914Y-21808D01*
X2065383Y-89339D01*
X2141357Y-55753D02*
G01*
X2151054Y-58986D01*
X2170272Y-59166D01*
X2102741Y-126697D01*
X2191466Y-80360D02*
G01*
X2123935Y-147891D01*
X2191466Y-80360D02*
G01*
X2220384Y-109275D01*
X2226668Y-122029D01*
X2226668Y-128493D01*
X2223615Y-138013D01*
X2213917Y-147711D01*
X2204219Y-150944D01*
X2197752Y-150944D01*
X2185001Y-144658D01*
X2156084Y-115742D01*
X1817646Y-842584D02*
G01*
X1818479Y-832507D01*
X1815007Y-820237D01*
X1809374Y-811705D01*
X1793534Y-802561D01*
X1783549Y-802076D01*
X1771187Y-805202D01*
X1762655Y-810834D01*
X1751837Y-820427D01*
X1740535Y-840005D01*
X1737636Y-854168D01*
X1737024Y-864374D01*
X1740369Y-876866D01*
X1745782Y-885268D01*
X1761622Y-894412D01*
X1771827Y-895027D01*
X1784316Y-891679D01*
X1792627Y-885918D01*
X1846110Y-853739D02*
G01*
X1856094Y-854224D01*
X1874705Y-849424D01*
X1826953Y-932131D01*
X1893318Y-886272D02*
G01*
X1895604Y-882314D01*
X1904009Y-876899D01*
X1910252Y-875228D01*
X1920458Y-875840D01*
X1936076Y-884857D01*
X1941710Y-893389D01*
X1943381Y-899632D01*
X1942896Y-909619D01*
X1938324Y-917536D01*
X1929792Y-923170D01*
X1915017Y-930475D01*
X1852909Y-947117D01*
X1908121Y-978994D01*
X1981829Y-911273D02*
G01*
X1934077Y-993980D01*
X1981829Y-911273D02*
G01*
X2017245Y-931720D01*
X2026838Y-942538D01*
X2028291Y-948654D01*
X2027806Y-958641D01*
X2020948Y-970518D01*
X2012416Y-976152D01*
X2006391Y-977953D01*
X1992226Y-975052D01*
X1956810Y-954605D01*
X1966503Y-709348D02*
G01*
X1956805Y-706114D01*
X1943872Y-706114D01*
X1934354Y-709168D01*
X1921423Y-722099D01*
X1918190Y-731796D01*
X1918190Y-744730D01*
X1921601Y-754247D01*
X1928068Y-767179D01*
X1944052Y-783165D01*
X1956983Y-789630D01*
X1966503Y-793043D01*
X1979254Y-792863D01*
X1988954Y-789630D01*
X2001885Y-776698D01*
X2004938Y-767179D01*
X2005119Y-754428D01*
X2001885Y-744730D01*
X1984463Y-684921D02*
G01*
X1987697Y-675223D01*
X1987697Y-655825D01*
X2055228Y-723356D01*
X2008891Y-634631D02*
G01*
X2076422Y-702162D01*
X2008891Y-634631D02*
G01*
X2037806Y-605716D01*
X2050737Y-599249D01*
X2057024Y-599429D01*
X2066724Y-602663D01*
X2076422Y-612360D01*
X2079475Y-621880D01*
X2079655Y-628164D01*
X2073188Y-641098D01*
X2044273Y-670013D01*
X2074984Y-568535D02*
G01*
X2142515Y-636069D01*
X2142515Y-636069D02*
G01*
X2181131Y-597453D01*
X2134793Y-508728D02*
G01*
X2202324Y-576259D01*
X2134793Y-508728D02*
G01*
X2157422Y-486097D01*
X2170175Y-479811D01*
X2183107Y-479811D01*
X2192804Y-483044D01*
X2205738Y-489511D01*
X2221722Y-505495D01*
X2228187Y-518426D01*
X2231420Y-528126D01*
X2231242Y-540877D01*
X2224956Y-553628D01*
X2202324Y-576259D01*
X3486404Y-1295907D02*
G01*
X3481831Y-1286763D01*
X3472688Y-1277873D01*
X3463543Y-1273302D01*
X3445509Y-1273302D01*
X3436365Y-1277873D01*
X3427222Y-1286763D01*
X3422650Y-1295907D01*
X3418077Y-1309623D01*
X3418077Y-1332229D01*
X3422650Y-1345945D01*
X3427222Y-1355089D01*
X3436365Y-1364234D01*
X3445509Y-1368552D01*
X3463543Y-1368552D01*
X3472688Y-1364234D01*
X3481831Y-1355089D01*
X3486404Y-1345945D01*
X3520947Y-1295907D02*
G01*
X3520947Y-1291336D01*
X3525520Y-1282192D01*
X3529838Y-1277873D01*
X3538981Y-1273302D01*
X3557270Y-1273302D01*
X3566413Y-1277873D01*
X3570986Y-1282192D01*
X3575304Y-1291336D01*
X3575304Y-1300479D01*
X3570986Y-1309623D01*
X3561841Y-1323339D01*
X3516375Y-1368552D01*
X3579875Y-1368552D01*
X3609847Y-1273302D02*
G01*
X3609847Y-1368552D01*
X3609847Y-1273302D02*
G01*
X3650995Y-1273302D01*
X3664458Y-1277873D01*
X3669029Y-1282192D01*
X3673602Y-1291336D01*
X3673602Y-1305052D01*
X3669029Y-1314195D01*
X3664458Y-1318768D01*
X3650995Y-1323339D01*
X3609847Y-1323339D01*
X3703574Y-1273302D02*
G01*
X3703574Y-1368552D01*
X3703574Y-1368552D02*
G01*
X3758184Y-1368552D01*
X3788156Y-1273302D02*
G01*
X3788156Y-1368552D01*
X3788156Y-1273302D02*
G01*
X3819906Y-1273302D01*
X3833622Y-1277873D01*
X3842765Y-1286763D01*
X3847338Y-1295907D01*
X3851656Y-1309623D01*
X3851656Y-1332229D01*
X3847338Y-1345945D01*
X3842765Y-1355089D01*
X3833622Y-1364234D01*
X3819906Y-1368552D01*
X3788156Y-1368552D01*
X3210074Y-1907352D02*
G01*
X3201763Y-1901593D01*
X3189401Y-1898467D01*
X3179196Y-1899079D01*
X3163356Y-1908223D01*
X3157943Y-1916628D01*
X3154471Y-1928898D01*
X3155083Y-1939102D01*
X3157981Y-1953267D01*
X3169284Y-1972845D01*
X3180102Y-1982436D01*
X3188634Y-1988070D01*
X3201123Y-1991418D01*
X3211108Y-1990930D01*
X3226948Y-1981786D01*
X3232581Y-1973257D01*
X3235926Y-1960765D01*
X3235093Y-1950686D01*
X3232647Y-1868218D02*
G01*
X3275982Y-1843199D01*
X3270608Y-1888243D01*
X3282264Y-1881512D01*
X3292469Y-1880900D01*
X3298715Y-1882574D01*
X3309406Y-1891946D01*
X3313978Y-1899864D01*
X3316876Y-1914029D01*
X3313529Y-1926521D01*
X3304156Y-1937209D01*
X3292279Y-1944067D01*
X3278113Y-1946968D01*
X3271867Y-1945294D01*
X3263557Y-1939533D01*
X3305898Y-1825927D02*
G01*
X3353650Y-1908634D01*
X3305898Y-1825927D02*
G01*
X3341314Y-1805480D01*
X3355477Y-1802582D01*
X3361723Y-1804253D01*
X3370127Y-1809668D01*
X3376985Y-1821545D01*
X3377598Y-1831751D01*
X3375924Y-1837997D01*
X3366333Y-1848812D01*
X3330917Y-1869259D01*
X3387067Y-1779064D02*
G01*
X3434819Y-1861771D01*
X3434819Y-1861771D02*
G01*
X3482113Y-1834466D01*
X3460318Y-1736773D02*
G01*
X3508070Y-1819480D01*
X3460318Y-1736773D02*
G01*
X3487813Y-1720898D01*
X3501979Y-1718000D01*
X3514123Y-1721253D01*
X3522654Y-1726885D01*
X3533472Y-1736478D01*
X3544775Y-1756056D01*
X3547673Y-1770219D01*
X3548286Y-1780425D01*
X3545159Y-1792790D01*
X3535565Y-1803605D01*
X3508070Y-1819480D01*
X3022114Y-2382332D02*
G01*
X3013803Y-2376573D01*
X3001441Y-2373447D01*
X2991236Y-2374059D01*
X2975396Y-2383203D01*
X2969983Y-2391608D01*
X2966511Y-2403878D01*
X2967123Y-2414082D01*
X2970022Y-2428247D01*
X2981325Y-2447825D01*
X2992142Y-2457416D01*
X3000674Y-2463050D01*
X3013163Y-2466398D01*
X3023148Y-2465910D01*
X3038988Y-2456766D01*
X3044621Y-2448237D01*
X3047966Y-2435745D01*
X3047133Y-2425666D01*
X3090793Y-2332123D02*
G01*
X3082389Y-2326711D01*
X3068444Y-2329482D01*
X3060527Y-2334054D01*
X3050933Y-2344872D01*
X3049744Y-2361102D01*
X3057436Y-2383058D01*
X3068739Y-2402634D01*
X3081621Y-2416314D01*
X3094113Y-2419662D01*
X3108279Y-2416761D01*
X3112239Y-2414475D01*
X3121609Y-2403787D01*
X3124956Y-2391295D01*
X3122058Y-2377130D01*
X3119772Y-2373170D01*
X3109081Y-2363797D01*
X3096590Y-2360452D01*
X3082648Y-2363223D01*
X3078688Y-2365509D01*
X3069094Y-2376327D01*
X3065746Y-2388816D01*
X3068739Y-2402634D01*
X3113979Y-2303193D02*
G01*
X3161731Y-2385900D01*
X3113979Y-2303193D02*
G01*
X3149394Y-2282746D01*
X3163559Y-2279848D01*
X3169803Y-2281519D01*
X3178208Y-2286934D01*
X3185066Y-2298811D01*
X3185678Y-2309017D01*
X3184006Y-2315263D01*
X3174413Y-2326078D01*
X3138998Y-2346525D01*
X3195147Y-2256330D02*
G01*
X3242899Y-2339037D01*
X3242899Y-2339037D02*
G01*
X3290194Y-2311732D01*
X3268398Y-2214039D02*
G01*
X3316150Y-2296746D01*
X3268398Y-2214039D02*
G01*
X3295893Y-2198164D01*
X3310059Y-2195266D01*
X3322424Y-2198392D01*
X3330735Y-2204151D01*
X3341552Y-2213744D01*
X3352855Y-2233322D01*
X3355754Y-2247485D01*
X3356587Y-2257564D01*
X3353239Y-2270056D01*
X3343645Y-2280871D01*
X3316150Y-2296746D01*
X2050186Y-1815685D02*
G01*
X2059076Y-1811113D01*
X2068220Y-1801969D01*
X2072792Y-1792825D01*
X2072792Y-1774791D01*
X2068220Y-1765647D01*
X2059076Y-1756503D01*
X2050186Y-1751931D01*
X2036470Y-1747359D01*
X2013610Y-1747359D01*
X2000148Y-1751931D01*
X1991004Y-1756503D01*
X1981860Y-1765647D01*
X1977288Y-1774791D01*
X1977288Y-1792825D01*
X1981860Y-1801969D01*
X1991004Y-1811113D01*
X2000148Y-1815685D01*
X2072792Y-1909157D02*
G01*
X1977288Y-1863691D01*
X2072792Y-1845657D02*
G01*
X2072792Y-1909157D01*
X2072792Y-1939129D02*
G01*
X1977288Y-1939129D01*
X2072792Y-1939129D02*
G01*
X2072792Y-1980023D01*
X2068220Y-1993739D01*
X2063648Y-1998311D01*
X2054504Y-2002883D01*
X2041042Y-2002883D01*
X2031898Y-1998311D01*
X2027326Y-1993739D01*
X2022754Y-1980023D01*
X2022754Y-1939129D01*
X2072792Y-2032855D02*
G01*
X1977288Y-2032855D01*
X1977288Y-2032855D02*
G01*
X1977288Y-2087465D01*
X2072792Y-2117437D02*
G01*
X1977288Y-2117437D01*
X2072792Y-2117437D02*
G01*
X2072792Y-2149187D01*
X2068220Y-2162903D01*
X2059076Y-2172047D01*
X2050186Y-2176619D01*
X2036470Y-2180937D01*
X2013610Y-2180937D01*
X2000148Y-2176619D01*
X1991004Y-2172047D01*
X1981860Y-2162903D01*
X1977288Y-2149187D01*
X1977288Y-2117437D01*
X1466019Y-1877534D02*
G01*
X1461447Y-1868390D01*
X1452303Y-1859246D01*
X1443413Y-1854674D01*
X1425125Y-1854674D01*
X1415981Y-1859246D01*
X1406837Y-1868390D01*
X1402265Y-1877534D01*
X1397947Y-1891250D01*
X1397947Y-1913856D01*
X1402265Y-1927572D01*
X1406837Y-1936716D01*
X1415981Y-1945606D01*
X1425125Y-1950178D01*
X1443413Y-1950178D01*
X1452303Y-1945606D01*
X1461447Y-1936716D01*
X1466019Y-1927572D01*
X1518851Y-1854674D02*
G01*
X1505135Y-1859246D01*
X1500563Y-1868390D01*
X1500563Y-1877534D01*
X1505135Y-1886678D01*
X1514279Y-1891250D01*
X1532313Y-1895568D01*
X1546029Y-1900140D01*
X1555173Y-1909284D01*
X1559745Y-1918428D01*
X1559745Y-1932144D01*
X1555173Y-1941034D01*
X1550601Y-1945606D01*
X1536885Y-1950178D01*
X1518851Y-1950178D01*
X1505135Y-1945606D01*
X1500563Y-1941034D01*
X1495991Y-1932144D01*
X1495991Y-1918428D01*
X1500563Y-1909284D01*
X1509707Y-1900140D01*
X1523423Y-1895568D01*
X1541457Y-1891250D01*
X1550601Y-1886678D01*
X1555173Y-1877534D01*
X1555173Y-1868390D01*
X1550601Y-1859246D01*
X1536885Y-1854674D01*
X1518851Y-1854674D01*
X1589717Y-1854674D02*
G01*
X1589717Y-1950178D01*
X1589717Y-1854674D02*
G01*
X1630611Y-1854674D01*
X1644327Y-1859246D01*
X1648645Y-1863818D01*
X1653217Y-1872962D01*
X1653217Y-1886678D01*
X1648645Y-1895568D01*
X1644327Y-1900140D01*
X1630611Y-1904712D01*
X1589717Y-1904712D01*
X1683189Y-1854674D02*
G01*
X1683189Y-1950178D01*
X1683189Y-1950178D02*
G01*
X1737799Y-1950178D01*
X1767771Y-1854674D02*
G01*
X1767771Y-1950178D01*
X1767771Y-1854674D02*
G01*
X1799775Y-1854674D01*
X1813237Y-1859246D01*
X1822381Y-1868390D01*
X1826953Y-1877534D01*
X1831525Y-1891250D01*
X1831525Y-1913856D01*
X1826953Y-1927572D01*
X1822381Y-1936716D01*
X1813237Y-1945606D01*
X1799775Y-1950178D01*
X1767771Y-1950178D01*
X1151437Y-2050437D02*
G01*
X1141681Y-2053102D01*
X1131338Y-2060562D01*
X1125247Y-2068774D01*
X1122072Y-2086785D01*
X1125032Y-2096333D01*
X1132199Y-2106881D01*
X1140409Y-2112972D01*
X1153124Y-2119856D01*
X1175387Y-2123782D01*
X1189687Y-2121662D01*
X1199487Y-2118746D01*
X1210081Y-2111329D01*
X1216126Y-2103368D01*
X1219301Y-2085357D01*
X1216388Y-2075558D01*
X1208971Y-2064966D01*
X1200713Y-2059127D01*
X1152182Y-2019876D02*
G01*
X1149225Y-2010328D01*
X1138349Y-1994481D01*
X1232402Y-2011065D01*
X1148316Y-1937951D02*
G01*
X1150437Y-1952251D01*
X1162108Y-1963595D01*
X1183825Y-1972066D01*
X1197084Y-1974405D01*
X1220391Y-1973872D01*
X1235486Y-1967247D01*
X1242369Y-1954535D01*
X1243914Y-1945779D01*
X1241793Y-1931476D01*
X1229873Y-1920090D01*
X1208153Y-1911619D01*
X1194897Y-1909282D01*
X1171590Y-1909813D01*
X1156743Y-1916480D01*
X1149860Y-1929196D01*
X1148316Y-1937951D01*
X1159827Y-1872663D02*
G01*
X1253881Y-1889246D01*
X1159827Y-1872663D02*
G01*
X1166929Y-1832391D01*
X1173815Y-1819676D01*
X1179065Y-1816219D01*
X1188615Y-1813260D01*
X1202123Y-1815642D01*
X1210332Y-1821731D01*
X1214086Y-1826778D01*
X1216207Y-1841080D01*
X1209106Y-1881352D01*
X1176060Y-1780611D02*
G01*
X1270111Y-1797194D01*
X1270111Y-1797194D02*
G01*
X1279596Y-1743415D01*
X1190746Y-1697314D02*
G01*
X1284800Y-1713898D01*
X1190746Y-1697314D02*
G01*
X1196304Y-1665798D01*
X1203144Y-1653334D01*
X1213487Y-1645871D01*
X1223286Y-1642958D01*
X1237589Y-1640837D01*
X1259850Y-1644761D01*
X1272565Y-1651645D01*
X1280774Y-1657736D01*
X1288194Y-1668330D01*
X1290358Y-1682381D01*
X1284800Y-1713898D01*
X178562Y-916939D02*
G01*
X274065Y-916939D01*
X178562Y-916939D02*
G01*
X178562Y-876045D01*
X183134Y-862329D01*
X187705Y-857757D01*
X196595Y-853186D01*
X210312Y-853186D01*
X219455Y-857757D01*
X224028Y-862329D01*
X228600Y-876045D01*
X228600Y-916939D01*
X178562Y-823213D02*
G01*
X274065Y-823213D01*
X274065Y-823213D02*
G01*
X274065Y-768857D01*
X178562Y-738631D02*
G01*
X274065Y-738631D01*
X178562Y-738631D02*
G01*
X178562Y-706881D01*
X183134Y-693420D01*
X192023Y-684276D01*
X201168Y-679704D01*
X214884Y-675131D01*
X237489Y-675131D01*
X251205Y-679704D01*
X260350Y-684276D01*
X269494Y-693420D01*
X274065Y-706881D01*
X274065Y-738631D01*
X178562Y-645160D02*
G01*
X274065Y-645160D01*
X274065Y-645160D02*
G01*
X274065Y-590550D01*
X178562Y-560578D02*
G01*
X274065Y-560578D01*
X178562Y-560578D02*
G01*
X178562Y-528828D01*
X183134Y-515112D01*
X192023Y-505968D01*
X201168Y-501395D01*
X214884Y-496823D01*
X237489Y-496823D01*
X251205Y-501395D01*
X260350Y-505968D01*
X269494Y-515112D01*
X274065Y-528828D01*
X274065Y-560578D01*
X5969988Y-7099147D02*
G01*
X5969988Y-7194651D01*
X5969988Y-7099147D02*
G01*
X6010882Y-7099147D01*
X6024598Y-7103719D01*
X6029170Y-7108291D01*
X6033742Y-7117181D01*
X6033742Y-7130897D01*
X6029170Y-7140041D01*
X6024598Y-7144613D01*
X6010882Y-7149185D01*
X5969988Y-7149185D01*
X6063714Y-7099147D02*
G01*
X6086320Y-7194651D01*
X6109180Y-7099147D02*
G01*
X6086320Y-7194651D01*
X6109180Y-7099147D02*
G01*
X6131786Y-7194651D01*
X6154646Y-7099147D02*
G01*
X6131786Y-7194651D01*
X6184618Y-7099147D02*
G01*
X6184618Y-7194651D01*
X6184618Y-7099147D02*
G01*
X6225512Y-7099147D01*
X6238974Y-7103719D01*
X6243546Y-7108291D01*
X6248118Y-7117181D01*
X6248118Y-7126325D01*
X6243546Y-7135469D01*
X6238974Y-7140041D01*
X6225512Y-7144613D01*
X6184618Y-7144613D01*
X6216368Y-7144613D02*
G01*
X6248118Y-7194651D01*
X683260Y-1885442D02*
G01*
X683260Y-1980945D01*
X683260Y-1885442D02*
G01*
X724154Y-1885442D01*
X737870Y-1890013D01*
X742442Y-1894586D01*
X747013Y-1903476D01*
X747013Y-1912620D01*
X742442Y-1921763D01*
X737870Y-1926336D01*
X724154Y-1930907D01*
X683260Y-1930907D01*
X715010Y-1930907D02*
G01*
X747013Y-1980945D01*
X776986Y-1903476D02*
G01*
X785876Y-1898904D01*
X799592Y-1885442D01*
X799592Y-1980945D01*
X829563Y-1885442D02*
G01*
X829563Y-1953513D01*
X834136Y-1967229D01*
X843279Y-1976373D01*
X856995Y-1980945D01*
X865886Y-1980945D01*
X879602Y-1976373D01*
X888745Y-1967229D01*
X893318Y-1953513D01*
X893318Y-1885442D01*
X986789Y-1898904D02*
G01*
X977900Y-1890013D01*
X964184Y-1885442D01*
X945895Y-1885442D01*
X932434Y-1890013D01*
X923289Y-1898904D01*
X923289Y-1908047D01*
X927862Y-1917192D01*
X932434Y-1921763D01*
X941323Y-1926336D01*
X968755Y-1935479D01*
X977900Y-1939797D01*
X982471Y-1944370D01*
X986789Y-1953513D01*
X986789Y-1967229D01*
X977900Y-1976373D01*
X964184Y-1980945D01*
X945895Y-1980945D01*
X932434Y-1976373D01*
X923289Y-1967229D01*
X1017015Y-1885442D02*
G01*
X1017015Y-1980945D01*
X1017015Y-1885442D02*
G01*
X1057910Y-1885442D01*
X1071371Y-1890013D01*
X1075944Y-1894586D01*
X1080515Y-1903476D01*
X1080515Y-1912620D01*
X1075944Y-1921763D01*
X1071371Y-1926336D01*
X1057910Y-1930907D01*
X1017015Y-1930907D02*
G01*
X1057910Y-1930907D01*
X1071371Y-1935479D01*
X1075944Y-1939797D01*
X1080515Y-1948942D01*
X1080515Y-1962657D01*
X1075944Y-1971802D01*
X1071371Y-1976373D01*
X1057910Y-1980945D01*
X1017015Y-1980945D01*
X4792979Y-6533642D02*
G01*
X4792979Y-6629145D01*
X4792979Y-6533642D02*
G01*
X4833874Y-6533642D01*
X4847590Y-6538213D01*
X4852161Y-6542786D01*
X4856734Y-6551676D01*
X4856734Y-6560820D01*
X4852161Y-6569963D01*
X4847590Y-6574536D01*
X4833874Y-6579108D01*
X4792979Y-6579108D01*
X4824729Y-6579108D02*
G01*
X4856734Y-6629145D01*
X4886706Y-6551676D02*
G01*
X4895595Y-6547104D01*
X4909311Y-6533642D01*
X4909311Y-6629145D01*
X4939284Y-6660895D02*
G01*
X5021072Y-6660895D01*
X5051043Y-6533642D02*
G01*
X5051043Y-6629145D01*
X5051043Y-6629145D02*
G01*
X5105654Y-6629145D01*
X335914Y-2374925D02*
G01*
X267843Y-2374925D01*
X254127Y-2379497D01*
X244982Y-2388641D01*
X240411Y-2402357D01*
X240411Y-2411247D01*
X244982Y-2424963D01*
X254127Y-2434107D01*
X267843Y-2438679D01*
X335914Y-2438679D01*
X322198Y-2532151D02*
G01*
X331343Y-2523261D01*
X335914Y-2509545D01*
X335914Y-2491257D01*
X331343Y-2477795D01*
X322198Y-2468651D01*
X313309Y-2468651D01*
X304164Y-2473223D01*
X299593Y-2477795D01*
X295020Y-2486685D01*
X285877Y-2514117D01*
X281304Y-2523261D01*
X276732Y-2527579D01*
X267843Y-2532151D01*
X254127Y-2532151D01*
X244982Y-2523261D01*
X240411Y-2509545D01*
X240411Y-2491257D01*
X244982Y-2477795D01*
X254127Y-2468651D01*
X335914Y-2562123D02*
G01*
X240411Y-2562123D01*
X335914Y-2562123D02*
G01*
X335914Y-2603271D01*
X331343Y-2616733D01*
X326770Y-2621305D01*
X317627Y-2625877D01*
X308737Y-2625877D01*
X299593Y-2621305D01*
X295020Y-2616733D01*
X290448Y-2603271D01*
X290448Y-2562123D02*
G01*
X290448Y-2603271D01*
X285877Y-2616733D01*
X281304Y-2621305D01*
X272161Y-2625877D01*
X258698Y-2625877D01*
X249554Y-2621305D01*
X244982Y-2616733D01*
X240411Y-2603271D01*
X240411Y-2562123D01*
X7451648Y-5234914D02*
G01*
X7356144Y-5234914D01*
X7356144Y-5234914D02*
G01*
X7356144Y-5289524D01*
X2854959Y-6305042D02*
G01*
X2854959Y-6400545D01*
X2854959Y-6305042D02*
G01*
X2895854Y-6305042D01*
X2909570Y-6309613D01*
X2914141Y-6314186D01*
X2918713Y-6323076D01*
X2918713Y-6332220D01*
X2914141Y-6341363D01*
X2909570Y-6345936D01*
X2895854Y-6350507D01*
X2854959Y-6350507D01*
X2886709Y-6350507D02*
G01*
X2918713Y-6400545D01*
X2948686Y-6323076D02*
G01*
X2957575Y-6318504D01*
X2971291Y-6305042D01*
X2971291Y-6400545D01*
X3001263Y-6305042D02*
G01*
X3001263Y-6400545D01*
X3001263Y-6305042D02*
G01*
X3042158Y-6305042D01*
X3055874Y-6309613D01*
X3060445Y-6314186D01*
X3065018Y-6323076D01*
X3065018Y-6332220D01*
X3060445Y-6341363D01*
X3055874Y-6345936D01*
X3042158Y-6350507D01*
X3001263Y-6350507D02*
G01*
X3042158Y-6350507D01*
X3055874Y-6355079D01*
X3060445Y-6359397D01*
X3065018Y-6368542D01*
X3065018Y-6382257D01*
X3060445Y-6391402D01*
X3055874Y-6395973D01*
X3042158Y-6400545D01*
X3001263Y-6400545D01*
X1521602Y-4652975D02*
G01*
X1454071Y-4720508D01*
X1521602Y-4652975D02*
G01*
X1550517Y-4681893D01*
X1556984Y-4694824D01*
X1556984Y-4701288D01*
X1553751Y-4710988D01*
X1547464Y-4717275D01*
X1537766Y-4720508D01*
X1531299Y-4720508D01*
X1518368Y-4714041D01*
X1489453Y-4685126D01*
X1512082Y-4707755D02*
G01*
X1499151Y-4765588D01*
X1574944Y-4732182D02*
G01*
X1584642Y-4735415D01*
X1604040Y-4735415D01*
X1536509Y-4802946D01*
X1625234Y-4756607D02*
G01*
X1557703Y-4824140D01*
X1633674Y-4797018D02*
G01*
X1636727Y-4793965D01*
X1646428Y-4790732D01*
X1652714Y-4790554D01*
X1662412Y-4793785D01*
X1675343Y-4806718D01*
X1678576Y-4816416D01*
X1678576Y-4822883D01*
X1675165Y-4832400D01*
X1668879Y-4838687D01*
X1659359Y-4842101D01*
X1643194Y-4845331D01*
X1578897Y-4845331D01*
X1623796Y-4890234D01*
X1744850Y-4908194D02*
G01*
X1747903Y-4898677D01*
X1747903Y-4885743D01*
X1744672Y-4876045D01*
X1731919Y-4863294D01*
X1722221Y-4860061D01*
X1709290Y-4860061D01*
X1699770Y-4863114D01*
X1686839Y-4869578D01*
X1670674Y-4885743D01*
X1664388Y-4898496D01*
X1661154Y-4908194D01*
X1661154Y-4921125D01*
X1664388Y-4930825D01*
X1677139Y-4943576D01*
X1686839Y-4946810D01*
X1699770Y-4946810D01*
X1709468Y-4943576D01*
X1168400Y-4930902D02*
G01*
X1168400Y-5026405D01*
X1168400Y-4930902D02*
G01*
X1209294Y-4930902D01*
X1223010Y-4935473D01*
X1227581Y-4940045D01*
X1232154Y-4948936D01*
X1232154Y-4958079D01*
X1227581Y-4967223D01*
X1223010Y-4971795D01*
X1209294Y-4976368D01*
X1168400Y-4976368D01*
X1200150Y-4976368D02*
G01*
X1232154Y-5026405D01*
X1266697Y-4953507D02*
G01*
X1266697Y-4948936D01*
X1271015Y-4940045D01*
X1275587Y-4935473D01*
X1284731Y-4930902D01*
X1303020Y-4930902D01*
X1311910Y-4935473D01*
X1316481Y-4940045D01*
X1321054Y-4948936D01*
X1321054Y-4958079D01*
X1316481Y-4967223D01*
X1307592Y-4980939D01*
X1262126Y-5026405D01*
X1325626Y-5026405D01*
X1355597Y-4930902D02*
G01*
X1355597Y-5026405D01*
X1390142Y-4953507D02*
G01*
X1390142Y-4948936D01*
X1394713Y-4940045D01*
X1399286Y-4935473D01*
X1408429Y-4930902D01*
X1426463Y-4930902D01*
X1435607Y-4935473D01*
X1440179Y-4940045D01*
X1444752Y-4948936D01*
X1444752Y-4958079D01*
X1440179Y-4967223D01*
X1431036Y-4980939D01*
X1385570Y-5026405D01*
X1449323Y-5026405D01*
X1547368Y-4953507D02*
G01*
X1543050Y-4944363D01*
X1533905Y-4935473D01*
X1524762Y-4930902D01*
X1506473Y-4930902D01*
X1497584Y-4935473D01*
X1488439Y-4944363D01*
X1483868Y-4953507D01*
X1479295Y-4967223D01*
X1479295Y-4989829D01*
X1483868Y-5003545D01*
X1488439Y-5012689D01*
X1497584Y-5021834D01*
X1506473Y-5026405D01*
X1524762Y-5026405D01*
X1533905Y-5021834D01*
X1543050Y-5012689D01*
X1547368Y-5003545D01*
D11*
X6527533Y-2925251D02*
G01*
X6444221Y-2925251D01*
X6485877Y-2883595D02*
G01*
X6485877Y-2966653D01*
X6485877Y-2312095D02*
G01*
X6485877Y-2395153D01*
X6517533Y-1920252D02*
G01*
X6434221Y-1920252D01*
X6475877Y-1878596D02*
G01*
X6475877Y-1961654D01*
X6475877Y-1307096D02*
G01*
X6475877Y-1390154D01*
D10*
X2964169Y-2815010D02*
G01*
X2964169Y-2910514D01*
X2964169Y-2815010D02*
G01*
X3005063Y-2815010D01*
X3018779Y-2819582D01*
X3023351Y-2824154D01*
X3027923Y-2833298D01*
X3027923Y-2842188D01*
X3023351Y-2851332D01*
X3018779Y-2855904D01*
X3005063Y-2860476D01*
X2964169Y-2860476D01*
X2995919Y-2860476D02*
G01*
X3027923Y-2910514D01*
X3057895Y-2833298D02*
G01*
X3066785Y-2828726D01*
X3080501Y-2815010D01*
X3080501Y-2910514D01*
X3178799Y-2837870D02*
G01*
X3174227Y-2828726D01*
X3165083Y-2819582D01*
X3155939Y-2815010D01*
X3137905Y-2815010D01*
X3128761Y-2819582D01*
X3119617Y-2828726D01*
X3115045Y-2837870D01*
X3110473Y-2851332D01*
X3110473Y-2874192D01*
X3115045Y-2887654D01*
X3119617Y-2896798D01*
X3128761Y-2905942D01*
X3137905Y-2910514D01*
X3155939Y-2910514D01*
X3165083Y-2905942D01*
X3174227Y-2896798D01*
X3178799Y-2887654D01*
X3178799Y-2874192D01*
X3155939Y-2874192D02*
G01*
X3178799Y-2874192D01*
X3942113Y-3620160D02*
G01*
X3942113Y-3715664D01*
X3942113Y-3620160D02*
G01*
X3983007Y-3620160D01*
X3996723Y-3624732D01*
X4001041Y-3629304D01*
X4005613Y-3638448D01*
X4005613Y-3647592D01*
X4001041Y-3656482D01*
X3996723Y-3661054D01*
X3983007Y-3665626D01*
X3942113Y-3665626D01*
X3973863Y-3665626D02*
G01*
X4005613Y-3715664D01*
X4090195Y-3633876D02*
G01*
X4085623Y-3624732D01*
X4072161Y-3620160D01*
X4063017Y-3620160D01*
X4049301Y-3624732D01*
X4040157Y-3638448D01*
X4035585Y-3661054D01*
X4035585Y-3683914D01*
X4040157Y-3701948D01*
X4049301Y-3711092D01*
X4063017Y-3715664D01*
X4067589Y-3715664D01*
X4081051Y-3711092D01*
X4090195Y-3701948D01*
X4094767Y-3688486D01*
X4094767Y-3683914D01*
X4090195Y-3670198D01*
X4081051Y-3661054D01*
X4067589Y-3656482D01*
X4063017Y-3656482D01*
X4049301Y-3661054D01*
X4040157Y-3670198D01*
X4035585Y-3683914D01*
X4152171Y-3620160D02*
G01*
X4143027Y-3624732D01*
X4133883Y-3633876D01*
X4129311Y-3643020D01*
X4124739Y-3656482D01*
X4124739Y-3679342D01*
X4129311Y-3692804D01*
X4133883Y-3701948D01*
X4143027Y-3711092D01*
X4152171Y-3715664D01*
X4170205Y-3715664D01*
X4179349Y-3711092D01*
X4188493Y-3701948D01*
X4193065Y-3692804D01*
X4197637Y-3679342D01*
X4197637Y-3656482D01*
X4193065Y-3643020D01*
X4188493Y-3633876D01*
X4179349Y-3624732D01*
X4170205Y-3620160D01*
X4152171Y-3620160D01*
X4227609Y-3620160D02*
G01*
X4227609Y-3715664D01*
X4227609Y-3620160D02*
G01*
X4259359Y-3620160D01*
X4273075Y-3624732D01*
X4281965Y-3633876D01*
X4286537Y-3643020D01*
X4291109Y-3656482D01*
X4291109Y-3679342D01*
X4286537Y-3692804D01*
X4281965Y-3701948D01*
X4273075Y-3711092D01*
X4259359Y-3715664D01*
X4227609Y-3715664D01*
X3675278Y-6531076D02*
G01*
X3675278Y-6626580D01*
X3675278Y-6531076D02*
G01*
X3739032Y-6626580D01*
X3739032Y-6531076D02*
G01*
X3739032Y-6626580D01*
X3769004Y-6531076D02*
G01*
X3769004Y-6626580D01*
X3769004Y-6531076D02*
G01*
X3809898Y-6531076D01*
X3823614Y-6535648D01*
X3828186Y-6540220D01*
X3832758Y-6549110D01*
X3832758Y-6558254D01*
X3828186Y-6567398D01*
X3823614Y-6571970D01*
X3809898Y-6576542D01*
X3769004Y-6576542D01*
X3800754Y-6576542D02*
G01*
X3832758Y-6626580D01*
X3926230Y-6544792D02*
G01*
X3917086Y-6535648D01*
X3903624Y-6531076D01*
X3885336Y-6531076D01*
X3871620Y-6535648D01*
X3862730Y-6544792D01*
X3862730Y-6553682D01*
X3867302Y-6562826D01*
X3871620Y-6567398D01*
X3880764Y-6571970D01*
X3908196Y-6581114D01*
X3917086Y-6585686D01*
X3921658Y-6590004D01*
X3926230Y-6599148D01*
X3926230Y-6612864D01*
X3917086Y-6622008D01*
X3903624Y-6626580D01*
X3885336Y-6626580D01*
X3871620Y-6622008D01*
X3862730Y-6612864D01*
X3988206Y-6531076D02*
G01*
X3988206Y-6626580D01*
X3956202Y-6531076D02*
G01*
X4019956Y-6531076D01*
X5586729Y-6421889D02*
G01*
X5577840Y-6426461D01*
X5568695Y-6435351D01*
X5564124Y-6444495D01*
X5564124Y-6462783D01*
X5568695Y-6471927D01*
X5577840Y-6480817D01*
X5586729Y-6485389D01*
X5600445Y-6489961D01*
X5623052Y-6489961D01*
X5636768Y-6485389D01*
X5645911Y-6480817D01*
X5655056Y-6471927D01*
X5659627Y-6462783D01*
X5659627Y-6444495D01*
X5655056Y-6435351D01*
X5645911Y-6426461D01*
X5636768Y-6421889D01*
X5582158Y-6391917D02*
G01*
X5577840Y-6382773D01*
X5564124Y-6369057D01*
X5659627Y-6369057D01*
X5577840Y-6275331D02*
G01*
X5568695Y-6284475D01*
X5564124Y-6298191D01*
X5564124Y-6316225D01*
X5568695Y-6329941D01*
X5577840Y-6339085D01*
X5586729Y-6339085D01*
X5595874Y-6334513D01*
X5600445Y-6329941D01*
X5605018Y-6320797D01*
X5614161Y-6293619D01*
X5618734Y-6284475D01*
X5623052Y-6279903D01*
X5632195Y-6275331D01*
X5645911Y-6275331D01*
X5655056Y-6284475D01*
X5659627Y-6298191D01*
X5659627Y-6316225D01*
X5655056Y-6329941D01*
X5645911Y-6339085D01*
X5564124Y-6245359D02*
G01*
X5659627Y-6222753D01*
X5564124Y-6199893D02*
G01*
X5659627Y-6222753D01*
X5564124Y-6199893D02*
G01*
X5659627Y-6177287D01*
X5564124Y-6154427D02*
G01*
X5659627Y-6177287D01*
X5564124Y-6124455D02*
G01*
X5659627Y-6124455D01*
X5564124Y-6124455D02*
G01*
X5564124Y-6083561D01*
X5568695Y-6070099D01*
X5573268Y-6065527D01*
X5582158Y-6060955D01*
X5591302Y-6060955D01*
X5600445Y-6065527D01*
X5605018Y-6070099D01*
X5609590Y-6083561D01*
X5609590Y-6124455D01*
X5609590Y-6092705D02*
G01*
X5659627Y-6060955D01*
X6821931Y-5293868D02*
G01*
X6817613Y-5284723D01*
X6808470Y-5275834D01*
X6799325Y-5271262D01*
X6781038Y-5271262D01*
X6772147Y-5275834D01*
X6763004Y-5284723D01*
X6758431Y-5293868D01*
X6753859Y-5307584D01*
X6753859Y-5330189D01*
X6758431Y-5343905D01*
X6763004Y-5353050D01*
X6772147Y-5362194D01*
X6781038Y-5366765D01*
X6799325Y-5366765D01*
X6808470Y-5362194D01*
X6817613Y-5353050D01*
X6821931Y-5343905D01*
X6856475Y-5293868D02*
G01*
X6856475Y-5289295D01*
X6861047Y-5280405D01*
X6865620Y-5275834D01*
X6874763Y-5271262D01*
X6893052Y-5271262D01*
X6901941Y-5275834D01*
X6906513Y-5280405D01*
X6911086Y-5289295D01*
X6911086Y-5298439D01*
X6906513Y-5307584D01*
X6897370Y-5321300D01*
X6852158Y-5366765D01*
X6915658Y-5366765D01*
X7009384Y-5284723D02*
G01*
X7000240Y-5275834D01*
X6986524Y-5271262D01*
X6968490Y-5271262D01*
X6954774Y-5275834D01*
X6945629Y-5284723D01*
X6945629Y-5293868D01*
X6950202Y-5303012D01*
X6954774Y-5307584D01*
X6963918Y-5312155D01*
X6991095Y-5321300D01*
X7000240Y-5325618D01*
X7004811Y-5330189D01*
X7009384Y-5339334D01*
X7009384Y-5353050D01*
X7000240Y-5362194D01*
X6986524Y-5366765D01*
X6968490Y-5366765D01*
X6954774Y-5362194D01*
X6945629Y-5353050D01*
X7039356Y-5271262D02*
G01*
X7061961Y-5366765D01*
X7084822Y-5271262D02*
G01*
X7061961Y-5366765D01*
X7084822Y-5271262D02*
G01*
X7107427Y-5366765D01*
X7130288Y-5271262D02*
G01*
X7107427Y-5366765D01*
X7160259Y-5271262D02*
G01*
X7160259Y-5366765D01*
X7160259Y-5271262D02*
G01*
X7201154Y-5271262D01*
X7214870Y-5275834D01*
X7219188Y-5280405D01*
X7223759Y-5289295D01*
X7223759Y-5298439D01*
X7219188Y-5307584D01*
X7214870Y-5312155D01*
X7201154Y-5316728D01*
X7160259Y-5316728D01*
X7192009Y-5316728D02*
G01*
X7223759Y-5366765D01*
X6269802Y-3992740D02*
G01*
X6265230Y-3983850D01*
X6256086Y-3974706D01*
X6246942Y-3970134D01*
X6228908Y-3970134D01*
X6219764Y-3974706D01*
X6210620Y-3983850D01*
X6206048Y-3992740D01*
X6201476Y-4006456D01*
X6201476Y-4029316D01*
X6206048Y-4042778D01*
X6210620Y-4051922D01*
X6219764Y-4061066D01*
X6228908Y-4065638D01*
X6246942Y-4065638D01*
X6256086Y-4061066D01*
X6265230Y-4051922D01*
X6269802Y-4042778D01*
X6308918Y-3970134D02*
G01*
X6358702Y-3970134D01*
X6331524Y-4006456D01*
X6345240Y-4006456D01*
X6354384Y-4011028D01*
X6358702Y-4015600D01*
X6363274Y-4029316D01*
X6363274Y-4038206D01*
X6358702Y-4051922D01*
X6349812Y-4061066D01*
X6336096Y-4065638D01*
X6322380Y-4065638D01*
X6308918Y-4061066D01*
X6304346Y-4056494D01*
X6299774Y-4047350D01*
X6457000Y-3983850D02*
G01*
X6447856Y-3974706D01*
X6434394Y-3970134D01*
X6416106Y-3970134D01*
X6402390Y-3974706D01*
X6393246Y-3983850D01*
X6393246Y-3992740D01*
X6397818Y-4001884D01*
X6402390Y-4006456D01*
X6411534Y-4011028D01*
X6438712Y-4020172D01*
X6447856Y-4024744D01*
X6452428Y-4029316D01*
X6457000Y-4038206D01*
X6457000Y-4051922D01*
X6447856Y-4061066D01*
X6434394Y-4065638D01*
X6416106Y-4065638D01*
X6402390Y-4061066D01*
X6393246Y-4051922D01*
X6486972Y-3970134D02*
G01*
X6509832Y-4065638D01*
X6532438Y-3970134D02*
G01*
X6509832Y-4065638D01*
X6532438Y-3970134D02*
G01*
X6555298Y-4065638D01*
X6577904Y-3970134D02*
G01*
X6555298Y-4065638D01*
X6607876Y-3970134D02*
G01*
X6607876Y-4065638D01*
X6607876Y-3970134D02*
G01*
X6648770Y-3970134D01*
X6662486Y-3974706D01*
X6667058Y-3979278D01*
X6671630Y-3988168D01*
X6671630Y-3997312D01*
X6667058Y-4006456D01*
X6662486Y-4011028D01*
X6648770Y-4015600D01*
X6607876Y-4015600D01*
X6639626Y-4015600D02*
G01*
X6671630Y-4065638D01*
X5586882Y-5906815D02*
G01*
X5577738Y-5911387D01*
X5568594Y-5920531D01*
X5564022Y-5929421D01*
X5564022Y-5947709D01*
X5568594Y-5956853D01*
X5577738Y-5965997D01*
X5586882Y-5970569D01*
X5600344Y-5974887D01*
X5623204Y-5974887D01*
X5636920Y-5970569D01*
X5645810Y-5965997D01*
X5654954Y-5956853D01*
X5659526Y-5947709D01*
X5659526Y-5929421D01*
X5654954Y-5920531D01*
X5645810Y-5911387D01*
X5636920Y-5906815D01*
X5564022Y-5831377D02*
G01*
X5627776Y-5876843D01*
X5627776Y-5808517D01*
X5564022Y-5831377D02*
G01*
X5659526Y-5831377D01*
X5577738Y-5715045D02*
G01*
X5568594Y-5724189D01*
X5564022Y-5737651D01*
X5564022Y-5755939D01*
X5568594Y-5769655D01*
X5577738Y-5778545D01*
X5586882Y-5778545D01*
X5595772Y-5773973D01*
X5600344Y-5769655D01*
X5604916Y-5760511D01*
X5614060Y-5733079D01*
X5618632Y-5724189D01*
X5623204Y-5719617D01*
X5632348Y-5715045D01*
X5645810Y-5715045D01*
X5654954Y-5724189D01*
X5659526Y-5737651D01*
X5659526Y-5755939D01*
X5654954Y-5769655D01*
X5645810Y-5778545D01*
X5564022Y-5685073D02*
G01*
X5659526Y-5662213D01*
X5564022Y-5639607D02*
G01*
X5659526Y-5662213D01*
X5564022Y-5639607D02*
G01*
X5659526Y-5616747D01*
X5564022Y-5594141D02*
G01*
X5659526Y-5616747D01*
X5564022Y-5564169D02*
G01*
X5659526Y-5564169D01*
X5564022Y-5564169D02*
G01*
X5564022Y-5523275D01*
X5568594Y-5509559D01*
X5573166Y-5504987D01*
X5582310Y-5500415D01*
X5591454Y-5500415D01*
X5600344Y-5504987D01*
X5604916Y-5509559D01*
X5609488Y-5523275D01*
X5609488Y-5564169D01*
X5609488Y-5532165D02*
G01*
X5659526Y-5500415D01*
X7426197Y-5829300D02*
G01*
X7330693Y-5829300D01*
X7426197Y-5829300D02*
G01*
X7426197Y-5861050D01*
X7421625Y-5874765D01*
X7412736Y-5883910D01*
X7403591Y-5888481D01*
X7389875Y-5893054D01*
X7367270Y-5893054D01*
X7353554Y-5888481D01*
X7344409Y-5883910D01*
X7335265Y-5874765D01*
X7330693Y-5861050D01*
X7330693Y-5829300D01*
X7412736Y-5986526D02*
G01*
X7421625Y-5977381D01*
X7426197Y-5963920D01*
X7426197Y-5945631D01*
X7421625Y-5931915D01*
X7412736Y-5923026D01*
X7403591Y-5923026D01*
X7394447Y-5927597D01*
X7389875Y-5931915D01*
X7385304Y-5941060D01*
X7376159Y-5968492D01*
X7371841Y-5977381D01*
X7367270Y-5981954D01*
X7358125Y-5986526D01*
X7344409Y-5986526D01*
X7335265Y-5977381D01*
X7330693Y-5963920D01*
X7330693Y-5945631D01*
X7335265Y-5931915D01*
X7344409Y-5923026D01*
X7426197Y-6016497D02*
G01*
X7330693Y-6039357D01*
X7426197Y-6061963D02*
G01*
X7330693Y-6039357D01*
X7426197Y-6061963D02*
G01*
X7330693Y-6084823D01*
X7426197Y-6107429D02*
G01*
X7330693Y-6084823D01*
X7426197Y-6137402D02*
G01*
X7330693Y-6137402D01*
X7426197Y-6137402D02*
G01*
X7426197Y-6178295D01*
X7421625Y-6192012D01*
X7417054Y-6196584D01*
X7408163Y-6201155D01*
X7399020Y-6201155D01*
X7389875Y-6196584D01*
X7385304Y-6192012D01*
X7380731Y-6178295D01*
X7380731Y-6137402D01*
X7380731Y-6169405D02*
G01*
X7330693Y-6201155D01*
X7408163Y-6231128D02*
G01*
X7412736Y-6240271D01*
X7426197Y-6253734D01*
X7330693Y-6253734D01*
X771585Y-4030568D02*
G01*
X780729Y-4025996D01*
X789873Y-4016852D01*
X794191Y-4007962D01*
X794191Y-3989674D01*
X789873Y-3980530D01*
X780729Y-3971386D01*
X771585Y-3966814D01*
X757869Y-3962496D01*
X735263Y-3962496D01*
X721547Y-3966814D01*
X712403Y-3971386D01*
X703513Y-3980530D01*
X698941Y-3989674D01*
X698941Y-4007962D01*
X703513Y-4016852D01*
X712403Y-4025996D01*
X721547Y-4030568D01*
X735263Y-4030568D01*
X735263Y-4007962D02*
G01*
X735263Y-4030568D01*
X794191Y-4060540D02*
G01*
X698941Y-4060540D01*
X794191Y-4060540D02*
G01*
X794191Y-4101434D01*
X789873Y-4115150D01*
X785301Y-4119722D01*
X776157Y-4124294D01*
X762441Y-4124294D01*
X753297Y-4119722D01*
X748979Y-4115150D01*
X744407Y-4101434D01*
X744407Y-4060540D01*
X780729Y-4217766D02*
G01*
X789873Y-4208876D01*
X794191Y-4195160D01*
X794191Y-4176872D01*
X789873Y-4163410D01*
X780729Y-4154266D01*
X771585Y-4154266D01*
X762441Y-4158838D01*
X757869Y-4163410D01*
X753297Y-4172300D01*
X744407Y-4199732D01*
X739835Y-4208876D01*
X735263Y-4213194D01*
X726119Y-4217766D01*
X712403Y-4217766D01*
X703513Y-4208876D01*
X698941Y-4195160D01*
X698941Y-4176872D01*
X703513Y-4163410D01*
X712403Y-4154266D01*
X756251Y-5326451D02*
G01*
X660747Y-5326451D01*
X756251Y-5326451D02*
G01*
X660747Y-5362773D01*
X756251Y-5399095D02*
G01*
X660747Y-5362773D01*
X756251Y-5399095D02*
G01*
X660747Y-5399095D01*
X756251Y-5460817D02*
G01*
X660747Y-5460817D01*
X756251Y-5429067D02*
G01*
X756251Y-5492821D01*
X756251Y-5522793D02*
G01*
X660747Y-5522793D01*
X756251Y-5522793D02*
G01*
X756251Y-5563687D01*
X751679Y-5577403D01*
X747107Y-5581721D01*
X737963Y-5586293D01*
X729073Y-5586293D01*
X719929Y-5581721D01*
X715357Y-5577403D01*
X710785Y-5563687D01*
X710785Y-5522793D01*
X710785Y-5554543D02*
G01*
X660747Y-5586293D01*
X628997Y-5616265D02*
G01*
X628997Y-5698307D01*
X756251Y-5728279D02*
G01*
X660747Y-5728279D01*
X756251Y-5728279D02*
G01*
X756251Y-5769173D01*
X751679Y-5782635D01*
X747107Y-5787207D01*
X737963Y-5791779D01*
X724501Y-5791779D01*
X715357Y-5787207D01*
X710785Y-5782635D01*
X706213Y-5769173D01*
X706213Y-5728279D01*
X756251Y-5821751D02*
G01*
X660747Y-5844611D01*
X756251Y-5867217D02*
G01*
X660747Y-5844611D01*
X756251Y-5867217D02*
G01*
X660747Y-5890077D01*
X756251Y-5912683D02*
G01*
X660747Y-5890077D01*
X756251Y-5942655D02*
G01*
X660747Y-5942655D01*
X756251Y-5942655D02*
G01*
X660747Y-5978977D01*
X756251Y-6015553D02*
G01*
X660747Y-5978977D01*
X756251Y-6015553D02*
G01*
X660747Y-6015553D01*
X4754803Y-7036587D02*
G01*
X4754803Y-7131837D01*
X4754803Y-7036587D02*
G01*
X4795697Y-7036587D01*
X4809413Y-7041159D01*
X4813985Y-7045477D01*
X4818557Y-7054621D01*
X4818557Y-7068337D01*
X4813985Y-7077481D01*
X4809413Y-7082053D01*
X4795697Y-7086371D01*
X4754803Y-7086371D01*
X4848529Y-7036587D02*
G01*
X4871135Y-7131837D01*
X4893995Y-7036587D02*
G01*
X4871135Y-7131837D01*
X4893995Y-7036587D02*
G01*
X4916601Y-7131837D01*
X4939461Y-7036587D02*
G01*
X4916601Y-7131837D01*
X4969433Y-7036587D02*
G01*
X4969433Y-7131837D01*
X4969433Y-7036587D02*
G01*
X5010327Y-7036587D01*
X5024043Y-7041159D01*
X5028615Y-7045477D01*
X5033187Y-7054621D01*
X5033187Y-7063765D01*
X5028615Y-7072909D01*
X5024043Y-7077481D01*
X5010327Y-7082053D01*
X4969433Y-7082053D01*
X5001183Y-7082053D02*
G01*
X5033187Y-7131837D01*
X5063159Y-7036587D02*
G01*
X5063159Y-7131837D01*
X5063159Y-7131837D02*
G01*
X5117515Y-7131837D01*
X5147487Y-7036587D02*
G01*
X5147487Y-7131837D01*
X5147487Y-7036587D02*
G01*
X5206669Y-7036587D01*
X5147487Y-7082053D02*
G01*
X5184063Y-7082053D01*
X5147487Y-7131837D02*
G01*
X5206669Y-7131837D01*
X5236641Y-7036587D02*
G01*
X5236641Y-7131837D01*
X5236641Y-7036587D02*
G01*
X5268391Y-7036587D01*
X5282107Y-7041159D01*
X5291251Y-7050049D01*
X5295823Y-7059193D01*
X5300395Y-7072909D01*
X5300395Y-7095515D01*
X5295823Y-7109231D01*
X5291251Y-7118375D01*
X5282107Y-7127519D01*
X5268391Y-7131837D01*
X5236641Y-7131837D01*
X5518759Y-4808296D02*
G01*
X5423255Y-4808296D01*
X5518759Y-4808296D02*
G01*
X5518759Y-4849190D01*
X5514187Y-4862652D01*
X5509615Y-4867224D01*
X5500471Y-4871796D01*
X5491581Y-4871796D01*
X5482437Y-4867224D01*
X5477865Y-4862652D01*
X5473293Y-4849190D01*
X5473293Y-4808296D01*
X5473293Y-4840046D02*
G01*
X5423255Y-4871796D01*
X5500471Y-4901768D02*
G01*
X5505043Y-4910912D01*
X5518759Y-4924628D01*
X5423255Y-4924628D01*
X5505043Y-5018100D02*
G01*
X5514187Y-5009210D01*
X5518759Y-4995494D01*
X5518759Y-4977206D01*
X5514187Y-4963744D01*
X5505043Y-4954600D01*
X5495899Y-4954600D01*
X5487009Y-4959172D01*
X5482437Y-4963744D01*
X5477865Y-4972888D01*
X5468721Y-5000066D01*
X5464149Y-5009210D01*
X5459577Y-5013782D01*
X5450433Y-5018100D01*
X5436971Y-5018100D01*
X5427827Y-5009210D01*
X5423255Y-4995494D01*
X5423255Y-4977206D01*
X5427827Y-4963744D01*
X5436971Y-4954600D01*
X5518759Y-5048326D02*
G01*
X5423255Y-5070932D01*
X5518759Y-5093792D02*
G01*
X5423255Y-5070932D01*
X5518759Y-5093792D02*
G01*
X5423255Y-5116398D01*
X5518759Y-5139004D02*
G01*
X5423255Y-5116398D01*
X5518759Y-5169230D02*
G01*
X5423255Y-5169230D01*
X5518759Y-5169230D02*
G01*
X5518759Y-5210124D01*
X5514187Y-5223586D01*
X5509615Y-5228158D01*
X5500471Y-5232730D01*
X5491581Y-5232730D01*
X5482437Y-5228158D01*
X5477865Y-5223586D01*
X5473293Y-5210124D01*
X5473293Y-5169230D01*
X5473293Y-5200980D02*
G01*
X5423255Y-5232730D01*
X5831179Y-5135956D02*
G01*
X5735675Y-5135956D01*
X5831179Y-5135956D02*
G01*
X5831179Y-5176850D01*
X5826607Y-5190312D01*
X5822035Y-5194884D01*
X5812891Y-5199456D01*
X5804001Y-5199456D01*
X5794857Y-5194884D01*
X5790285Y-5190312D01*
X5785713Y-5176850D01*
X5785713Y-5135956D01*
X5785713Y-5167706D02*
G01*
X5735675Y-5199456D01*
X5808319Y-5234000D02*
G01*
X5812891Y-5234000D01*
X5822035Y-5238572D01*
X5826607Y-5243144D01*
X5831179Y-5252288D01*
X5831179Y-5270322D01*
X5826607Y-5279466D01*
X5822035Y-5284038D01*
X5812891Y-5288610D01*
X5804001Y-5288610D01*
X5794857Y-5284038D01*
X5781141Y-5274894D01*
X5735675Y-5229428D01*
X5735675Y-5293182D01*
X5817463Y-5386908D02*
G01*
X5826607Y-5377764D01*
X5831179Y-5364048D01*
X5831179Y-5345760D01*
X5826607Y-5332298D01*
X5817463Y-5323154D01*
X5808319Y-5323154D01*
X5799429Y-5327726D01*
X5794857Y-5332298D01*
X5790285Y-5341442D01*
X5781141Y-5368620D01*
X5776569Y-5377764D01*
X5771997Y-5382336D01*
X5762853Y-5386908D01*
X5749391Y-5386908D01*
X5740247Y-5377764D01*
X5735675Y-5364048D01*
X5735675Y-5345760D01*
X5740247Y-5332298D01*
X5749391Y-5323154D01*
X5831179Y-5416880D02*
G01*
X5735675Y-5439486D01*
X5831179Y-5462346D02*
G01*
X5735675Y-5439486D01*
X5831179Y-5462346D02*
G01*
X5735675Y-5484952D01*
X5831179Y-5507812D02*
G01*
X5735675Y-5484952D01*
X5831179Y-5537784D02*
G01*
X5735675Y-5537784D01*
X5831179Y-5537784D02*
G01*
X5831179Y-5578678D01*
X5826607Y-5592140D01*
X5822035Y-5596712D01*
X5812891Y-5601284D01*
X5804001Y-5601284D01*
X5794857Y-5596712D01*
X5790285Y-5592140D01*
X5785713Y-5578678D01*
X5785713Y-5537784D01*
X5785713Y-5569534D02*
G01*
X5735675Y-5601284D01*
X6904144Y-4029857D02*
G01*
X6999648Y-4029857D01*
X6904144Y-4029857D02*
G01*
X6904144Y-3988963D01*
X6908716Y-3975501D01*
X6913288Y-3970929D01*
X6922178Y-3966357D01*
X6931322Y-3966357D01*
X6940466Y-3970929D01*
X6945038Y-3975501D01*
X6949610Y-3988963D01*
X6949610Y-4029857D01*
X6949610Y-3998107D02*
G01*
X6999648Y-3966357D01*
X6926750Y-3868059D02*
G01*
X6917606Y-3872631D01*
X6908716Y-3881775D01*
X6904144Y-3890919D01*
X6904144Y-3908953D01*
X6908716Y-3918097D01*
X6917606Y-3927241D01*
X6926750Y-3931813D01*
X6940466Y-3936385D01*
X6963072Y-3936385D01*
X6976788Y-3931813D01*
X6985932Y-3927241D01*
X6995076Y-3918097D01*
X6999648Y-3908953D01*
X6999648Y-3890919D01*
X6995076Y-3881775D01*
X6985932Y-3872631D01*
X6976788Y-3868059D01*
X6904144Y-3838087D02*
G01*
X6999648Y-3801765D01*
X6904144Y-3765443D02*
G01*
X6999648Y-3801765D01*
X6904144Y-3735471D02*
G01*
X6999648Y-3735471D01*
X6904144Y-3735471D02*
G01*
X6904144Y-3694577D01*
X6908716Y-3680861D01*
X6913288Y-3676289D01*
X6922178Y-3671717D01*
X6931322Y-3671717D01*
X6940466Y-3676289D01*
X6945038Y-3680861D01*
X6949610Y-3694577D01*
X6949610Y-3735471D01*
X6949610Y-3703721D02*
G01*
X6999648Y-3671717D01*
X7031398Y-3641745D02*
G01*
X7031398Y-3559957D01*
X6926750Y-3461913D02*
G01*
X6917606Y-3466231D01*
X6908716Y-3475375D01*
X6904144Y-3484519D01*
X6904144Y-3502807D01*
X6908716Y-3511697D01*
X6917606Y-3520841D01*
X6926750Y-3525413D01*
X6940466Y-3529985D01*
X6963072Y-3529985D01*
X6976788Y-3525413D01*
X6985932Y-3520841D01*
X6995076Y-3511697D01*
X6999648Y-3502807D01*
X6999648Y-3484519D01*
X6995076Y-3475375D01*
X6985932Y-3466231D01*
X6976788Y-3461913D01*
X6904144Y-3431687D02*
G01*
X6999648Y-3431687D01*
X6904144Y-3431687D02*
G01*
X6999648Y-3368187D01*
X6904144Y-3368187D02*
G01*
X6999648Y-3368187D01*
X6926750Y-3269889D02*
G01*
X6917606Y-3274461D01*
X6908716Y-3283605D01*
X6904144Y-3292749D01*
X6904144Y-3310783D01*
X6908716Y-3319927D01*
X6917606Y-3329071D01*
X6926750Y-3333643D01*
X6940466Y-3338215D01*
X6963072Y-3338215D01*
X6976788Y-3333643D01*
X6985932Y-3329071D01*
X6995076Y-3319927D01*
X6999648Y-3310783D01*
X6999648Y-3292749D01*
X6995076Y-3283605D01*
X6985932Y-3274461D01*
X6976788Y-3269889D01*
X6904144Y-3208167D02*
G01*
X6999648Y-3208167D01*
X6904144Y-3239917D02*
G01*
X6904144Y-3176417D01*
X6904144Y-3146445D02*
G01*
X6999648Y-3146445D01*
X6904144Y-3146445D02*
G01*
X6904144Y-3105551D01*
X6908716Y-3091835D01*
X6913288Y-3087263D01*
X6922178Y-3082691D01*
X6931322Y-3082691D01*
X6940466Y-3087263D01*
X6945038Y-3091835D01*
X6949610Y-3105551D01*
X6949610Y-3146445D01*
X6949610Y-3114441D02*
G01*
X6999648Y-3082691D01*
X5069763Y-5894578D02*
G01*
X5069763Y-5799073D01*
X5069763Y-5894578D02*
G01*
X5028869Y-5894578D01*
X5015407Y-5890005D01*
X5010835Y-5885434D01*
X5006263Y-5876544D01*
X5006263Y-5867400D01*
X5010835Y-5858255D01*
X5015407Y-5853684D01*
X5028869Y-5849112D01*
X5069763Y-5849112D01*
X5038013Y-5849112D02*
G01*
X5006263Y-5799073D01*
X4976291Y-5894578D02*
G01*
X4976291Y-5799073D01*
X4976291Y-5894578D02*
G01*
X4917109Y-5894578D01*
X4976291Y-5849112D02*
G01*
X4939715Y-5849112D01*
X4976291Y-5799073D02*
G01*
X4917109Y-5799073D01*
X4818811Y-5871971D02*
G01*
X4823383Y-5881115D01*
X4832527Y-5890005D01*
X4841671Y-5894578D01*
X4859959Y-5894578D01*
X4868849Y-5890005D01*
X4877993Y-5881115D01*
X4882565Y-5871971D01*
X4887137Y-5858255D01*
X4887137Y-5835650D01*
X4882565Y-5821934D01*
X4877993Y-5812789D01*
X4868849Y-5803645D01*
X4859959Y-5799073D01*
X4841671Y-5799073D01*
X4832527Y-5803645D01*
X4823383Y-5812789D01*
X4818811Y-5821934D01*
X4818811Y-5835650D01*
X4841671Y-5835650D02*
G01*
X4818811Y-5835650D01*
X4779949Y-5894578D02*
G01*
X4729911Y-5894578D01*
X4757089Y-5858255D01*
X4743373Y-5858255D01*
X4734483Y-5853684D01*
X4729911Y-5849112D01*
X4725339Y-5835650D01*
X4725339Y-5826505D01*
X4729911Y-5812789D01*
X4739055Y-5803645D01*
X4752517Y-5799073D01*
X4766233Y-5799073D01*
X4779949Y-5803645D01*
X4784267Y-5808218D01*
X4788839Y-5817362D01*
X4368728Y-4627755D02*
G01*
X4359584Y-4618611D01*
X4345868Y-4614039D01*
X4327834Y-4614039D01*
X4314118Y-4618611D01*
X4304974Y-4627755D01*
X4304974Y-4636899D01*
X4309546Y-4645789D01*
X4314118Y-4650361D01*
X4323262Y-4654933D01*
X4350440Y-4664077D01*
X4359584Y-4668649D01*
X4364156Y-4673221D01*
X4368728Y-4682365D01*
X4368728Y-4695827D01*
X4359584Y-4704971D01*
X4345868Y-4709543D01*
X4327834Y-4709543D01*
X4314118Y-4704971D01*
X4304974Y-4695827D01*
X4398700Y-4614039D02*
G01*
X4398700Y-4709543D01*
X4398700Y-4614039D02*
G01*
X4439594Y-4614039D01*
X4453056Y-4618611D01*
X4457628Y-4623183D01*
X4462200Y-4632327D01*
X4462200Y-4641471D01*
X4457628Y-4650361D01*
X4453056Y-4654933D01*
X4439594Y-4659505D01*
X4398700Y-4659505D01*
X4430450Y-4659505D02*
G01*
X4462200Y-4709543D01*
X4492172Y-4614039D02*
G01*
X4528748Y-4709543D01*
X4565070Y-4614039D02*
G01*
X4528748Y-4709543D01*
X4595042Y-4741293D02*
G01*
X4676830Y-4741293D01*
X4706802Y-4614039D02*
G01*
X4706802Y-4709543D01*
X4706802Y-4614039D02*
G01*
X4747696Y-4614039D01*
X4761412Y-4618611D01*
X4765984Y-4623183D01*
X4770556Y-4632327D01*
X4770556Y-4645789D01*
X4765984Y-4654933D01*
X4761412Y-4659505D01*
X4747696Y-4664077D01*
X4706802Y-4664077D01*
X4800528Y-4614039D02*
G01*
X4823134Y-4709543D01*
X4845994Y-4614039D02*
G01*
X4823134Y-4709543D01*
X4845994Y-4614039D02*
G01*
X4868600Y-4709543D01*
X4891460Y-4614039D02*
G01*
X4868600Y-4709543D01*
X4921432Y-4614039D02*
G01*
X4921432Y-4709543D01*
X4921432Y-4614039D02*
G01*
X4957754Y-4709543D01*
X4994076Y-4614039D02*
G01*
X4957754Y-4709543D01*
X4994076Y-4614039D02*
G01*
X4994076Y-4709543D01*
X2918548Y-565759D02*
G01*
X2918548Y-470255D01*
X2884004Y-542899D02*
G01*
X2884004Y-547471D01*
X2879432Y-556615D01*
X2874860Y-561187D01*
X2865716Y-565759D01*
X2847428Y-565759D01*
X2838538Y-561187D01*
X2833966Y-556615D01*
X2829394Y-547471D01*
X2829394Y-538327D01*
X2833966Y-529437D01*
X2843110Y-515721D01*
X2888576Y-470255D01*
X2824822Y-470255D01*
X2726524Y-542899D02*
G01*
X2731096Y-552043D01*
X2740240Y-561187D01*
X2749384Y-565759D01*
X2767418Y-565759D01*
X2776562Y-561187D01*
X2785706Y-552043D01*
X2790278Y-542899D01*
X2794850Y-529437D01*
X2794850Y-506577D01*
X2790278Y-493115D01*
X2785706Y-483971D01*
X2776562Y-474827D01*
X2767418Y-470255D01*
X2749384Y-470255D01*
X2740240Y-474827D01*
X2731096Y-483971D01*
X2726524Y-493115D01*
X2696552Y-565759D02*
G01*
X2696552Y-470255D01*
X2696552Y-565759D02*
G01*
X2637624Y-565759D01*
X2696552Y-520293D02*
G01*
X2660230Y-520293D01*
X2607652Y-547471D02*
G01*
X2598508Y-552043D01*
X2584792Y-565759D01*
X2584792Y-470255D01*
X5362072Y-588614D02*
G01*
X5362072Y-520288D01*
X5357500Y-506826D01*
X5348356Y-497682D01*
X5334640Y-493110D01*
X5325496Y-493110D01*
X5312034Y-497682D01*
X5302890Y-506826D01*
X5298318Y-520288D01*
X5298318Y-588614D01*
X5268346Y-588614D02*
G01*
X5268346Y-493110D01*
X5268346Y-588614D02*
G01*
X5227452Y-588614D01*
X5213736Y-584042D01*
X5209164Y-579470D01*
X5204592Y-570326D01*
X5204592Y-561182D01*
X5209164Y-552292D01*
X5213736Y-547720D01*
X5227452Y-543148D01*
X5268346Y-543148D01*
X5236596Y-543148D02*
G01*
X5204592Y-493110D01*
X5142870Y-588614D02*
G01*
X5142870Y-493110D01*
X5174620Y-588614D02*
G01*
X5111120Y-588614D01*
X5081148Y-588614D02*
G01*
X5081148Y-493110D01*
X5081148Y-588614D02*
G01*
X5021966Y-588614D01*
X5081148Y-543148D02*
G01*
X5044572Y-543148D01*
X4991994Y-570326D02*
G01*
X4982850Y-574898D01*
X4969134Y-588614D01*
X4969134Y-493110D01*
X6319494Y-733247D02*
G01*
X6319494Y-637997D01*
X6319494Y-733247D02*
G01*
X6260312Y-733247D01*
X6319494Y-688035D02*
G01*
X6283172Y-688035D01*
X6319494Y-637997D02*
G01*
X6260312Y-637997D01*
X6166840Y-719785D02*
G01*
X6175984Y-728929D01*
X6189446Y-733247D01*
X6207734Y-733247D01*
X6221450Y-728929D01*
X6230340Y-719785D01*
X6230340Y-710641D01*
X6225768Y-701497D01*
X6221450Y-696925D01*
X6212306Y-692353D01*
X6184874Y-683463D01*
X6175984Y-678891D01*
X6171412Y-674319D01*
X6166840Y-665175D01*
X6166840Y-651459D01*
X6175984Y-642569D01*
X6189446Y-637997D01*
X6207734Y-637997D01*
X6221450Y-642569D01*
X6230340Y-651459D01*
X6136868Y-733247D02*
G01*
X6136868Y-637997D01*
X6136868Y-733247D02*
G01*
X6095974Y-733247D01*
X6082258Y-728929D01*
X6077686Y-724357D01*
X6073114Y-715213D01*
X6073114Y-706069D01*
X6077686Y-696925D01*
X6082258Y-692353D01*
X6095974Y-688035D01*
X6136868Y-688035D01*
X6104864Y-688035D02*
G01*
X6073114Y-637997D01*
X6043142Y-733247D02*
G01*
X6006820Y-637997D01*
X5970498Y-733247D02*
G01*
X6006820Y-637997D01*
X5940526Y-605993D02*
G01*
X5858738Y-605993D01*
X5828512Y-733247D02*
G01*
X5828512Y-637997D01*
X5828512Y-733247D02*
G01*
X5787618Y-733247D01*
X5774156Y-728929D01*
X5769584Y-724357D01*
X5765012Y-715213D01*
X5765012Y-701497D01*
X5769584Y-692353D01*
X5774156Y-688035D01*
X5787618Y-683463D01*
X5828512Y-683463D01*
X5735040Y-733247D02*
G01*
X5712180Y-637997D01*
X5689574Y-733247D02*
G01*
X5712180Y-637997D01*
X5689574Y-733247D02*
G01*
X5666714Y-637997D01*
X5644108Y-733247D02*
G01*
X5666714Y-637997D01*
X5614136Y-733247D02*
G01*
X5614136Y-637997D01*
X5614136Y-733247D02*
G01*
X5577814Y-637997D01*
X5541238Y-733247D02*
G01*
X5577814Y-637997D01*
X5541238Y-733247D02*
G01*
X5541238Y-637997D01*
X603854Y-970384D02*
G01*
X535528Y-970384D01*
X522066Y-974702D01*
X512922Y-983846D01*
X508350Y-997562D01*
X508350Y-1006706D01*
X512922Y-1020168D01*
X522066Y-1029312D01*
X535528Y-1033884D01*
X603854Y-1033884D01*
X603854Y-1063856D02*
G01*
X508350Y-1063856D01*
X603854Y-1063856D02*
G01*
X603854Y-1104750D01*
X599282Y-1118466D01*
X594710Y-1123038D01*
X585566Y-1127610D01*
X576422Y-1127610D01*
X567532Y-1123038D01*
X562960Y-1118466D01*
X558388Y-1104750D01*
X558388Y-1063856D01*
X558388Y-1095606D02*
G01*
X508350Y-1127610D01*
X603854Y-1189332D02*
G01*
X508350Y-1189332D01*
X603854Y-1157582D02*
G01*
X603854Y-1221082D01*
X580994Y-1319380D02*
G01*
X590138Y-1314808D01*
X599282Y-1305664D01*
X603854Y-1296520D01*
X603854Y-1278486D01*
X599282Y-1269342D01*
X590138Y-1260198D01*
X580994Y-1255626D01*
X567532Y-1251308D01*
X544672Y-1251308D01*
X531210Y-1255626D01*
X522066Y-1260198D01*
X512922Y-1269342D01*
X508350Y-1278486D01*
X508350Y-1296520D01*
X512922Y-1305664D01*
X522066Y-1314808D01*
X531210Y-1319380D01*
X544672Y-1319380D01*
X544672Y-1296520D02*
G01*
X544672Y-1319380D01*
X603854Y-1349352D02*
G01*
X508350Y-1349352D01*
X603854Y-1349352D02*
G01*
X603854Y-1390246D01*
X599282Y-1403962D01*
X594710Y-1408534D01*
X585566Y-1413106D01*
X572104Y-1413106D01*
X562960Y-1408534D01*
X558388Y-1403962D01*
X553816Y-1390246D01*
X553816Y-1349352D01*
X590138Y-1506578D02*
G01*
X599282Y-1497434D01*
X603854Y-1483972D01*
X603854Y-1465684D01*
X599282Y-1451968D01*
X590138Y-1443078D01*
X580994Y-1443078D01*
X572104Y-1447650D01*
X567532Y-1451968D01*
X562960Y-1461112D01*
X553816Y-1488544D01*
X549244Y-1497434D01*
X544672Y-1502006D01*
X535528Y-1506578D01*
X522066Y-1506578D01*
X512922Y-1497434D01*
X508350Y-1483972D01*
X508350Y-1465684D01*
X512922Y-1451968D01*
X522066Y-1443078D01*
X4500039Y-1090927D02*
G01*
X4500039Y-995423D01*
X4500039Y-1090927D02*
G01*
X4468289Y-1090927D01*
X4454573Y-1086355D01*
X4445429Y-1077211D01*
X4440857Y-1068067D01*
X4436285Y-1054605D01*
X4436285Y-1031745D01*
X4440857Y-1018283D01*
X4445429Y-1009139D01*
X4454573Y-999995D01*
X4468289Y-995423D01*
X4500039Y-995423D01*
X4406313Y-1090927D02*
G01*
X4406313Y-995423D01*
X4406313Y-1090927D02*
G01*
X4365419Y-1090927D01*
X4351703Y-1086355D01*
X4347385Y-1081783D01*
X4342813Y-1072639D01*
X4342813Y-1063749D01*
X4347385Y-1054605D01*
X4351703Y-1050033D01*
X4365419Y-1045461D01*
X4406313Y-1045461D02*
G01*
X4365419Y-1045461D01*
X4351703Y-1040889D01*
X4347385Y-1036317D01*
X4342813Y-1027173D01*
X4342813Y-1013711D01*
X4347385Y-1004567D01*
X4351703Y-999995D01*
X4365419Y-995423D01*
X4406313Y-995423D01*
X4244515Y-1068067D02*
G01*
X4249087Y-1077211D01*
X4258231Y-1086355D01*
X4267375Y-1090927D01*
X4285409Y-1090927D01*
X4294553Y-1086355D01*
X4303697Y-1077211D01*
X4308269Y-1068067D01*
X4312841Y-1054605D01*
X4312841Y-1031745D01*
X4308269Y-1018283D01*
X4303697Y-1009139D01*
X4294553Y-999995D01*
X4285409Y-995423D01*
X4267375Y-995423D01*
X4258231Y-999995D01*
X4249087Y-1009139D01*
X4244515Y-1018283D01*
X4244515Y-1031745D01*
X4267375Y-1031745D02*
G01*
X4244515Y-1031745D01*
X4214543Y-1090927D02*
G01*
X4214543Y-995423D01*
X4214543Y-1090927D02*
G01*
X4155361Y-1090927D01*
X4214543Y-1045461D02*
G01*
X4178221Y-1045461D01*
X4125389Y-1072639D02*
G01*
X4116245Y-1077211D01*
X4102783Y-1090927D01*
X4102783Y-995423D01*
X1110772Y-3270107D02*
G01*
X1015522Y-3270107D01*
X1110772Y-3270107D02*
G01*
X1110772Y-3301857D01*
X1106454Y-3315573D01*
X1097310Y-3324463D01*
X1088166Y-3329035D01*
X1074450Y-3333607D01*
X1051844Y-3333607D01*
X1038128Y-3329035D01*
X1028984Y-3324463D01*
X1020094Y-3315573D01*
X1015522Y-3301857D01*
X1015522Y-3270107D01*
X1110772Y-3363579D02*
G01*
X1015522Y-3363579D01*
X1110772Y-3363579D02*
G01*
X1110772Y-3404473D01*
X1106454Y-3418189D01*
X1101882Y-3422761D01*
X1092738Y-3427333D01*
X1083594Y-3427333D01*
X1074450Y-3422761D01*
X1069878Y-3418189D01*
X1065560Y-3404473D01*
X1065560Y-3363579D02*
G01*
X1065560Y-3404473D01*
X1060988Y-3418189D01*
X1056416Y-3422761D01*
X1047272Y-3427333D01*
X1033556Y-3427333D01*
X1024412Y-3422761D01*
X1020094Y-3418189D01*
X1015522Y-3404473D01*
X1015522Y-3363579D01*
X1088166Y-3525377D02*
G01*
X1097310Y-3520805D01*
X1106454Y-3511915D01*
X1110772Y-3502771D01*
X1110772Y-3484483D01*
X1106454Y-3475339D01*
X1097310Y-3466449D01*
X1088166Y-3461877D01*
X1074450Y-3457305D01*
X1051844Y-3457305D01*
X1038128Y-3461877D01*
X1028984Y-3466449D01*
X1020094Y-3475339D01*
X1015522Y-3484483D01*
X1015522Y-3502771D01*
X1020094Y-3511915D01*
X1028984Y-3520805D01*
X1038128Y-3525377D01*
X1051844Y-3525377D01*
X1051844Y-3502771D02*
G01*
X1051844Y-3525377D01*
X1110772Y-3555349D02*
G01*
X1015522Y-3555349D01*
X1110772Y-3555349D02*
G01*
X1110772Y-3614531D01*
X1065560Y-3555349D02*
G01*
X1065560Y-3591925D01*
X1110772Y-3689969D02*
G01*
X1047272Y-3644503D01*
X1047272Y-3712829D01*
X1110772Y-3689969D02*
G01*
X1015522Y-3689969D01*
X6748828Y-617885D02*
G01*
X6748828Y-713389D01*
X6748828Y-617885D02*
G01*
X6812328Y-713389D01*
X6812328Y-617885D02*
G01*
X6812328Y-713389D01*
X6842300Y-617885D02*
G01*
X6842300Y-713389D01*
X6842300Y-617885D02*
G01*
X6883194Y-617885D01*
X6896910Y-622457D01*
X6901482Y-627029D01*
X6906054Y-636173D01*
X6906054Y-645063D01*
X6901482Y-654207D01*
X6896910Y-658779D01*
X6883194Y-663351D01*
X6842300Y-663351D01*
X6874304Y-663351D02*
G01*
X6906054Y-713389D01*
X6999780Y-631601D02*
G01*
X6990636Y-622457D01*
X6976920Y-617885D01*
X6958886Y-617885D01*
X6945170Y-622457D01*
X6936026Y-631601D01*
X6936026Y-640745D01*
X6940598Y-649635D01*
X6945170Y-654207D01*
X6954314Y-658779D01*
X6981492Y-667923D01*
X6990636Y-672495D01*
X6995208Y-677067D01*
X6999780Y-686211D01*
X6999780Y-699673D01*
X6990636Y-708817D01*
X6976920Y-713389D01*
X6958886Y-713389D01*
X6945170Y-708817D01*
X6936026Y-699673D01*
X7061502Y-617885D02*
G01*
X7061502Y-713389D01*
X7029752Y-617885D02*
G01*
X7093252Y-617885D01*
X7123224Y-617885D02*
G01*
X7123224Y-713389D01*
X7123224Y-617885D02*
G01*
X7182406Y-617885D01*
X7123224Y-663351D02*
G01*
X7159800Y-663351D01*
X7212378Y-636173D02*
G01*
X7221522Y-631601D01*
X7235238Y-617885D01*
X7235238Y-713389D01*
X3794363Y-4475952D02*
G01*
X3789791Y-4467062D01*
X3780647Y-4457918D01*
X3771757Y-4453346D01*
X3753469Y-4453346D01*
X3744325Y-4457918D01*
X3735181Y-4467062D01*
X3730609Y-4475952D01*
X3726291Y-4489668D01*
X3726291Y-4512528D01*
X3730609Y-4525990D01*
X3735181Y-4535134D01*
X3744325Y-4544278D01*
X3753469Y-4548850D01*
X3771757Y-4548850D01*
X3780647Y-4544278D01*
X3789791Y-4535134D01*
X3794363Y-4525990D01*
X3824335Y-4471380D02*
G01*
X3833479Y-4467062D01*
X3847195Y-4453346D01*
X3847195Y-4548850D01*
X2432555Y-5263481D02*
G01*
X2435788Y-5253784D01*
X2435966Y-5241033D01*
X2432733Y-5231333D01*
X2419802Y-5218402D01*
X2410104Y-5215168D01*
X2397351Y-5215348D01*
X2387653Y-5218582D01*
X2374902Y-5224868D01*
X2358737Y-5241033D01*
X2352271Y-5253964D01*
X2349218Y-5263481D01*
X2349037Y-5276235D01*
X2352271Y-5285933D01*
X2365202Y-5298864D01*
X2374902Y-5302097D01*
X2387653Y-5301919D01*
X2397173Y-5298864D01*
X2456980Y-5287909D02*
G01*
X2460213Y-5284675D01*
X2469913Y-5281444D01*
X2476378Y-5281444D01*
X2486078Y-5284675D01*
X2498829Y-5297429D01*
X2502062Y-5307126D01*
X2502062Y-5313593D01*
X2498829Y-5323291D01*
X2492362Y-5329758D01*
X2482844Y-5332811D01*
X2466680Y-5336044D01*
X2402380Y-5336044D01*
X2447462Y-5381124D01*
X1600857Y-5663592D02*
G01*
X1597624Y-5673293D01*
X1597624Y-5686224D01*
X1600857Y-5695922D01*
X1613611Y-5708675D01*
X1623308Y-5711906D01*
X1636240Y-5711906D01*
X1645937Y-5708675D01*
X1658691Y-5702028D01*
X1674675Y-5686044D01*
X1681319Y-5673293D01*
X1684375Y-5663773D01*
X1684375Y-5650842D01*
X1681142Y-5641141D01*
X1668388Y-5628391D01*
X1658691Y-5625157D01*
X1645759Y-5625157D01*
X1636240Y-5628210D01*
X1557035Y-5652099D02*
G01*
X1521653Y-5616717D01*
X1566913Y-5610250D01*
X1557213Y-5600552D01*
X1553801Y-5591032D01*
X1553801Y-5584568D01*
X1560266Y-5571634D01*
X1566732Y-5565170D01*
X1579483Y-5558883D01*
X1592417Y-5558883D01*
X1605348Y-5565350D01*
X1614865Y-5574868D01*
X1621332Y-5587799D01*
X1621332Y-5594266D01*
X1618279Y-5603786D01*
X1800476Y-1409867D02*
G01*
X1894530Y-1426451D01*
X1800476Y-1409867D02*
G01*
X1807578Y-1369595D01*
X1814418Y-1357132D01*
X1819714Y-1353423D01*
X1829513Y-1350507D01*
X1838518Y-1352095D01*
X1846480Y-1358143D01*
X1850189Y-1363438D01*
X1852353Y-1377490D01*
X1845251Y-1417764D01*
X1850765Y-1386494D02*
G01*
X1905556Y-1363916D01*
X1834718Y-1320993D02*
G01*
X1831804Y-1311193D01*
X1820677Y-1295303D01*
X1914730Y-1311887D01*
X1825881Y-1265786D02*
G01*
X1919935Y-1282369D01*
X1825881Y-1265786D02*
G01*
X1832983Y-1225514D01*
X1839866Y-1212799D01*
X1845165Y-1209090D01*
X1854918Y-1206426D01*
X1868426Y-1208808D01*
X1876432Y-1214605D01*
X1880141Y-1219901D01*
X1882261Y-1234203D01*
X1875160Y-1274475D01*
X1842157Y-1173485D02*
G01*
X1936211Y-1190068D01*
X1936211Y-1190068D02*
G01*
X1945650Y-1136538D01*
X1856800Y-1090437D02*
G01*
X1950854Y-1107020D01*
X1856800Y-1090437D02*
G01*
X1862358Y-1058920D01*
X1869198Y-1046457D01*
X1879793Y-1039040D01*
X1889589Y-1036124D01*
X1903641Y-1033960D01*
X1926155Y-1037930D01*
X1938868Y-1044813D01*
X1946828Y-1050858D01*
X1954248Y-1061453D01*
X1956412Y-1075504D01*
X1950854Y-1107020D01*
X2635455Y-5390652D02*
G01*
X2631137Y-5381508D01*
X2621993Y-5372364D01*
X2612849Y-5367792D01*
X2594561Y-5367792D01*
X2585671Y-5372364D01*
X2576527Y-5381508D01*
X2571955Y-5390652D01*
X2567383Y-5404368D01*
X2567383Y-5426974D01*
X2571955Y-5440690D01*
X2576527Y-5449580D01*
X2585671Y-5458724D01*
X2594561Y-5463296D01*
X2612849Y-5463296D01*
X2621993Y-5458724D01*
X2631137Y-5449580D01*
X2635455Y-5440690D01*
X2665681Y-5386080D02*
G01*
X2674571Y-5381508D01*
X2688287Y-5367792D01*
X2688287Y-5463296D01*
X2718259Y-5367792D02*
G01*
X2782013Y-5463296D01*
X2782013Y-5367792D02*
G01*
X2718259Y-5463296D01*
X3403211Y-5601827D02*
G01*
X3398639Y-5592683D01*
X3389495Y-5583539D01*
X3380351Y-5578967D01*
X3362317Y-5578967D01*
X3353173Y-5583539D01*
X3344029Y-5592683D01*
X3339457Y-5601827D01*
X3334885Y-5615543D01*
X3334885Y-5638149D01*
X3339457Y-5651865D01*
X3344029Y-5661009D01*
X3353173Y-5669899D01*
X3362317Y-5674471D01*
X3380351Y-5674471D01*
X3389495Y-5669899D01*
X3398639Y-5661009D01*
X3403211Y-5651865D01*
X3437755Y-5601827D02*
G01*
X3437755Y-5597255D01*
X3442327Y-5588111D01*
X3446899Y-5583539D01*
X3455789Y-5578967D01*
X3474077Y-5578967D01*
X3483221Y-5583539D01*
X3487793Y-5588111D01*
X3492365Y-5597255D01*
X3492365Y-5606399D01*
X3487793Y-5615543D01*
X3478649Y-5629005D01*
X3433183Y-5674471D01*
X3496937Y-5674471D01*
X3526909Y-5578967D02*
G01*
X3590409Y-5674471D01*
X3590409Y-5578967D02*
G01*
X3526909Y-5674471D01*
X4389221Y-3892092D02*
G01*
X4389221Y-3987342D01*
X4389221Y-3892092D02*
G01*
X4430115Y-3892092D01*
X4443577Y-3896410D01*
X4448149Y-3900982D01*
X4452721Y-3910126D01*
X4452721Y-3919270D01*
X4448149Y-3928414D01*
X4443577Y-3932986D01*
X4430115Y-3937304D01*
X4389221Y-3937304D01*
X4420971Y-3937304D02*
G01*
X4452721Y-3987342D01*
X4491837Y-3892092D02*
G01*
X4541875Y-3892092D01*
X4514697Y-3928414D01*
X4528159Y-3928414D01*
X4537303Y-3932986D01*
X4541875Y-3937304D01*
X4546447Y-3951020D01*
X4546447Y-3960164D01*
X4541875Y-3973880D01*
X4532731Y-3982770D01*
X4519015Y-3987342D01*
X4505553Y-3987342D01*
X4491837Y-3982770D01*
X4487265Y-3978452D01*
X4482693Y-3969308D01*
X4603597Y-3892092D02*
G01*
X4594453Y-3896410D01*
X4585563Y-3905554D01*
X4580991Y-3914698D01*
X4576419Y-3928414D01*
X4576419Y-3951020D01*
X4580991Y-3964736D01*
X4585563Y-3973880D01*
X4594453Y-3982770D01*
X4603597Y-3987342D01*
X4621885Y-3987342D01*
X4631029Y-3982770D01*
X4639919Y-3973880D01*
X4644491Y-3964736D01*
X4649063Y-3951020D01*
X4649063Y-3928414D01*
X4644491Y-3914698D01*
X4639919Y-3905554D01*
X4631029Y-3896410D01*
X4621885Y-3892092D01*
X4603597Y-3892092D01*
X4679035Y-3892092D02*
G01*
X4679035Y-3987342D01*
X4679035Y-3892092D02*
G01*
X4711039Y-3892092D01*
X4724501Y-3896410D01*
X4733645Y-3905554D01*
X4738217Y-3914698D01*
X4742789Y-3928414D01*
X4742789Y-3951020D01*
X4738217Y-3964736D01*
X4733645Y-3973880D01*
X4724501Y-3982770D01*
X4711039Y-3987342D01*
X4679035Y-3987342D01*
X4823586Y-3897147D02*
G01*
X4823586Y-3992397D01*
X4823586Y-3897147D02*
G01*
X4864481Y-3897147D01*
X4877943Y-3901719D01*
X4882515Y-3906037D01*
X4887086Y-3915181D01*
X4887086Y-3924325D01*
X4882515Y-3933469D01*
X4877943Y-3938041D01*
X4864481Y-3942613D01*
X4823586Y-3942613D01*
X4855336Y-3942613D02*
G01*
X4887086Y-3992397D01*
X4962525Y-3897147D02*
G01*
X4917059Y-3960647D01*
X4985384Y-3960647D01*
X4962525Y-3897147D02*
G01*
X4962525Y-3992397D01*
X5042534Y-3897147D02*
G01*
X5033390Y-3901719D01*
X5024247Y-3910609D01*
X5019929Y-3919753D01*
X5015356Y-3933469D01*
X5015356Y-3956075D01*
X5019929Y-3969791D01*
X5024247Y-3978935D01*
X5033390Y-3988079D01*
X5042534Y-3992397D01*
X5060822Y-3992397D01*
X5069713Y-3988079D01*
X5078856Y-3978935D01*
X5083429Y-3969791D01*
X5088000Y-3956075D01*
X5088000Y-3933469D01*
X5083429Y-3919753D01*
X5078856Y-3910609D01*
X5069713Y-3901719D01*
X5060822Y-3897147D01*
X5042534Y-3897147D01*
X5117972Y-3897147D02*
G01*
X5117972Y-3992397D01*
X5117972Y-3897147D02*
G01*
X5149722Y-3897147D01*
X5163438Y-3901719D01*
X5172583Y-3910609D01*
X5177154Y-3919753D01*
X5181727Y-3933469D01*
X5181727Y-3956075D01*
X5177154Y-3969791D01*
X5172583Y-3978935D01*
X5163438Y-3988079D01*
X5149722Y-3992397D01*
X5117972Y-3992397D01*
X5156276Y-3716807D02*
G01*
X5156276Y-3812057D01*
X5156276Y-3716807D02*
G01*
X5197170Y-3716807D01*
X5210632Y-3721379D01*
X5215204Y-3725697D01*
X5219776Y-3734841D01*
X5219776Y-3743985D01*
X5215204Y-3753129D01*
X5210632Y-3757701D01*
X5197170Y-3762273D01*
X5156276Y-3762273D01*
X5188026Y-3762273D02*
G01*
X5219776Y-3812057D01*
X5304358Y-3716807D02*
G01*
X5258892Y-3716807D01*
X5254320Y-3757701D01*
X5258892Y-3753129D01*
X5272608Y-3748557D01*
X5286324Y-3748557D01*
X5299786Y-3753129D01*
X5308930Y-3762273D01*
X5313502Y-3775735D01*
X5313502Y-3784879D01*
X5308930Y-3798595D01*
X5299786Y-3807739D01*
X5286324Y-3812057D01*
X5272608Y-3812057D01*
X5258892Y-3807739D01*
X5254320Y-3803167D01*
X5249748Y-3794023D01*
X5370652Y-3716807D02*
G01*
X5361762Y-3721379D01*
X5352618Y-3730269D01*
X5348046Y-3739413D01*
X5343474Y-3753129D01*
X5343474Y-3775735D01*
X5348046Y-3789451D01*
X5352618Y-3798595D01*
X5361762Y-3807739D01*
X5370652Y-3812057D01*
X5388940Y-3812057D01*
X5398084Y-3807739D01*
X5407228Y-3798595D01*
X5411546Y-3789451D01*
X5416118Y-3775735D01*
X5416118Y-3753129D01*
X5411546Y-3739413D01*
X5407228Y-3730269D01*
X5398084Y-3721379D01*
X5388940Y-3716807D01*
X5370652Y-3716807D01*
X5446090Y-3716807D02*
G01*
X5446090Y-3812057D01*
X5446090Y-3716807D02*
G01*
X5478094Y-3716807D01*
X5491556Y-3721379D01*
X5500700Y-3730269D01*
X5505272Y-3739413D01*
X5509844Y-3753129D01*
X5509844Y-3775735D01*
X5505272Y-3789451D01*
X5500700Y-3798595D01*
X5491556Y-3807739D01*
X5478094Y-3812057D01*
X5446090Y-3812057D01*
X3251834Y-6939762D02*
G01*
X3242690Y-6944334D01*
X3233547Y-6953224D01*
X3228975Y-6962368D01*
X3228975Y-6980656D01*
X3233547Y-6989800D01*
X3242690Y-6998690D01*
X3251834Y-7003262D01*
X3265297Y-7007834D01*
X3288156Y-7007834D01*
X3301872Y-7003262D01*
X3310763Y-6998690D01*
X3319906Y-6989800D01*
X3324479Y-6980656D01*
X3324479Y-6962368D01*
X3319906Y-6953224D01*
X3310763Y-6944334D01*
X3301872Y-6939762D01*
X3247263Y-6909790D02*
G01*
X3242690Y-6900646D01*
X3228975Y-6886930D01*
X3324479Y-6886930D01*
X3228975Y-6856958D02*
G01*
X3324479Y-6856958D01*
X3228975Y-6856958D02*
G01*
X3324479Y-6793204D01*
X3228975Y-6793204D02*
G01*
X3324479Y-6793204D01*
X3228975Y-6763232D02*
G01*
X3324479Y-6763232D01*
X3228975Y-6763232D02*
G01*
X3228975Y-6722338D01*
X3233547Y-6708876D01*
X3238118Y-6704304D01*
X3247263Y-6699732D01*
X3256406Y-6699732D01*
X3265297Y-6704304D01*
X3269868Y-6708876D01*
X3274440Y-6722338D01*
X3274440Y-6763232D01*
X3274440Y-6731482D02*
G01*
X3324479Y-6699732D01*
X4289450Y-6850456D02*
G01*
X4193946Y-6850456D01*
X4289450Y-6850456D02*
G01*
X4289450Y-6891350D01*
X4284878Y-6904812D01*
X4280306Y-6909384D01*
X4271162Y-6913956D01*
X4262018Y-6913956D01*
X4253128Y-6909384D01*
X4248556Y-6904812D01*
X4243984Y-6891350D01*
X4243984Y-6850456D01*
X4243984Y-6882206D02*
G01*
X4193946Y-6913956D01*
X4271162Y-6943928D02*
G01*
X4275734Y-6953072D01*
X4289450Y-6966788D01*
X4193946Y-6966788D01*
X4289450Y-6996760D02*
G01*
X4193946Y-6996760D01*
X4289450Y-6996760D02*
G01*
X4193946Y-7060260D01*
X4289450Y-7060260D02*
G01*
X4193946Y-7060260D01*
X4289450Y-7090486D02*
G01*
X4193946Y-7090486D01*
X4289450Y-7090486D02*
G01*
X4289450Y-7131380D01*
X4284878Y-7144842D01*
X4280306Y-7149414D01*
X4271162Y-7153986D01*
X4262018Y-7153986D01*
X4253128Y-7149414D01*
X4248556Y-7144842D01*
X4243984Y-7131380D01*
X4243984Y-7090486D01*
X4243984Y-7122236D02*
G01*
X4193946Y-7153986D01*
X3396056Y-4814112D02*
G01*
X3396056Y-4909362D01*
X3396056Y-4814112D02*
G01*
X3436950Y-4814112D01*
X3450412Y-4818430D01*
X3454984Y-4823002D01*
X3459556Y-4832146D01*
X3459556Y-4841290D01*
X3454984Y-4850434D01*
X3450412Y-4855006D01*
X3436950Y-4859324D01*
X3396056Y-4859324D01*
X3427806Y-4859324D02*
G01*
X3459556Y-4909362D01*
X3494100Y-4836718D02*
G01*
X3494100Y-4832146D01*
X3498672Y-4823002D01*
X3503244Y-4818430D01*
X3512388Y-4814112D01*
X3530422Y-4814112D01*
X3539566Y-4818430D01*
X3544138Y-4823002D01*
X3548710Y-4832146D01*
X3548710Y-4841290D01*
X3544138Y-4850434D01*
X3534994Y-4863896D01*
X3489528Y-4909362D01*
X3553282Y-4909362D01*
X3583254Y-4814112D02*
G01*
X3583254Y-4909362D01*
X3583254Y-4814112D02*
G01*
X3624148Y-4814112D01*
X3637864Y-4818430D01*
X3642436Y-4823002D01*
X3647008Y-4832146D01*
X3647008Y-4841290D01*
X3642436Y-4850434D01*
X3637864Y-4855006D01*
X3624148Y-4859324D01*
X3583254Y-4859324D02*
G01*
X3624148Y-4859324D01*
X3637864Y-4863896D01*
X3642436Y-4868468D01*
X3647008Y-4877612D01*
X3647008Y-4891328D01*
X3642436Y-4900472D01*
X3637864Y-4904790D01*
X3624148Y-4909362D01*
X3583254Y-4909362D01*
X3708730Y-4814112D02*
G01*
X3708730Y-4909362D01*
X3676980Y-4814112D02*
G01*
X3740480Y-4814112D01*
X2100072Y-7064247D02*
G01*
X2095754Y-7055104D01*
X2086609Y-7046213D01*
X2077465Y-7041642D01*
X2059177Y-7041642D01*
X2050288Y-7046213D01*
X2041143Y-7055104D01*
X2036572Y-7064247D01*
X2032000Y-7077963D01*
X2032000Y-7100570D01*
X2036572Y-7114286D01*
X2041143Y-7123429D01*
X2050288Y-7132573D01*
X2059177Y-7137145D01*
X2077465Y-7137145D01*
X2086609Y-7132573D01*
X2095754Y-7123429D01*
X2100072Y-7114286D01*
X2130297Y-7059676D02*
G01*
X2139188Y-7055104D01*
X2152904Y-7041642D01*
X2152904Y-7137145D01*
X2182875Y-7041642D02*
G01*
X2182875Y-7137145D01*
X2182875Y-7041642D02*
G01*
X2223770Y-7041642D01*
X2237486Y-7046213D01*
X2242058Y-7050786D01*
X2246629Y-7059676D01*
X2246629Y-7068820D01*
X2242058Y-7077963D01*
X2237486Y-7082536D01*
X2223770Y-7087108D01*
X2182875Y-7087108D02*
G01*
X2223770Y-7087108D01*
X2237486Y-7091679D01*
X2242058Y-7095997D01*
X2246629Y-7105142D01*
X2246629Y-7118858D01*
X2242058Y-7128002D01*
X2237486Y-7132573D01*
X2223770Y-7137145D01*
X2182875Y-7137145D01*
X1248194Y-6951822D02*
G01*
X1243622Y-6942678D01*
X1234478Y-6933534D01*
X1225334Y-6929216D01*
X1207300Y-6929216D01*
X1198156Y-6933534D01*
X1189012Y-6942678D01*
X1184440Y-6951822D01*
X1179868Y-6965538D01*
X1179868Y-6988144D01*
X1184440Y-7001860D01*
X1189012Y-7011004D01*
X1198156Y-7019894D01*
X1207300Y-7024466D01*
X1225334Y-7024466D01*
X1234478Y-7019894D01*
X1243622Y-7011004D01*
X1248194Y-7001860D01*
X1278166Y-6947250D02*
G01*
X1287310Y-6942678D01*
X1300772Y-6929216D01*
X1300772Y-7024466D01*
X1399070Y-6951822D02*
G01*
X1394498Y-6942678D01*
X1385354Y-6933534D01*
X1376210Y-6929216D01*
X1358176Y-6929216D01*
X1349032Y-6933534D01*
X1339888Y-6942678D01*
X1335316Y-6951822D01*
X1330998Y-6965538D01*
X1330998Y-6988144D01*
X1335316Y-7001860D01*
X1339888Y-7011004D01*
X1349032Y-7019894D01*
X1358176Y-7024466D01*
X1376210Y-7024466D01*
X1385354Y-7019894D01*
X1394498Y-7011004D01*
X1399070Y-7001860D01*
X3403091Y-3813047D02*
G01*
X3398774Y-3803904D01*
X3389629Y-3795013D01*
X3380486Y-3790442D01*
X3362197Y-3790442D01*
X3353308Y-3795013D01*
X3344163Y-3803904D01*
X3339591Y-3813047D01*
X3335020Y-3826763D01*
X3335020Y-3849370D01*
X3339591Y-3863086D01*
X3344163Y-3872229D01*
X3353308Y-3881373D01*
X3362197Y-3885945D01*
X3380486Y-3885945D01*
X3389629Y-3881373D01*
X3398774Y-3872229D01*
X3403091Y-3863086D01*
X3433318Y-3808476D02*
G01*
X3442208Y-3803904D01*
X3455924Y-3790442D01*
X3455924Y-3885945D01*
X3554222Y-3813047D02*
G01*
X3549650Y-3803904D01*
X3540506Y-3795013D01*
X3531361Y-3790442D01*
X3513327Y-3790442D01*
X3504184Y-3795013D01*
X3495040Y-3803904D01*
X3490468Y-3813047D01*
X3485895Y-3826763D01*
X3485895Y-3849370D01*
X3490468Y-3863086D01*
X3495040Y-3872229D01*
X3504184Y-3881373D01*
X3513327Y-3885945D01*
X3531361Y-3885945D01*
X3540506Y-3881373D01*
X3549650Y-3872229D01*
X3554222Y-3863086D01*
X3554222Y-3849370D01*
X3531361Y-3849370D02*
G01*
X3554222Y-3849370D01*
X4054449Y-5781547D02*
G01*
X4045305Y-5785865D01*
X4036161Y-5795010D01*
X4031589Y-5804154D01*
X4031589Y-5822442D01*
X4036161Y-5831331D01*
X4045305Y-5840476D01*
X4054449Y-5845047D01*
X4067911Y-5849620D01*
X4090771Y-5849620D01*
X4104487Y-5845047D01*
X4113377Y-5840476D01*
X4122521Y-5831331D01*
X4127093Y-5822442D01*
X4127093Y-5804154D01*
X4122521Y-5795010D01*
X4113377Y-5785865D01*
X4104487Y-5781547D01*
X4049877Y-5751321D02*
G01*
X4045305Y-5742431D01*
X4031589Y-5728715D01*
X4127093Y-5728715D01*
X4031589Y-5698744D02*
G01*
X4127093Y-5698744D01*
X4127093Y-5698744D02*
G01*
X4127093Y-5644134D01*
X4031589Y-5614162D02*
G01*
X4127093Y-5614162D01*
X4031589Y-5614162D02*
G01*
X4031589Y-5573268D01*
X4036161Y-5559552D01*
X4040733Y-5554979D01*
X4049877Y-5550407D01*
X4059021Y-5550407D01*
X4067911Y-5554979D01*
X4072483Y-5559552D01*
X4077055Y-5573268D01*
X4077055Y-5614162D01*
X4077055Y-5582412D02*
G01*
X4127093Y-5550407D01*
X4054449Y-5452363D02*
G01*
X4045305Y-5456936D01*
X4036161Y-5466079D01*
X4031589Y-5474970D01*
X4031589Y-5493257D01*
X4036161Y-5502402D01*
X4045305Y-5511545D01*
X4054449Y-5515863D01*
X4067911Y-5520436D01*
X4090771Y-5520436D01*
X4104487Y-5515863D01*
X4113377Y-5511545D01*
X4122521Y-5502402D01*
X4127093Y-5493257D01*
X4127093Y-5474970D01*
X4122521Y-5466079D01*
X4113377Y-5456936D01*
X4104487Y-5452363D01*
X4090771Y-5452363D01*
X4090771Y-5474970D02*
G01*
X4090771Y-5452363D01*
X4444611Y-2182350D02*
G01*
X4440039Y-2173206D01*
X4430895Y-2164316D01*
X4422005Y-2159744D01*
X4403717Y-2159744D01*
X4394573Y-2164316D01*
X4385429Y-2173206D01*
X4380857Y-2182350D01*
X4376539Y-2196066D01*
X4376539Y-2218672D01*
X4380857Y-2232388D01*
X4385429Y-2241532D01*
X4394573Y-2250676D01*
X4403717Y-2255248D01*
X4422005Y-2255248D01*
X4430895Y-2250676D01*
X4440039Y-2241532D01*
X4444611Y-2232388D01*
X4474583Y-2177778D02*
G01*
X4483727Y-2173206D01*
X4497443Y-2159744D01*
X4497443Y-2255248D01*
X4554593Y-2159744D02*
G01*
X4545449Y-2164316D01*
X4536559Y-2173206D01*
X4531987Y-2182350D01*
X4527415Y-2196066D01*
X4527415Y-2218672D01*
X4531987Y-2232388D01*
X4536559Y-2241532D01*
X4545449Y-2250676D01*
X4554593Y-2255248D01*
X4572881Y-2255248D01*
X4581771Y-2250676D01*
X4590915Y-2241532D01*
X4595487Y-2232388D01*
X4600059Y-2218672D01*
X4600059Y-2196066D01*
X4595487Y-2182350D01*
X4590915Y-2173206D01*
X4581771Y-2164316D01*
X4572881Y-2159744D01*
X4554593Y-2159744D01*
X4630031Y-2159744D02*
G01*
X4630031Y-2255248D01*
X4630031Y-2159744D02*
G01*
X4661781Y-2159744D01*
X4675497Y-2164316D01*
X4684641Y-2173206D01*
X4689213Y-2182350D01*
X4693785Y-2196066D01*
X4693785Y-2218672D01*
X4689213Y-2232388D01*
X4684641Y-2241532D01*
X4675497Y-2250676D01*
X4661781Y-2255248D01*
X4630031Y-2255248D01*
X1825797Y-4288053D02*
G01*
X1821225Y-4278909D01*
X1812338Y-4270019D01*
X1803191Y-4265447D01*
X1784903Y-4265447D01*
X1775759Y-4270019D01*
X1766869Y-4278909D01*
X1762300Y-4288053D01*
X1757725Y-4301769D01*
X1757725Y-4324375D01*
X1762297Y-4338091D01*
X1766869Y-4347235D01*
X1775759Y-4356379D01*
X1784903Y-4360697D01*
X1803196Y-4360699D01*
X1812335Y-4356379D01*
X1821225Y-4347235D01*
X1825797Y-4338091D01*
X1855772Y-4283481D02*
G01*
X1864913Y-4278909D01*
X1878632Y-4265449D01*
X1878632Y-4360697D01*
X1908601Y-4265444D02*
G01*
X1944923Y-4360697D01*
X1981248Y-4265447D02*
G01*
X1944923Y-4360697D01*
X2011217Y-4265447D02*
G01*
X2011217Y-4360699D01*
X2011217Y-4265447D02*
G01*
X2043224Y-4265447D01*
X2056683Y-4270021D01*
X2065827Y-4278911D01*
X2070402Y-4288053D01*
X2074974Y-4301771D01*
X2074971Y-4324375D01*
X2070399Y-4338091D01*
X2065827Y-4347235D01*
X2056686Y-4356381D01*
X2043221Y-4360697D01*
X2011217Y-4360699D01*
X2104943Y-4265444D02*
G01*
X2104943Y-4360702D01*
X2104943Y-4265444D02*
G01*
X2136696Y-4265449D01*
X2150407Y-4270019D01*
X2159553Y-4278911D01*
X2164125Y-4288053D01*
X2168700Y-4301771D01*
X2168700Y-4324375D01*
X2164125Y-4338093D01*
X2159556Y-4347237D01*
X2150409Y-4356379D01*
X2136693Y-4360699D01*
X2104943Y-4360702D01*
X2234991Y-4265447D02*
G01*
X2198672Y-4360694D01*
X2234991Y-4265447D02*
G01*
X2271313Y-4360699D01*
X2212134Y-4328947D02*
G01*
X2257597Y-4328947D01*
X2867144Y-7124646D02*
G01*
X2858000Y-7129218D01*
X2848856Y-7138362D01*
X2844538Y-7147252D01*
X2844538Y-7165540D01*
X2848856Y-7174684D01*
X2858000Y-7183828D01*
X2867144Y-7188400D01*
X2880860Y-7192718D01*
X2903466Y-7192718D01*
X2917182Y-7188400D01*
X2926326Y-7183828D01*
X2935216Y-7174684D01*
X2939788Y-7165540D01*
X2939788Y-7147252D01*
X2935216Y-7138362D01*
X2926326Y-7129218D01*
X2917182Y-7124646D01*
X2867144Y-7090102D02*
G01*
X2862572Y-7090102D01*
X2853428Y-7085530D01*
X2848856Y-7080958D01*
X2844538Y-7071814D01*
X2844538Y-7053780D01*
X2848856Y-7044636D01*
X2853428Y-7040064D01*
X2862572Y-7035492D01*
X2871716Y-7035492D01*
X2880860Y-7040064D01*
X2894322Y-7049208D01*
X2939788Y-7094674D01*
X2939788Y-7030920D01*
X2844538Y-7000948D02*
G01*
X2939788Y-7000948D01*
X2844538Y-7000948D02*
G01*
X2844538Y-6960054D01*
X2848856Y-6946338D01*
X2853428Y-6942020D01*
X2862572Y-6937448D01*
X2871716Y-6937448D01*
X2880860Y-6942020D01*
X2885432Y-6946338D01*
X2889750Y-6960054D01*
X2889750Y-7000948D02*
G01*
X2889750Y-6960054D01*
X2894322Y-6946338D01*
X2898894Y-6942020D01*
X2908038Y-6937448D01*
X2921754Y-6937448D01*
X2930898Y-6942020D01*
X2935216Y-6946338D01*
X2939788Y-6960054D01*
X2939788Y-7000948D01*
X741169Y-6613842D02*
G01*
X750313Y-6609270D01*
X759203Y-6600126D01*
X763775Y-6590982D01*
X763775Y-6572948D01*
X759203Y-6563804D01*
X750313Y-6554660D01*
X741169Y-6550088D01*
X727453Y-6545516D01*
X704847Y-6545516D01*
X691131Y-6550088D01*
X681987Y-6554660D01*
X672843Y-6563804D01*
X668525Y-6572948D01*
X668525Y-6590982D01*
X672843Y-6600126D01*
X681987Y-6609270D01*
X691131Y-6613842D01*
X741169Y-6648386D02*
G01*
X745741Y-6648386D01*
X754885Y-6652958D01*
X759203Y-6657276D01*
X763775Y-6666420D01*
X763775Y-6684708D01*
X759203Y-6693852D01*
X754885Y-6698170D01*
X745741Y-6702742D01*
X736597Y-6702742D01*
X727453Y-6698170D01*
X713991Y-6689280D01*
X668525Y-6643814D01*
X668525Y-6707314D01*
X741169Y-6805612D02*
G01*
X750313Y-6801040D01*
X759203Y-6791896D01*
X763775Y-6782752D01*
X763775Y-6764718D01*
X759203Y-6755574D01*
X750313Y-6746430D01*
X741169Y-6741858D01*
X727453Y-6737286D01*
X704847Y-6737286D01*
X691131Y-6741858D01*
X681987Y-6746430D01*
X672843Y-6755574D01*
X668525Y-6764718D01*
X668525Y-6782752D01*
X672843Y-6791896D01*
X681987Y-6801040D01*
X691131Y-6805612D01*
X2341618Y-3426993D02*
G01*
X2337046Y-3417849D01*
X2327902Y-3408959D01*
X2318758Y-3404387D01*
X2300470Y-3404387D01*
X2291580Y-3408959D01*
X2282436Y-3417849D01*
X2277864Y-3426993D01*
X2273292Y-3440709D01*
X2273292Y-3463315D01*
X2277864Y-3477031D01*
X2282436Y-3486175D01*
X2291580Y-3495319D01*
X2300470Y-3499637D01*
X2318758Y-3499637D01*
X2327902Y-3495319D01*
X2337046Y-3486175D01*
X2341618Y-3477031D01*
X2376162Y-3426993D02*
G01*
X2376162Y-3422421D01*
X2380480Y-3413277D01*
X2385052Y-3408959D01*
X2394196Y-3404387D01*
X2412484Y-3404387D01*
X2421374Y-3408959D01*
X2425946Y-3413277D01*
X2430518Y-3422421D01*
X2430518Y-3431565D01*
X2425946Y-3440709D01*
X2417056Y-3454171D01*
X2371590Y-3499637D01*
X2435090Y-3499637D01*
X2533388Y-3426993D02*
G01*
X2528816Y-3417849D01*
X2519672Y-3408959D01*
X2510528Y-3404387D01*
X2492494Y-3404387D01*
X2483350Y-3408959D01*
X2474206Y-3417849D01*
X2469634Y-3426993D01*
X2465062Y-3440709D01*
X2465062Y-3463315D01*
X2469634Y-3477031D01*
X2474206Y-3486175D01*
X2483350Y-3495319D01*
X2492494Y-3499637D01*
X2510528Y-3499637D01*
X2519672Y-3495319D01*
X2528816Y-3486175D01*
X2533388Y-3477031D01*
X2533388Y-3463315D01*
X2510528Y-3463315D02*
G01*
X2533388Y-3463315D01*
X5357520Y-6507987D02*
G01*
X5348376Y-6512305D01*
X5339232Y-6521450D01*
X5334660Y-6530594D01*
X5334660Y-6548881D01*
X5339232Y-6557771D01*
X5348376Y-6566915D01*
X5357520Y-6571487D01*
X5370982Y-6576060D01*
X5393842Y-6576060D01*
X5407304Y-6571487D01*
X5416448Y-6566915D01*
X5425592Y-6557771D01*
X5430164Y-6548881D01*
X5430164Y-6530594D01*
X5425592Y-6521450D01*
X5416448Y-6512305D01*
X5407304Y-6507987D01*
X5357520Y-6473444D02*
G01*
X5352948Y-6473444D01*
X5343804Y-6468871D01*
X5339232Y-6464300D01*
X5334660Y-6455155D01*
X5334660Y-6436868D01*
X5339232Y-6427978D01*
X5343804Y-6423405D01*
X5352948Y-6418834D01*
X5361838Y-6418834D01*
X5370982Y-6423405D01*
X5384698Y-6432550D01*
X5430164Y-6477762D01*
X5430164Y-6414262D01*
X5334660Y-6384289D02*
G01*
X5430164Y-6384289D01*
X5430164Y-6384289D02*
G01*
X5430164Y-6329679D01*
X5334660Y-6299707D02*
G01*
X5430164Y-6299707D01*
X5334660Y-6299707D02*
G01*
X5334660Y-6258813D01*
X5339232Y-6245097D01*
X5343804Y-6240526D01*
X5352948Y-6235954D01*
X5361838Y-6235954D01*
X5370982Y-6240526D01*
X5375554Y-6245097D01*
X5380126Y-6258813D01*
X5380126Y-6299707D01*
X5380126Y-6267957D02*
G01*
X5430164Y-6235954D01*
X5357520Y-6137910D02*
G01*
X5348376Y-6142481D01*
X5339232Y-6151626D01*
X5334660Y-6160515D01*
X5334660Y-6178804D01*
X5339232Y-6187947D01*
X5348376Y-6197092D01*
X5357520Y-6201410D01*
X5370982Y-6205981D01*
X5393842Y-6205981D01*
X5407304Y-6201410D01*
X5416448Y-6197092D01*
X5425592Y-6187947D01*
X5430164Y-6178804D01*
X5430164Y-6160515D01*
X5425592Y-6151626D01*
X5416448Y-6142481D01*
X5407304Y-6137910D01*
X5393842Y-6137910D01*
X5393842Y-6160515D02*
G01*
X5393842Y-6137910D01*
X6029591Y-2332207D02*
G01*
X6025019Y-2323063D01*
X6015875Y-2314173D01*
X6006731Y-2309601D01*
X5988697Y-2309601D01*
X5979553Y-2314173D01*
X5970409Y-2323063D01*
X5965835Y-2332207D01*
X5961519Y-2345923D01*
X5961519Y-2368529D01*
X5965835Y-2382245D01*
X5970409Y-2391389D01*
X5979553Y-2400533D01*
X5988697Y-2405105D01*
X6006731Y-2405105D01*
X6015873Y-2400533D01*
X6025017Y-2391389D01*
X6029591Y-2382245D01*
X6064133Y-2332207D02*
G01*
X6064135Y-2327638D01*
X6068707Y-2318745D01*
X6073279Y-2314171D01*
X6082423Y-2309601D01*
X6100457Y-2309601D01*
X6109601Y-2314173D01*
X6114173Y-2318745D01*
X6118745Y-2327635D01*
X6118745Y-2336779D01*
X6114173Y-2345923D01*
X6105029Y-2359639D01*
X6059563Y-2405103D01*
X6123317Y-2405105D01*
X6180467Y-2309601D02*
G01*
X6171323Y-2314173D01*
X6162433Y-2323063D01*
X6157864Y-2332207D01*
X6153289Y-2345923D01*
X6153289Y-2368529D01*
X6157864Y-2382245D01*
X6162433Y-2391389D01*
X6171323Y-2400533D01*
X6180467Y-2405105D01*
X6198755Y-2405105D01*
X6207645Y-2400533D01*
X6216789Y-2391389D01*
X6221361Y-2382245D01*
X6225936Y-2368529D01*
X6225933Y-2345923D01*
X6221361Y-2332207D01*
X6216789Y-2323063D01*
X6207643Y-2314173D01*
X6198755Y-2309601D01*
X6180467Y-2309601D01*
X6255905Y-2309601D02*
G01*
X6255905Y-2405105D01*
X6255905Y-2309601D02*
G01*
X6287655Y-2309601D01*
X6301371Y-2314173D01*
X6310515Y-2323063D01*
X6315087Y-2332205D01*
X6319659Y-2345923D01*
X6319659Y-2368529D01*
X6315087Y-2382243D01*
X6310515Y-2391389D01*
X6301371Y-2400533D01*
X6287655Y-2405105D01*
X6255905Y-2405105D01*
X1637847Y-4064464D02*
G01*
X1633278Y-4055574D01*
X1624131Y-4046428D01*
X1615244Y-4041858D01*
X1596956Y-4041858D01*
X1587809Y-4046430D01*
X1578919Y-4055574D01*
X1574350Y-4064462D01*
X1569775Y-4078180D01*
X1569778Y-4101038D01*
X1574350Y-4114500D01*
X1578922Y-4123646D01*
X1587812Y-4132793D01*
X1596956Y-4137362D01*
X1615241Y-4137365D01*
X1624134Y-4132788D01*
X1633278Y-4123646D01*
X1637847Y-4114500D01*
X1672394Y-4064464D02*
G01*
X1672394Y-4060146D01*
X1676966Y-4051000D01*
X1681538Y-4046430D01*
X1690679Y-4041856D01*
X1708716Y-4041856D01*
X1717857Y-4046430D01*
X1722434Y-4051002D01*
X1727004Y-4060146D01*
X1727006Y-4069036D01*
X1722427Y-4078178D01*
X1713288Y-4091896D01*
X1667819Y-4137362D01*
X1731573Y-4137362D01*
X1761548Y-4041858D02*
G01*
X1797867Y-4137362D01*
X1834189Y-4041856D02*
G01*
X1797867Y-4137362D01*
X1864164Y-4041858D02*
G01*
X1864161Y-4137362D01*
X1864164Y-4041858D02*
G01*
X1896168Y-4041858D01*
X1909630Y-4046430D01*
X1918771Y-4055574D01*
X1923343Y-4064462D01*
X1927915Y-4078178D01*
X1927913Y-4101040D01*
X1923343Y-4114505D01*
X1918771Y-4123644D01*
X1909625Y-4132790D01*
X1896165Y-4137362D01*
X1864161Y-4137362D01*
X1957887Y-4041856D02*
G01*
X1957887Y-4137362D01*
X1957887Y-4041856D02*
G01*
X1989640Y-4041858D01*
X2003356Y-4046428D01*
X2012500Y-4055572D01*
X2017072Y-4064464D01*
X2021641Y-4078178D01*
X2021644Y-4101040D01*
X2017069Y-4114502D01*
X2012497Y-4123646D01*
X2003353Y-4132790D01*
X1989640Y-4137360D01*
X1957887Y-4137362D01*
X2087938Y-4041858D02*
G01*
X2051613Y-4137362D01*
X2087938Y-4041858D02*
G01*
X2124257Y-4137362D01*
X2065075Y-4105358D02*
G01*
X2110544Y-4105358D01*
X1043327Y-5884870D02*
G01*
X1052471Y-5880298D01*
X1061615Y-5871154D01*
X1066187Y-5862010D01*
X1066187Y-5843976D01*
X1061615Y-5834832D01*
X1052471Y-5825688D01*
X1043327Y-5821116D01*
X1029865Y-5816544D01*
X1007005Y-5816544D01*
X993289Y-5821116D01*
X984399Y-5825688D01*
X975255Y-5834832D01*
X970683Y-5843976D01*
X970683Y-5862010D01*
X975255Y-5871154D01*
X984399Y-5880298D01*
X993289Y-5884870D01*
X1066187Y-5923986D02*
G01*
X1066187Y-5973770D01*
X1029865Y-5946592D01*
X1029865Y-5960308D01*
X1025293Y-5969198D01*
X1020721Y-5973770D01*
X1007005Y-5978342D01*
X997861Y-5978342D01*
X984399Y-5973770D01*
X975255Y-5964880D01*
X970683Y-5951164D01*
X970683Y-5937448D01*
X975255Y-5923986D01*
X979827Y-5919414D01*
X988971Y-5914842D01*
X1043327Y-6076640D02*
G01*
X1052471Y-6072068D01*
X1061615Y-6062924D01*
X1066187Y-6053780D01*
X1066187Y-6035746D01*
X1061615Y-6026602D01*
X1052471Y-6017458D01*
X1043327Y-6012886D01*
X1029865Y-6008314D01*
X1007005Y-6008314D01*
X993289Y-6012886D01*
X984399Y-6017458D01*
X975255Y-6026602D01*
X970683Y-6035746D01*
X970683Y-6053780D01*
X975255Y-6062924D01*
X984399Y-6072068D01*
X993289Y-6076640D01*
X3567849Y-3403094D02*
G01*
X3576993Y-3398776D01*
X3585883Y-3389632D01*
X3590455Y-3380488D01*
X3590455Y-3362200D01*
X3585883Y-3353310D01*
X3576993Y-3344166D01*
X3567849Y-3339594D01*
X3554133Y-3335022D01*
X3531527Y-3335022D01*
X3517811Y-3339594D01*
X3508667Y-3344166D01*
X3499523Y-3353310D01*
X3495205Y-3362200D01*
X3495205Y-3380488D01*
X3499523Y-3389632D01*
X3508667Y-3398776D01*
X3517811Y-3403094D01*
X3590455Y-3442210D02*
G01*
X3590455Y-3492248D01*
X3554133Y-3465070D01*
X3554133Y-3478532D01*
X3549561Y-3487676D01*
X3544989Y-3492248D01*
X3531527Y-3496820D01*
X3522383Y-3496820D01*
X3508667Y-3492248D01*
X3499523Y-3483104D01*
X3495205Y-3469642D01*
X3495205Y-3455926D01*
X3499523Y-3442210D01*
X3504095Y-3437638D01*
X3513239Y-3433320D01*
X3567849Y-3595118D02*
G01*
X3576993Y-3590546D01*
X3585883Y-3581402D01*
X3590455Y-3572258D01*
X3590455Y-3554224D01*
X3585883Y-3545080D01*
X3576993Y-3535936D01*
X3567849Y-3531364D01*
X3554133Y-3526792D01*
X3531527Y-3526792D01*
X3517811Y-3531364D01*
X3508667Y-3535936D01*
X3499523Y-3545080D01*
X3495205Y-3554224D01*
X3495205Y-3572258D01*
X3499523Y-3581402D01*
X3508667Y-3590546D01*
X3517811Y-3595118D01*
X3531527Y-3595118D01*
X3531527Y-3572258D02*
G01*
X3531527Y-3595118D01*
X1869033Y-4490189D02*
G01*
X1873100Y-4480811D01*
X1874227Y-4467926D01*
X1871853Y-4457984D01*
X1860260Y-4444169D01*
X1850880Y-4440102D01*
X1837997Y-4438977D01*
X1828055Y-4441352D01*
X1814609Y-4446666D01*
X1797291Y-4461195D01*
X1789724Y-4473516D01*
X1785853Y-4482731D01*
X1784725Y-4495612D01*
X1787098Y-4505558D01*
X1798693Y-4519371D01*
X1808071Y-4523437D01*
X1820953Y-4524565D01*
X1830702Y-4522353D01*
X1935035Y-4533285D02*
G01*
X1856971Y-4539434D01*
X1900730Y-4591583D01*
X1935035Y-4533285D02*
G01*
X1861875Y-4594672D01*
X1968997Y-4573755D02*
G01*
X1919183Y-4662970D01*
X2015690Y-4629404D02*
G01*
X1919183Y-4662970D01*
X2034956Y-4652365D02*
G01*
X1961796Y-4713752D01*
X2034956Y-4652365D02*
G01*
X2055365Y-4676686D01*
X2060679Y-4690132D01*
X2059551Y-4703013D01*
X2055487Y-4712395D01*
X2047753Y-4724519D01*
X2030437Y-4739048D01*
X2017156Y-4744559D01*
X2007405Y-4746772D01*
X1994524Y-4745644D01*
X1982205Y-4738075D01*
X1961796Y-4713752D01*
X2095202Y-4724161D02*
G01*
X2022043Y-4785553D01*
X2095202Y-4724161D02*
G01*
X2115611Y-4748484D01*
X2120925Y-4761931D01*
X2119635Y-4774618D01*
X2115568Y-4783998D01*
X2108001Y-4796317D01*
X2090681Y-4810848D01*
X2077237Y-4816162D01*
X2067491Y-4818374D01*
X2054768Y-4817442D01*
X2042452Y-4809873D01*
X2022043Y-4785553D01*
X5511502Y-3432162D02*
G01*
X5506930Y-3423018D01*
X5497786Y-3413874D01*
X5488642Y-3409302D01*
X5470608Y-3409302D01*
X5461464Y-3413874D01*
X5452320Y-3423018D01*
X5447748Y-3432162D01*
X5443176Y-3445624D01*
X5443176Y-3468484D01*
X5447748Y-3482200D01*
X5452320Y-3491090D01*
X5461464Y-3500234D01*
X5470608Y-3504806D01*
X5488642Y-3504806D01*
X5497786Y-3500234D01*
X5506930Y-3491090D01*
X5511502Y-3482200D01*
X5595830Y-3409302D02*
G01*
X5550618Y-3409302D01*
X5546046Y-3450196D01*
X5550618Y-3445624D01*
X5564080Y-3441052D01*
X5577796Y-3441052D01*
X5591512Y-3445624D01*
X5600402Y-3454768D01*
X5604974Y-3468484D01*
X5604974Y-3477628D01*
X5600402Y-3491090D01*
X5591512Y-3500234D01*
X5577796Y-3504806D01*
X5564080Y-3504806D01*
X5550618Y-3500234D01*
X5546046Y-3495662D01*
X5541474Y-3486518D01*
X5662378Y-3409302D02*
G01*
X5653234Y-3413874D01*
X5644090Y-3423018D01*
X5639518Y-3432162D01*
X5634946Y-3445624D01*
X5634946Y-3468484D01*
X5639518Y-3482200D01*
X5644090Y-3491090D01*
X5653234Y-3500234D01*
X5662378Y-3504806D01*
X5680412Y-3504806D01*
X5689556Y-3500234D01*
X5698700Y-3491090D01*
X5703272Y-3482200D01*
X5707844Y-3468484D01*
X5707844Y-3445624D01*
X5703272Y-3432162D01*
X5698700Y-3423018D01*
X5689556Y-3413874D01*
X5680412Y-3409302D01*
X5662378Y-3409302D01*
X5737816Y-3409302D02*
G01*
X5737816Y-3504806D01*
X5737816Y-3409302D02*
G01*
X5769566Y-3409302D01*
X5783282Y-3413874D01*
X5792426Y-3423018D01*
X5796744Y-3432162D01*
X5801316Y-3445624D01*
X5801316Y-3468484D01*
X5796744Y-3482200D01*
X5792426Y-3491090D01*
X5783282Y-3500234D01*
X5769566Y-3504806D01*
X5737816Y-3504806D01*
X3527391Y-3970690D02*
G01*
X3530622Y-3960992D01*
X3530622Y-3948061D01*
X3527391Y-3938361D01*
X3514638Y-3925610D01*
X3504940Y-3922377D01*
X3492009Y-3922377D01*
X3482309Y-3925610D01*
X3469558Y-3931897D01*
X3453394Y-3948061D01*
X3447107Y-3960812D01*
X3443874Y-3970510D01*
X3443874Y-3983443D01*
X3447107Y-3993141D01*
X3459858Y-4005892D01*
X3469558Y-4009125D01*
X3482489Y-4009125D01*
X3492187Y-4005892D01*
X3603363Y-4014335D02*
G01*
X3571214Y-3982186D01*
X3539065Y-4007868D01*
X3545530Y-4007868D01*
X3558283Y-4014155D01*
X3567981Y-4023855D01*
X3574448Y-4036786D01*
X3574267Y-4049537D01*
X3567803Y-4062468D01*
X3561336Y-4068935D01*
X3548585Y-4075221D01*
X3535832Y-4075399D01*
X3522901Y-4068935D01*
X3513203Y-4059237D01*
X3506917Y-4046484D01*
X3506917Y-4040017D01*
X3510147Y-4030319D01*
X3630843Y-4041815D02*
G01*
X3589174Y-4135208D01*
X3682390Y-4093362D02*
G01*
X3589174Y-4135208D01*
X3703584Y-4114553D02*
G01*
X3636053Y-4182087D01*
X3703584Y-4114553D02*
G01*
X3726035Y-4137004D01*
X3732499Y-4149935D01*
X3732499Y-4162869D01*
X3729088Y-4172386D01*
X3722801Y-4185140D01*
X3706637Y-4201304D01*
X3693883Y-4207591D01*
X3684366Y-4211002D01*
X3671435Y-4211002D01*
X3658501Y-4204535D01*
X3636053Y-4182087D01*
X3769857Y-4180829D02*
G01*
X3702326Y-4248360D01*
X3769857Y-4180829D02*
G01*
X3792308Y-4203278D01*
X3798595Y-4216031D01*
X3798595Y-4228962D01*
X3795361Y-4238660D01*
X3789075Y-4251413D01*
X3772910Y-4267578D01*
X3760160Y-4273864D01*
X3750459Y-4277098D01*
X3737528Y-4277098D01*
X3724777Y-4270811D01*
X3702326Y-4248360D01*
X5470870Y-2830055D02*
G01*
X5466298Y-2820911D01*
X5457154Y-2812021D01*
X5448010Y-2807449D01*
X5429722Y-2807449D01*
X5420832Y-2812021D01*
X5411688Y-2820911D01*
X5407116Y-2830055D01*
X5402544Y-2843771D01*
X5402544Y-2866377D01*
X5407116Y-2880093D01*
X5411688Y-2889237D01*
X5420832Y-2898381D01*
X5429722Y-2902953D01*
X5448010Y-2902953D01*
X5457154Y-2898381D01*
X5466298Y-2889237D01*
X5470870Y-2880093D01*
X5555198Y-2820911D02*
G01*
X5550880Y-2812021D01*
X5537164Y-2807449D01*
X5528020Y-2807449D01*
X5514304Y-2812021D01*
X5505414Y-2825483D01*
X5500842Y-2848343D01*
X5500842Y-2870949D01*
X5505414Y-2889237D01*
X5514304Y-2898381D01*
X5528020Y-2902953D01*
X5532592Y-2902953D01*
X5546308Y-2898381D01*
X5555198Y-2889237D01*
X5559770Y-2875521D01*
X5559770Y-2870949D01*
X5555198Y-2857487D01*
X5546308Y-2848343D01*
X5532592Y-2843771D01*
X5528020Y-2843771D01*
X5514304Y-2848343D01*
X5505414Y-2857487D01*
X5500842Y-2870949D01*
X5617174Y-2807449D02*
G01*
X5608030Y-2812021D01*
X5598886Y-2820911D01*
X5594314Y-2830055D01*
X5589742Y-2843771D01*
X5589742Y-2866377D01*
X5594314Y-2880093D01*
X5598886Y-2889237D01*
X5608030Y-2898381D01*
X5617174Y-2902953D01*
X5635208Y-2902953D01*
X5644352Y-2898381D01*
X5653496Y-2889237D01*
X5658068Y-2880093D01*
X5662640Y-2866377D01*
X5662640Y-2843771D01*
X5658068Y-2830055D01*
X5653496Y-2820911D01*
X5644352Y-2812021D01*
X5635208Y-2807449D01*
X5617174Y-2807449D01*
X5692612Y-2807449D02*
G01*
X5692612Y-2902953D01*
X5692612Y-2807449D02*
G01*
X5724362Y-2807449D01*
X5738078Y-2812021D01*
X5747222Y-2820911D01*
X5751540Y-2830055D01*
X5756112Y-2843771D01*
X5756112Y-2866377D01*
X5751540Y-2880093D01*
X5747222Y-2889237D01*
X5738078Y-2898381D01*
X5724362Y-2902953D01*
X5692612Y-2902953D01*
X3405804Y-5479310D02*
G01*
X3401232Y-5470166D01*
X3392088Y-5461276D01*
X3382944Y-5456704D01*
X3364910Y-5456704D01*
X3355766Y-5461276D01*
X3346622Y-5470166D01*
X3342050Y-5479310D01*
X3337478Y-5493026D01*
X3337478Y-5515632D01*
X3342050Y-5529348D01*
X3346622Y-5538492D01*
X3355766Y-5547636D01*
X3364910Y-5551954D01*
X3382944Y-5551954D01*
X3392088Y-5547636D01*
X3401232Y-5538492D01*
X3405804Y-5529348D01*
X3490386Y-5470166D02*
G01*
X3485814Y-5461276D01*
X3472098Y-5456704D01*
X3462954Y-5456704D01*
X3449492Y-5461276D01*
X3440348Y-5474738D01*
X3435776Y-5497598D01*
X3435776Y-5520204D01*
X3440348Y-5538492D01*
X3449492Y-5547636D01*
X3462954Y-5551954D01*
X3467526Y-5551954D01*
X3481242Y-5547636D01*
X3490386Y-5538492D01*
X3494958Y-5524776D01*
X3494958Y-5520204D01*
X3490386Y-5506742D01*
X3481242Y-5497598D01*
X3467526Y-5493026D01*
X3462954Y-5493026D01*
X3449492Y-5497598D01*
X3440348Y-5506742D01*
X3435776Y-5520204D01*
X3524930Y-5456704D02*
G01*
X3561252Y-5551954D01*
X3597574Y-5456704D02*
G01*
X3561252Y-5551954D01*
X3627546Y-5456704D02*
G01*
X3627546Y-5551954D01*
X3627546Y-5456704D02*
G01*
X3659296Y-5456704D01*
X3673012Y-5461276D01*
X3682156Y-5470166D01*
X3686728Y-5479310D01*
X3691300Y-5493026D01*
X3691300Y-5515632D01*
X3686728Y-5529348D01*
X3682156Y-5538492D01*
X3673012Y-5547636D01*
X3659296Y-5551954D01*
X3627546Y-5551954D01*
X3721272Y-5456704D02*
G01*
X3721272Y-5551954D01*
X3721272Y-5456704D02*
G01*
X3753022Y-5456704D01*
X3766738Y-5461276D01*
X3775628Y-5470166D01*
X3780200Y-5479310D01*
X3784772Y-5493026D01*
X3784772Y-5515632D01*
X3780200Y-5529348D01*
X3775628Y-5538492D01*
X3766738Y-5547636D01*
X3753022Y-5551954D01*
X3721272Y-5551954D01*
X6999457Y-6608998D02*
G01*
X6904207Y-6608998D01*
X6999457Y-6608998D02*
G01*
X6999457Y-6649892D01*
X6994885Y-6663608D01*
X6990567Y-6668180D01*
X6981423Y-6672752D01*
X6972279Y-6672752D01*
X6963135Y-6668180D01*
X6958563Y-6663608D01*
X6953991Y-6649892D01*
X6953991Y-6608998D01*
X6953991Y-6641002D02*
G01*
X6904207Y-6672752D01*
X6981423Y-6702724D02*
G01*
X6985995Y-6711868D01*
X6999457Y-6725330D01*
X6904207Y-6725330D01*
X6999457Y-6755556D02*
G01*
X6904207Y-6755556D01*
X6999457Y-6755556D02*
G01*
X6999457Y-6796450D01*
X6994885Y-6809912D01*
X6990567Y-6814484D01*
X6981423Y-6819056D01*
X6972279Y-6819056D01*
X6963135Y-6814484D01*
X6958563Y-6809912D01*
X6953991Y-6796450D01*
X6953991Y-6755556D02*
G01*
X6953991Y-6796450D01*
X6949673Y-6809912D01*
X6945101Y-6814484D01*
X6935957Y-6819056D01*
X6922241Y-6819056D01*
X6913097Y-6814484D01*
X6908525Y-6809912D01*
X6904207Y-6796450D01*
X6904207Y-6755556D01*
X6999457Y-6880778D02*
G01*
X6904207Y-6880778D01*
X6999457Y-6849028D02*
G01*
X6999457Y-6912782D01*
X6999457Y-6974504D02*
G01*
X6904207Y-6974504D01*
X6999457Y-6942754D02*
G01*
X6999457Y-7006254D01*
X5968977Y-2893634D02*
G01*
X5968977Y-2989138D01*
X5968977Y-2893634D02*
G01*
X6009871Y-2893634D01*
X6023587Y-2898206D01*
X6028159Y-2902778D01*
X6032731Y-2911922D01*
X6032731Y-2921066D01*
X6028159Y-2930210D01*
X6023587Y-2934528D01*
X6009871Y-2939100D01*
X5968977Y-2939100D01*
X6000727Y-2939100D02*
G01*
X6032731Y-2989138D01*
X6062703Y-2911922D02*
G01*
X6071593Y-2907350D01*
X6085309Y-2893634D01*
X6085309Y-2989138D01*
X6142713Y-2893634D02*
G01*
X6133569Y-2898206D01*
X6124425Y-2907350D01*
X6119853Y-2916494D01*
X6115281Y-2930210D01*
X6115281Y-2952816D01*
X6119853Y-2966532D01*
X6124425Y-2975422D01*
X6133569Y-2984566D01*
X6142713Y-2989138D01*
X6160747Y-2989138D01*
X6169891Y-2984566D01*
X6179035Y-2975422D01*
X6183607Y-2966532D01*
X6188179Y-2952816D01*
X6188179Y-2930210D01*
X6183607Y-2916494D01*
X6179035Y-2907350D01*
X6169891Y-2898206D01*
X6160747Y-2893634D01*
X6142713Y-2893634D01*
X6218151Y-2893634D02*
G01*
X6218151Y-2989138D01*
X6218151Y-2893634D02*
G01*
X6249901Y-2893634D01*
X6263617Y-2898206D01*
X6272507Y-2907350D01*
X6277079Y-2916494D01*
X6281651Y-2930210D01*
X6281651Y-2952816D01*
X6277079Y-2966532D01*
X6272507Y-2975422D01*
X6263617Y-2984566D01*
X6249901Y-2989138D01*
X6218151Y-2989138D01*
X6446606Y-6236456D02*
G01*
X6446606Y-6331706D01*
X6446606Y-6236456D02*
G01*
X6487500Y-6236456D01*
X6500962Y-6241028D01*
X6505534Y-6245346D01*
X6510106Y-6254490D01*
X6510106Y-6263634D01*
X6505534Y-6272778D01*
X6500962Y-6277350D01*
X6487500Y-6281922D01*
X6446606Y-6281922D01*
X6478356Y-6281922D02*
G01*
X6510106Y-6331706D01*
X6544650Y-6259062D02*
G01*
X6544650Y-6254490D01*
X6549222Y-6245346D01*
X6553794Y-6241028D01*
X6562938Y-6236456D01*
X6580972Y-6236456D01*
X6590116Y-6241028D01*
X6594688Y-6245346D01*
X6599260Y-6254490D01*
X6599260Y-6263634D01*
X6594688Y-6272778D01*
X6585544Y-6286494D01*
X6540078Y-6331706D01*
X6603832Y-6331706D01*
X6633804Y-6236456D02*
G01*
X6633804Y-6331706D01*
X6633804Y-6236456D02*
G01*
X6674698Y-6236456D01*
X6688414Y-6241028D01*
X6692986Y-6245346D01*
X6697304Y-6254490D01*
X6697304Y-6263634D01*
X6692986Y-6272778D01*
X6688414Y-6277350D01*
X6674698Y-6281922D01*
X6633804Y-6281922D02*
G01*
X6674698Y-6281922D01*
X6688414Y-6286494D01*
X6692986Y-6290812D01*
X6697304Y-6299956D01*
X6697304Y-6313672D01*
X6692986Y-6322816D01*
X6688414Y-6327388D01*
X6674698Y-6331706D01*
X6633804Y-6331706D01*
X6759280Y-6236456D02*
G01*
X6759280Y-6331706D01*
X6727530Y-6236456D02*
G01*
X6791030Y-6236456D01*
X6852752Y-6236456D02*
G01*
X6852752Y-6331706D01*
X6821002Y-6236456D02*
G01*
X6884756Y-6236456D01*
X5962210Y-1492153D02*
G01*
X5962210Y-1587657D01*
X5962210Y-1492153D02*
G01*
X6003104Y-1492153D01*
X6016820Y-1496725D01*
X6021392Y-1501297D01*
X6025710Y-1510187D01*
X6025710Y-1519331D01*
X6021392Y-1528475D01*
X6016820Y-1533047D01*
X6003104Y-1537619D01*
X5962210Y-1537619D01*
X5993960Y-1537619D02*
G01*
X6025710Y-1587657D01*
X6060254Y-1514759D02*
G01*
X6060254Y-1510187D01*
X6064826Y-1501297D01*
X6069398Y-1496725D01*
X6078542Y-1492153D01*
X6096830Y-1492153D01*
X6105720Y-1496725D01*
X6110292Y-1501297D01*
X6114864Y-1510187D01*
X6114864Y-1519331D01*
X6110292Y-1528475D01*
X6101402Y-1542191D01*
X6055936Y-1587657D01*
X6119436Y-1587657D01*
X6176840Y-1492153D02*
G01*
X6167696Y-1496725D01*
X6158552Y-1505869D01*
X6153980Y-1514759D01*
X6149408Y-1528475D01*
X6149408Y-1551081D01*
X6153980Y-1564797D01*
X6158552Y-1573941D01*
X6167696Y-1583085D01*
X6176840Y-1587657D01*
X6194874Y-1587657D01*
X6204018Y-1583085D01*
X6213162Y-1573941D01*
X6217734Y-1564797D01*
X6222306Y-1551081D01*
X6222306Y-1528475D01*
X6217734Y-1514759D01*
X6213162Y-1505869D01*
X6204018Y-1496725D01*
X6194874Y-1492153D01*
X6176840Y-1492153D01*
X6252278Y-1492153D02*
G01*
X6252278Y-1587657D01*
X6252278Y-1492153D02*
G01*
X6284028Y-1492153D01*
X6297744Y-1496725D01*
X6306634Y-1505869D01*
X6311206Y-1514759D01*
X6315778Y-1528475D01*
X6315778Y-1551081D01*
X6311206Y-1564797D01*
X6306634Y-1573941D01*
X6297744Y-1583085D01*
X6284028Y-1587657D01*
X6252278Y-1587657D01*
X810359Y-3076707D02*
G01*
X810359Y-3172211D01*
X810359Y-3076707D02*
G01*
X851253Y-3076707D01*
X864715Y-3081279D01*
X869287Y-3085851D01*
X873859Y-3094741D01*
X873859Y-3103885D01*
X869287Y-3113029D01*
X864715Y-3117601D01*
X851253Y-3122173D01*
X810359Y-3122173D01*
X842109Y-3122173D02*
G01*
X873859Y-3172211D01*
X908403Y-3099313D02*
G01*
X908403Y-3094741D01*
X912975Y-3085851D01*
X917547Y-3081279D01*
X926691Y-3076707D01*
X944725Y-3076707D01*
X953869Y-3081279D01*
X958441Y-3085851D01*
X963013Y-3094741D01*
X963013Y-3103885D01*
X958441Y-3113029D01*
X949297Y-3126745D01*
X903831Y-3172211D01*
X967585Y-3172211D01*
X997557Y-3076707D02*
G01*
X997557Y-3144779D01*
X1002129Y-3158495D01*
X1011273Y-3167639D01*
X1024735Y-3172211D01*
X1033879Y-3172211D01*
X1047595Y-3167639D01*
X1056739Y-3158495D01*
X1061057Y-3144779D01*
X1061057Y-3076707D01*
X1091283Y-3076707D02*
G01*
X1091283Y-3172211D01*
X1091283Y-3076707D02*
G01*
X1132177Y-3076707D01*
X1145639Y-3081279D01*
X1150211Y-3085851D01*
X1154783Y-3094741D01*
X1154783Y-3103885D01*
X1150211Y-3113029D01*
X1145639Y-3117601D01*
X1132177Y-3122173D01*
X1091283Y-3122173D02*
G01*
X1132177Y-3122173D01*
X1145639Y-3126745D01*
X1150211Y-3131063D01*
X1154783Y-3140207D01*
X1154783Y-3153923D01*
X1150211Y-3163067D01*
X1145639Y-3167639D01*
X1132177Y-3172211D01*
X1091283Y-3172211D01*
X2260091Y-2680207D02*
G01*
X2255774Y-2671063D01*
X2246629Y-2662173D01*
X2237486Y-2657602D01*
X2219197Y-2657602D01*
X2210308Y-2662173D01*
X2201163Y-2671063D01*
X2196591Y-2680207D01*
X2192020Y-2693923D01*
X2192020Y-2716529D01*
X2196591Y-2730245D01*
X2201163Y-2739389D01*
X2210308Y-2748534D01*
X2219197Y-2753105D01*
X2237486Y-2753105D01*
X2246629Y-2748534D01*
X2255774Y-2739389D01*
X2260091Y-2730245D01*
X2290318Y-2675636D02*
G01*
X2299208Y-2671063D01*
X2312924Y-2657602D01*
X2312924Y-2753105D01*
X2342895Y-2657602D02*
G01*
X2342895Y-2753105D01*
X2342895Y-2657602D02*
G01*
X2383790Y-2657602D01*
X2397506Y-2662173D01*
X2402077Y-2666745D01*
X2406650Y-2675636D01*
X2406650Y-2684779D01*
X2402077Y-2693923D01*
X2397506Y-2698495D01*
X2383790Y-2703068D01*
X2342895Y-2703068D01*
X2374645Y-2703068D02*
G01*
X2406650Y-2753105D01*
X2436622Y-2657602D02*
G01*
X2436622Y-2753105D01*
X2436622Y-2657602D02*
G01*
X2495550Y-2657602D01*
X2436622Y-2703068D02*
G01*
X2472943Y-2703068D01*
X2525775Y-2675636D02*
G01*
X2534665Y-2671063D01*
X2548381Y-2657602D01*
X2548381Y-2753105D01*
X1190752Y-2697987D02*
G01*
X1186434Y-2688844D01*
X1177289Y-2679954D01*
X1168145Y-2675381D01*
X1149857Y-2675381D01*
X1140968Y-2679954D01*
X1131823Y-2688844D01*
X1127252Y-2697987D01*
X1122679Y-2711704D01*
X1122679Y-2734310D01*
X1127252Y-2748026D01*
X1131823Y-2757170D01*
X1140968Y-2766313D01*
X1149857Y-2770886D01*
X1168145Y-2770886D01*
X1177289Y-2766313D01*
X1186434Y-2757170D01*
X1190752Y-2748026D01*
X1225295Y-2697987D02*
G01*
X1225295Y-2693415D01*
X1229868Y-2684526D01*
X1234439Y-2679954D01*
X1243584Y-2675381D01*
X1261871Y-2675381D01*
X1270762Y-2679954D01*
X1275334Y-2684526D01*
X1279905Y-2693415D01*
X1279905Y-2702560D01*
X1275334Y-2711704D01*
X1266189Y-2725420D01*
X1220978Y-2770886D01*
X1284478Y-2770886D01*
X1314450Y-2675381D02*
G01*
X1314450Y-2770886D01*
X1314450Y-2675381D02*
G01*
X1355344Y-2675381D01*
X1369060Y-2679954D01*
X1373631Y-2684526D01*
X1378204Y-2693415D01*
X1378204Y-2702560D01*
X1373631Y-2711704D01*
X1369060Y-2716276D01*
X1355344Y-2720847D01*
X1314450Y-2720847D01*
X1346200Y-2720847D02*
G01*
X1378204Y-2770886D01*
X1408176Y-2675381D02*
G01*
X1408176Y-2770886D01*
X1408176Y-2675381D02*
G01*
X1467104Y-2675381D01*
X1408176Y-2720847D02*
G01*
X1444497Y-2720847D01*
X1497329Y-2693415D02*
G01*
X1506220Y-2688844D01*
X1519936Y-2675381D01*
X1519936Y-2770886D01*
X526483Y-497898D02*
G01*
X621987Y-497898D01*
X526483Y-497898D02*
G01*
X526483Y-457004D01*
X531055Y-443288D01*
X535627Y-438716D01*
X544771Y-434144D01*
X553661Y-434144D01*
X562805Y-438716D01*
X567377Y-443288D01*
X571949Y-457004D01*
X571949Y-497898D01*
X571949Y-466148D02*
G01*
X621987Y-434144D01*
X549089Y-399600D02*
G01*
X544771Y-399600D01*
X535627Y-395028D01*
X531055Y-390456D01*
X526483Y-381566D01*
X526483Y-363278D01*
X531055Y-354134D01*
X535627Y-349562D01*
X544771Y-345244D01*
X553661Y-345244D01*
X562805Y-349562D01*
X576521Y-358706D01*
X621987Y-404172D01*
X621987Y-340672D01*
X526483Y-310700D02*
G01*
X621987Y-310700D01*
X526483Y-310700D02*
G01*
X526483Y-269552D01*
X531055Y-256090D01*
X535627Y-251518D01*
X544771Y-246946D01*
X558233Y-246946D01*
X567377Y-251518D01*
X571949Y-256090D01*
X576521Y-269552D01*
X576521Y-310700D01*
X526483Y-216974D02*
G01*
X621987Y-216974D01*
X621987Y-216974D02*
G01*
X621987Y-162364D01*
X526483Y-132392D02*
G01*
X621987Y-132392D01*
X526483Y-132392D02*
G01*
X526483Y-100642D01*
X531055Y-86926D01*
X540199Y-77782D01*
X549089Y-73210D01*
X562805Y-68638D01*
X585665Y-68638D01*
X599127Y-73210D01*
X608271Y-77782D01*
X617415Y-86926D01*
X621987Y-100642D01*
X621987Y-132392D01*
X1036101Y-4714092D02*
G01*
X1103632Y-4781623D01*
X1036101Y-4714092D02*
G01*
X1065016Y-4685177D01*
X1077948Y-4678710D01*
X1084414Y-4678710D01*
X1093934Y-4681763D01*
X1100399Y-4688230D01*
X1103632Y-4697928D01*
X1103632Y-4704394D01*
X1097165Y-4717326D01*
X1068250Y-4746241D02*
G01*
X1097165Y-4717326D01*
X1110099Y-4710859D01*
X1116383Y-4710681D01*
X1126083Y-4713912D01*
X1135781Y-4723612D01*
X1139014Y-4733310D01*
X1139014Y-4739777D01*
X1132547Y-4752708D01*
X1103632Y-4781623D01*
X1121592Y-4628601D02*
G01*
X1118359Y-4638299D01*
X1118359Y-4650872D01*
X1121592Y-4660569D01*
X1128059Y-4673500D01*
X1144043Y-4689487D01*
X1156975Y-4695952D01*
X1166672Y-4699185D01*
X1179426Y-4699365D01*
X1189123Y-4696132D01*
X1202054Y-4683201D01*
X1205288Y-4673500D01*
X1205108Y-4660750D01*
X1201877Y-4651052D01*
X1195410Y-4638118D01*
X1179426Y-4622134D01*
X1166495Y-4615670D01*
X1156794Y-4612436D01*
X1144224Y-4612436D01*
X1134524Y-4615670D01*
X1121592Y-4628601D01*
X1194333Y-4555860D02*
G01*
X1191099Y-4565558D01*
X1190919Y-4578311D01*
X1194153Y-4588009D01*
X1200619Y-4600940D01*
X1216604Y-4616927D01*
X1229535Y-4623391D01*
X1239232Y-4626625D01*
X1252166Y-4626625D01*
X1261864Y-4623391D01*
X1274615Y-4610641D01*
X1277848Y-4600940D01*
X1277848Y-4588009D01*
X1274615Y-4578311D01*
X1268150Y-4565380D01*
X1252166Y-4549394D01*
X1239232Y-4542929D01*
X1229535Y-4539696D01*
X1216784Y-4539876D01*
X1207084Y-4543107D01*
X1194333Y-4555860D01*
X1270127Y-4480067D02*
G01*
X1337657Y-4547598D01*
X1247675Y-4502518D02*
G01*
X1292578Y-4457616D01*
X3298977Y-5128691D02*
G01*
X3294405Y-5119801D01*
X3285515Y-5110657D01*
X3276371Y-5106085D01*
X3258083Y-5106085D01*
X3248939Y-5110657D01*
X3240049Y-5119801D01*
X3235477Y-5128691D01*
X3230905Y-5142407D01*
X3230905Y-5165267D01*
X3235477Y-5178729D01*
X3240049Y-5187873D01*
X3248939Y-5197017D01*
X3258083Y-5201589D01*
X3276371Y-5201589D01*
X3285515Y-5197017D01*
X3294405Y-5187873D01*
X3298977Y-5178729D01*
X3338093Y-5106085D02*
G01*
X3388131Y-5106085D01*
X3360953Y-5142407D01*
X3374415Y-5142407D01*
X3383559Y-5146979D01*
X3388131Y-5151551D01*
X3392703Y-5165267D01*
X3392703Y-5174157D01*
X3388131Y-5187873D01*
X3378987Y-5197017D01*
X3365525Y-5201589D01*
X3351809Y-5201589D01*
X3338093Y-5197017D01*
X3333521Y-5192445D01*
X3328949Y-5183301D01*
X3422675Y-5106085D02*
G01*
X3458997Y-5201589D01*
X3495319Y-5106085D02*
G01*
X3458997Y-5201589D01*
X3525545Y-5106085D02*
G01*
X3525545Y-5201589D01*
X3525545Y-5106085D02*
G01*
X3557295Y-5106085D01*
X3570757Y-5110657D01*
X3579901Y-5119801D01*
X3584473Y-5128691D01*
X3589045Y-5142407D01*
X3589045Y-5165267D01*
X3584473Y-5178729D01*
X3579901Y-5187873D01*
X3570757Y-5197017D01*
X3557295Y-5201589D01*
X3525545Y-5201589D01*
X3619017Y-5106085D02*
G01*
X3619017Y-5201589D01*
X3619017Y-5106085D02*
G01*
X3650767Y-5106085D01*
X3664483Y-5110657D01*
X3673627Y-5119801D01*
X3678199Y-5128691D01*
X3682771Y-5142407D01*
X3682771Y-5165267D01*
X3678199Y-5178729D01*
X3673627Y-5187873D01*
X3664483Y-5197017D01*
X3650767Y-5201589D01*
X3619017Y-5201589D01*
G36*
X1690014Y-3230016D02*
G01*
X1690014Y-3830015D01*
X1989988Y-3529990D01*
G37*
G36*
X532028Y-744118D02*
G01*
X506018Y-780135D01*
X531012Y-816102D01*
G37*
G36*
X6155385Y-4508500D02*
G01*
X6149949Y-4513935D01*
X6149949Y-4553508D01*
X6200038Y-4622800D01*
X6206540Y-4635500D01*
X6270040Y-4686300D01*
X6270040Y-4508500D01*
G37*
G36*
X6268618Y-4203700D02*
G01*
X6200038Y-4254500D01*
X6194958Y-4277360D01*
X6143447Y-4336440D01*
X6143447Y-4376064D01*
X6148882Y-4381500D01*
X6268618Y-4381500D01*
G37*
G36*
X7136333Y-5864707D02*
G01*
X7136180Y-5905398D01*
X7181900Y-5905398D01*
X7182256Y-5865164D01*
G37*
G36*
X7137146Y-6124549D02*
G01*
X7136993Y-6165240D01*
X7182713Y-6165240D01*
X7183120Y-6125006D01*
G37*
G36*
X5090007Y-6786016D02*
G01*
X5053990Y-6811009D01*
X5125974Y-6811975D01*
G37*
D11*
X6472367Y-3233933D02*
G01*
X6376479Y-3233933D01*
X6376479Y-3366053D01*
X6472367Y-3366053D01*
X6557609Y-3233933D02*
G01*
X6653496Y-3233933D01*
X6653496Y-3366053D01*
X6557609Y-3366053D01*
X6582608Y-3531054D02*
G01*
X6678495Y-3531054D01*
X6678495Y-3398934D01*
X6582608Y-3398934D01*
X6497365Y-3531054D02*
G01*
X6401478Y-3531054D01*
X6401478Y-3398934D01*
X6497365Y-3398934D01*
X6748927Y-3582614D02*
G01*
X6748927Y-3678501D01*
X6881047Y-3678501D01*
X6881047Y-3582614D01*
X6748927Y-3497371D02*
G01*
X6748927Y-3401484D01*
X6881047Y-3401484D01*
X6881047Y-3497371D01*
D12*
X1989919Y-506542D02*
G01*
X1933348Y-449971D01*
X2090300Y-449978D02*
G01*
X2033734Y-506547D01*
X1989914Y-349595D02*
G01*
X1933348Y-406161D01*
X2131433Y-409668D02*
G01*
X2188001Y-353100D01*
X2188001Y-309283D02*
G01*
X2131435Y-252717D01*
X2031052Y-309288D02*
G01*
X2087620Y-252719D01*
X1850052Y-513521D02*
G01*
X1906623Y-570092D01*
X1749671Y-570085D02*
G01*
X1806237Y-513516D01*
X1850057Y-670468D02*
G01*
X1906623Y-613902D01*
X1708538Y-610395D02*
G01*
X1651970Y-666963D01*
X1651970Y-710780D02*
G01*
X1708536Y-767346D01*
X1808919Y-710775D02*
G01*
X1752351Y-767344D01*
X6516723Y-1179385D02*
G01*
X6436720Y-1179385D01*
X6547708Y-1068410D02*
G01*
X6547708Y-1148407D01*
X6405742Y-1068410D02*
G01*
X6405742Y-1148407D01*
X6548290Y-1010820D02*
G01*
X6548290Y-930821D01*
X6517307Y-899838D02*
G01*
X6437309Y-899838D01*
X6406329Y-1010820D02*
G01*
X6406329Y-930821D01*
X2095583Y-896686D02*
G01*
X2039012Y-840115D01*
X2195964Y-840122D02*
G01*
X2139398Y-896691D01*
X2095578Y-739739D02*
G01*
X2039012Y-796305D01*
X2237097Y-799812D02*
G01*
X2293665Y-743244D01*
X2293665Y-699427D02*
G01*
X2237099Y-642861D01*
X2136716Y-699432D02*
G01*
X2193284Y-642863D01*
X3302662Y-960818D02*
G01*
X3382665Y-960818D01*
X3271677Y-1071793D02*
G01*
X3271677Y-991796D01*
X3413643Y-1071793D02*
G01*
X3413643Y-991796D01*
X3271095Y-1129383D02*
G01*
X3271095Y-1209382D01*
X3302078Y-1240365D02*
G01*
X3382076Y-1240365D01*
X3413056Y-1129383D02*
G01*
X3413056Y-1209382D01*
X3040440Y-1895873D02*
G01*
X3080440Y-1965157D01*
X2928840Y-1924527D02*
G01*
X2998119Y-1884527D01*
X2999823Y-2047473D02*
G01*
X3069102Y-2007473D01*
X2878675Y-1952818D02*
G01*
X2809392Y-1992817D01*
X2798053Y-2035141D02*
G01*
X2838051Y-2104420D01*
X2949656Y-2075759D02*
G01*
X2880372Y-2115759D01*
X3161090Y-2059957D02*
G01*
X3201090Y-2129241D01*
X3049490Y-2088611D02*
G01*
X3118769Y-2048611D01*
X3120473Y-2211557D02*
G01*
X3189752Y-2171557D01*
X2999325Y-2116902D02*
G01*
X2930042Y-2156901D01*
X2918703Y-2199225D02*
G01*
X2958701Y-2268504D01*
X3070306Y-2239843D02*
G01*
X3001022Y-2279843D01*
X1939973Y-1748998D02*
G01*
X1859970Y-1748998D01*
X1970958Y-1638023D02*
G01*
X1970958Y-1718020D01*
X1828993Y-1638023D02*
G01*
X1828993Y-1718020D01*
X1971540Y-1580433D02*
G01*
X1971540Y-1500433D01*
X1940557Y-1469450D02*
G01*
X1860560Y-1469450D01*
X1829579Y-1580433D02*
G01*
X1829579Y-1500433D01*
X1764974Y-1748998D02*
G01*
X1684972Y-1748998D01*
X1795960Y-1638023D02*
G01*
X1795960Y-1718020D01*
X1653994Y-1638023D02*
G01*
X1653994Y-1718020D01*
X1796542Y-1580433D02*
G01*
X1796542Y-1500433D01*
X1765559Y-1469450D02*
G01*
X1685561Y-1469450D01*
X1654581Y-1580433D02*
G01*
X1654581Y-1500433D01*
X1560314Y-1053914D02*
G01*
X1481528Y-1040020D01*
X1610100Y-950005D02*
G01*
X1596207Y-1028786D01*
X1470291Y-925352D02*
G01*
X1456400Y-1004135D01*
X1620672Y-893391D02*
G01*
X1634563Y-814605D01*
X1609432Y-778715D02*
G01*
X1530649Y-764824D01*
X1480868Y-868740D02*
G01*
X1494759Y-789955D01*
X1429773Y-1291267D02*
G01*
X1508559Y-1305161D01*
X1379987Y-1395176D02*
G01*
X1393880Y-1316395D01*
X1519796Y-1419829D02*
G01*
X1533687Y-1341046D01*
X1369415Y-1451790D02*
G01*
X1355524Y-1530576D01*
X1380655Y-1566466D02*
G01*
X1459438Y-1580357D01*
X1509219Y-1476441D02*
G01*
X1495328Y-1555226D01*
D13*
X483006Y-853109D02*
G01*
X368007Y-853109D01*
X368007Y-708111D01*
X488007Y-708111D01*
X550006Y-707110D02*
G01*
X674006Y-707110D01*
X674006Y-852109D01*
X550006Y-852109D01*
X368007Y-853109D02*
G01*
X365005Y-853109D01*
X345005Y-833109D01*
X345005Y-731111D01*
X348007Y-728111D01*
X368007Y-708111D01*
D12*
X5962556Y-6491478D02*
G01*
X5962556Y-6554978D01*
X6267356Y-6554978D01*
X6267356Y-6482580D01*
X5739955Y-7062574D02*
G01*
X6489956Y-7062574D01*
X5739955Y-7062574D02*
G01*
X5739955Y-6482580D01*
X6489956Y-6482580D01*
X6489956Y-7062574D01*
X6056122Y-6482587D02*
G01*
X6032245Y-6482587D01*
D11*
X814049Y-2312619D02*
G01*
X814049Y-2408506D01*
X946170Y-2408506D01*
X946170Y-2312619D01*
X814049Y-2227376D02*
G01*
X814049Y-2131489D01*
X946170Y-2131489D01*
X946170Y-2227376D01*
X4823947Y-6852615D02*
G01*
X4823947Y-6948502D01*
X4956068Y-6948502D01*
X4956068Y-6852615D01*
X4823947Y-6767372D02*
G01*
X4823947Y-6671485D01*
X4956068Y-6671485D01*
X4956068Y-6767372D01*
D12*
X272364Y-2083137D02*
G01*
X458655Y-2083137D01*
X272328Y-2977136D02*
G01*
X458690Y-2977136D01*
D11*
X2724861Y-6520200D02*
G01*
X2820748Y-6520200D01*
X2820748Y-6388079D01*
X2724861Y-6388079D01*
X2639618Y-6520200D02*
G01*
X2543731Y-6520200D01*
X2543731Y-6388079D01*
X2639618Y-6388079D01*
X1860613Y-5010769D02*
G01*
X1792810Y-4942967D01*
X1699387Y-5036390D01*
X1767189Y-5104193D01*
X1920890Y-5071046D02*
G01*
X1988693Y-5138849D01*
X1895269Y-5232272D01*
X1827466Y-5164470D01*
X1602612Y-5221048D02*
G01*
X1698500Y-5221048D01*
X1698500Y-5088928D01*
X1602612Y-5088928D01*
X1517370Y-5221048D02*
G01*
X1421483Y-5221048D01*
X1421483Y-5088928D01*
X1517370Y-5088928D01*
D12*
X7395197Y-2428935D02*
G01*
X7395197Y-2881055D01*
X7044677Y-3053775D02*
G01*
X6645897Y-3053775D01*
X6645897Y-3053775D02*
G01*
X6645897Y-2969955D01*
X6645897Y-2969955D02*
G01*
X6894817Y-2969955D01*
X6894817Y-2969955D02*
G01*
X6894817Y-2830255D01*
X6894817Y-2479735D02*
G01*
X6894817Y-2340035D01*
X6894817Y-2340035D02*
G01*
X6645897Y-2340035D01*
X6645897Y-2340035D02*
G01*
X6645897Y-2256215D01*
X6645897Y-2256215D02*
G01*
X7044677Y-2256215D01*
X7385197Y-1423936D02*
G01*
X7385197Y-1876056D01*
X7034677Y-2048776D02*
G01*
X6635897Y-2048776D01*
X6635897Y-2048776D02*
G01*
X6635897Y-1964956D01*
X6635897Y-1964956D02*
G01*
X6884817Y-1964956D01*
X6884817Y-1964956D02*
G01*
X6884817Y-1825256D01*
X6884817Y-1474736D02*
G01*
X6884817Y-1335036D01*
X6884817Y-1335036D02*
G01*
X6635897Y-1335036D01*
X6635897Y-1335036D02*
G01*
X6635897Y-1251216D01*
X6635897Y-1251216D02*
G01*
X7034677Y-1251216D01*
D11*
X3037372Y-2983933D02*
G01*
X2941485Y-2983933D01*
X2941485Y-3116054D01*
X3037372Y-3116054D01*
X3122615Y-2983933D02*
G01*
X3218502Y-2983933D01*
X3218502Y-3116054D01*
X3122615Y-3116054D01*
X4476051Y-3637371D02*
G01*
X4476051Y-3541483D01*
X4343930Y-3541483D01*
X4343930Y-3637371D01*
X4476051Y-3722613D02*
G01*
X4476051Y-3818501D01*
X4343930Y-3818501D01*
X4343930Y-3722613D01*
D12*
X3969372Y-7000006D02*
G01*
X3730612Y-7000006D01*
X3730612Y-6679966D02*
G01*
X3969372Y-6679966D01*
X3639172Y-6799346D02*
G01*
X3639172Y-6880626D01*
X4060812Y-6880626D02*
G01*
X4060812Y-6799346D01*
X3809352Y-6730766D02*
G01*
X3890632Y-6730766D01*
X3890632Y-6949206D02*
G01*
X3809352Y-6949206D01*
D11*
X6276136Y-6064618D02*
G01*
X6135136Y-6064618D01*
X6135136Y-6245339D02*
G01*
X6276136Y-6245339D01*
X6291376Y-6230099D02*
G01*
X6291376Y-6079858D01*
X5913897Y-6064618D02*
G01*
X6054897Y-6064618D01*
X6054897Y-6245339D02*
G01*
X5913897Y-6245339D01*
X5898657Y-6230099D02*
G01*
X5898657Y-6079858D01*
X6539141Y-5283766D02*
G01*
X6539141Y-5424766D01*
X6719862Y-5424766D02*
G01*
X6719862Y-5283766D01*
X6704622Y-5268526D02*
G01*
X6554381Y-5268526D01*
X6539141Y-5646005D02*
G01*
X6539141Y-5505005D01*
X6719862Y-5505005D02*
G01*
X6719862Y-5646005D01*
X6704622Y-5661245D02*
G01*
X6554381Y-5661245D01*
D12*
X6117468Y-4508482D02*
G01*
X6117468Y-4787882D01*
X6644518Y-4787882D01*
X6796918Y-4635482D01*
X6796918Y-4508482D01*
X6117468Y-4381482D02*
G01*
X6117468Y-4102082D01*
X6644518Y-4102082D01*
X6796918Y-4254482D01*
X6796918Y-4381482D01*
D11*
X6276136Y-5789620D02*
G01*
X6135136Y-5789620D01*
X6135136Y-5970341D02*
G01*
X6276136Y-5970341D01*
X6291376Y-5955101D02*
G01*
X6291376Y-5804860D01*
X5913897Y-5789620D02*
G01*
X6054897Y-5789620D01*
X6054897Y-5970341D02*
G01*
X5913897Y-5970341D01*
X5898657Y-5955101D02*
G01*
X5898657Y-5804860D01*
X6973407Y-6157600D02*
G01*
X6973407Y-5872358D01*
X7144633Y-6157600D02*
G01*
X6625396Y-6157600D01*
X6625686Y-5897417D02*
G01*
X6625018Y-5873495D01*
X6625396Y-6157600D02*
G01*
X6624728Y-6133678D01*
X7144633Y-5872358D02*
G01*
X6625396Y-5872358D01*
D12*
X129997Y-4832250D02*
G01*
X184998Y-4832250D01*
X184998Y-4974991D01*
X554997Y-4974991D01*
X554997Y-4094993D01*
X184998Y-4094993D01*
X184998Y-4229991D01*
X129999Y-4229991D01*
X129999Y-4029991D02*
G01*
X129997Y-5029989D01*
X599996Y-5029989D02*
G01*
X599991Y-4029991D01*
X129997Y-5029989D02*
G01*
X599996Y-5029989D01*
X599998Y-4029991D02*
G01*
X142834Y-4029991D01*
X124998Y-6182248D02*
G01*
X179999Y-6182248D01*
X179999Y-6324988D01*
X549998Y-6324988D01*
X549998Y-5444990D01*
X179999Y-5444990D01*
X179999Y-5579988D01*
X125001Y-5579988D01*
X125001Y-5379989D02*
G01*
X124998Y-6379987D01*
X594997Y-6379987D02*
G01*
X594992Y-5379989D01*
X124998Y-6379987D02*
G01*
X594997Y-6379987D01*
X595000Y-5379989D02*
G01*
X137835Y-5379989D01*
D11*
X4650483Y-2422766D02*
G01*
X5004762Y-2422766D01*
X5004762Y-3408006D01*
X4650483Y-3408006D01*
X4650483Y-2422766D01*
D13*
X5016990Y-6762986D02*
G01*
X5016990Y-6647987D01*
X5161988Y-6647987D01*
X5161988Y-6767987D01*
X5162989Y-6829986D02*
G01*
X5162989Y-6953986D01*
X5017990Y-6953986D01*
X5017990Y-6829986D01*
X5016990Y-6647987D02*
G01*
X5016990Y-6644985D01*
X5036990Y-6624985D01*
X5138988Y-6624985D01*
X5141988Y-6627987D01*
X5161988Y-6647987D01*
D12*
X6284975Y-3192002D02*
G01*
X6284975Y-3587983D01*
D11*
X5700979Y-4902360D02*
G01*
X5700979Y-4806472D01*
X5568858Y-4806472D01*
X5568858Y-4902360D01*
X5700979Y-4987602D02*
G01*
X5700979Y-5083489D01*
X5568858Y-5083489D01*
X5568858Y-4987602D01*
X5733958Y-4987602D02*
G01*
X5733958Y-5083489D01*
X5866079Y-5083489D01*
X5866079Y-4987602D01*
X5733958Y-4902360D02*
G01*
X5733958Y-4806472D01*
X5866079Y-4806472D01*
X5866079Y-4902360D01*
D14*
X7057976Y-3760411D02*
G01*
X7057976Y-3950911D01*
X7311976Y-3950911D01*
X7311976Y-3188911D01*
X7057976Y-3188911D01*
D15*
X7057976Y-3188911D02*
G01*
X7057976Y-3760411D01*
D11*
X5215069Y-6008006D02*
G01*
X4549828Y-6008006D01*
X4549828Y-5713727D01*
X5215069Y-5713727D01*
X5215069Y-6008006D01*
D12*
X4972250Y-4549993D02*
G01*
X4972250Y-4494992D01*
X5114991Y-4494992D01*
X5114991Y-4124993D01*
X4234992Y-4124993D01*
X4234992Y-4494992D01*
X4369991Y-4494992D01*
X4369991Y-4549990D01*
X4169991Y-4549990D02*
G01*
X5169989Y-4549993D01*
X5169989Y-4079994D02*
G01*
X4169991Y-4079999D01*
X5169989Y-4549993D02*
G01*
X5169989Y-4079994D01*
X4169991Y-4079991D02*
G01*
X4169991Y-4537156D01*
X5956404Y-5089977D02*
G01*
X5945040Y-5089977D01*
X6083404Y-5089977D02*
G01*
X6062632Y-5089977D01*
X6210404Y-5089977D02*
G01*
X6189632Y-5089977D01*
X6337404Y-5089977D02*
G01*
X6316632Y-5089977D01*
X6455021Y-5089977D02*
G01*
X6443632Y-5089977D01*
X5956404Y-5499983D02*
G01*
X5945040Y-5499983D01*
X6083404Y-5499983D02*
G01*
X6062632Y-5499983D01*
X6210404Y-5499983D02*
G01*
X6189632Y-5499983D01*
X6337404Y-5499983D02*
G01*
X6316632Y-5499983D01*
X6455021Y-5499983D02*
G01*
X6443632Y-5499983D01*
X6455021Y-5374990D02*
G01*
X6455021Y-5499983D01*
X5945040Y-5499983D02*
G01*
X5945040Y-5089977D01*
X6455021Y-5214970D02*
G01*
X6455021Y-5089977D01*
X3625969Y-2305659D02*
G01*
X3625969Y-2935658D01*
X4075971Y-2935660D02*
G01*
X4075971Y-2305662D01*
X3670970Y-2920659D02*
G01*
X3670970Y-2300660D01*
X4030969Y-2300660D02*
G01*
X4030969Y-2940659D01*
X3914470Y-2595260D02*
G01*
X3787470Y-2595260D01*
X3787470Y-2595260D02*
G01*
X3787470Y-2646060D01*
X3787470Y-2646060D02*
G01*
X3914470Y-2646060D01*
X3914470Y-2646060D02*
G01*
X3914470Y-2595260D01*
X3914470Y-2557160D02*
G01*
X3850970Y-2557160D01*
X3850970Y-2557160D02*
G01*
X3787470Y-2557160D01*
X3850970Y-2557160D02*
G01*
X3850970Y-2519060D01*
X3914470Y-2684160D02*
G01*
X3850970Y-2684160D01*
X3850970Y-2684160D02*
G01*
X3787470Y-2684160D01*
X3850970Y-2684160D02*
G01*
X3850970Y-2722260D01*
D15*
X2515994Y-386999D02*
G01*
X2833494Y-386999D01*
D14*
X2515994Y-386999D02*
G01*
X2515994Y-132999D01*
X3023994Y-132999D01*
X3023994Y-386999D01*
X2833494Y-386999D01*
D15*
X4927305Y-387065D02*
G01*
X5244805Y-387065D01*
D14*
X4927305Y-387065D02*
G01*
X4927305Y-133065D01*
X5435305Y-133065D01*
X5435305Y-387065D01*
X5244805Y-387065D01*
D12*
X5887727Y-79997D02*
G01*
X5887727Y-134998D01*
X5744987Y-134998D01*
X5744987Y-504997D01*
X6624985Y-504997D01*
X6624985Y-134998D01*
X6489987Y-134998D01*
X6489987Y-79999D01*
X6689986Y-79999D02*
G01*
X5689988Y-79997D01*
X5689988Y-549996D02*
G01*
X6689986Y-549991D01*
X5689988Y-79997D02*
G01*
X5689988Y-549996D01*
X6689986Y-549998D02*
G01*
X6689986Y-92834D01*
D15*
X437078Y-1474307D02*
G01*
X437078Y-1156807D01*
D14*
X437078Y-1474307D02*
G01*
X183078Y-1474307D01*
X183078Y-966307D01*
X437078Y-966307D01*
X437078Y-1156807D01*
D12*
X2419992Y-6615595D02*
G01*
X2419992Y-6609989D01*
X2419992Y-6889983D02*
G01*
X2419992Y-6884377D01*
X2639997Y-6615595D02*
G01*
X2639997Y-6609989D01*
X2639997Y-6889983D02*
G01*
X2639997Y-6884377D01*
X2639997Y-6609989D02*
G01*
X2419992Y-6609989D01*
X2639997Y-6889983D02*
G01*
X2419992Y-6889983D01*
D16*
X1134998Y-6239982D02*
G01*
X1134998Y-6199352D01*
X1175618Y-6199352D01*
X1414998Y-6199982D02*
G01*
X1455630Y-6199982D01*
X1455630Y-6240602D01*
X1454998Y-6519981D02*
G01*
X1414376Y-6519981D01*
X1174998Y-6519981D02*
G01*
X1134369Y-6519981D01*
X1134369Y-6519981D02*
G01*
X1134369Y-6479362D01*
X1454998Y-6479354D02*
G01*
X1454998Y-6519981D01*
D10*
X2934004Y-1075436D02*
G01*
X2934004Y-1695195D01*
X2268524Y-1695195D01*
X2268524Y-1032255D01*
X2934004Y-1032255D01*
X2934004Y-1108455D01*
X3189996Y-4987498D02*
G01*
X3189996Y-5029992D01*
X3147501Y-5029992D01*
X3189996Y-4332483D02*
G01*
X3189996Y-4289988D01*
X3147501Y-4289988D01*
X2449992Y-4332483D02*
G01*
X2449992Y-4289988D01*
X2492486Y-4289988D01*
X2492486Y-5029992D02*
G01*
X2449992Y-5029992D01*
X2449992Y-4987498D01*
D11*
X3175246Y-3312373D02*
G01*
X3202614Y-3312373D01*
X3202614Y-3339741D01*
X3175246Y-3627612D02*
G01*
X3202614Y-3627612D01*
X3202614Y-3600244D01*
X2914743Y-3312373D02*
G01*
X2887375Y-3312373D01*
X2887375Y-3339741D01*
X2914743Y-3627612D02*
G01*
X2887375Y-3627612D01*
X2887375Y-3600244D01*
D14*
X4476579Y-387065D02*
G01*
X4667079Y-387065D01*
X4667079Y-133065D01*
X3905079Y-133065D01*
X3905079Y-387065D01*
D15*
X3905079Y-387065D02*
G01*
X4476579Y-387065D01*
D14*
X436999Y-3359492D02*
G01*
X436999Y-3168992D01*
X182999Y-3168992D01*
X182999Y-3930992D01*
X436999Y-3930992D01*
D15*
X436999Y-3930992D02*
G01*
X436999Y-3359492D01*
X1495996Y-2316995D02*
G01*
X1813496Y-2316995D01*
D14*
X1495996Y-2316995D02*
G01*
X1495996Y-2062995D01*
X2003996Y-2062995D01*
X2003996Y-2316995D01*
X1813496Y-2316995D01*
D12*
X6862378Y-790219D02*
G01*
X7101138Y-790219D01*
X7101138Y-1110259D02*
G01*
X6862378Y-1110259D01*
X7192578Y-990879D02*
G01*
X7192578Y-909599D01*
X6770938Y-909599D02*
G01*
X6770938Y-990879D01*
X7022398Y-1059459D02*
G01*
X6941118Y-1059459D01*
X6941118Y-841019D02*
G01*
X7022398Y-841019D01*
D17*
X1835919Y-5665091D02*
G01*
X1906648Y-5735820D01*
X1949071Y-5551939D02*
G01*
X2019800Y-5622668D01*
X1698785Y-268058D02*
G01*
X1628056Y-338787D01*
X1811936Y-381210D02*
G01*
X1741208Y-451939D01*
D12*
X3404298Y-4523077D02*
G01*
X3404298Y-4443074D01*
X3515273Y-4554062D02*
G01*
X3435276Y-4554062D01*
X3515273Y-4412096D02*
G01*
X3435276Y-4412096D01*
X3572863Y-4554644D02*
G01*
X3652862Y-4554644D01*
X3683845Y-4523661D02*
G01*
X3683845Y-4443663D01*
X3572863Y-4412683D02*
G01*
X3652862Y-4412683D01*
X2496378Y-5594520D02*
G01*
X2439807Y-5651091D01*
X2439814Y-5494139D02*
G01*
X2496383Y-5550705D01*
X2339431Y-5594525D02*
G01*
X2395997Y-5651091D01*
X2399504Y-5453006D02*
G01*
X2342936Y-5396438D01*
X2299119Y-5396438D02*
G01*
X2242553Y-5453004D01*
X2299124Y-5553387D02*
G01*
X2242555Y-5496819D01*
X1971481Y-5205559D02*
G01*
X2028052Y-5148988D01*
X2028045Y-5305940D02*
G01*
X1971476Y-5249374D01*
X2128428Y-5205554D02*
G01*
X2071862Y-5148988D01*
X2068355Y-5347073D02*
G01*
X2124923Y-5403641D01*
X2168740Y-5403641D02*
G01*
X2225306Y-5347075D01*
X2168735Y-5246692D02*
G01*
X2225304Y-5303260D01*
X1704764Y-991166D02*
G01*
X1783549Y-1005060D01*
X1654977Y-1095075D02*
G01*
X1668871Y-1016294D01*
X1794786Y-1119728D02*
G01*
X1808678Y-1040945D01*
X1644406Y-1151689D02*
G01*
X1630514Y-1230475D01*
X1655645Y-1266365D02*
G01*
X1734428Y-1280256D01*
X1784210Y-1176340D02*
G01*
X1770319Y-1255125D01*
X1243378Y-1580306D02*
G01*
X1155827Y-1564868D01*
X818139Y-1505323D02*
G01*
X905687Y-1520761D01*
X1016617Y-379689D02*
G01*
X1104168Y-395127D01*
X1441856Y-454672D02*
G01*
X1354307Y-439234D01*
X797534Y-1475900D02*
G01*
X987193Y-400293D01*
X870341Y-1282402D02*
G01*
X989429Y-607021D01*
X1389654Y-677593D02*
G01*
X1270566Y-1352974D01*
X1272801Y-1559702D02*
G01*
X1462460Y-484096D01*
X1196944Y-966010D02*
G01*
X1071872Y-943957D01*
X1071872Y-943957D02*
G01*
X1063050Y-993985D01*
X1063050Y-993985D02*
G01*
X1188123Y-1016038D01*
X1188123Y-1016038D02*
G01*
X1196944Y-966010D01*
X1203561Y-928489D02*
G01*
X1141026Y-917463D01*
X1141026Y-917463D02*
G01*
X1078489Y-906434D01*
X1141026Y-917463D02*
G01*
X1147640Y-879939D01*
X1181506Y-1053561D02*
G01*
X1118969Y-1042532D01*
X1118969Y-1042532D02*
G01*
X1056434Y-1031506D01*
X1118969Y-1042532D02*
G01*
X1112354Y-1080056D01*
X3386493Y-5774088D02*
G01*
X3386493Y-5862988D01*
X3386493Y-6205888D02*
G01*
X3386493Y-6116988D01*
X2243493Y-6205888D02*
G01*
X2243493Y-6116988D01*
X2243493Y-5774088D02*
G01*
X2243493Y-5862988D01*
X3361093Y-6231288D02*
G01*
X2268893Y-6231288D01*
X3157893Y-6193188D02*
G01*
X2472093Y-6193188D01*
X2472093Y-5786788D02*
G01*
X3157893Y-5786788D01*
X3361093Y-5748688D02*
G01*
X2268893Y-5748688D01*
X2789593Y-5926488D02*
G01*
X2789593Y-6053488D01*
X2789593Y-6053488D02*
G01*
X2840393Y-6053488D01*
X2840393Y-6053488D02*
G01*
X2840393Y-5926488D01*
X2840393Y-5926488D02*
G01*
X2789593Y-5926488D01*
X2751493Y-5926488D02*
G01*
X2751493Y-5989988D01*
X2751493Y-5989988D02*
G01*
X2751493Y-6053488D01*
X2751493Y-5989988D02*
G01*
X2713393Y-5989988D01*
X2878493Y-5926488D02*
G01*
X2878493Y-5989988D01*
X2878493Y-5989988D02*
G01*
X2878493Y-6053488D01*
X2878493Y-5989988D02*
G01*
X2916593Y-5989988D01*
X2525994Y-5659965D02*
G01*
X2525994Y-5579963D01*
X2636969Y-5690951D02*
G01*
X2556972Y-5690951D01*
X2636969Y-5548985D02*
G01*
X2556972Y-5548985D01*
X2694559Y-5691532D02*
G01*
X2774558Y-5691532D01*
X2805541Y-5660550D02*
G01*
X2805541Y-5580552D01*
X2694559Y-5549572D02*
G01*
X2774558Y-5549572D01*
X3283996Y-5580011D02*
G01*
X3283996Y-5660014D01*
X3173021Y-5549026D02*
G01*
X3253018Y-5549026D01*
X3173021Y-5690991D02*
G01*
X3253018Y-5690991D01*
X3115431Y-5548444D02*
G01*
X3035432Y-5548444D01*
X3004449Y-5579427D02*
G01*
X3004449Y-5659424D01*
X3115431Y-5690405D02*
G01*
X3035432Y-5690405D01*
D11*
X4584047Y-3722679D02*
G01*
X4584047Y-3818567D01*
X4716167Y-3818567D01*
X4716167Y-3722679D01*
X4584047Y-3637437D02*
G01*
X4584047Y-3541549D01*
X4716167Y-3541549D01*
X4716167Y-3637437D01*
X4774039Y-3722679D02*
G01*
X4774039Y-3818567D01*
X4906159Y-3818567D01*
X4906159Y-3722679D01*
X4774039Y-3637437D02*
G01*
X4774039Y-3541549D01*
X4906159Y-3541549D01*
X4906159Y-3637437D01*
X4968857Y-3722679D02*
G01*
X4968857Y-3818567D01*
X5100977Y-3818567D01*
X5100977Y-3722679D01*
X4968857Y-3637437D02*
G01*
X4968857Y-3541549D01*
X5100977Y-3541549D01*
X5100977Y-3637437D01*
D12*
X3489970Y-6978987D02*
G01*
X3409967Y-6978987D01*
X3520955Y-6868012D02*
G01*
X3520955Y-6948009D01*
X3378989Y-6868012D02*
G01*
X3378989Y-6948009D01*
X3521537Y-6810423D02*
G01*
X3521537Y-6730423D01*
X3490554Y-6699440D02*
G01*
X3410557Y-6699440D01*
X3379576Y-6810423D02*
G01*
X3379576Y-6730423D01*
D11*
X4153931Y-6702607D02*
G01*
X4153931Y-6798495D01*
X4286051Y-6798495D01*
X4286051Y-6702607D01*
X4153931Y-6617365D02*
G01*
X4153931Y-6521477D01*
X4286051Y-6521477D01*
X4286051Y-6617365D01*
X3533500Y-4727234D02*
G01*
X3629388Y-4727234D01*
X3629388Y-4595113D01*
X3533500Y-4595113D01*
X3448258Y-4727234D02*
G01*
X3352370Y-4727234D01*
X3352370Y-4595113D01*
X3448258Y-4595113D01*
D12*
X2385758Y-7121497D02*
G01*
X2385758Y-7041494D01*
X2496733Y-7152482D02*
G01*
X2416736Y-7152482D01*
X2496733Y-7010516D02*
G01*
X2416736Y-7010516D01*
X2554323Y-7153064D02*
G01*
X2634322Y-7153064D01*
X2665305Y-7122081D02*
G01*
X2665305Y-7042083D01*
X2554323Y-7011103D02*
G01*
X2634322Y-7011103D01*
D11*
X1491449Y-6706351D02*
G01*
X1350449Y-6706351D01*
X1350449Y-6887072D02*
G01*
X1491449Y-6887072D01*
X1506689Y-6871832D02*
G01*
X1506689Y-6721591D01*
X1129210Y-6706351D02*
G01*
X1270210Y-6706351D01*
X1270210Y-6887072D02*
G01*
X1129210Y-6887072D01*
X1113970Y-6871832D02*
G01*
X1113970Y-6721591D01*
D12*
X3298995Y-3730015D02*
G01*
X3298995Y-3810017D01*
X3188020Y-3699029D02*
G01*
X3268017Y-3699029D01*
X3188020Y-3840995D02*
G01*
X3268017Y-3840995D01*
X3130430Y-3698448D02*
G01*
X3050430Y-3698448D01*
X3019447Y-3729431D02*
G01*
X3019447Y-3809428D01*
X3130430Y-3840408D02*
G01*
X3050430Y-3840408D01*
D11*
X4232089Y-5459745D02*
G01*
X4232089Y-5600745D01*
X4412810Y-5600745D02*
G01*
X4412810Y-5459745D01*
X4397570Y-5444505D02*
G01*
X4247329Y-5444505D01*
X4232089Y-5821984D02*
G01*
X4232089Y-5680984D01*
X4412810Y-5680984D02*
G01*
X4412810Y-5821984D01*
X4397570Y-5837224D02*
G01*
X4247329Y-5837224D01*
D12*
X4317568Y-2524381D02*
G01*
X4237565Y-2524381D01*
X4348553Y-2413406D02*
G01*
X4348553Y-2493403D01*
X4206587Y-2413406D02*
G01*
X4206587Y-2493403D01*
X4349135Y-2355816D02*
G01*
X4349135Y-2275817D01*
X4318152Y-2244834D02*
G01*
X4238155Y-2244834D01*
X4207174Y-2355816D02*
G01*
X4207174Y-2275817D01*
X2358217Y-4279455D02*
G01*
X2301648Y-4222884D01*
X2458600Y-4222897D02*
G01*
X2402034Y-4279463D01*
X2358217Y-4122508D02*
G01*
X2301648Y-4179077D01*
X2499733Y-4182584D02*
G01*
X2556301Y-4126016D01*
X2556301Y-4082199D02*
G01*
X2499735Y-4025633D01*
X2399352Y-4082201D02*
G01*
X2455920Y-4025633D01*
X2915257Y-6885241D02*
G01*
X2835254Y-6885241D01*
X2946242Y-6774266D02*
G01*
X2946242Y-6854263D01*
X2804276Y-6774266D02*
G01*
X2804276Y-6854263D01*
X2946824Y-6716676D02*
G01*
X2946824Y-6636677D01*
X2915841Y-6605694D02*
G01*
X2835843Y-6605694D01*
X2804863Y-6716676D02*
G01*
X2804863Y-6636677D01*
X954377Y-6801421D02*
G01*
X874374Y-6801421D01*
X985362Y-6690446D02*
G01*
X985362Y-6770443D01*
X843396Y-6690446D02*
G01*
X843396Y-6770443D01*
X985944Y-6632856D02*
G01*
X985944Y-6552857D01*
X954961Y-6521874D02*
G01*
X874963Y-6521874D01*
X843983Y-6632856D02*
G01*
X843983Y-6552857D01*
X2684117Y-3664521D02*
G01*
X2604114Y-3664521D01*
X2715102Y-3553546D02*
G01*
X2715102Y-3633543D01*
X2573136Y-3553546D02*
G01*
X2573136Y-3633543D01*
X2715684Y-3495956D02*
G01*
X2715684Y-3415957D01*
X2684701Y-3384974D02*
G01*
X2604703Y-3384974D01*
X2573723Y-3495956D02*
G01*
X2573723Y-3415957D01*
D11*
X5284081Y-5669219D02*
G01*
X5284081Y-5810219D01*
X5464802Y-5810219D02*
G01*
X5464802Y-5669219D01*
X5449562Y-5653979D02*
G01*
X5299321Y-5653979D01*
X5284081Y-6031458D02*
G01*
X5284081Y-5890458D01*
X5464802Y-5890458D02*
G01*
X5464802Y-6031458D01*
X5449562Y-6046698D02*
G01*
X5299321Y-6046698D01*
D12*
X5985012Y-2485994D02*
G01*
X6065014Y-2485994D01*
X5954026Y-2596969D02*
G01*
X5954026Y-2516972D01*
X6095992Y-2596969D02*
G01*
X6095992Y-2516972D01*
X5953445Y-2654559D02*
G01*
X5953445Y-2734558D01*
X5984427Y-2765541D02*
G01*
X6064425Y-2765541D01*
X6095405Y-2654559D02*
G01*
X6095405Y-2734558D01*
X2246800Y-4181693D02*
G01*
X2191227Y-4124144D01*
X2348153Y-4126895D02*
G01*
X2290610Y-4182465D01*
X2249538Y-4024772D02*
G01*
X2191992Y-4080344D01*
X2389985Y-4087307D02*
G01*
X2447531Y-4031736D01*
X2448298Y-3987924D02*
G01*
X2392725Y-3930380D01*
X2291369Y-3985188D02*
G01*
X2348918Y-3929616D01*
X841402Y-6071298D02*
G01*
X921405Y-6071298D01*
X810417Y-6182273D02*
G01*
X810417Y-6102276D01*
X952383Y-6182273D02*
G01*
X952383Y-6102276D01*
X809835Y-6239863D02*
G01*
X809835Y-6319862D01*
X840818Y-6350845D02*
G01*
X920816Y-6350845D01*
X951796Y-6239863D02*
G01*
X951796Y-6319862D01*
X3350016Y-3330991D02*
G01*
X3430018Y-3330991D01*
X3319030Y-3441966D02*
G01*
X3319030Y-3361969D01*
X3460996Y-3441966D02*
G01*
X3460996Y-3361969D01*
X3318449Y-3499556D02*
G01*
X3318449Y-3579555D01*
X3349431Y-3610538D02*
G01*
X3429429Y-3610538D01*
X3460409Y-3499556D02*
G01*
X3460409Y-3579555D01*
X2393274Y-5122684D02*
G01*
X2331986Y-5174109D01*
X2345674Y-5017754D02*
G01*
X2397097Y-5079037D01*
X2236924Y-5109009D02*
G01*
X2288344Y-5170291D01*
X2309103Y-4973266D02*
G01*
X2257679Y-4911981D01*
X2214029Y-4908163D02*
G01*
X2152749Y-4959583D01*
X2200356Y-5064516D02*
G01*
X2148931Y-5003233D01*
X5599887Y-3050872D02*
G01*
X5679889Y-3050872D01*
X5568901Y-3161847D02*
G01*
X5568901Y-3081850D01*
X5710867Y-3161847D02*
G01*
X5710867Y-3081850D01*
X5568320Y-3219437D02*
G01*
X5568320Y-3299437D01*
X5599302Y-3330420D02*
G01*
X5679300Y-3330420D01*
X5710280Y-3219437D02*
G01*
X5710280Y-3299437D01*
X3266881Y-4194639D02*
G01*
X3323452Y-4138068D01*
X3323445Y-4295020D02*
G01*
X3266876Y-4238454D01*
X3423828Y-4194634D02*
G01*
X3367262Y-4138068D01*
X3363755Y-4336153D02*
G01*
X3420323Y-4392721D01*
X3464140Y-4392721D02*
G01*
X3520706Y-4336155D01*
X3464135Y-4235772D02*
G01*
X3520704Y-4292340D01*
X5516102Y-2640063D02*
G01*
X5516102Y-2560060D01*
X5627077Y-2671048D02*
G01*
X5547080Y-2671048D01*
X5627077Y-2529083D02*
G01*
X5547080Y-2529083D01*
X5684667Y-2671630D02*
G01*
X5764667Y-2671630D01*
X5795650Y-2640647D02*
G01*
X5795650Y-2560650D01*
X5684667Y-2529669D02*
G01*
X5764667Y-2529669D01*
X3399823Y-5301368D02*
G01*
X3399823Y-5381370D01*
X3288847Y-5270383D02*
G01*
X3368845Y-5270383D01*
X3288847Y-5412348D02*
G01*
X3368845Y-5412348D01*
X3231258Y-5269801D02*
G01*
X3151258Y-5269801D01*
X3120275Y-5300784D02*
G01*
X3120275Y-5380781D01*
X3231258Y-5411762D02*
G01*
X3151258Y-5411762D01*
D11*
X6658277Y-6817606D02*
G01*
X6658277Y-6946099D01*
X6841695Y-6946099D01*
X6841695Y-6817606D01*
X6658277Y-6722366D02*
G01*
X6658277Y-6593873D01*
X6841695Y-6593873D01*
X6841695Y-6722366D01*
X6301049Y-2587373D02*
G01*
X6301049Y-2491486D01*
X6168928Y-2491486D01*
X6168928Y-2587373D01*
X6301049Y-2672615D02*
G01*
X6301049Y-2768503D01*
X6168928Y-2768503D01*
X6168928Y-2672615D01*
X7022365Y-6348277D02*
G01*
X6893872Y-6348277D01*
X6893872Y-6531696D01*
X7022365Y-6531696D01*
X7117605Y-6348277D02*
G01*
X7246099Y-6348277D01*
X7246099Y-6531696D01*
X7117605Y-6531696D01*
X6107366Y-1683936D02*
G01*
X6011478Y-1683936D01*
X6011478Y-1816056D01*
X6107366Y-1816056D01*
X6192608Y-1683936D02*
G01*
X6288496Y-1683936D01*
X6288496Y-1816056D01*
X6192608Y-1816056D01*
X946058Y-2747373D02*
G01*
X946058Y-2651485D01*
X813937Y-2651485D01*
X813937Y-2747373D01*
X946058Y-2832615D02*
G01*
X946058Y-2928503D01*
X813937Y-2928503D01*
X813937Y-2832615D01*
D12*
X2088177Y-2689865D02*
G01*
X2008174Y-2689865D01*
X2119162Y-2578889D02*
G01*
X2119162Y-2658887D01*
X1977196Y-2578889D02*
G01*
X1977196Y-2658887D01*
X2119744Y-2521300D02*
G01*
X2119744Y-2441300D01*
X2088761Y-2410317D02*
G01*
X2008764Y-2410317D01*
X1977783Y-2521300D02*
G01*
X1977783Y-2441300D01*
X1547202Y-2430886D02*
G01*
X1547202Y-2510889D01*
X1436227Y-2399901D02*
G01*
X1516225Y-2399901D01*
X1436227Y-2541866D02*
G01*
X1516225Y-2541866D01*
X1378638Y-2399319D02*
G01*
X1298638Y-2399319D01*
X1267655Y-2430302D02*
G01*
X1267655Y-2510299D01*
X1378638Y-2541280D02*
G01*
X1298638Y-2541280D01*
X1765980Y-2507363D02*
G01*
X1730420Y-2507363D01*
X1603420Y-2545463D02*
G01*
X1603420Y-2634363D01*
X1679620Y-2634363D01*
X1816780Y-2634363D02*
G01*
X1892980Y-2634363D01*
X1892980Y-2545463D01*
D11*
X552620Y-676059D02*
G01*
X648507Y-676059D01*
X648507Y-543938D01*
X552620Y-543938D01*
X467377Y-676059D02*
G01*
X371490Y-676059D01*
X371490Y-543938D01*
X467377Y-543938D01*
X7452921Y-897615D02*
G01*
X7452921Y-801728D01*
X7320800Y-801728D01*
X7320800Y-897615D01*
X7452921Y-982858D02*
G01*
X7452921Y-1078745D01*
X7320800Y-1078745D01*
X7320800Y-982858D01*
D12*
X767676Y-4427385D02*
G01*
X936505Y-4258556D01*
X1162809Y-4484860D02*
G01*
X993980Y-4653688D01*
X1143053Y-4335787D02*
G01*
X1085578Y-4278312D01*
X787433Y-4576457D02*
G01*
X844908Y-4633932D01*
X1071209Y-4504616D02*
G01*
X1013736Y-4562088D01*
X859276Y-4407628D02*
G01*
X916749Y-4350156D01*
X3154761Y-5186339D02*
G01*
X3154761Y-5266342D01*
X3043786Y-5155354D02*
G01*
X3123783Y-5155354D01*
X3043786Y-5297319D02*
G01*
X3123783Y-5297319D01*
X2986196Y-5154772D02*
G01*
X2906196Y-5154772D01*
X2875213Y-5185755D02*
G01*
X2875213Y-5265752D01*
X2986196Y-5296733D02*
G01*
X2906196Y-5296733D01*
G75*
G01*
X2188007Y-309281D02*
G02*
X2188007Y-353098I-21908J-21908D01*
G75*
G01*
X2087621Y-252712D02*
G02*
X2131438Y-252715I21907J-21909D01*
G75*
G01*
X2033737Y-506542D02*
G02*
X1989920Y-506542I-21908J21908D01*
G75*
G01*
X1933351Y-449974D02*
G02*
X1933351Y-406159I21909J21908D01*
G75*
G01*
X1651965Y-710783D02*
G02*
X1651965Y-666966I21908J21908D01*
G75*
G01*
X1752351Y-767352D02*
G02*
X1708534Y-767349I-21907J21909D01*
G75*
G01*
X1806235Y-513522D02*
G02*
X1850052Y-513522I21908J-21908D01*
G75*
G01*
X1906621Y-570090D02*
G02*
X1906621Y-613905I-21909J-21908D01*
G75*
G01*
X6517307Y-899833D02*
G02*
X6548290Y-930816I0J-30983D01*
G75*
G01*
X6406324Y-930816D02*
G02*
X6437310Y-899833I30983J0D01*
G75*
G01*
X6547709Y-1148403D02*
G02*
X6516723Y-1179385I-30983J0D01*
G75*
G01*
X6436726Y-1179385D02*
G02*
X6405743Y-1148403I0J30982D01*
G75*
G01*
X2293671Y-699425D02*
G02*
X2293671Y-743242I-21908J-21908D01*
G75*
G01*
X2193285Y-642856D02*
G02*
X2237102Y-642859I21907J-21909D01*
G75*
G01*
X2139401Y-896686D02*
G02*
X2095584Y-896686I-21908J21908D01*
G75*
G01*
X2039015Y-840118D02*
G02*
X2039015Y-796303I21909J21908D01*
G75*
G01*
X3302079Y-1240371D02*
G02*
X3271096Y-1209388I0J30983D01*
G75*
G01*
X3413062Y-1209388D02*
G02*
X3382076Y-1240371I-30983J0D01*
G75*
G01*
X3271677Y-991801D02*
G02*
X3302663Y-960818I30983J0D01*
G75*
G01*
X3382660Y-960818D02*
G02*
X3413643Y-991801I0J-30983D01*
G75*
G01*
X2798049Y-2035145D02*
G02*
X2809390Y-1992820I26832J15492D01*
G75*
G01*
X2880373Y-2115767D02*
G02*
X2838046Y-2104423I-15493J26832D01*
G75*
G01*
X2998114Y-1884530D02*
G02*
X3040441Y-1895874I15493J-26832D01*
G75*
G01*
X3080438Y-1965155D02*
G02*
X3069097Y-2007476I-26833J-15490D01*
G75*
G01*
X2918699Y-2199229D02*
G02*
X2930040Y-2156905I26832J15492D01*
G75*
G01*
X3001023Y-2279851D02*
G02*
X2958696Y-2268507I-15493J26832D01*
G75*
G01*
X3118764Y-2048614D02*
G02*
X3161091Y-2059958I15493J-26832D01*
G75*
G01*
X3201088Y-2129239D02*
G02*
X3189747Y-2171560I-26833J-15490D01*
G75*
G01*
X1940557Y-1469446D02*
G02*
X1971540Y-1500429I0J-30983D01*
G75*
G01*
X1829575Y-1500429D02*
G02*
X1860560Y-1469446I30983J0D01*
G75*
G01*
X1970959Y-1718015D02*
G02*
X1939973Y-1748998I-30983J0D01*
G75*
G01*
X1859976Y-1748998D02*
G02*
X1828993Y-1718015I0J30983D01*
G75*
G01*
X1765559Y-1469446D02*
G02*
X1796542Y-1500429I0J-30983D01*
G75*
G01*
X1654576Y-1500429D02*
G02*
X1685562Y-1469446I30983J0D01*
G75*
G01*
X1795960Y-1718015D02*
G02*
X1764975Y-1748998I-30983J0D01*
G75*
G01*
X1684978Y-1748998D02*
G02*
X1653995Y-1718015I0J30983D01*
G75*
G01*
X1609433Y-778711D02*
G02*
X1634566Y-814601I-5379J-30512D01*
G75*
G01*
X1494757Y-789950D02*
G02*
X1530652Y-764819I30512J-5381D01*
G75*
G01*
X1596210Y-1028781D02*
G02*
X1560314Y-1053915I-30513J5378D01*
G75*
G01*
X1481531Y-1040023D02*
G02*
X1456400Y-1004131I5382J30512D01*
G75*
G01*
X1380655Y-1566471D02*
G02*
X1355522Y-1530581I5379J30512D01*
G75*
G01*
X1495331Y-1555232D02*
G02*
X1459436Y-1580363I-30512J5381D01*
G75*
G01*
X1393878Y-1316401D02*
G02*
X1429774Y-1291267I30513J-5378D01*
G75*
G01*
X1508557Y-1305159D02*
G02*
X1533688Y-1341051I-5382J-30512D01*
G75*
G01*
X3719993Y-6839986D02*
G02*
X3809992Y-6729987I99998J10000D01*
G75*
G01*
X3889992Y-6729987D02*
G02*
X3979992Y-6839986I-9999J-99999D01*
G75*
G01*
X3979992Y-6839986D02*
G02*
X3889992Y-6949986I-99999J-10001D01*
G75*
G01*
X3809992Y-6949986D02*
G02*
X3719993Y-6839986I9999J99999D01*
D11*
G75*
G01*
X6276137Y-6245339D02*
G03*
X6291377Y-6230099I0J15240D01*
G75*
G01*
X6291377Y-6079858D02*
G03*
X6276137Y-6064618I-15240J0D01*
G75*
G01*
X5913897Y-6245339D02*
G02*
X5898657Y-6230099I0J15240D01*
G75*
G01*
X5898657Y-6079858D02*
G02*
X5913897Y-6064618I15240J0D01*
G75*
G01*
X6719862Y-5283766D02*
G03*
X6704622Y-5268526I-15240J0D01*
G75*
G01*
X6554381Y-5268526D02*
G03*
X6539141Y-5283766I0J-15240D01*
G75*
G01*
X6719862Y-5646006D02*
G02*
X6704622Y-5661246I-15240J0D01*
G75*
G01*
X6554381Y-5661246D02*
G02*
X6539141Y-5646006I0J15240D01*
D12*
G75*
G01*
X6149218Y-4508482D02*
G03*
X6764660Y-4513816I308304J64603D01*
G75*
G01*
X6758818Y-4381482D02*
G03*
X6143376Y-4376148I-308304J-64603D01*
D11*
G75*
G01*
X6276137Y-5970341D02*
G03*
X6291377Y-5955101I0J15240D01*
G75*
G01*
X6291377Y-5804860D02*
G03*
X6276137Y-5789620I-15240J0D01*
G75*
G01*
X5913897Y-5970341D02*
G02*
X5898657Y-5955101I0J15240D01*
G75*
G01*
X5898657Y-5804860D02*
G02*
X5913897Y-5789620I15240J0D01*
D12*
G75*
G01*
X6285103Y-3191873D02*
G03*
X6285103Y-3588113I-149840J-198120D01*
G75*
G01*
X6450018Y-5374991D02*
G02*
X6450018Y-5214971I37528J80010D01*
G75*
G01*
X4030970Y-2940660D02*
G02*
X3670884Y-2920634I-180006J10670D01*
G75*
G01*
X3670971Y-2300661D02*
G02*
X4031056Y-2300620I180042J20D01*
G75*
G01*
X4075971Y-2305662D02*
G03*
X3625926Y-2305700I-225022J-775D01*
G75*
G01*
X3625969Y-2935658D02*
G03*
X4076014Y-2935620I225023J774D01*
D18*
G75*
G01*
X1374999Y-6189983D02*
G03*
X1374745Y-6189983I-127J12499D01*
D19*
G75*
G01*
X2193996Y-1025997D02*
G03*
X2193996Y-1026251I-19999J-127D01*
D20*
G75*
G01*
X2464902Y-5080107D02*
G03*
X2465156Y-5080107I127J-15000D01*
D12*
G75*
G01*
X7111759Y-950239D02*
G02*
X7021759Y-1060239I-99999J-10001D01*
G75*
G01*
X6941759Y-1060239D02*
G02*
X6851759Y-950239I9999J99999D01*
G75*
G01*
X6851759Y-950239D02*
G02*
X6941759Y-840240I99999J10000D01*
G75*
G01*
X7021759Y-840240D02*
G02*
X7111759Y-950239I-9999J-99999D01*
G75*
G01*
X3683851Y-4523661D02*
G02*
X3652868Y-4554644I-30983J0D01*
G75*
G01*
X3652868Y-4412678D02*
G02*
X3683851Y-4443664I0J-30983D01*
G75*
G01*
X3435281Y-4554063D02*
G02*
X3404299Y-4523077I0J30983D01*
G75*
G01*
X3404299Y-4443080D02*
G02*
X3435281Y-4412097I30982J0D01*
G75*
G01*
X2299117Y-5396433D02*
G02*
X2342934Y-5396433I21908J-21908D01*
G75*
G01*
X2242548Y-5496819D02*
G02*
X2242551Y-5453002I21909J21907D01*
G75*
G01*
X2496378Y-5550703D02*
G02*
X2496378Y-5594520I-21908J-21908D01*
G75*
G01*
X2439810Y-5651089D02*
G02*
X2395995Y-5651089I-21908J21909D01*
G75*
G01*
X2168743Y-5403647D02*
G02*
X2124926Y-5403647I-21908J21908D01*
G75*
G01*
X2225312Y-5303261D02*
G02*
X2225309Y-5347078I-21909J-21907D01*
G75*
G01*
X1971482Y-5249377D02*
G02*
X1971482Y-5205560I21908J21908D01*
G75*
G01*
X2028050Y-5148991D02*
G02*
X2071865Y-5148991I21908J-21909D01*
G75*
G01*
X1655646Y-1266370D02*
G02*
X1630512Y-1230480I5379J30512D01*
G75*
G01*
X1770322Y-1255131D02*
G02*
X1734426Y-1280262I-30513J5381D01*
G75*
G01*
X1668869Y-1016300D02*
G02*
X1704764Y-991166I30512J-5378D01*
G75*
G01*
X1783547Y-1005058D02*
G02*
X1808678Y-1040950I-5381J-30512D01*
G75*
G01*
X1339525Y-505206D02*
G02*
X1389664Y-677593I-149974J-137106D01*
G75*
G01*
X1270566Y-1352974D02*
G02*
X1164499Y-1497818I-200113J35283D01*
G75*
G01*
X797535Y-1475900D02*
G03*
X818139Y-1505323I25014J-4409D01*
G75*
G01*
X870341Y-1282403D02*
G03*
X920483Y-1454782I200115J-35272D01*
G75*
G01*
X1095497Y-462178D02*
G03*
X989429Y-607022I94045J-180127D01*
G75*
G01*
X1016617Y-379689D02*
G03*
X987194Y-400294I-4409J-25015D01*
G75*
G01*
X1272802Y-1559702D02*
G02*
X1243378Y-1580307I-25015J4410D01*
G75*
G01*
X1441856Y-454673D02*
G02*
X1462461Y-484096I-4410J-25014D01*
G75*
G01*
X2311029Y-5866092D02*
G02*
X2472093Y-5786778I161067J-123886D01*
G75*
G01*
X3157893Y-5786788D02*
G02*
X3318957Y-5866092I5J-203200D01*
G75*
G01*
X3361093Y-6231288D02*
G03*
X3386493Y-6205888I0J25400D01*
G75*
G01*
X3157893Y-6193188D02*
G03*
X3318947Y-6113874I-13J203200D01*
G75*
G01*
X2311029Y-6113884D02*
G03*
X2472093Y-6193188I161059J123896D01*
G75*
G01*
X2243493Y-6205888D02*
G03*
X2268893Y-6231288I25400J0D01*
G75*
G01*
X3361093Y-5748688D02*
G02*
X3386493Y-5774088I0J-25400D01*
G75*
G01*
X2243493Y-5774088D02*
G02*
X2268893Y-5748688I25400J0D01*
G75*
G01*
X2805547Y-5660550D02*
G02*
X2774564Y-5691533I-30983J0D01*
G75*
G01*
X2774564Y-5549567D02*
G02*
X2805547Y-5580553I0J-30983D01*
G75*
G01*
X2556977Y-5690951D02*
G02*
X2525994Y-5659966I0J30983D01*
G75*
G01*
X2525994Y-5579969D02*
G02*
X2556977Y-5548986I30983J0D01*
G75*
G01*
X3004444Y-5579427D02*
G02*
X3035427Y-5548445I30983J0D01*
G75*
G01*
X3035427Y-5690410D02*
G02*
X3004444Y-5659425I0J30983D01*
G75*
G01*
X3253014Y-5549026D02*
G02*
X3283996Y-5580012I0J-30983D01*
G75*
G01*
X3283996Y-5660009D02*
G02*
X3253014Y-5690992I-30982J0D01*
G75*
G01*
X3490554Y-6699435D02*
G02*
X3521537Y-6730418I0J-30983D01*
G75*
G01*
X3379572Y-6730418D02*
G02*
X3410557Y-6699435I30983J0D01*
G75*
G01*
X3520956Y-6948005D02*
G02*
X3489970Y-6978988I-30983J0D01*
G75*
G01*
X3409973Y-6978988D02*
G02*
X3378990Y-6948005I0J30983D01*
G75*
G01*
X2665311Y-7122081D02*
G02*
X2634328Y-7153064I-30983J0D01*
G75*
G01*
X2634328Y-7011099D02*
G02*
X2665311Y-7042084I0J-30982D01*
G75*
G01*
X2416741Y-7152483D02*
G02*
X2385758Y-7121497I0J30983D01*
G75*
G01*
X2385758Y-7041500D02*
G02*
X2416741Y-7010517I30983J0D01*
D11*
G75*
G01*
X1491450Y-6887073D02*
G03*
X1506690Y-6871833I0J15240D01*
G75*
G01*
X1506690Y-6721592D02*
G03*
X1491450Y-6706352I-15240J0D01*
G75*
G01*
X1129210Y-6887073D02*
G02*
X1113970Y-6871833I0J15240D01*
G75*
G01*
X1113970Y-6721592D02*
G02*
X1129210Y-6706352I15240J0D01*
D12*
G75*
G01*
X3019443Y-3729431D02*
G02*
X3050426Y-3698448I30983J0D01*
G75*
G01*
X3050426Y-3840414D02*
G02*
X3019443Y-3809428I0J30983D01*
G75*
G01*
X3268012Y-3699030D02*
G02*
X3298995Y-3730015I0J-30983D01*
G75*
G01*
X3298995Y-3810013D02*
G02*
X3268012Y-3840996I-30983J0D01*
D11*
G75*
G01*
X4412811Y-5459745D02*
G03*
X4397571Y-5444505I-15240J0D01*
G75*
G01*
X4247330Y-5444505D02*
G03*
X4232090Y-5459745I0J-15240D01*
G75*
G01*
X4412811Y-5821985D02*
G02*
X4397571Y-5837225I-15240J0D01*
G75*
G01*
X4247330Y-5837225D02*
G02*
X4232090Y-5821985I0J15240D01*
D12*
G75*
G01*
X4318152Y-2244829D02*
G02*
X4349135Y-2275812I0J-30983D01*
G75*
G01*
X4207170Y-2275812D02*
G02*
X4238155Y-2244829I30983J0D01*
G75*
G01*
X4348554Y-2493399D02*
G02*
X4317568Y-2524382I-30983J0D01*
G75*
G01*
X4237571Y-2524382D02*
G02*
X4206588Y-2493399I0J30983D01*
G75*
G01*
X2556304Y-4082197D02*
G02*
X2556307Y-4126012I-21907J-21908D01*
G75*
G01*
X2455921Y-4025628D02*
G02*
X2499741Y-4025631I21909J-21908D01*
G75*
G01*
X2402040Y-4279458D02*
G02*
X2358217Y-4279456I-21910J21906D01*
G75*
G01*
X2301651Y-4222890D02*
G02*
X2301651Y-4179075I21909J21908D01*
G75*
G01*
X2915841Y-6605689D02*
G02*
X2946824Y-6636672I0J-30983D01*
G75*
G01*
X2804858Y-6636672D02*
G02*
X2835844Y-6605689I30983J0D01*
G75*
G01*
X2946243Y-6854259D02*
G02*
X2915257Y-6885242I-30983J0D01*
G75*
G01*
X2835260Y-6885242D02*
G02*
X2804277Y-6854259I0J30983D01*
G75*
G01*
X954961Y-6521869D02*
G02*
X985944Y-6552852I0J-30983D01*
G75*
G01*
X843978Y-6552852D02*
G02*
X874964Y-6521869I30983J0D01*
G75*
G01*
X985363Y-6770439D02*
G02*
X954377Y-6801422I-30983J0D01*
G75*
G01*
X874380Y-6801422D02*
G02*
X843397Y-6770439I0J30983D01*
G75*
G01*
X2684701Y-3384969D02*
G02*
X2715684Y-3415952I0J-30983D01*
G75*
G01*
X2573719Y-3415952D02*
G02*
X2604704Y-3384969I30982J0D01*
G75*
G01*
X2715103Y-3633539D02*
G02*
X2684117Y-3664522I-30983J0D01*
G75*
G01*
X2604120Y-3664522D02*
G02*
X2573137Y-3633539I0J30983D01*
D11*
G75*
G01*
X5464802Y-5669219D02*
G03*
X5449562Y-5653979I-15240J0D01*
G75*
G01*
X5299321Y-5653979D02*
G03*
X5284081Y-5669219I0J-15240D01*
G75*
G01*
X5464802Y-6031459D02*
G02*
X5449562Y-6046699I-15240J0D01*
G75*
G01*
X5299321Y-6046699D02*
G02*
X5284081Y-6031459I0J15240D01*
D12*
G75*
G01*
X5984428Y-2765547D02*
G02*
X5953442Y-2734564I-3J30983D01*
G75*
G01*
X6095411Y-2734564D02*
G02*
X6064425Y-2765547I-30983J0D01*
G75*
G01*
X5954027Y-2516977D02*
G02*
X5985012Y-2485995I30983J0D01*
G75*
G01*
X6065009Y-2485995D02*
G02*
X6095992Y-2516975I0J-30982D01*
G75*
G01*
X2448298Y-3987922D02*
G02*
X2447536Y-4031729I-22287J-21523D01*
G75*
G01*
X2348916Y-3929611D02*
G02*
X2392731Y-3930378I21524J-22286D01*
G75*
G01*
X2290615Y-4182463D02*
G02*
X2246800Y-4181693I-21523J22287D01*
G75*
G01*
X2191228Y-4124150D02*
G02*
X2191995Y-4080340I22288J21522D01*
G75*
G01*
X840819Y-6350851D02*
G02*
X809836Y-6319868I0J30983D01*
G75*
G01*
X951801Y-6319868D02*
G02*
X920816Y-6350851I-30982J0D01*
G75*
G01*
X810417Y-6102281D02*
G02*
X841403Y-6071299I30983J0D01*
G75*
G01*
X921400Y-6071299D02*
G02*
X952383Y-6102281I0J-30982D01*
G75*
G01*
X3349432Y-3610544D02*
G02*
X3318449Y-3579561I0J30983D01*
G75*
G01*
X3460415Y-3579561D02*
G02*
X3429429Y-3610544I-30983J0D01*
G75*
G01*
X3319031Y-3361974D02*
G02*
X3350016Y-3330992I30983J0D01*
G75*
G01*
X3430013Y-3330992D02*
G02*
X3460996Y-3361974I0J-30982D01*
G75*
G01*
X2214027Y-4908159D02*
G02*
X2257679Y-4911976I19917J-23732D01*
G75*
G01*
X2148924Y-5003231D02*
G02*
X2152747Y-4959581I23736J19914D01*
G75*
G01*
X2397092Y-5079032D02*
G02*
X2393274Y-5122685I-23732J-19918D01*
G75*
G01*
X2331989Y-5174107D02*
G02*
X2288342Y-5170287I-19913J23736D01*
G75*
G01*
X5599303Y-3330425D02*
G02*
X5568320Y-3299442I0J30983D01*
G75*
G01*
X5710286Y-3299442D02*
G02*
X5679300Y-3330425I-30983J0D01*
G75*
G01*
X5568902Y-3081856D02*
G02*
X5599887Y-3050873I30983J0D01*
G75*
G01*
X5679885Y-3050873D02*
G02*
X5710867Y-3081856I-1J-30983D01*
G75*
G01*
X3464143Y-4392727D02*
G02*
X3420326Y-4392727I-21908J21908D01*
G75*
G01*
X3520712Y-4292341D02*
G02*
X3520709Y-4336158I-21909J-21907D01*
G75*
G01*
X3266882Y-4238457D02*
G02*
X3266882Y-4194640I21908J21908D01*
G75*
G01*
X3323450Y-4138071D02*
G02*
X3367265Y-4138071I21908J-21909D01*
G75*
G01*
X5795655Y-2640648D02*
G02*
X5764672Y-2671630I-30983J0D01*
G75*
G01*
X5764672Y-2529665D02*
G02*
X5795655Y-2560650I0J-30983D01*
G75*
G01*
X5547086Y-2671049D02*
G02*
X5516103Y-2640063I0J30983D01*
G75*
G01*
X5516103Y-2560066D02*
G02*
X5547086Y-2529083I30983J0D01*
G75*
G01*
X3120271Y-5300784D02*
G02*
X3151254Y-5269801I30983J0D01*
G75*
G01*
X3151254Y-5411767D02*
G02*
X3120271Y-5380782I0J30983D01*
G75*
G01*
X3368840Y-5270383D02*
G02*
X3399823Y-5301369I0J-30983D01*
G75*
G01*
X3399823Y-5381366D02*
G02*
X3368840Y-5412349I-30983J0D01*
G75*
G01*
X2088761Y-2410313D02*
G02*
X2119744Y-2441296I0J-30983D01*
G75*
G01*
X1977779Y-2441296D02*
G02*
X2008764Y-2410313I30983J0D01*
G75*
G01*
X2119163Y-2658882D02*
G02*
X2088177Y-2689865I-30983J0D01*
G75*
G01*
X2008180Y-2689865D02*
G02*
X1977197Y-2658882I0J30983D01*
G75*
G01*
X1267650Y-2430302D02*
G02*
X1298633Y-2399320I30983J0D01*
G75*
G01*
X1298633Y-2541285D02*
G02*
X1267650Y-2510300I0J30983D01*
G75*
G01*
X1516220Y-2399901D02*
G02*
X1547203Y-2430887I0J-30983D01*
G75*
G01*
X1547203Y-2510884D02*
G02*
X1516220Y-2541867I-30983J0D01*
G75*
G01*
X1057166Y-4364200D02*
G02*
X1071308Y-4505620I-63639J-77781D01*
G75*
G01*
X1014740Y-4562188D02*
G02*
X873321Y-4548045I-63638J77781D01*
G75*
G01*
X873321Y-4548045D02*
G02*
X859178Y-4406626I63638J77781D01*
G75*
G01*
X915746Y-4350057D02*
G02*
X1057166Y-4364200I63639J-77782D01*
G75*
G01*
X2875209Y-5185755D02*
G02*
X2906192Y-5154773I30983J0D01*
G75*
G01*
X2906192Y-5296738D02*
G02*
X2875209Y-5265753I0J30983D01*
G75*
G01*
X3123778Y-5155354D02*
G02*
X3154761Y-5186340I0J-30983D01*
G75*
G01*
X3154761Y-5266337D02*
G02*
X3123778Y-5297320I-30983J0D01*
D20*
G75*
G01
X4556023Y-2430501D02*
G03X4556023Y-2430501I-15011J0D01*
G75*
G01
X4740707Y-2492883D02*
G03X4740707Y-2492883I-15011J0D01*
D12*
G75*
G01
X6520002Y-5044999D02*
G03X6520002Y-5044999I-17018J0D01*
D10*
G75*
G01
X2410003Y-6849999D02*
G03X2410003Y-6849999I-10008J0D01*
D12*
G75*
G01
X2334031Y-1103020D02*
G03X2334031Y-1103020I-17043J0D01*
D13*
G75*
G01
X2854477Y-3369996D02*
G03X2854477Y-3369996I-7493J0D01*
M02*
