G04 Layer: TopPasteMaskLayer*
G04 EasyEDA v6.5.40, 2024-05-01 14:29:32*
G04 7703e67730494ffebf129c6139567d94,10*
G04 Gerber Generator version 0.2*
G04 Scale: 100 percent, Rotated: No, Reflected: No *
G04 Dimensions in millimeters *
G04 leading zeros omitted , absolute positions ,4 integer and 5 decimal *
%FSLAX45Y45*%
%MOMM*%

%AMMACRO1*21,1,$1,$2,0,0,$3*%
%AMMACRO2*4,1,4,0.2827,0.9898,0.9898,0.2827,-0.2827,-0.9898,-0.9898,-0.2827,0.2827,0.9898,0*%
%AMMACRO3*4,1,4,0.99,-0.283,0.2828,-0.9898,-0.99,0.2827,-0.2828,0.9898,0.99,-0.283,0*%
%AMMACRO4*4,1,4,0.99,-0.2828,0.2828,-0.99,-0.99,0.2828,-0.2828,0.99,0.99,-0.2828,0*%
%ADD10R,1.9000X2.2900*%
%ADD11MACRO1,0.8X0.9X-135.0000*%
%ADD12MACRO1,0.8X0.9002X-135.0000*%
%ADD13MACRO1,0.8001X0.9X44.9871*%
%ADD14MACRO1,0.8001X0.9002X45.0129*%
%ADD15R,0.9000X0.8000*%
%ADD16MACRO1,0.8001X0.9X29.9998*%
%ADD17MACRO1,0.7999X0.9001X30.0089*%
%ADD18MACRO1,0.8001X0.9002X-100.0006*%
%ADD19MACRO1,0.8001X0.9002X79.9994*%
%ADD20MACRO1,0.7998X0.9001X79.9962*%
%ADD21R,0.8999X1.0000*%
%ADD22R,3.5000X2.3500*%
%ADD23R,4.5999X1.0008*%
%ADD24R,3.4011X1.6002*%
%ADD25R,1.3005X1.1506*%
%ADD26MACRO1,1.3005X1.1506X0.0000*%
%ADD27R,2.8000X0.8000*%
%ADD28R,2.0000X2.0000*%
%ADD29O,1.7314926000000002X0.3430016*%
%ADD30R,2.9000X6.7000*%
%ADD31R,1.0000X0.8999*%
%ADD32R,1.1000X2.5000*%
%ADD33MACRO1,3.5999X2.3398X0.0000*%
%ADD34R,0.6000X1.3000*%
%ADD35R,3.5000X2.5000*%
%ADD36R,0.6000X0.4000*%
%ADD37R,0.4500X0.2500*%
%ADD38R,0.2500X0.4500*%
%ADD39O,1.499997X0.27000199999999996*%
%ADD40O,0.27000199999999996X1.499997*%
%ADD41O,0.2800096X0.8999982*%
%ADD42O,0.8999982X0.2800096*%
%ADD43R,5.5000X5.5000*%
%ADD44MACRO2*%
%ADD45MACRO3*%
%ADD46MACRO4*%
%ADD47R,0.8000X0.9000*%
%ADD48MACRO1,0.8001X0.9X-45.0129*%
%ADD49MACRO1,0.8X0.9002X-45.0000*%
%ADD50MACRO1,0.8X0.9002X135.0000*%
%ADD51MACRO1,0.8001X0.8999X79.9994*%
%ADD52MACRO1,0.7998X0.8999X79.9962*%
%ADD53MACRO1,6.0002X2.0002X-99.9998*%
%ADD54MACRO1,6X1.9999X-100.0003*%
%ADD55R,6.0000X2.0000*%
%ADD56MACRO1,0.7999X0.9001X-135.9906*%
%ADD57MACRO1,0.8001X0.9X-136.0033*%
%ADD58MACRO1,0.8001X0.9X-49.9965*%
%ADD59MACRO1,0.7998X0.9X-49.9987*%
%ADD60R,1.0160X1.1430*%
%ADD61MACRO1,1.3005X1.1506X-134.9921*%
%ADD62MACRO1,1.3003X1.1506X-135.0000*%
%ADD63MACRO1,1.3005X1.1509X-134.9921*%
%ADD64MACRO1,1.3005X1.1506X-135.0079*%
%ADD65C,0.0169*%

%LPD*%
G36*
X6395466Y-3255010D02*
G01*
X6390487Y-3259988D01*
X6390487Y-3339998D01*
X6395466Y-3344976D01*
X6475476Y-3344976D01*
X6480505Y-3339998D01*
X6480505Y-3317189D01*
X6443472Y-3317189D01*
X6443472Y-3284169D01*
X6480505Y-3284169D01*
X6480505Y-3259988D01*
X6475476Y-3255010D01*
G37*
G36*
X6555486Y-3255010D02*
G01*
X6550507Y-3259988D01*
X6550507Y-3284169D01*
X6588506Y-3284169D01*
X6588506Y-3317189D01*
X6550507Y-3317189D01*
X6550507Y-3339998D01*
X6555486Y-3344976D01*
X6634480Y-3344976D01*
X6639509Y-3339998D01*
X6639509Y-3259988D01*
X6634480Y-3255010D01*
G37*
G36*
X6579463Y-3420008D02*
G01*
X6574485Y-3424986D01*
X6574485Y-3447796D01*
X6611467Y-3447796D01*
X6611467Y-3480815D01*
X6574485Y-3480815D01*
X6574485Y-3504996D01*
X6579463Y-3509975D01*
X6659473Y-3509975D01*
X6664502Y-3504996D01*
X6664502Y-3424986D01*
X6659473Y-3420008D01*
G37*
G36*
X6420510Y-3420008D02*
G01*
X6415481Y-3424986D01*
X6415481Y-3504996D01*
X6420510Y-3509975D01*
X6499504Y-3509975D01*
X6504482Y-3504996D01*
X6504482Y-3480815D01*
X6466484Y-3480815D01*
X6466484Y-3447796D01*
X6504482Y-3447796D01*
X6504482Y-3424986D01*
X6499504Y-3420008D01*
G37*
G36*
X6774992Y-3574491D02*
G01*
X6769963Y-3579520D01*
X6769963Y-3659479D01*
X6774992Y-3664508D01*
X6855002Y-3664508D01*
X6859981Y-3659479D01*
X6859981Y-3579520D01*
X6855002Y-3574491D01*
X6832193Y-3574491D01*
X6832193Y-3611473D01*
X6799173Y-3611473D01*
X6799173Y-3574491D01*
G37*
G36*
X6774992Y-3415487D02*
G01*
X6769963Y-3420516D01*
X6769963Y-3499510D01*
X6774992Y-3504488D01*
X6799173Y-3504488D01*
X6799173Y-3466490D01*
X6832193Y-3466490D01*
X6832193Y-3504488D01*
X6855002Y-3504488D01*
X6859981Y-3499510D01*
X6859981Y-3420516D01*
X6855002Y-3415487D01*
G37*
G36*
X840130Y-2304491D02*
G01*
X835101Y-2309520D01*
X835101Y-2389479D01*
X840130Y-2394508D01*
X920089Y-2394508D01*
X925118Y-2389479D01*
X925118Y-2309520D01*
X920089Y-2304491D01*
X897331Y-2304491D01*
X897331Y-2341473D01*
X864311Y-2341473D01*
X864311Y-2304491D01*
G37*
G36*
X840130Y-2145487D02*
G01*
X835101Y-2150516D01*
X835101Y-2229510D01*
X840130Y-2234488D01*
X864311Y-2234488D01*
X864311Y-2196490D01*
X897331Y-2196490D01*
X897331Y-2234488D01*
X920089Y-2234488D01*
X925118Y-2229510D01*
X925118Y-2150516D01*
X920089Y-2145487D01*
G37*
G36*
X4850028Y-6844487D02*
G01*
X4844999Y-6849516D01*
X4844999Y-6929475D01*
X4850028Y-6934504D01*
X4929987Y-6934504D01*
X4935016Y-6929475D01*
X4935016Y-6849516D01*
X4929987Y-6844487D01*
X4907229Y-6844487D01*
X4907229Y-6881520D01*
X4874209Y-6881520D01*
X4874209Y-6844487D01*
G37*
G36*
X4850028Y-6685483D02*
G01*
X4844999Y-6690512D01*
X4844999Y-6769506D01*
X4850028Y-6774484D01*
X4874209Y-6774484D01*
X4874209Y-6736486D01*
X4907229Y-6736486D01*
X4907229Y-6774484D01*
X4929987Y-6774484D01*
X4935016Y-6769506D01*
X4935016Y-6690512D01*
X4929987Y-6685483D01*
G37*
G36*
X592378Y-2820060D02*
G01*
X592378Y-2880055D01*
X722376Y-2880055D01*
X722376Y-2820060D01*
G37*
G36*
X592328Y-2440025D02*
G01*
X592328Y-2470048D01*
X722376Y-2470048D01*
X722376Y-2440025D01*
G37*
G36*
X592328Y-2180031D02*
G01*
X592328Y-2240026D01*
X722376Y-2240026D01*
X722325Y-2180031D01*
G37*
G36*
X592328Y-2540050D02*
G01*
X592328Y-2570022D01*
X722376Y-2570022D01*
X722376Y-2540050D01*
G37*
G36*
X592328Y-2690063D02*
G01*
X592328Y-2720035D01*
X722325Y-2720035D01*
X722325Y-2690063D01*
G37*
G36*
X592328Y-2390038D02*
G01*
X592328Y-2420061D01*
X722325Y-2420061D01*
X722325Y-2390038D01*
G37*
G36*
X592328Y-2640025D02*
G01*
X592328Y-2669997D01*
X722325Y-2669997D01*
X722325Y-2640025D01*
G37*
G36*
X592328Y-2590038D02*
G01*
X592328Y-2620060D01*
X722325Y-2620060D01*
X722325Y-2590038D01*
G37*
G36*
X592328Y-2340051D02*
G01*
X592328Y-2370023D01*
X722325Y-2370023D01*
X722325Y-2340051D01*
G37*
G36*
X592328Y-2490063D02*
G01*
X592328Y-2520035D01*
X722325Y-2520035D01*
X722325Y-2490063D01*
G37*
G36*
X592328Y-2260041D02*
G01*
X592328Y-2320036D01*
X722325Y-2320036D01*
X722325Y-2260041D01*
G37*
G36*
X540512Y-2037537D02*
G01*
X534517Y-2037842D01*
X528624Y-2038705D01*
X522833Y-2040178D01*
X517194Y-2042210D01*
X511809Y-2044852D01*
X506730Y-2047951D01*
X501954Y-2051557D01*
X497535Y-2055622D01*
X493623Y-2060092D01*
X490118Y-2064969D01*
X487121Y-2070150D01*
X484682Y-2075586D01*
X482752Y-2081275D01*
X481431Y-2087118D01*
X480669Y-2093061D01*
X480517Y-2099005D01*
X480974Y-2104999D01*
X481990Y-2110892D01*
X483616Y-2116632D01*
X485800Y-2122220D01*
X488543Y-2127504D01*
X491794Y-2132533D01*
X495503Y-2137206D01*
X499719Y-2141524D01*
X504291Y-2145334D01*
X509219Y-2148738D01*
X514502Y-2151583D01*
X519988Y-2153920D01*
X525729Y-2155647D01*
X531571Y-2156866D01*
X537514Y-2157425D01*
X620522Y-2157526D01*
X626465Y-2157222D01*
X632409Y-2156358D01*
X638200Y-2154834D01*
X643839Y-2152802D01*
X649224Y-2150211D01*
X654304Y-2147112D01*
X659079Y-2143506D01*
X663448Y-2139442D01*
X667410Y-2134920D01*
X670915Y-2130094D01*
X673912Y-2124913D01*
X676351Y-2119426D01*
X678281Y-2113788D01*
X679602Y-2107946D01*
X680364Y-2102002D01*
X680516Y-2096007D01*
X680059Y-2090064D01*
X678992Y-2084171D01*
X677367Y-2078431D01*
X675182Y-2072843D01*
X672490Y-2067509D01*
X669239Y-2062480D01*
X665480Y-2057806D01*
X661314Y-2053539D01*
X656742Y-2049678D01*
X651814Y-2046325D01*
X646531Y-2043480D01*
X641045Y-2041143D01*
X635304Y-2039366D01*
X629462Y-2038197D01*
X623519Y-2037588D01*
G37*
G36*
X540512Y-2902559D02*
G01*
X534517Y-2902864D01*
X528624Y-2903728D01*
X522833Y-2905201D01*
X517194Y-2907233D01*
X511809Y-2909874D01*
X506730Y-2912973D01*
X501954Y-2916580D01*
X497535Y-2920644D01*
X493623Y-2925114D01*
X490118Y-2929991D01*
X487121Y-2935173D01*
X484682Y-2940608D01*
X482752Y-2946298D01*
X481431Y-2952140D01*
X480669Y-2958084D01*
X480517Y-2964027D01*
X480974Y-2970022D01*
X481990Y-2975914D01*
X483616Y-2981655D01*
X485800Y-2987243D01*
X488543Y-2992526D01*
X491794Y-2997555D01*
X495503Y-3002229D01*
X499719Y-3006547D01*
X504291Y-3010357D01*
X509219Y-3013760D01*
X514502Y-3016605D01*
X519988Y-3018942D01*
X525729Y-3020669D01*
X531571Y-3021888D01*
X537514Y-3022447D01*
X620522Y-3022549D01*
X626465Y-3022244D01*
X632409Y-3021380D01*
X638200Y-3019907D01*
X643839Y-3017824D01*
X649224Y-3015234D01*
X654304Y-3012135D01*
X659079Y-3008528D01*
X663448Y-3004464D01*
X667410Y-2999943D01*
X670915Y-2995117D01*
X673912Y-2989935D01*
X676351Y-2984449D01*
X678281Y-2978810D01*
X679602Y-2972968D01*
X680364Y-2967024D01*
X680516Y-2961030D01*
X680059Y-2955086D01*
X678992Y-2949194D01*
X677367Y-2943453D01*
X675182Y-2937865D01*
X672490Y-2932531D01*
X669239Y-2927502D01*
X665480Y-2922828D01*
X661314Y-2918561D01*
X656742Y-2914700D01*
X651814Y-2911348D01*
X646531Y-2908503D01*
X641045Y-2906166D01*
X635304Y-2904388D01*
X629462Y-2903220D01*
X623519Y-2902610D01*
G37*
G36*
X132537Y-2037537D02*
G01*
X126542Y-2037842D01*
X120650Y-2038705D01*
X114858Y-2040178D01*
X109220Y-2042210D01*
X103835Y-2044852D01*
X98704Y-2047951D01*
X93929Y-2051557D01*
X89560Y-2055622D01*
X85598Y-2060092D01*
X82143Y-2064969D01*
X79146Y-2070150D01*
X76657Y-2075586D01*
X74777Y-2081275D01*
X73456Y-2087118D01*
X72694Y-2093061D01*
X72542Y-2099005D01*
X72999Y-2104999D01*
X74015Y-2110892D01*
X75641Y-2116632D01*
X77825Y-2122220D01*
X80568Y-2127504D01*
X83820Y-2132533D01*
X87528Y-2137206D01*
X91694Y-2141524D01*
X96316Y-2145334D01*
X101244Y-2148738D01*
X106476Y-2151583D01*
X112014Y-2153920D01*
X117703Y-2155647D01*
X123596Y-2156866D01*
X129539Y-2157425D01*
X192532Y-2157526D01*
X198475Y-2157222D01*
X204419Y-2156358D01*
X210210Y-2154834D01*
X215849Y-2152802D01*
X221234Y-2150211D01*
X226314Y-2147112D01*
X231089Y-2143506D01*
X235458Y-2139442D01*
X239420Y-2134920D01*
X242925Y-2130094D01*
X245922Y-2124913D01*
X248361Y-2119426D01*
X250291Y-2113788D01*
X251612Y-2107946D01*
X252374Y-2102002D01*
X252475Y-2096007D01*
X252069Y-2090064D01*
X251002Y-2084171D01*
X249377Y-2078431D01*
X247192Y-2072843D01*
X244500Y-2067509D01*
X241249Y-2062480D01*
X237490Y-2057806D01*
X233324Y-2053539D01*
X228752Y-2049678D01*
X223824Y-2046325D01*
X218541Y-2043480D01*
X213055Y-2041143D01*
X207314Y-2039366D01*
X201472Y-2038197D01*
X195529Y-2037588D01*
G37*
G36*
X132537Y-2902559D02*
G01*
X126542Y-2902864D01*
X120650Y-2903728D01*
X114858Y-2905201D01*
X109220Y-2907233D01*
X103835Y-2909874D01*
X98704Y-2912973D01*
X93929Y-2916580D01*
X89560Y-2920644D01*
X85598Y-2925114D01*
X82143Y-2929991D01*
X79146Y-2935173D01*
X76657Y-2940608D01*
X74777Y-2946298D01*
X73456Y-2952140D01*
X72694Y-2958084D01*
X72542Y-2964027D01*
X72999Y-2970022D01*
X74015Y-2975914D01*
X75641Y-2981655D01*
X77825Y-2987243D01*
X80568Y-2992526D01*
X83820Y-2997555D01*
X87528Y-3002229D01*
X91694Y-3006547D01*
X96316Y-3010357D01*
X101244Y-3013760D01*
X106476Y-3016605D01*
X112014Y-3018942D01*
X117703Y-3020669D01*
X123596Y-3021888D01*
X129539Y-3022447D01*
X192532Y-3022549D01*
X198475Y-3022244D01*
X204419Y-3021380D01*
X210210Y-3019907D01*
X215849Y-3017824D01*
X221234Y-3015234D01*
X226314Y-3012135D01*
X231089Y-3008528D01*
X235458Y-3004464D01*
X239420Y-2999943D01*
X242925Y-2995117D01*
X245922Y-2989935D01*
X248361Y-2984449D01*
X250291Y-2978810D01*
X251612Y-2972968D01*
X252374Y-2967024D01*
X252475Y-2961030D01*
X252069Y-2955086D01*
X251002Y-2949194D01*
X249377Y-2943453D01*
X247192Y-2937865D01*
X244500Y-2932531D01*
X241249Y-2927502D01*
X237490Y-2922828D01*
X233324Y-2918561D01*
X228752Y-2914700D01*
X223824Y-2911348D01*
X218541Y-2908503D01*
X213055Y-2906166D01*
X207314Y-2904388D01*
X201472Y-2903220D01*
X195529Y-2902610D01*
G37*
G36*
X592378Y-2740050D02*
G01*
X592378Y-2800045D01*
X722376Y-2800045D01*
X722376Y-2740050D01*
G37*
G36*
X2721762Y-6409131D02*
G01*
X2716733Y-6414160D01*
X2716733Y-6436918D01*
X2753715Y-6436918D01*
X2753715Y-6469938D01*
X2716733Y-6469938D01*
X2716733Y-6494119D01*
X2721762Y-6499148D01*
X2801721Y-6499148D01*
X2806750Y-6494119D01*
X2806750Y-6414160D01*
X2801721Y-6409131D01*
G37*
G36*
X2562758Y-6409131D02*
G01*
X2557729Y-6414160D01*
X2557729Y-6494119D01*
X2562758Y-6499148D01*
X2641752Y-6499148D01*
X2646730Y-6494119D01*
X2646730Y-6469938D01*
X2608732Y-6469938D01*
X2608732Y-6436918D01*
X2646730Y-6436918D01*
X2646730Y-6414160D01*
X2641752Y-6409131D01*
G37*
G36*
X1784299Y-4971288D02*
G01*
X1727707Y-5027879D01*
X1727707Y-5034940D01*
X1784299Y-5091480D01*
X1791360Y-5091480D01*
X1807464Y-5075377D01*
X1781302Y-5049215D01*
X1804670Y-5025898D01*
X1830832Y-5052060D01*
X1847951Y-5034940D01*
X1847951Y-5027879D01*
X1791360Y-4971288D01*
G37*
G36*
X1897430Y-5084419D02*
G01*
X1880311Y-5101539D01*
X1907184Y-5128412D01*
X1883867Y-5151729D01*
X1856993Y-5124907D01*
X1840839Y-5141010D01*
X1840839Y-5148072D01*
X1896719Y-5203952D01*
X1903780Y-5203952D01*
X1960372Y-5147360D01*
X1960372Y-5140299D01*
X1904492Y-5084419D01*
G37*
G36*
X1599488Y-5109972D02*
G01*
X1594510Y-5115001D01*
X1594510Y-5137810D01*
X1631492Y-5137810D01*
X1631492Y-5170779D01*
X1594510Y-5170779D01*
X1594510Y-5195011D01*
X1599488Y-5199989D01*
X1679498Y-5199989D01*
X1684477Y-5195011D01*
X1684477Y-5115001D01*
X1679498Y-5109972D01*
G37*
G36*
X1440484Y-5109972D02*
G01*
X1435506Y-5115001D01*
X1435506Y-5195011D01*
X1440484Y-5199989D01*
X1519478Y-5199989D01*
X1524508Y-5195011D01*
X1524508Y-5170779D01*
X1486509Y-5170779D01*
X1486509Y-5137810D01*
X1524508Y-5137810D01*
X1524508Y-5115001D01*
X1519478Y-5109972D01*
G37*
G36*
X2960471Y-3004972D02*
G01*
X2955493Y-3010001D01*
X2955493Y-3090011D01*
X2960471Y-3094990D01*
X3040481Y-3094990D01*
X3045510Y-3090011D01*
X3045510Y-3067202D01*
X3008477Y-3067202D01*
X3008477Y-3034182D01*
X3045510Y-3034182D01*
X3045510Y-3010001D01*
X3040481Y-3004972D01*
G37*
G36*
X3120491Y-3004972D02*
G01*
X3115513Y-3010001D01*
X3115513Y-3034182D01*
X3153511Y-3034182D01*
X3153511Y-3067202D01*
X3115513Y-3067202D01*
X3115513Y-3090011D01*
X3120491Y-3094990D01*
X3199485Y-3094990D01*
X3204514Y-3090011D01*
X3204514Y-3010001D01*
X3199485Y-3004972D01*
G37*
G36*
X4369968Y-3555492D02*
G01*
X4364990Y-3560470D01*
X4364990Y-3640480D01*
X4369968Y-3645509D01*
X4392777Y-3645509D01*
X4392777Y-3608476D01*
X4425797Y-3608476D01*
X4425797Y-3645509D01*
X4449978Y-3645509D01*
X4455007Y-3640480D01*
X4455007Y-3560470D01*
X4449978Y-3555492D01*
G37*
G36*
X4369968Y-3715512D02*
G01*
X4364990Y-3720490D01*
X4364990Y-3799484D01*
X4369968Y-3804513D01*
X4449978Y-3804513D01*
X4455007Y-3799484D01*
X4455007Y-3720490D01*
X4449978Y-3715512D01*
X4425797Y-3715512D01*
X4425797Y-3753510D01*
X4392777Y-3753510D01*
X4392777Y-3715512D01*
G37*
G36*
X5932525Y-6083960D02*
G01*
X5927496Y-6088989D01*
X5927496Y-6216954D01*
X5932525Y-6221984D01*
X6047536Y-6221984D01*
X6052515Y-6216954D01*
X6052007Y-6174994D01*
X6008014Y-6174994D01*
X6008014Y-6129985D01*
X6053023Y-6129985D01*
X6052515Y-6088989D01*
X6047536Y-6083960D01*
G37*
G36*
X6147511Y-6083960D02*
G01*
X6142532Y-6088989D01*
X6143040Y-6129985D01*
X6187033Y-6129985D01*
X6187033Y-6174994D01*
X6142532Y-6174994D01*
X6142532Y-6216954D01*
X6147511Y-6221984D01*
X6262522Y-6221984D01*
X6267500Y-6216954D01*
X6267500Y-6088989D01*
X6262522Y-6083960D01*
G37*
G36*
X6604508Y-5506872D02*
G01*
X6563512Y-5507380D01*
X6558483Y-5512409D01*
X6558483Y-5627370D01*
X6563512Y-5632399D01*
X6691477Y-5632399D01*
X6696506Y-5627370D01*
X6696506Y-5512409D01*
X6691477Y-5507380D01*
X6649516Y-5507888D01*
X6649516Y-5551881D01*
X6604508Y-5551881D01*
G37*
G36*
X6563512Y-5292394D02*
G01*
X6558483Y-5297373D01*
X6558483Y-5412384D01*
X6563512Y-5417362D01*
X6604508Y-5416905D01*
X6604508Y-5372862D01*
X6649516Y-5372862D01*
X6649516Y-5417362D01*
X6691477Y-5417362D01*
X6696506Y-5412384D01*
X6696506Y-5297373D01*
X6691477Y-5292394D01*
G37*
G36*
X5932525Y-5808980D02*
G01*
X5927496Y-5813958D01*
X5927496Y-5941974D01*
X5932525Y-5946952D01*
X6047536Y-5946952D01*
X6052515Y-5941974D01*
X6052007Y-5899962D01*
X6008014Y-5899962D01*
X6008014Y-5855004D01*
X6053023Y-5855004D01*
X6052515Y-5813958D01*
X6047536Y-5808980D01*
G37*
G36*
X6147511Y-5808980D02*
G01*
X6142532Y-5813958D01*
X6143040Y-5855004D01*
X6187033Y-5855004D01*
X6187033Y-5899962D01*
X6142532Y-5899962D01*
X6142532Y-5941974D01*
X6147511Y-5946952D01*
X6262522Y-5946952D01*
X6267500Y-5941974D01*
X6267500Y-5813958D01*
X6262522Y-5808980D01*
G37*
G36*
X5594908Y-4820462D02*
G01*
X5589930Y-4825492D01*
X5589930Y-4905502D01*
X5594908Y-4910480D01*
X5617718Y-4910480D01*
X5617718Y-4873498D01*
X5650738Y-4873498D01*
X5650738Y-4910480D01*
X5674918Y-4910480D01*
X5679897Y-4905502D01*
X5679897Y-4825492D01*
X5674918Y-4820462D01*
G37*
G36*
X5594908Y-4980482D02*
G01*
X5589930Y-4985461D01*
X5589930Y-5064455D01*
X5594908Y-5069484D01*
X5674918Y-5069484D01*
X5679897Y-5064455D01*
X5679897Y-4985461D01*
X5674918Y-4980482D01*
X5650738Y-4980482D01*
X5650738Y-5018481D01*
X5617718Y-5018481D01*
X5617718Y-4980482D01*
G37*
G36*
X5760008Y-4979466D02*
G01*
X5755030Y-4984496D01*
X5755030Y-5064506D01*
X5760008Y-5069484D01*
X5840018Y-5069484D01*
X5844997Y-5064506D01*
X5844997Y-4984496D01*
X5840018Y-4979466D01*
X5817209Y-4979466D01*
X5817209Y-5016500D01*
X5784240Y-5016500D01*
X5784240Y-4979466D01*
G37*
G36*
X5760008Y-4820462D02*
G01*
X5755030Y-4825492D01*
X5755030Y-4904486D01*
X5760008Y-4909464D01*
X5784240Y-4909464D01*
X5784240Y-4871466D01*
X5817209Y-4871466D01*
X5817209Y-4909464D01*
X5840018Y-4909464D01*
X5844997Y-4904486D01*
X5844997Y-4825492D01*
X5840018Y-4820462D01*
G37*
G36*
X3162503Y-3519982D02*
G01*
X3162503Y-3539998D01*
X3212998Y-3539998D01*
X3212998Y-3519982D01*
G37*
G36*
X3172460Y-3360013D02*
G01*
X3162452Y-3369970D01*
X3162503Y-3379978D01*
X3212998Y-3379978D01*
X3212998Y-3360013D01*
G37*
G36*
X3162503Y-3399993D02*
G01*
X3162503Y-3420008D01*
X3212998Y-3420008D01*
X3212998Y-3399993D01*
G37*
G36*
X3162503Y-3480003D02*
G01*
X3162503Y-3499967D01*
X3212998Y-3499967D01*
X3212998Y-3480003D01*
G37*
G36*
X3162503Y-3440023D02*
G01*
X3162503Y-3459987D01*
X3212998Y-3459987D01*
X3212998Y-3440023D01*
G37*
G36*
X3162503Y-3560013D02*
G01*
X3162452Y-3570020D01*
X3172460Y-3579977D01*
X3212998Y-3579977D01*
X3212998Y-3560013D01*
G37*
G36*
X3135020Y-3302000D02*
G01*
X3135020Y-3352495D01*
X3144977Y-3352546D01*
X3154984Y-3342538D01*
X3154984Y-3302000D01*
G37*
G36*
X3144977Y-3587445D02*
G01*
X3134969Y-3587496D01*
X3134969Y-3637991D01*
X3154984Y-3637991D01*
X3154984Y-3597452D01*
G37*
G36*
X3094990Y-3302000D02*
G01*
X3094990Y-3352495D01*
X3115005Y-3352495D01*
X3115005Y-3302000D01*
G37*
G36*
X3094990Y-3587496D02*
G01*
X3094990Y-3637991D01*
X3115005Y-3637991D01*
X3115005Y-3587496D01*
G37*
G36*
X3054959Y-3302000D02*
G01*
X3054959Y-3352495D01*
X3074974Y-3352495D01*
X3074974Y-3302000D01*
G37*
G36*
X3054959Y-3587496D02*
G01*
X3054959Y-3637991D01*
X3074974Y-3637991D01*
X3074974Y-3587496D01*
G37*
G36*
X3015030Y-3302000D02*
G01*
X3015030Y-3352495D01*
X3034995Y-3352495D01*
X3034995Y-3302000D01*
G37*
G36*
X3015030Y-3587496D02*
G01*
X3015030Y-3637991D01*
X3034995Y-3637991D01*
X3034995Y-3587496D01*
G37*
G36*
X2975000Y-3302000D02*
G01*
X2975000Y-3352495D01*
X2995015Y-3352495D01*
X2995015Y-3302000D01*
G37*
G36*
X2975000Y-3587496D02*
G01*
X2975000Y-3637991D01*
X2995015Y-3637991D01*
X2995015Y-3587496D01*
G37*
G36*
X2935020Y-3302000D02*
G01*
X2935020Y-3342538D01*
X2944977Y-3352546D01*
X2954985Y-3352495D01*
X2954985Y-3302000D01*
G37*
G36*
X2944977Y-3587445D02*
G01*
X2934970Y-3597452D01*
X2934970Y-3637991D01*
X2954985Y-3637991D01*
X2954985Y-3587496D01*
G37*
G36*
X2877007Y-3360013D02*
G01*
X2877007Y-3380028D01*
X2927502Y-3380028D01*
X2927553Y-3370021D01*
X2917545Y-3360013D01*
G37*
G36*
X2877007Y-3560013D02*
G01*
X2877007Y-3579977D01*
X2917545Y-3579977D01*
X2927553Y-3570020D01*
X2927502Y-3560013D01*
G37*
G36*
X2877007Y-3519982D02*
G01*
X2877007Y-3539998D01*
X2927502Y-3539998D01*
X2927502Y-3519982D01*
G37*
G36*
X2877007Y-3399993D02*
G01*
X2877007Y-3420008D01*
X2927502Y-3420008D01*
X2927502Y-3399993D01*
G37*
G36*
X2877007Y-3480003D02*
G01*
X2877007Y-3499967D01*
X2927502Y-3499967D01*
X2927502Y-3480003D01*
G37*
G36*
X2877007Y-3440023D02*
G01*
X2877007Y-3459987D01*
X2927502Y-3459987D01*
X2927502Y-3440023D01*
G37*
G36*
X2972968Y-3398012D02*
G01*
X2972968Y-3541979D01*
X3116986Y-3541979D01*
X3116986Y-3398012D01*
G37*
G36*
X4610100Y-3714546D02*
G01*
X4605121Y-3719576D01*
X4605121Y-3799535D01*
X4610100Y-3804564D01*
X4690110Y-3804564D01*
X4695088Y-3799535D01*
X4695088Y-3719576D01*
X4690110Y-3714546D01*
X4667300Y-3714546D01*
X4667300Y-3751579D01*
X4634331Y-3751579D01*
X4634331Y-3714546D01*
G37*
G36*
X4610100Y-3555542D02*
G01*
X4605121Y-3560572D01*
X4605121Y-3639565D01*
X4610100Y-3644544D01*
X4634331Y-3644544D01*
X4634331Y-3606546D01*
X4667300Y-3606546D01*
X4667300Y-3644544D01*
X4690110Y-3644544D01*
X4695088Y-3639565D01*
X4695088Y-3560572D01*
X4690110Y-3555542D01*
G37*
G36*
X4800092Y-3714546D02*
G01*
X4795113Y-3719576D01*
X4795113Y-3799535D01*
X4800092Y-3804564D01*
X4880102Y-3804564D01*
X4885080Y-3799535D01*
X4885080Y-3719576D01*
X4880102Y-3714546D01*
X4857292Y-3714546D01*
X4857292Y-3751579D01*
X4824323Y-3751579D01*
X4824323Y-3714546D01*
G37*
G36*
X4800092Y-3555542D02*
G01*
X4795113Y-3560572D01*
X4795113Y-3639565D01*
X4800092Y-3644544D01*
X4824323Y-3644544D01*
X4824323Y-3606546D01*
X4857292Y-3606546D01*
X4857292Y-3644544D01*
X4880102Y-3644544D01*
X4885080Y-3639565D01*
X4885080Y-3560572D01*
X4880102Y-3555542D01*
G37*
G36*
X4994910Y-3714546D02*
G01*
X4989931Y-3719576D01*
X4989931Y-3799535D01*
X4994910Y-3804564D01*
X5074920Y-3804564D01*
X5079898Y-3799535D01*
X5079898Y-3719576D01*
X5074920Y-3714546D01*
X5052110Y-3714546D01*
X5052110Y-3751579D01*
X5019141Y-3751579D01*
X5019141Y-3714546D01*
G37*
G36*
X4994910Y-3555542D02*
G01*
X4989931Y-3560572D01*
X4989931Y-3639565D01*
X4994910Y-3644544D01*
X5019141Y-3644544D01*
X5019141Y-3606546D01*
X5052110Y-3606546D01*
X5052110Y-3644544D01*
X5074920Y-3644544D01*
X5079898Y-3639565D01*
X5079898Y-3560572D01*
X5074920Y-3555542D01*
G37*
G36*
X4179976Y-6694474D02*
G01*
X4174998Y-6699503D01*
X4174998Y-6779514D01*
X4179976Y-6784492D01*
X4259986Y-6784492D01*
X4264964Y-6779514D01*
X4264964Y-6699503D01*
X4259986Y-6694474D01*
X4237177Y-6694474D01*
X4237177Y-6731508D01*
X4204208Y-6731508D01*
X4204208Y-6694474D01*
G37*
G36*
X4179976Y-6535470D02*
G01*
X4174998Y-6540500D01*
X4174998Y-6619494D01*
X4179976Y-6624472D01*
X4204208Y-6624472D01*
X4204208Y-6586474D01*
X4237177Y-6586474D01*
X4237177Y-6624472D01*
X4259986Y-6624472D01*
X4264964Y-6619494D01*
X4264964Y-6540500D01*
X4259986Y-6535470D01*
G37*
G36*
X3530396Y-4616196D02*
G01*
X3525367Y-4621174D01*
X3525367Y-4643983D01*
X3562400Y-4643983D01*
X3562400Y-4676952D01*
X3525367Y-4676952D01*
X3525367Y-4701184D01*
X3530396Y-4706162D01*
X3610356Y-4706162D01*
X3615385Y-4701184D01*
X3615385Y-4621174D01*
X3610356Y-4616196D01*
G37*
G36*
X3371392Y-4616196D02*
G01*
X3366363Y-4621174D01*
X3366363Y-4701184D01*
X3371392Y-4706162D01*
X3450386Y-4706162D01*
X3455365Y-4701184D01*
X3455365Y-4676952D01*
X3417366Y-4676952D01*
X3417366Y-4643983D01*
X3455365Y-4643983D01*
X3455365Y-4621174D01*
X3450386Y-4616196D01*
G37*
G36*
X1147826Y-6725716D02*
G01*
X1142847Y-6730695D01*
X1142847Y-6858711D01*
X1147826Y-6863689D01*
X1262837Y-6863689D01*
X1267815Y-6858711D01*
X1267307Y-6816699D01*
X1223314Y-6816699D01*
X1223314Y-6771690D01*
X1268323Y-6771690D01*
X1267815Y-6730695D01*
X1262837Y-6725716D01*
G37*
G36*
X1362811Y-6725716D02*
G01*
X1357833Y-6730695D01*
X1358341Y-6771690D01*
X1402334Y-6771690D01*
X1402334Y-6816699D01*
X1357833Y-6816699D01*
X1357833Y-6858711D01*
X1362811Y-6863689D01*
X1477822Y-6863689D01*
X1482852Y-6858711D01*
X1482852Y-6730695D01*
X1477822Y-6725716D01*
G37*
G36*
X4297426Y-5682843D02*
G01*
X4256430Y-5683351D01*
X4251452Y-5688380D01*
X4251452Y-5803341D01*
X4256430Y-5808370D01*
X4384446Y-5808370D01*
X4389424Y-5803341D01*
X4389424Y-5688380D01*
X4384446Y-5683351D01*
X4342434Y-5683859D01*
X4342434Y-5727852D01*
X4297426Y-5727852D01*
G37*
G36*
X4256430Y-5468366D02*
G01*
X4251452Y-5473344D01*
X4251452Y-5588355D01*
X4256430Y-5593384D01*
X4297426Y-5592876D01*
X4297426Y-5548884D01*
X4342434Y-5548884D01*
X4342434Y-5593384D01*
X4384446Y-5593384D01*
X4389424Y-5588355D01*
X4389424Y-5473344D01*
X4384446Y-5468366D01*
G37*
G36*
X5349443Y-5892342D02*
G01*
X5308447Y-5892850D01*
X5303418Y-5897829D01*
X5303418Y-6012840D01*
X5308447Y-6017818D01*
X5436463Y-6017818D01*
X5441442Y-6012840D01*
X5441442Y-5897829D01*
X5436463Y-5892850D01*
X5394452Y-5893358D01*
X5394452Y-5937351D01*
X5349443Y-5937351D01*
G37*
G36*
X5308447Y-5677814D02*
G01*
X5303418Y-5682843D01*
X5303418Y-5797854D01*
X5308447Y-5802833D01*
X5349443Y-5802325D01*
X5349443Y-5758332D01*
X5394452Y-5758332D01*
X5394452Y-5802833D01*
X5436463Y-5802833D01*
X5441442Y-5797854D01*
X5441442Y-5682843D01*
X5436463Y-5677814D01*
G37*
G36*
X6685991Y-6599986D02*
G01*
X6680962Y-6604965D01*
X6680962Y-6719976D01*
X6685991Y-6725005D01*
X6728002Y-6724497D01*
X6728002Y-6680504D01*
X6772960Y-6680504D01*
X6772960Y-6725462D01*
X6814007Y-6725005D01*
X6818985Y-6719976D01*
X6818985Y-6604965D01*
X6814007Y-6599986D01*
G37*
G36*
X6685991Y-6814972D02*
G01*
X6680962Y-6820001D01*
X6680962Y-6934962D01*
X6685991Y-6939991D01*
X6814007Y-6939991D01*
X6818985Y-6934962D01*
X6818985Y-6820001D01*
X6814007Y-6814972D01*
X6772960Y-6815480D01*
X6772960Y-6859473D01*
X6728002Y-6859473D01*
X6728002Y-6814972D01*
G37*
G36*
X6195009Y-2505506D02*
G01*
X6189980Y-2510485D01*
X6189980Y-2590495D01*
X6195009Y-2595473D01*
X6217767Y-2595473D01*
X6217767Y-2558491D01*
X6250787Y-2558491D01*
X6250787Y-2595473D01*
X6274968Y-2595473D01*
X6279997Y-2590495D01*
X6279997Y-2510485D01*
X6274968Y-2505506D01*
G37*
G36*
X6195009Y-2665476D02*
G01*
X6189980Y-2670505D01*
X6189980Y-2749499D01*
X6195009Y-2754477D01*
X6274968Y-2754477D01*
X6279997Y-2749499D01*
X6279997Y-2670505D01*
X6274968Y-2665476D01*
X6250787Y-2665476D01*
X6250787Y-2703474D01*
X6217767Y-2703474D01*
X6217767Y-2665476D01*
G37*
G36*
X7119975Y-6370980D02*
G01*
X7114997Y-6376009D01*
X7115505Y-6417970D01*
X7159498Y-6417970D01*
X7159498Y-6462979D01*
X7114489Y-6462979D01*
X7114997Y-6503974D01*
X7119975Y-6509004D01*
X7234986Y-6509004D01*
X7239965Y-6503974D01*
X7239965Y-6376009D01*
X7234986Y-6370980D01*
G37*
G36*
X6904990Y-6370980D02*
G01*
X6900011Y-6376009D01*
X6900011Y-6503974D01*
X6904990Y-6509004D01*
X7020001Y-6509004D01*
X7024979Y-6503974D01*
X7024471Y-6462979D01*
X6980478Y-6462979D01*
X6980478Y-6417970D01*
X7024979Y-6417970D01*
X7024979Y-6376009D01*
X7020001Y-6370980D01*
G37*
G36*
X6030468Y-1705000D02*
G01*
X6025489Y-1709978D01*
X6025489Y-1789988D01*
X6030468Y-1795018D01*
X6110478Y-1795018D01*
X6115507Y-1789988D01*
X6115507Y-1767179D01*
X6078474Y-1767179D01*
X6078474Y-1734210D01*
X6115507Y-1734210D01*
X6115507Y-1709978D01*
X6110478Y-1705000D01*
G37*
G36*
X6190488Y-1705000D02*
G01*
X6185509Y-1709978D01*
X6185509Y-1734210D01*
X6223508Y-1734210D01*
X6223508Y-1767179D01*
X6185509Y-1767179D01*
X6185509Y-1789988D01*
X6190488Y-1795018D01*
X6269482Y-1795018D01*
X6274511Y-1789988D01*
X6274511Y-1709978D01*
X6269482Y-1705000D01*
G37*
G36*
X839978Y-2665476D02*
G01*
X834999Y-2670505D01*
X834999Y-2750515D01*
X839978Y-2755493D01*
X862787Y-2755493D01*
X862787Y-2718511D01*
X895807Y-2718511D01*
X895807Y-2755493D01*
X919987Y-2755493D01*
X925017Y-2750515D01*
X925017Y-2670505D01*
X919987Y-2665476D01*
G37*
G36*
X839978Y-2825496D02*
G01*
X834999Y-2830474D01*
X834999Y-2909468D01*
X839978Y-2914497D01*
X919987Y-2914497D01*
X925017Y-2909468D01*
X925017Y-2830474D01*
X919987Y-2825496D01*
X895807Y-2825496D01*
X895807Y-2863494D01*
X862787Y-2863494D01*
X862787Y-2825496D01*
G37*
G36*
X549503Y-564997D02*
G01*
X544474Y-569976D01*
X544474Y-592785D01*
X581507Y-592785D01*
X581507Y-625805D01*
X544474Y-625805D01*
X544474Y-649986D01*
X549503Y-655015D01*
X629513Y-655015D01*
X634492Y-649986D01*
X634492Y-569976D01*
X629513Y-564997D01*
G37*
G36*
X390499Y-564997D02*
G01*
X385521Y-569976D01*
X385521Y-649986D01*
X390499Y-655015D01*
X469493Y-655015D01*
X474522Y-649986D01*
X474522Y-625805D01*
X436524Y-625805D01*
X436524Y-592785D01*
X474522Y-592785D01*
X474522Y-569976D01*
X469493Y-564997D01*
G37*
G36*
X7346848Y-815746D02*
G01*
X7341870Y-820724D01*
X7341870Y-900734D01*
X7346848Y-905713D01*
X7369657Y-905713D01*
X7369657Y-868730D01*
X7402677Y-868730D01*
X7402677Y-905713D01*
X7426858Y-905713D01*
X7431836Y-900734D01*
X7431836Y-820724D01*
X7426858Y-815746D01*
G37*
G36*
X7346848Y-975715D02*
G01*
X7341870Y-980744D01*
X7341870Y-1059738D01*
X7346848Y-1064717D01*
X7426858Y-1064717D01*
X7431836Y-1059738D01*
X7431836Y-980744D01*
X7426858Y-975715D01*
X7402677Y-975715D01*
X7402677Y-1013714D01*
X7369657Y-1013714D01*
X7369657Y-975715D01*
G37*
D10*
G01*
X5398490Y-1819986D03*
G01*
X5741492Y-1819986D03*
G01*
X5438495Y-2189987D03*
G01*
X5781497Y-2189987D03*
D11*
G01*
X2010448Y-429488D03*
D12*
G01*
X2109431Y-330492D03*
D13*
G01*
X1829523Y-590588D03*
D14*
G01*
X1730540Y-689584D03*
D15*
G01*
X6476745Y-1110386D03*
G01*
X6476745Y-970381D03*
D11*
G01*
X2116112Y-819632D03*
D12*
G01*
X2215095Y-720636D03*
D15*
G01*
X3342640Y-1029817D03*
G01*
X3342640Y-1169822D03*
D16*
G01*
X3000667Y-1964994D03*
D17*
G01*
X2879432Y-2034997D03*
D16*
G01*
X3121317Y-2129078D03*
D17*
G01*
X3000082Y-2199081D03*
D15*
G01*
X1899996Y-1680006D03*
G01*
X1899996Y-1540002D03*
G01*
X1724990Y-1680006D03*
G01*
X1724990Y-1540002D03*
D18*
G01*
X1532928Y-979017D03*
G01*
X1557235Y-841146D03*
D19*
G01*
X1457159Y-1366164D03*
D20*
G01*
X1432852Y-1504035D03*
D21*
G01*
X435025Y-780110D03*
G01*
X605002Y-780110D03*
D22*
G01*
X7099274Y-4959121D03*
G01*
X7099274Y-5564098D03*
D23*
G01*
X6724650Y-2555925D03*
G01*
X6724650Y-2754045D03*
D24*
G01*
X7245350Y-2314625D03*
G01*
X7245350Y-2995345D03*
D23*
G01*
X6714642Y-1550923D03*
G01*
X6714642Y-1749069D03*
D24*
G01*
X7235342Y-1309649D03*
G01*
X7235342Y-1990369D03*
D25*
G01*
X3654425Y-6733311D03*
G01*
X3654425Y-6946671D03*
D26*
G01*
X4045585Y-6946671D03*
G01*
X4045585Y-6733311D03*
D27*
G01*
X6200013Y-4444974D03*
G01*
X6708013Y-4444974D03*
D28*
G01*
X7105015Y-6014973D03*
G01*
X6665010Y-6014973D03*
D29*
G01*
X5114188Y-3337915D03*
G01*
X5114188Y-3272917D03*
G01*
X5114188Y-3207918D03*
G01*
X5114188Y-3142919D03*
G01*
X5114188Y-3077921D03*
G01*
X5114188Y-3012922D03*
G01*
X5114188Y-2947923D03*
G01*
X5114188Y-2882925D03*
G01*
X5114188Y-2817901D03*
G01*
X5114188Y-2752902D03*
G01*
X5114188Y-2687904D03*
G01*
X5114188Y-2622905D03*
G01*
X5114188Y-2557906D03*
G01*
X5114188Y-2492908D03*
G01*
X4541037Y-3337915D03*
G01*
X4541037Y-3272917D03*
G01*
X4541037Y-3207918D03*
G01*
X4541037Y-3142919D03*
G01*
X4541037Y-3077921D03*
G01*
X4541037Y-3012922D03*
G01*
X4541037Y-2947923D03*
G01*
X4541037Y-2882925D03*
G01*
X4541037Y-2817901D03*
G01*
X4541037Y-2752902D03*
G01*
X4541037Y-2687904D03*
G01*
X4541037Y-2622905D03*
G01*
X4541037Y-2557906D03*
G01*
X4541037Y-2492908D03*
D30*
G01*
X4827600Y-2915386D03*
D31*
G01*
X5089982Y-6714997D03*
G01*
X5089982Y-6885000D03*
D32*
G01*
X5112435Y-5553862D03*
G01*
X4882438Y-5553862D03*
G01*
X4652441Y-5553862D03*
D33*
G01*
X4882451Y-6147866D03*
D34*
G01*
X6390513Y-5024983D03*
G01*
X6263513Y-5024983D03*
G01*
X6136513Y-5024983D03*
G01*
X6009513Y-5024983D03*
G01*
X6009513Y-5564962D03*
G01*
X6136513Y-5564962D03*
G01*
X6263513Y-5564962D03*
G01*
X6390513Y-5564962D03*
D35*
G01*
X6200038Y-5294985D03*
D36*
G01*
X2602484Y-6652488D03*
G01*
X2602484Y-6717512D03*
G01*
X2602484Y-6782485D03*
G01*
X2602484Y-6847509D03*
G01*
X2457500Y-6652488D03*
G01*
X2457500Y-6717512D03*
G01*
X2457500Y-6782485D03*
G01*
X2457500Y-6847509D03*
D37*
G01*
X1421307Y-6284950D03*
G01*
X1421307Y-6334988D03*
G01*
X1421307Y-6384950D03*
G01*
X1421307Y-6434962D03*
D38*
G01*
X1370025Y-6486296D03*
G01*
X1320012Y-6486296D03*
G01*
X1270025Y-6486296D03*
G01*
X1220012Y-6486296D03*
D37*
G01*
X1168704Y-6434988D03*
G01*
X1168704Y-6385001D03*
G01*
X1168704Y-6334988D03*
G01*
X1168704Y-6284976D03*
D38*
G01*
X1219987Y-6233693D03*
G01*
X1270000Y-6233693D03*
G01*
X1319987Y-6233693D03*
G01*
X1369999Y-6233693D03*
D39*
G01*
X2175002Y-1090015D03*
G01*
X2175002Y-1140028D03*
G01*
X2175002Y-1190015D03*
G01*
X2175002Y-1240028D03*
G01*
X2175002Y-1290015D03*
G01*
X2175002Y-1340027D03*
G01*
X2175002Y-1390014D03*
G01*
X2175002Y-1440027D03*
G01*
X2175002Y-1490014D03*
G01*
X2175002Y-1540027D03*
G01*
X2175002Y-1590014D03*
G01*
X2175002Y-1640027D03*
D40*
G01*
X2324988Y-1790014D03*
G01*
X2375001Y-1790014D03*
G01*
X2424963Y-1790014D03*
G01*
X2474975Y-1790014D03*
G01*
X2524963Y-1790014D03*
G01*
X2574975Y-1790014D03*
G01*
X2624988Y-1790014D03*
G01*
X2674975Y-1790014D03*
G01*
X2724988Y-1790014D03*
G01*
X2775000Y-1790014D03*
G01*
X2824988Y-1790014D03*
G01*
X2875000Y-1790014D03*
D39*
G01*
X3024987Y-1640027D03*
G01*
X3024987Y-1590014D03*
G01*
X3024987Y-1540027D03*
G01*
X3024987Y-1490014D03*
G01*
X3024987Y-1440027D03*
G01*
X3024987Y-1390014D03*
G01*
X3024987Y-1340027D03*
G01*
X3024987Y-1290015D03*
G01*
X3024987Y-1240028D03*
G01*
X3024987Y-1190015D03*
G01*
X3024987Y-1140028D03*
G01*
X3024987Y-1090015D03*
D40*
G01*
X2875000Y-940028D03*
G01*
X2824988Y-940028D03*
G01*
X2775000Y-940028D03*
G01*
X2724988Y-940028D03*
G01*
X2674975Y-940028D03*
G01*
X2624988Y-940028D03*
G01*
X2574975Y-940028D03*
G01*
X2524963Y-940028D03*
G01*
X2474975Y-940028D03*
G01*
X2424963Y-940028D03*
G01*
X2375001Y-940028D03*
G01*
X2324988Y-940028D03*
D41*
G01*
X2544927Y-5004943D03*
G01*
X2594940Y-5004943D03*
G01*
X2645003Y-5004943D03*
G01*
X2695041Y-5004943D03*
G01*
X2745079Y-5004943D03*
G01*
X2795092Y-5004943D03*
G01*
X2844901Y-5004943D03*
G01*
X2894939Y-5004943D03*
G01*
X2944977Y-5004943D03*
G01*
X2994990Y-5004943D03*
G01*
X3045053Y-5004943D03*
G01*
X3095091Y-5004943D03*
D42*
G01*
X3164941Y-4935093D03*
G01*
X3164941Y-4885054D03*
G01*
X3164941Y-4835017D03*
G01*
X3164941Y-4784979D03*
G01*
X3164941Y-4734940D03*
G01*
X3164941Y-4684903D03*
G01*
X3164941Y-4635119D03*
G01*
X3164941Y-4585080D03*
G01*
X3164941Y-4535043D03*
G01*
X3164941Y-4485004D03*
G01*
X3164941Y-4434967D03*
G01*
X3164941Y-4384929D03*
D41*
G01*
X3095091Y-4315079D03*
G01*
X3045053Y-4315079D03*
G01*
X2994990Y-4315079D03*
G01*
X2944977Y-4315079D03*
G01*
X2894939Y-4315079D03*
G01*
X2844901Y-4315079D03*
G01*
X2795092Y-4315079D03*
G01*
X2745079Y-4315079D03*
G01*
X2695041Y-4315079D03*
G01*
X2645003Y-4315079D03*
G01*
X2594940Y-4315079D03*
G01*
X2544927Y-4315079D03*
D42*
G01*
X2475077Y-4384929D03*
G01*
X2475077Y-4434967D03*
G01*
X2475077Y-4485004D03*
G01*
X2475077Y-4535043D03*
G01*
X2475077Y-4585080D03*
G01*
X2475077Y-4635119D03*
G01*
X2475077Y-4684903D03*
G01*
X2475077Y-4734940D03*
G01*
X2475077Y-4784979D03*
G01*
X2475077Y-4835017D03*
G01*
X2475077Y-4885054D03*
G01*
X2475077Y-4935093D03*
D43*
G01*
X2820009Y-4659985D03*
D25*
G01*
X7177328Y-1056919D03*
G01*
X7177328Y-843559D03*
G01*
X6786168Y-843559D03*
G01*
X6786168Y-1056919D03*
D44*
G01*
X1839468Y-5555488D03*
G01*
X2016252Y-5732272D03*
D45*
G01*
X1808391Y-271602D03*
D46*
G01*
X1631607Y-448398D03*
D47*
G01*
X3473297Y-4483100D03*
G01*
X3613302Y-4483100D03*
D48*
G01*
X2419311Y-5573991D03*
D49*
G01*
X2320328Y-5475008D03*
D50*
G01*
X2048548Y-5226088D03*
G01*
X2147531Y-5325071D03*
D51*
G01*
X1732153Y-1066063D03*
D52*
G01*
X1707845Y-1203934D03*
D53*
G01*
X1208138Y-536828D03*
D54*
G01*
X1051864Y-1423161D03*
D55*
G01*
X2364993Y-5989980D03*
G01*
X3264992Y-5989980D03*
D47*
G01*
X2594990Y-5619978D03*
G01*
X2734995Y-5619978D03*
G01*
X3215004Y-5619978D03*
G01*
X3075000Y-5619978D03*
D15*
G01*
X3450005Y-6909993D03*
G01*
X3450005Y-6769988D03*
D47*
G01*
X2454757Y-7081520D03*
G01*
X2594762Y-7081520D03*
G01*
X3229990Y-3769995D03*
G01*
X3089986Y-3769995D03*
D15*
G01*
X4277588Y-2455392D03*
G01*
X4277588Y-2315387D03*
D11*
G01*
X2378748Y-4202404D03*
D12*
G01*
X2477731Y-4103408D03*
D15*
G01*
X2875279Y-6816242D03*
G01*
X2875279Y-6676237D03*
G01*
X914400Y-6732422D03*
G01*
X914400Y-6592417D03*
G01*
X2644140Y-3595522D03*
G01*
X2644140Y-3455517D03*
G01*
X6024981Y-2554986D03*
G01*
X6024981Y-2694990D03*
D56*
G01*
X2268664Y-4105008D03*
D57*
G01*
X2369375Y-4007751D03*
D15*
G01*
X881379Y-6140297D03*
G01*
X881379Y-6280302D03*
G01*
X3389985Y-3399993D03*
G01*
X3389985Y-3539997D03*
D58*
G01*
X2318283Y-5095519D03*
D59*
G01*
X2228316Y-4988280D03*
D15*
G01*
X5639866Y-3119881D03*
G01*
X5639866Y-3259886D03*
D50*
G01*
X3343948Y-4215168D03*
G01*
X3442931Y-4314151D03*
D47*
G01*
X5585104Y-2600096D03*
G01*
X5725109Y-2600096D03*
G01*
X3330829Y-5341340D03*
G01*
X3190824Y-5341340D03*
D15*
G01*
X2048205Y-2620873D03*
G01*
X2048205Y-2480868D03*
D47*
G01*
X1478203Y-2470861D03*
G01*
X1338198Y-2470861D03*
D60*
G01*
X1748205Y-2672461D03*
G01*
X1659305Y-2469261D03*
G01*
X1837105Y-2469261D03*
D61*
G01*
X1178979Y-4393260D03*
D62*
G01*
X1028103Y-4242396D03*
D63*
G01*
X751509Y-4518977D03*
D64*
G01*
X902385Y-4669853D03*
D47*
G01*
X3085769Y-5226329D03*
G01*
X2945765Y-5226329D03*
M02*
