solid F405-WMN FC Mount1
facet normal -3.489861856789481e-08 -0.9999999999999996 1.0395733852730872e-08
  outer loop
    vertex 17.59700012207032 13.003000166199307 3.8019998550414598
    vertex 15.991997359871984 13.003000259399414 4.299999999999999
    vertex 15.99699974060059 13.003000259399414 1.9970000224284477
  endloop
endfacet
facet normal -3.489861856789481e-08 -0.9999999999999996 1.0395733852730872e-08
  outer loop
    vertex 15.991997359871984 13.003000259399414 4.299999999999999
    vertex 17.59700012207032 13.003000166199307 3.8019998550414598
    vertex 17.59700012207032 13.003000259399414 4.3
  endloop
endfacet
facet normal 1.0 0.0 0.0
  outer loop
    vertex 17.59700012207032 -7.002999875762364 3.8019998550414598
    vertex 17.59700012207032 -12.999999999999998 4.3
    vertex 17.59700012207032 -13.000000093200105 3.8019998550414598
  endloop
endfacet
facet normal 1.0 0.0 0.0
  outer loop
    vertex 17.59700012207032 -12.999999999999998 4.3
    vertex 17.59700012207032 -7.002999875762364 3.8019998550414598
    vertex 17.59700012207032 -7.002999782562258 4.3
  endloop
endfacet
facet normal 0.7483234441816163 -8.097398873301935e-18 -0.6633340206021121
  outer loop
    vertex 15.99699974060059 13.003000259399414 1.9970000224284477
    vertex 17.59700012207032 18.999999906799893 3.8019998550414598
    vertex 17.59700012207032 13.003000166199307 3.8019998550414598
  endloop
endfacet
facet normal 0.7483234441816163 -8.097398873301935e-18 -0.6633340206021121
  outer loop
    vertex 17.59700012207032 18.999999906799893 3.8019998550414598
    vertex 15.99699974060059 13.003000259399414 1.9970000224284477
    vertex 15.99699974060059 19.0 1.9970000224284477
  endloop
endfacet
facet normal 0.748323448141016 2.4007714556927565e-09 -0.6633340161354158
  outer loop
    vertex 15.99699974060059 -12.999999999999998 1.996999979019165
    vertex 17.59700012207032 -7.002999875762364 3.8019998550414598
    vertex 17.59700012207032 -13.000000093200105 3.8019998550414598
  endloop
endfacet
facet normal 0.748323448141016 2.4007714556927565e-09 -0.6633340161354158
  outer loop
    vertex 17.59700012207032 -7.002999875762364 3.8019998550414598
    vertex 15.99699974060059 -12.999999999999998 1.996999979019165
    vertex 15.99699974060059 -7.002999782562258 1.9970000224284477
  endloop
endfacet
facet normal 0.0 0.0 -1.0
  outer loop
    vertex 55.000000000000014 19.0 0.49999999999999994
    vertex 14.000000000000002 -12.999999999999998 0.49999999999999994
    vertex 14.000000000000002 19.0 0.49999999999999994
  endloop
endfacet
facet normal 0.0 0.0 -1.0
  outer loop
    vertex 14.000000000000002 -12.999999999999998 0.49999999999999994
    vertex 55.000000000000014 19.0 0.49999999999999994
    vertex 55.000000000000014 -12.999999999999998 0.49999999999999994
  endloop
endfacet
facet normal 3.7747394882524516e-19 1.0 1.6488908509734606e-09
  outer loop
    vertex 14.000000000000002 19.0 0.49999999999999994
    vertex 15.99699974060059 19.0 1.9970000224284477
    vertex 55.000000000000014 19.0 0.49999999999999994
  endloop
endfacet
facet normal 3.7747394882524516e-19 1.0 1.6488908509734606e-09
  outer loop
    vertex 15.99699974060059 19.0 1.9970000224284477
    vertex 14.000000000000002 19.0 0.49999999999999994
    vertex 14.000000000000002 19.0 4.3
  endloop
endfacet
facet normal 3.7747394882524516e-19 1.0 1.6488908509734606e-09
  outer loop
    vertex 55.000000000000014 19.0 0.49999999999999994
    vertex 15.99699974060059 19.0 1.9970000224284477
    vertex 53.00300025939942 19.0 1.996999979019165
  endloop
endfacet
facet normal 3.7747394882524516e-19 1.0 1.6488908509734606e-09
  outer loop
    vertex 15.99699974060059 19.0 1.9970000224284477
    vertex 14.000000000000002 19.0 4.3
    vertex 17.59700012207032 18.999999906799893 3.8019998550414598
  endloop
endfacet
facet normal 3.7747394882524516e-19 1.0 1.6488908509734606e-09
  outer loop
    vertex 17.59700012207032 18.999999906799893 3.8019998550414598
    vertex 14.000000000000002 19.0 4.3
    vertex 17.59700012207032 19.0 4.3
  endloop
endfacet
facet normal 3.7747394882524516e-19 1.0 1.6488908509734606e-09
  outer loop
    vertex 53.00300025939942 19.0 1.996999979019165
    vertex 55.000000000000014 19.0 4.3
    vertex 55.000000000000014 19.0 0.49999999999999994
  endloop
endfacet
facet normal 3.7747394882524516e-19 1.0 1.6488908509734606e-09
  outer loop
    vertex 55.000000000000014 19.0 4.3
    vertex 53.00300025939942 19.0 1.996999979019165
    vertex 51.402999877929695 18.999999906799893 3.8019998550414598
  endloop
endfacet
facet normal 3.7747394882524516e-19 1.0 1.6488908509734606e-09
  outer loop
    vertex 55.000000000000014 19.0 4.3
    vertex 51.402999877929695 18.999999906799893 3.8019998550414598
    vertex 51.402999877929695 19.0 4.3
  endloop
endfacet
facet normal -3.489861856789453e-08 0.9999999999999996 -1.0395733852730685e-08
  outer loop
    vertex 51.402999877929695 -7.00300035259952 3.8019998550414598
    vertex 53.00800264012804 -7.003000259399414 4.299999999999999
    vertex 53.00300025939942 -7.003000259399414 1.9970000224284477
  endloop
endfacet
facet normal -3.489861856789453e-08 0.9999999999999996 -1.0395733852730685e-08
  outer loop
    vertex 53.00800264012804 -7.003000259399414 4.299999999999999
    vertex 51.402999877929695 -7.00300035259952 3.8019998550414598
    vertex 51.402999877929695 -7.003000259399414 4.3
  endloop
endfacet
facet normal 1.0 0.0 0.0
  outer loop
    vertex 17.59700012207032 18.999999906799893 3.8019998550414598
    vertex 17.59700012207032 13.003000259399414 4.3
    vertex 17.59700012207032 13.003000166199307 3.8019998550414598
  endloop
endfacet
facet normal 1.0 0.0 0.0
  outer loop
    vertex 17.59700012207032 13.003000259399414 4.3
    vertex 17.59700012207032 18.999999906799893 3.8019998550414598
    vertex 17.59700012207032 19.0 4.3
  endloop
endfacet
facet normal 3.489861856789481e-08 0.9999999999999996 -1.0395733852730869e-08
  outer loop
    vertex 15.991997359871984 -7.002999782562258 4.299999999999999
    vertex 17.59700012207032 -7.002999875762364 3.8019998550414598
    vertex 15.99699974060059 -7.002999782562258 1.9970000224284477
  endloop
endfacet
facet normal 3.489861856789481e-08 0.9999999999999996 -1.0395733852730869e-08
  outer loop
    vertex 17.59700012207032 -7.002999875762364 3.8019998550414598
    vertex 15.991997359871984 -7.002999782562258 4.299999999999999
    vertex 17.59700012207032 -7.002999782562258 4.3
  endloop
endfacet
facet normal 3.489861856789453e-08 -0.9999999999999996 1.0395733852730685e-08
  outer loop
    vertex 53.00800264012804 13.002999782562258 4.299999999999999
    vertex 51.402999877929695 13.00299968936215 3.8019998550414598
    vertex 53.00300025939942 13.002999782562258 1.9970000224284477
  endloop
endfacet
facet normal 3.489861856789453e-08 -0.9999999999999996 1.0395733852730685e-08
  outer loop
    vertex 51.402999877929695 13.00299968936215 3.8019998550414598
    vertex 53.00800264012804 13.002999782562258 4.299999999999999
    vertex 51.402999877929695 13.002999782562258 4.3
  endloop
endfacet
facet normal -0.7483234481410178 -2.400771448872362e-09 -0.6633340161354139
  outer loop
    vertex 51.402999877929695 18.999999906799893 3.8019998550414598
    vertex 53.00300025939942 13.002999782562258 1.9970000224284477
    vertex 51.402999877929695 13.00299968936215 3.8019998550414598
  endloop
endfacet
facet normal -0.7483234481410178 -2.400771448872362e-09 -0.6633340161354139
  outer loop
    vertex 53.00300025939942 13.002999782562258 1.9970000224284477
    vertex 51.402999877929695 18.999999906799893 3.8019998550414598
    vertex 53.00300025939942 19.0 1.996999979019165
  endloop
endfacet
facet normal -1.0 0.0 0.0
  outer loop
    vertex 51.402999877929695 13.002999782562258 4.3
    vertex 51.402999877929695 18.999999906799893 3.8019998550414598
    vertex 51.402999877929695 13.00299968936215 3.8019998550414598
  endloop
endfacet
facet normal -1.0 0.0 0.0
  outer loop
    vertex 51.402999877929695 18.999999906799893 3.8019998550414598
    vertex 51.402999877929695 13.002999782562258 4.3
    vertex 51.402999877929695 19.0 4.3
  endloop
endfacet
facet normal 1.0 0.0 0.0
  outer loop
    vertex 55.000000000000014 19.0 0.49999999999999994
    vertex 55.000000000000014 -12.999999999999998 4.3
    vertex 55.000000000000014 -12.999999999999998 0.49999999999999994
  endloop
endfacet
facet normal 1.0 0.0 0.0
  outer loop
    vertex 55.000000000000014 -12.999999999999998 4.3
    vertex 55.000000000000014 19.0 0.49999999999999994
    vertex 55.000000000000014 19.0 4.3
  endloop
endfacet
facet normal -1.0 0.0 0.0
  outer loop
    vertex 51.402999877929695 -12.999999999999998 4.3
    vertex 51.402999877929695 -7.00300035259952 3.8019998550414598
    vertex 51.402999877929695 -13.000000093200105 3.8019998550414598
  endloop
endfacet
facet normal -1.0 0.0 0.0
  outer loop
    vertex 51.402999877929695 -7.00300035259952 3.8019998550414598
    vertex 51.402999877929695 -12.999999999999998 4.3
    vertex 51.402999877929695 -7.003000259399414 4.3
  endloop
endfacet
facet normal -0.7483234441816182 -8.09738223136323e-18 -0.6633340206021101
  outer loop
    vertex 51.402999877929695 -7.00300035259952 3.8019998550414598
    vertex 53.00300025939942 -12.999999999999998 1.9970000224284477
    vertex 51.402999877929695 -13.000000093200105 3.8019998550414598
  endloop
endfacet
facet normal -0.7483234441816182 -8.09738223136323e-18 -0.6633340206021101
  outer loop
    vertex 53.00300025939942 -12.999999999999998 1.9970000224284477
    vertex 51.402999877929695 -7.00300035259952 3.8019998550414598
    vertex 53.00300025939942 -7.003000259399414 1.9970000224284477
  endloop
endfacet
facet normal 3.723365791565672e-16 -1.793547232035672e-10 1.0
  outer loop
    vertex 53.00300025939942 -12.999999999999998 1.9970000224284477
    vertex 15.99699974060059 -7.002999782562258 1.9970000224284477
    vertex 15.99699974060059 -12.999999999999998 1.996999979019165
  endloop
endfacet
facet normal 3.723365791565672e-16 -1.793547232035672e-10 1.0
  outer loop
    vertex 15.99699974060059 -7.002999782562258 1.9970000224284477
    vertex 53.00300025939942 -12.999999999999998 1.9970000224284477
    vertex 15.99699974060059 13.003000259399414 1.9970000224284477
  endloop
endfacet
facet normal 3.723365791565672e-16 -1.793547232035672e-10 1.0
  outer loop
    vertex 15.99699974060059 13.003000259399414 1.9970000224284477
    vertex 53.00300025939942 -12.999999999999998 1.9970000224284477
    vertex 15.99699974060059 19.0 1.9970000224284477
  endloop
endfacet
facet normal 3.723365791565672e-16 -1.793547232035672e-10 1.0
  outer loop
    vertex 15.99699974060059 19.0 1.9970000224284477
    vertex 53.00300025939942 -12.999999999999998 1.9970000224284477
    vertex 53.00300025939942 19.0 1.996999979019165
  endloop
endfacet
facet normal 3.723365791565672e-16 -1.793547232035672e-10 1.0
  outer loop
    vertex 53.00300025939942 19.0 1.996999979019165
    vertex 53.00300025939942 -12.999999999999998 1.9970000224284477
    vertex 53.00300025939942 -7.003000259399414 1.9970000224284477
  endloop
endfacet
facet normal 3.723365791565672e-16 -1.793547232035672e-10 1.0
  outer loop
    vertex 53.00300025939942 19.0 1.996999979019165
    vertex 53.00300025939942 -7.003000259399414 1.9970000224284477
    vertex 53.00300025939942 13.002999782562258 1.9970000224284477
  endloop
endfacet
facet normal 3.774736424371117e-19 -1.0 -1.6488908509734596e-09
  outer loop
    vertex 55.000000000000014 -12.999999999999998 0.49999999999999994
    vertex 53.00300025939942 -12.999999999999998 1.9970000224284477
    vertex 14.000000000000002 -12.999999999999998 0.49999999999999994
  endloop
endfacet
facet normal 3.774736424371117e-19 -1.0 -1.6488908509734596e-09
  outer loop
    vertex 53.00300025939942 -12.999999999999998 1.9970000224284477
    vertex 55.000000000000014 -12.999999999999998 0.49999999999999994
    vertex 55.000000000000014 -12.999999999999998 4.3
  endloop
endfacet
facet normal 3.774736424371117e-19 -1.0 -1.6488908509734596e-09
  outer loop
    vertex 14.000000000000002 -12.999999999999998 0.49999999999999994
    vertex 53.00300025939942 -12.999999999999998 1.9970000224284477
    vertex 15.99699974060059 -12.999999999999998 1.996999979019165
  endloop
endfacet
facet normal 3.774736424371117e-19 -1.0 -1.6488908509734596e-09
  outer loop
    vertex 53.00300025939942 -12.999999999999998 1.9970000224284477
    vertex 55.000000000000014 -12.999999999999998 4.3
    vertex 51.402999877929695 -13.000000093200105 3.8019998550414598
  endloop
endfacet
facet normal 3.774736424371117e-19 -1.0 -1.6488908509734596e-09
  outer loop
    vertex 51.402999877929695 -13.000000093200105 3.8019998550414598
    vertex 55.000000000000014 -12.999999999999998 4.3
    vertex 51.402999877929695 -12.999999999999998 4.3
  endloop
endfacet
facet normal 3.774736424371117e-19 -1.0 -1.6488908509734596e-09
  outer loop
    vertex 15.99699974060059 -12.999999999999998 1.996999979019165
    vertex 14.000000000000002 -12.999999999999998 4.3
    vertex 14.000000000000002 -12.999999999999998 0.49999999999999994
  endloop
endfacet
facet normal 3.774736424371117e-19 -1.0 -1.6488908509734596e-09
  outer loop
    vertex 14.000000000000002 -12.999999999999998 4.3
    vertex 15.99699974060059 -12.999999999999998 1.996999979019165
    vertex 17.59700012207032 -13.000000093200105 3.8019998550414598
  endloop
endfacet
facet normal 3.774736424371117e-19 -1.0 -1.6488908509734596e-09
  outer loop
    vertex 14.000000000000002 -12.999999999999998 4.3
    vertex 17.59700012207032 -13.000000093200105 3.8019998550414598
    vertex 17.59700012207032 -12.999999999999998 4.3
  endloop
endfacet
facet normal -1.0 0.0 0.0
  outer loop
    vertex 14.000000000000002 19.0 4.3
    vertex 14.000000000000002 -12.999999999999998 0.49999999999999994
    vertex 14.000000000000002 -12.999999999999998 4.3
  endloop
endfacet
facet normal -1.0 0.0 0.0
  outer loop
    vertex 14.000000000000002 -12.999999999999998 0.49999999999999994
    vertex 14.000000000000002 19.0 4.3
    vertex 14.000000000000002 19.0 0.49999999999999994
  endloop
endfacet
facet normal -4.139933464534602e-18 1.0915098621886429e-18 1.0
  outer loop
    vertex 14.000000000000002 -12.999999999999998 4.3
    vertex 15.991997359871984 -7.002999782562258 4.299999999999999
    vertex 14.000000000000002 19.0 4.3
  endloop
endfacet
facet normal -4.139933464534602e-18 1.0915098621886429e-18 1.0
  outer loop
    vertex 15.991997359871984 -7.002999782562258 4.299999999999999
    vertex 14.000000000000002 -12.999999999999998 4.3
    vertex 17.59700012207032 -12.999999999999998 4.3
  endloop
endfacet
facet normal -4.139933464534602e-18 1.0915098621886429e-18 1.0
  outer loop
    vertex 15.991997359871984 -7.002999782562258 4.299999999999999
    vertex 17.59700012207032 -12.999999999999998 4.3
    vertex 17.59700012207032 -7.002999782562258 4.3
  endloop
endfacet
facet normal -4.139933464534602e-18 1.0915098621886429e-18 1.0
  outer loop
    vertex 14.000000000000002 19.0 4.3
    vertex 15.991997359871984 13.003000259399414 4.299999999999999
    vertex 17.59700012207032 19.0 4.3
  endloop
endfacet
facet normal -4.139933464534602e-18 1.0915098621886429e-18 1.0
  outer loop
    vertex 15.991997359871984 13.003000259399414 4.299999999999999
    vertex 14.000000000000002 19.0 4.3
    vertex 15.991997359871984 -7.002999782562258 4.299999999999999
  endloop
endfacet
facet normal -4.139933464534602e-18 1.0915098621886429e-18 1.0
  outer loop
    vertex 17.59700012207032 19.0 4.3
    vertex 15.991997359871984 13.003000259399414 4.299999999999999
    vertex 17.59700012207032 13.003000259399414 4.3
  endloop
endfacet
facet normal 2.45360173210212e-17 -1.2619780767010147e-25 1.0
  outer loop
    vertex 55.000000000000014 -12.999999999999998 4.3
    vertex 51.402999877929695 -7.003000259399414 4.3
    vertex 51.402999877929695 -12.999999999999998 4.3
  endloop
endfacet
facet normal 2.45360173210212e-17 -1.2619780767010147e-25 1.0
  outer loop
    vertex 51.402999877929695 -7.003000259399414 4.3
    vertex 55.000000000000014 -12.999999999999998 4.3
    vertex 53.00800264012804 -7.003000259399414 4.299999999999999
  endloop
endfacet
facet normal 2.45360173210212e-17 -1.2619780767010147e-25 1.0
  outer loop
    vertex 53.00800264012804 -7.003000259399414 4.299999999999999
    vertex 55.000000000000014 -12.999999999999998 4.3
    vertex 53.00800264012804 13.002999782562258 4.299999999999999
  endloop
endfacet
facet normal 2.45360173210212e-17 -1.2619780767010147e-25 1.0
  outer loop
    vertex 53.00800264012804 13.002999782562258 4.299999999999999
    vertex 51.402999877929695 19.0 4.3
    vertex 51.402999877929695 13.002999782562258 4.3
  endloop
endfacet
facet normal 2.45360173210212e-17 -1.2619780767010147e-25 1.0
  outer loop
    vertex 51.402999877929695 19.0 4.3
    vertex 53.00800264012804 13.002999782562258 4.299999999999999
    vertex 55.000000000000014 19.0 4.3
  endloop
endfacet
facet normal 2.45360173210212e-17 -1.2619780767010147e-25 1.0
  outer loop
    vertex 55.000000000000014 19.0 4.3
    vertex 53.00800264012804 13.002999782562258 4.299999999999999
    vertex 55.000000000000014 -12.999999999999998 4.3
  endloop
endfacet
facet normal -0.9999976409666249 0.0 0.002172109846529688
  outer loop
    vertex 53.00800264012804 13.002999782562258 4.299999999999999
    vertex 53.00300025939942 -7.003000259399414 1.9970000224284477
    vertex 53.00800264012804 -7.003000259399414 4.299999999999999
  endloop
endfacet
facet normal -0.9999976409666249 0.0 0.002172109846529688
  outer loop
    vertex 53.00300025939942 -7.003000259399414 1.9970000224284477
    vertex 53.00800264012804 13.002999782562258 4.299999999999999
    vertex 53.00300025939942 13.002999782562258 1.9970000224284477
  endloop
endfacet
facet normal 0.9999976409666249 0.0 0.002172109846521117
  outer loop
    vertex 15.99699974060059 13.003000259399414 1.9970000224284477
    vertex 15.991997359871984 -7.002999782562258 4.299999999999999
    vertex 15.99699974060059 -7.002999782562258 1.9970000224284477
  endloop
endfacet
facet normal 0.9999976409666249 0.0 0.002172109846521117
  outer loop
    vertex 15.991997359871984 -7.002999782562258 4.299999999999999
    vertex 15.99699974060059 13.003000259399414 1.9970000224284477
    vertex 15.991997359871984 13.003000259399414 4.299999999999999
  endloop
endfacet
endsolid F405-WMN FC Mount1
