M48
METRIC,LZ,000.000
;FILE_FORMAT=3:3
;TYPE=PLATED
;Layer: PTH_Through_Via
;EasyEDA v6.5.40, 2024-05-01 13:46:42
;7703e67730494ffebf129c6139567d94,10
;Gerber Generator version 0.2
;Holesize 1 = 0.306 mm
T01C0.306
%
G05
G90
T01
X039814Y-031929
X039814Y-032929
X039814Y-030929
X040564Y-029929
X025564Y-031679
X039000Y-004000
X041000Y-004000
X043000Y-004000
X043000Y-006000
X041000Y-006000
X039000Y-006000
X039000Y-008000
X041000Y-008000
X043000Y-008000
X027500Y-039000
X031000Y-041000
X023500Y-043000
X027250Y-045000
X033500Y-017000
X033500Y-018000
X040000Y-016250
X040000Y-017750
X040000Y-019250
X027000Y-004000
X029000Y-004000
X031000Y-004000
X031000Y-006000
X029000Y-006000
X027000Y-006000
X027000Y-008000
X029000Y-008000
X031000Y-008000
X002500Y-009500
X005500Y-009500
X002500Y-012500
X005500Y-012500
X004000Y-011000
X004000Y-023000
X005500Y-024500
X002500Y-024500
X005500Y-021500
X002500Y-021500
X004000Y-035000
X005500Y-036500
X002500Y-036500
X005500Y-033500
X002500Y-033500
X004000Y-047000
X005500Y-048500
X002500Y-048500
X005500Y-045500
X002500Y-045500
X065500Y-009500
X068500Y-009500
X068500Y-012500
X065500Y-012500
X067000Y-011000
X067000Y-023000
X065500Y-024500
X068500Y-024500
X068500Y-021500
X065500Y-021500
X067000Y-035000
X065500Y-036500
X068500Y-036500
X068500Y-033500
X065500Y-033500
X067000Y-047000
X065500Y-048500
X068500Y-048500
X068500Y-045500
X065500Y-045500
X046813Y-002813
X046813Y-005813
X046813Y-008813
X046813Y-011813
X049813Y-002813
X049813Y-005813
X049813Y-008813
X049813Y-011813
X049813Y-014813
X052813Y-002813
X052813Y-005813
X052813Y-008813
X052813Y-011813
X052813Y-014813
X052813Y-017813
X052813Y-020813
X052813Y-023813
X052813Y-026813
X052813Y-029813
X052813Y-032813
X052813Y-035813
X052813Y-038813
X052813Y-041813
X052813Y-044813
X055813Y-002813
X055813Y-005813
X055813Y-008813
X055813Y-011813
X055813Y-014813
X055813Y-017813
X055813Y-020813
X055813Y-023813
X055813Y-026813
X055813Y-029813
X055813Y-032813
X055813Y-035813
X055813Y-038813
X055813Y-041813
X055813Y-044813
X055813Y-047813
X058813Y-002813
X058813Y-005813
X058813Y-008813
X058813Y-011813
X058813Y-014813
X058813Y-017813
X058813Y-020813
X058813Y-023813
X058813Y-026813
X058813Y-029813
X058813Y-032813
X058813Y-035813
X058813Y-038813
X058813Y-041813
X058813Y-044813
X058813Y-047813
X061813Y-002813
X061813Y-005813
X061813Y-008813
X061813Y-011813
X061813Y-014813
X061813Y-017813
X061813Y-020813
X061813Y-023813
X061813Y-026813
X061813Y-029813
X061813Y-032813
X061813Y-035813
X061813Y-038813
X061813Y-041813
X061813Y-044813
X061813Y-047813
X064813Y-002813
X064813Y-005813
X064813Y-014813
X064813Y-017813
X064813Y-026813
X064813Y-029813
X064813Y-038813
X064813Y-041813
X067813Y-005813
X067813Y-014813
X067813Y-017813
X067813Y-026813
X067813Y-029813
X067813Y-038813
X067813Y-041813
X070813Y-008813
X070813Y-011813
X070813Y-014813
X070813Y-017813
X070813Y-020813
X070813Y-023813
X070813Y-026813
X070813Y-029813
X070813Y-032813
X070813Y-035813
X070813Y-038813
X070813Y-041813
X070813Y-044813
X070813Y-047813
X-000187Y-011813
X-000187Y-014813
X-000187Y-017813
X-000187Y-020813
X-000187Y-023813
X-000187Y-026813
X-000187Y-029813
X-000187Y-032813
X-000187Y-035813
X-000187Y-038813
X-000187Y-041813
X-000187Y-044813
X-000187Y-047813
X002813Y-014813
X002813Y-017813
X002813Y-026813
X002813Y-029813
X002813Y-038813
X002813Y-041813
X005813Y-005813
X005813Y-014813
X005813Y-017813
X005813Y-026813
X005813Y-029813
X005813Y-038813
X005813Y-041813
X008813Y-002813
X008813Y-005813
X008813Y-008813
X008813Y-011813
X008813Y-014813
X008813Y-017813
X008813Y-020813
X008813Y-023813
X008813Y-026813
X008813Y-029813
X008813Y-032813
X008813Y-035813
X008813Y-038813
X008813Y-041813
X008813Y-044813
X008813Y-047813
X011813Y-002813
X011813Y-005813
X011813Y-008813
X011813Y-011813
X011813Y-014813
X011813Y-017813
X011813Y-020813
X011813Y-023813
X011813Y-026813
X011813Y-029813
X011813Y-032813
X011813Y-035813
X011813Y-038813
X011813Y-041813
X011813Y-044813
X011813Y-047813
X014813Y-002813
X014813Y-005813
X014813Y-008813
X014813Y-011813
X014813Y-014813
X014813Y-017813
X014813Y-020813
X014813Y-023813
X014813Y-026813
X014813Y-029813
X014813Y-032813
X014813Y-035813
X014813Y-038813
X014813Y-041813
X014813Y-044813
X017813Y-002813
X017813Y-005813
X017813Y-008813
X017813Y-011813
X017813Y-014813
X017813Y-017813
X017813Y-020813
X017813Y-023813
X017813Y-026813
X017813Y-029813
X017813Y-032813
X017813Y-035813
X017813Y-038813
X017813Y-041813
X020813Y-002813
X020813Y-005813
X020813Y-008813
X023813Y-002813
X023813Y-005813
X023813Y-008813
X018500Y-051000
X018500Y-052750
X018500Y-054750
X018500Y-056750
X018500Y-058750
M30
