G04 Layer: BottomSolderMaskLayer*
G04 EasyEDA v6.5.40, 2024-05-01 13:46:42*
G04 7703e67730494ffebf129c6139567d94,10*
G04 Gerber Generator version 0.2*
G04 Scale: 100 percent, Rotated: No, Reflected: No *
G04 Dimensions in millimeters *
G04 leading zeros omitted , absolute positions ,4 integer and 5 decimal *
%FSLAX45Y45*%
%MOMM*%

%ADD10C,1.5000*%
%ADD11C,1.8016*%
%ADD12R,1.8016X1.8016*%
%ADD13C,1.8000*%

%LPD*%
D10*
G01*
X4299965Y-5074920D03*
G01*
X4499965Y-5074920D03*
G01*
X4699965Y-5074920D03*
G01*
X4899964Y-5074920D03*
D11*
G01*
X2875000Y-5796000D03*
G01*
X2875000Y-6050000D03*
D12*
G01*
X2875000Y-6304000D03*
D11*
G01*
X3274999Y-5796000D03*
G01*
X3274999Y-6050000D03*
D12*
G01*
X3274999Y-6304000D03*
D11*
G01*
X4474997Y-5796000D03*
G01*
X4474997Y-6050000D03*
D12*
G01*
X4474997Y-6304000D03*
D11*
G01*
X4874996Y-5796000D03*
G01*
X4874996Y-6050000D03*
D12*
G01*
X4874996Y-6304000D03*
D11*
G01*
X3674999Y-5796000D03*
G01*
X3674999Y-6050000D03*
D12*
G01*
X3674999Y-6304000D03*
D11*
G01*
X4074998Y-5796000D03*
G01*
X4074998Y-6050000D03*
D12*
G01*
X4074998Y-6304000D03*
D11*
G01*
X1626996Y-6299987D03*
D10*
G01*
X3399993Y-4499990D03*
G01*
X3599992Y-4499990D03*
G01*
X3799992Y-4499990D03*
G01*
X3999991Y-4499990D03*
D13*
G01*
X724992Y-5999987D03*
G01*
X474979Y-5999987D03*
D10*
G01*
X2499995Y-5074996D03*
G01*
X2699994Y-5074996D03*
G01*
X2899994Y-5074996D03*
G01*
X3099993Y-5074996D03*
D11*
G01*
X2326995Y-6299987D03*
G01*
X5399989Y-5796000D03*
G01*
X5399989Y-6050000D03*
D12*
G01*
X5399989Y-6304000D03*
D11*
G01*
X5799988Y-5796000D03*
G01*
X5799988Y-6050000D03*
D12*
G01*
X5799988Y-6304000D03*
D11*
G01*
X6199987Y-5796000D03*
G01*
X6199987Y-6050000D03*
D12*
G01*
X6199987Y-6304000D03*
D11*
G01*
X6599986Y-5796000D03*
G01*
X6599986Y-6050000D03*
D12*
G01*
X6599986Y-6304000D03*
M02*
