G04 Layer: BottomLayer*
G04 EasyEDA v6.5.40, 2024-05-01 13:46:42*
G04 7703e67730494ffebf129c6139567d94,10*
G04 Gerber Generator version 0.2*
G04 Scale: 100 percent, Rotated: No, Reflected: No *
G04 Dimensions in millimeters *
G04 leading zeros omitted , absolute positions ,4 integer and 5 decimal *
%FSLAX45Y45*%
%MOMM*%

%ADD10C,0.6000*%
%ADD11C,0.5000*%
%ADD12C,1.4000*%
%ADD13C,1.7000*%
%ADD14R,1.7000X1.7000*%
%ADD15C,0.6100*%
%ADD16C,0.0118*%

%LPD*%
G36*
X150266Y-6924090D02*
G01*
X124104Y-6923176D01*
X98704Y-6920534D01*
X73558Y-6916166D01*
X48768Y-6910070D01*
X24384Y-6902348D01*
X660Y-6892950D01*
X-22402Y-6881977D01*
X-44653Y-6869430D01*
X-65989Y-6855409D01*
X-86360Y-6839915D01*
X-105562Y-6823151D01*
X-123596Y-6805066D01*
X-140360Y-6785762D01*
X-155803Y-6765442D01*
X-169773Y-6744055D01*
X-182270Y-6721754D01*
X-193243Y-6698691D01*
X-202590Y-6674916D01*
X-210312Y-6650583D01*
X-216306Y-6625742D01*
X-220624Y-6600596D01*
X-223215Y-6575145D01*
X-224078Y-6549390D01*
X-224078Y-200609D01*
X-223164Y-174142D01*
X-220522Y-148742D01*
X-216154Y-123545D01*
X-210108Y-98755D01*
X-202336Y-74422D01*
X-192938Y-50647D01*
X-181965Y-27584D01*
X-169418Y-5334D01*
X-155397Y16002D01*
X-139954Y36322D01*
X-123139Y55575D01*
X-105054Y73609D01*
X-85801Y90373D01*
X-65430Y105816D01*
X-44043Y119786D01*
X-21793Y132283D01*
X1270Y143256D01*
X25044Y152603D01*
X49428Y160274D01*
X74218Y166319D01*
X99415Y170637D01*
X124815Y173228D01*
X150571Y174091D01*
X6899402Y174091D01*
X6925868Y173177D01*
X6951268Y170535D01*
X6976414Y166166D01*
X7001256Y160121D01*
X7025589Y152349D01*
X7049312Y142951D01*
X7072375Y131978D01*
X7094626Y119430D01*
X7115962Y105410D01*
X7136333Y89966D01*
X7155535Y73152D01*
X7173620Y55067D01*
X7190384Y35814D01*
X7205776Y15443D01*
X7219797Y-5943D01*
X7232294Y-28194D01*
X7243216Y-51308D01*
X7252563Y-75082D01*
X7260285Y-99415D01*
X7266279Y-124256D01*
X7270597Y-149402D01*
X7273188Y-174802D01*
X7274102Y-200609D01*
X7274102Y-6549390D01*
X7273137Y-6575856D01*
X7270496Y-6601256D01*
X7266178Y-6626453D01*
X7260081Y-6651244D01*
X7252360Y-6675577D01*
X7242962Y-6699351D01*
X7231938Y-6722364D01*
X7219391Y-6744665D01*
X7205370Y-6766001D01*
X7189927Y-6786321D01*
X7173112Y-6805574D01*
X7155027Y-6823608D01*
X7135774Y-6840372D01*
X7115403Y-6855764D01*
X7094067Y-6869785D01*
X7071766Y-6882282D01*
X7048703Y-6893204D01*
X7024928Y-6902551D01*
X7000595Y-6910273D01*
X6975754Y-6916318D01*
X6950557Y-6920636D01*
X6925157Y-6923227D01*
X6899402Y-6924090D01*
G37*

%LPC*%
G36*
X6940600Y-6785254D02*
G01*
X6959396Y-6785254D01*
X6978091Y-6783374D01*
X6996480Y-6779564D01*
X7014413Y-6773925D01*
X7031685Y-6766559D01*
X7048144Y-6757416D01*
X7063536Y-6746697D01*
X7077811Y-6734454D01*
X7090765Y-6720840D01*
X7102246Y-6705955D01*
X7112203Y-6690004D01*
X7120483Y-6673138D01*
X7126986Y-6655511D01*
X7131710Y-6637324D01*
X7134555Y-6618731D01*
X7135520Y-6599986D01*
X7134555Y-6581241D01*
X7131710Y-6562648D01*
X7126986Y-6544462D01*
X7120483Y-6526834D01*
X7112203Y-6509969D01*
X7102246Y-6494018D01*
X7090765Y-6479133D01*
X7077811Y-6465519D01*
X7063536Y-6453276D01*
X7048144Y-6442557D01*
X7031685Y-6433413D01*
X7014413Y-6426047D01*
X6996480Y-6420408D01*
X6978091Y-6416598D01*
X6959396Y-6414719D01*
X6940600Y-6414719D01*
X6921906Y-6416598D01*
X6903516Y-6420408D01*
X6885584Y-6426047D01*
X6868312Y-6433413D01*
X6851853Y-6442557D01*
X6836460Y-6453276D01*
X6822186Y-6465519D01*
X6809231Y-6479133D01*
X6797751Y-6494018D01*
X6787794Y-6509969D01*
X6779514Y-6526834D01*
X6773011Y-6544462D01*
X6768287Y-6562648D01*
X6765442Y-6581241D01*
X6764477Y-6599986D01*
X6765442Y-6618731D01*
X6768287Y-6637324D01*
X6773011Y-6655511D01*
X6779514Y-6673138D01*
X6787794Y-6690004D01*
X6797751Y-6705955D01*
X6809231Y-6720840D01*
X6822186Y-6734454D01*
X6836460Y-6746697D01*
X6851853Y-6757416D01*
X6868312Y-6766559D01*
X6885584Y-6773925D01*
X6903516Y-6779564D01*
X6921906Y-6783374D01*
G37*
G36*
X80619Y-6785254D02*
G01*
X99364Y-6785254D01*
X118059Y-6783374D01*
X136499Y-6779564D01*
X154432Y-6773925D01*
X171704Y-6766559D01*
X188112Y-6757416D01*
X203555Y-6746697D01*
X217779Y-6734454D01*
X230733Y-6720840D01*
X242265Y-6705955D01*
X252171Y-6690004D01*
X260451Y-6673138D01*
X267004Y-6655511D01*
X271678Y-6637324D01*
X274523Y-6618731D01*
X275488Y-6599986D01*
X274523Y-6581241D01*
X271678Y-6562648D01*
X267004Y-6544462D01*
X260451Y-6526834D01*
X252171Y-6509969D01*
X242265Y-6494018D01*
X230733Y-6479133D01*
X217779Y-6465519D01*
X203555Y-6453276D01*
X188112Y-6442557D01*
X171704Y-6433413D01*
X154432Y-6426047D01*
X136499Y-6420408D01*
X118059Y-6416598D01*
X99364Y-6414719D01*
X80619Y-6414719D01*
X61925Y-6416598D01*
X43484Y-6420408D01*
X25552Y-6426047D01*
X8280Y-6433413D01*
X-8128Y-6442557D01*
X-23571Y-6453276D01*
X-37795Y-6465519D01*
X-50749Y-6479133D01*
X-62280Y-6494018D01*
X-72186Y-6509969D01*
X-80467Y-6526834D01*
X-87020Y-6544462D01*
X-91694Y-6562648D01*
X-94538Y-6581241D01*
X-95504Y-6599986D01*
X-94538Y-6618731D01*
X-91694Y-6637324D01*
X-87020Y-6655511D01*
X-80467Y-6673138D01*
X-72186Y-6690004D01*
X-62280Y-6705955D01*
X-50749Y-6720840D01*
X-37795Y-6734454D01*
X-23571Y-6746697D01*
X-8128Y-6757416D01*
X8280Y-6766559D01*
X25552Y-6773925D01*
X43484Y-6779564D01*
X61925Y-6783374D01*
G37*
G36*
X6115354Y-6469532D02*
G01*
X6151118Y-6469532D01*
X6151118Y-6352844D01*
X6034481Y-6352844D01*
X6034481Y-6388608D01*
X6035294Y-6400444D01*
X6037732Y-6411671D01*
X6041745Y-6422440D01*
X6047282Y-6432499D01*
X6054140Y-6441694D01*
X6062268Y-6449822D01*
X6071463Y-6456680D01*
X6081572Y-6462217D01*
X6092291Y-6466230D01*
X6103518Y-6468668D01*
G37*
G36*
X6515354Y-6469532D02*
G01*
X6551117Y-6469532D01*
X6551117Y-6352844D01*
X6434480Y-6352844D01*
X6434480Y-6388608D01*
X6435293Y-6400444D01*
X6437731Y-6411671D01*
X6441744Y-6422440D01*
X6447282Y-6432499D01*
X6454140Y-6441694D01*
X6462268Y-6449822D01*
X6471462Y-6456680D01*
X6481572Y-6462217D01*
X6492290Y-6466230D01*
X6503517Y-6468668D01*
G37*
G36*
X6248857Y-6469532D02*
G01*
X6284620Y-6469532D01*
X6296456Y-6468668D01*
X6307683Y-6466230D01*
X6318402Y-6462217D01*
X6328511Y-6456680D01*
X6337706Y-6449822D01*
X6345834Y-6441694D01*
X6352692Y-6432499D01*
X6358229Y-6422440D01*
X6362242Y-6411671D01*
X6364681Y-6400444D01*
X6365494Y-6388608D01*
X6365494Y-6352844D01*
X6248857Y-6352844D01*
G37*
G36*
X6648856Y-6469532D02*
G01*
X6684619Y-6469532D01*
X6696456Y-6468668D01*
X6707682Y-6466230D01*
X6718401Y-6462217D01*
X6728510Y-6456680D01*
X6737705Y-6449822D01*
X6745833Y-6441694D01*
X6752691Y-6432499D01*
X6758228Y-6422440D01*
X6762242Y-6411671D01*
X6764680Y-6400444D01*
X6765493Y-6388608D01*
X6765493Y-6352844D01*
X6648856Y-6352844D01*
G37*
G36*
X5715355Y-6469532D02*
G01*
X5751118Y-6469532D01*
X5751118Y-6352844D01*
X5634482Y-6352844D01*
X5634482Y-6388608D01*
X5635294Y-6400444D01*
X5637733Y-6411671D01*
X5641746Y-6422440D01*
X5647283Y-6432499D01*
X5654141Y-6441694D01*
X5662269Y-6449822D01*
X5671464Y-6456680D01*
X5681573Y-6462217D01*
X5692292Y-6466230D01*
X5703519Y-6468668D01*
G37*
G36*
X5315356Y-6469532D02*
G01*
X5351119Y-6469532D01*
X5351119Y-6352844D01*
X5234482Y-6352844D01*
X5234482Y-6388608D01*
X5235295Y-6400444D01*
X5237734Y-6411671D01*
X5241747Y-6422440D01*
X5247284Y-6432499D01*
X5254142Y-6441694D01*
X5262270Y-6449822D01*
X5271465Y-6456680D01*
X5281574Y-6462217D01*
X5292293Y-6466230D01*
X5303520Y-6468668D01*
G37*
G36*
X2790342Y-6469532D02*
G01*
X2826156Y-6469532D01*
X2826156Y-6352844D01*
X2709468Y-6352844D01*
X2709468Y-6388608D01*
X2710332Y-6400444D01*
X2712770Y-6411671D01*
X2716784Y-6422440D01*
X2722270Y-6432499D01*
X2729179Y-6441694D01*
X2737307Y-6449822D01*
X2746502Y-6456680D01*
X2756560Y-6462217D01*
X2767330Y-6466230D01*
X2778556Y-6468668D01*
G37*
G36*
X5848858Y-6469532D02*
G01*
X5884621Y-6469532D01*
X5896457Y-6468668D01*
X5907684Y-6466230D01*
X5918403Y-6462217D01*
X5928512Y-6456680D01*
X5937707Y-6449822D01*
X5945835Y-6441694D01*
X5952693Y-6432499D01*
X5958230Y-6422440D01*
X5962243Y-6411671D01*
X5964682Y-6400444D01*
X5965494Y-6388608D01*
X5965494Y-6352844D01*
X5848858Y-6352844D01*
G37*
G36*
X5448858Y-6469532D02*
G01*
X5484622Y-6469532D01*
X5496458Y-6468668D01*
X5507685Y-6466230D01*
X5518404Y-6462217D01*
X5528513Y-6456680D01*
X5537708Y-6449822D01*
X5545836Y-6441694D01*
X5552694Y-6432499D01*
X5558231Y-6422440D01*
X5562244Y-6411671D01*
X5564682Y-6400444D01*
X5565495Y-6388608D01*
X5565495Y-6352844D01*
X5448858Y-6352844D01*
G37*
G36*
X2923844Y-6469532D02*
G01*
X2959608Y-6469532D01*
X2971444Y-6468668D01*
X2982671Y-6466230D01*
X2993440Y-6462217D01*
X3003499Y-6456680D01*
X3012694Y-6449822D01*
X3020822Y-6441694D01*
X3027730Y-6432499D01*
X3033217Y-6422440D01*
X3037230Y-6411671D01*
X3039668Y-6400444D01*
X3040532Y-6388608D01*
X3040532Y-6352844D01*
X2923844Y-6352844D01*
G37*
G36*
X3190341Y-6469481D02*
G01*
X3226155Y-6469481D01*
X3226155Y-6352844D01*
X3109468Y-6352844D01*
X3109468Y-6388608D01*
X3110331Y-6400444D01*
X3112770Y-6411671D01*
X3116783Y-6422440D01*
X3122269Y-6432499D01*
X3129178Y-6441694D01*
X3137306Y-6449822D01*
X3146501Y-6456680D01*
X3156559Y-6462217D01*
X3167329Y-6466230D01*
X3178556Y-6468668D01*
G37*
G36*
X3590340Y-6469481D02*
G01*
X3626154Y-6469481D01*
X3626154Y-6352844D01*
X3509467Y-6352844D01*
X3509467Y-6388608D01*
X3510330Y-6400444D01*
X3512769Y-6411671D01*
X3516782Y-6422440D01*
X3522268Y-6432499D01*
X3529177Y-6441694D01*
X3537305Y-6449822D01*
X3546500Y-6456680D01*
X3556558Y-6462217D01*
X3567328Y-6466230D01*
X3578555Y-6468668D01*
G37*
G36*
X3990340Y-6469481D02*
G01*
X4026154Y-6469481D01*
X4026154Y-6352844D01*
X3909466Y-6352844D01*
X3909466Y-6388608D01*
X3910329Y-6400444D01*
X3912768Y-6411671D01*
X3916781Y-6422440D01*
X3922268Y-6432499D01*
X3929176Y-6441694D01*
X3937304Y-6449822D01*
X3946499Y-6456680D01*
X3956558Y-6462217D01*
X3967327Y-6466230D01*
X3978554Y-6468668D01*
G37*
G36*
X4123842Y-6469481D02*
G01*
X4159605Y-6469481D01*
X4171442Y-6468668D01*
X4182668Y-6466230D01*
X4193438Y-6462217D01*
X4203496Y-6456680D01*
X4212691Y-6449822D01*
X4220819Y-6441694D01*
X4227728Y-6432499D01*
X4233214Y-6422440D01*
X4237228Y-6411671D01*
X4239666Y-6400444D01*
X4240530Y-6388608D01*
X4240530Y-6352844D01*
X4123842Y-6352844D01*
G37*
G36*
X3723843Y-6469481D02*
G01*
X3759606Y-6469481D01*
X3771442Y-6468668D01*
X3782669Y-6466230D01*
X3793439Y-6462217D01*
X3803497Y-6456680D01*
X3812692Y-6449822D01*
X3820820Y-6441694D01*
X3827729Y-6432499D01*
X3833215Y-6422440D01*
X3837228Y-6411671D01*
X3839667Y-6400444D01*
X3840530Y-6388608D01*
X3840530Y-6352844D01*
X3723843Y-6352844D01*
G37*
G36*
X3323844Y-6469481D02*
G01*
X3359607Y-6469481D01*
X3371443Y-6468668D01*
X3382670Y-6466230D01*
X3393440Y-6462217D01*
X3403498Y-6456680D01*
X3412693Y-6449822D01*
X3420821Y-6441694D01*
X3427729Y-6432499D01*
X3433216Y-6422440D01*
X3437229Y-6411671D01*
X3439668Y-6400444D01*
X3440531Y-6388608D01*
X3440531Y-6352844D01*
X3323844Y-6352844D01*
G37*
G36*
X4390339Y-6469481D02*
G01*
X4426153Y-6469481D01*
X4426153Y-6352844D01*
X4309465Y-6352844D01*
X4309465Y-6388608D01*
X4310329Y-6400444D01*
X4312767Y-6411671D01*
X4316780Y-6422440D01*
X4322267Y-6432499D01*
X4329176Y-6441694D01*
X4337304Y-6449822D01*
X4346498Y-6456680D01*
X4356557Y-6462217D01*
X4367326Y-6466230D01*
X4378553Y-6468668D01*
G37*
G36*
X4790338Y-6469481D02*
G01*
X4826152Y-6469481D01*
X4826152Y-6352844D01*
X4709464Y-6352844D01*
X4709464Y-6388608D01*
X4710328Y-6400444D01*
X4712766Y-6411671D01*
X4716780Y-6422440D01*
X4722266Y-6432499D01*
X4729175Y-6441694D01*
X4737303Y-6449822D01*
X4746498Y-6456680D01*
X4756556Y-6462217D01*
X4767326Y-6466230D01*
X4778552Y-6468668D01*
G37*
G36*
X4923840Y-6469481D02*
G01*
X4959604Y-6469481D01*
X4971440Y-6468668D01*
X4982667Y-6466230D01*
X4993436Y-6462217D01*
X5003495Y-6456680D01*
X5012690Y-6449822D01*
X5020818Y-6441694D01*
X5027726Y-6432499D01*
X5033213Y-6422440D01*
X5037226Y-6411671D01*
X5039664Y-6400444D01*
X5040528Y-6388608D01*
X5040528Y-6352844D01*
X4923840Y-6352844D01*
G37*
G36*
X4523841Y-6469481D02*
G01*
X4559604Y-6469481D01*
X4571441Y-6468668D01*
X4582668Y-6466230D01*
X4593437Y-6462217D01*
X4603496Y-6456680D01*
X4612690Y-6449822D01*
X4620818Y-6441694D01*
X4627727Y-6432499D01*
X4633214Y-6422440D01*
X4637227Y-6411671D01*
X4639665Y-6400444D01*
X4640529Y-6388608D01*
X4640529Y-6352844D01*
X4523841Y-6352844D01*
G37*
G36*
X2375865Y-6458051D02*
G01*
X2391359Y-6452463D01*
X2407208Y-6444742D01*
X2422144Y-6435394D01*
X2435961Y-6424523D01*
X2448610Y-6412230D01*
X2459837Y-6398666D01*
X2469591Y-6383985D01*
X2477719Y-6368389D01*
X2484120Y-6351981D01*
X2484983Y-6348831D01*
X2375865Y-6348831D01*
G37*
G36*
X1675841Y-6458051D02*
G01*
X1691335Y-6452463D01*
X1707184Y-6444742D01*
X1722120Y-6435394D01*
X1735988Y-6424523D01*
X1748586Y-6412230D01*
X1759864Y-6398666D01*
X1769567Y-6383985D01*
X1777695Y-6368389D01*
X1784146Y-6351981D01*
X1784959Y-6348831D01*
X1675841Y-6348831D01*
G37*
G36*
X1578152Y-6457899D02*
G01*
X1578152Y-6348831D01*
X1469085Y-6348831D01*
X1472844Y-6360261D01*
X1480159Y-6376314D01*
X1489100Y-6391452D01*
X1499565Y-6405626D01*
X1511554Y-6418580D01*
X1524812Y-6430162D01*
X1539189Y-6440271D01*
X1554632Y-6448806D01*
X1570837Y-6455664D01*
G37*
G36*
X2278126Y-6457899D02*
G01*
X2278126Y-6348831D01*
X2169058Y-6348831D01*
X2172868Y-6360261D01*
X2180132Y-6376314D01*
X2189073Y-6391452D01*
X2199589Y-6405626D01*
X2211527Y-6418580D01*
X2224786Y-6430162D01*
X2239213Y-6440271D01*
X2254605Y-6448806D01*
X2270861Y-6455664D01*
G37*
G36*
X3109468Y-6255156D02*
G01*
X3226155Y-6255156D01*
X3226155Y-6221120D01*
X3227120Y-6216700D01*
X3229914Y-6213195D01*
X3233978Y-6211214D01*
X3238449Y-6211163D01*
X3248660Y-6213398D01*
X3266186Y-6215278D01*
X3283813Y-6215278D01*
X3301339Y-6213398D01*
X3311550Y-6211163D01*
X3316020Y-6211214D01*
X3320084Y-6213195D01*
X3322828Y-6216700D01*
X3323844Y-6221120D01*
X3323844Y-6255156D01*
X3440531Y-6255156D01*
X3440531Y-6219342D01*
X3439668Y-6207556D01*
X3437229Y-6196330D01*
X3433216Y-6185560D01*
X3427729Y-6175451D01*
X3420821Y-6166307D01*
X3411829Y-6157417D01*
X3409797Y-6154521D01*
X3408883Y-6151067D01*
X3409187Y-6147562D01*
X3410712Y-6144361D01*
X3415284Y-6137757D01*
X3423818Y-6122365D01*
X3430676Y-6106109D01*
X3435756Y-6089243D01*
X3439058Y-6071971D01*
X3440429Y-6054394D01*
X3439972Y-6036767D01*
X3437636Y-6019342D01*
X3433470Y-6002223D01*
X3427476Y-5985611D01*
X3419754Y-5969812D01*
X3410407Y-5954877D01*
X3399536Y-5941009D01*
X3388868Y-5929985D01*
X3386683Y-5926632D01*
X3385972Y-5922670D01*
X3386886Y-5918708D01*
X3389223Y-5915456D01*
X3393592Y-5911443D01*
X3405174Y-5898184D01*
X3415284Y-5883757D01*
X3423818Y-5868365D01*
X3430676Y-5852109D01*
X3435756Y-5835243D01*
X3439058Y-5817971D01*
X3440429Y-5800394D01*
X3439972Y-5782767D01*
X3437636Y-5765342D01*
X3433470Y-5748223D01*
X3427476Y-5731611D01*
X3419754Y-5715812D01*
X3410407Y-5700877D01*
X3399536Y-5687009D01*
X3387242Y-5674360D01*
X3373678Y-5663133D01*
X3358997Y-5653379D01*
X3343401Y-5645251D01*
X3326993Y-5638850D01*
X3309975Y-5634228D01*
X3292601Y-5631434D01*
X3274974Y-5630468D01*
X3257397Y-5631434D01*
X3240024Y-5634228D01*
X3223006Y-5638850D01*
X3206597Y-5645251D01*
X3190951Y-5653379D01*
X3176270Y-5663133D01*
X3162757Y-5674360D01*
X3150463Y-5687009D01*
X3139541Y-5700877D01*
X3130194Y-5715812D01*
X3122523Y-5731611D01*
X3116529Y-5748223D01*
X3112363Y-5765342D01*
X3110026Y-5782767D01*
X3109569Y-5800394D01*
X3110941Y-5817971D01*
X3114243Y-5835243D01*
X3119323Y-5852109D01*
X3126130Y-5868365D01*
X3134715Y-5883757D01*
X3144824Y-5898184D01*
X3156407Y-5911443D01*
X3160776Y-5915456D01*
X3163112Y-5918708D01*
X3164027Y-5922670D01*
X3163316Y-5926632D01*
X3161131Y-5929985D01*
X3150463Y-5941009D01*
X3139541Y-5954877D01*
X3130194Y-5969812D01*
X3122523Y-5985611D01*
X3116529Y-6002223D01*
X3112363Y-6019342D01*
X3110026Y-6036767D01*
X3109569Y-6054394D01*
X3110941Y-6071971D01*
X3114243Y-6089243D01*
X3119323Y-6106109D01*
X3126130Y-6122365D01*
X3134715Y-6137757D01*
X3139287Y-6144361D01*
X3140811Y-6147562D01*
X3141116Y-6151067D01*
X3140202Y-6154521D01*
X3138119Y-6157417D01*
X3129127Y-6166307D01*
X3122269Y-6175451D01*
X3116783Y-6185560D01*
X3112770Y-6196330D01*
X3110331Y-6207556D01*
X3109468Y-6219342D01*
G37*
G36*
X3509467Y-6255156D02*
G01*
X3626154Y-6255156D01*
X3626154Y-6221120D01*
X3627120Y-6216700D01*
X3629914Y-6213195D01*
X3633978Y-6211214D01*
X3638448Y-6211163D01*
X3648659Y-6213398D01*
X3666185Y-6215278D01*
X3683812Y-6215278D01*
X3701338Y-6213398D01*
X3711549Y-6211163D01*
X3716020Y-6211214D01*
X3720084Y-6213195D01*
X3722827Y-6216700D01*
X3723843Y-6221120D01*
X3723843Y-6255156D01*
X3840530Y-6255156D01*
X3840530Y-6219342D01*
X3839667Y-6207556D01*
X3837228Y-6196330D01*
X3833215Y-6185560D01*
X3827729Y-6175451D01*
X3820820Y-6166307D01*
X3811828Y-6157417D01*
X3809796Y-6154521D01*
X3808882Y-6151067D01*
X3809187Y-6147562D01*
X3810711Y-6144361D01*
X3815283Y-6137757D01*
X3823817Y-6122365D01*
X3830675Y-6106109D01*
X3835755Y-6089243D01*
X3839057Y-6071971D01*
X3840429Y-6054394D01*
X3839972Y-6036767D01*
X3837635Y-6019342D01*
X3833469Y-6002223D01*
X3827475Y-5985611D01*
X3819753Y-5969812D01*
X3810406Y-5954877D01*
X3799535Y-5941009D01*
X3788867Y-5929985D01*
X3786682Y-5926632D01*
X3785971Y-5922670D01*
X3786886Y-5918708D01*
X3789222Y-5915456D01*
X3793591Y-5911443D01*
X3805174Y-5898184D01*
X3815283Y-5883757D01*
X3823817Y-5868365D01*
X3830675Y-5852109D01*
X3835755Y-5835243D01*
X3839057Y-5817971D01*
X3840429Y-5800394D01*
X3839972Y-5782767D01*
X3837635Y-5765342D01*
X3833469Y-5748223D01*
X3827475Y-5731611D01*
X3819753Y-5715812D01*
X3810406Y-5700877D01*
X3799535Y-5687009D01*
X3787241Y-5674360D01*
X3773678Y-5663133D01*
X3758996Y-5653379D01*
X3743401Y-5645251D01*
X3726992Y-5638850D01*
X3709974Y-5634228D01*
X3692601Y-5631434D01*
X3674973Y-5630468D01*
X3657396Y-5631434D01*
X3640023Y-5634228D01*
X3623005Y-5638850D01*
X3606596Y-5645251D01*
X3590950Y-5653379D01*
X3576269Y-5663133D01*
X3562756Y-5674360D01*
X3550462Y-5687009D01*
X3539540Y-5700877D01*
X3530193Y-5715812D01*
X3522522Y-5731611D01*
X3516528Y-5748223D01*
X3512362Y-5765342D01*
X3510026Y-5782767D01*
X3509568Y-5800394D01*
X3510940Y-5817971D01*
X3514242Y-5835243D01*
X3519322Y-5852109D01*
X3526129Y-5868365D01*
X3534714Y-5883757D01*
X3544824Y-5898184D01*
X3556406Y-5911443D01*
X3560775Y-5915456D01*
X3563112Y-5918708D01*
X3564026Y-5922670D01*
X3563315Y-5926632D01*
X3561130Y-5929985D01*
X3550462Y-5941009D01*
X3539540Y-5954877D01*
X3530193Y-5969812D01*
X3522522Y-5985611D01*
X3516528Y-6002223D01*
X3512362Y-6019342D01*
X3510026Y-6036767D01*
X3509568Y-6054394D01*
X3510940Y-6071971D01*
X3514242Y-6089243D01*
X3519322Y-6106109D01*
X3526129Y-6122365D01*
X3534714Y-6137757D01*
X3539286Y-6144361D01*
X3540810Y-6147562D01*
X3541115Y-6151067D01*
X3540201Y-6154521D01*
X3538118Y-6157417D01*
X3529126Y-6166307D01*
X3522268Y-6175451D01*
X3516782Y-6185560D01*
X3512769Y-6196330D01*
X3510330Y-6207556D01*
X3509467Y-6219342D01*
G37*
G36*
X6034481Y-6255156D02*
G01*
X6151118Y-6255156D01*
X6151118Y-6221120D01*
X6152134Y-6216700D01*
X6154928Y-6213195D01*
X6158941Y-6211214D01*
X6163462Y-6211163D01*
X6173673Y-6213398D01*
X6191199Y-6215278D01*
X6208776Y-6215278D01*
X6226302Y-6213398D01*
X6236512Y-6211163D01*
X6241034Y-6211214D01*
X6245047Y-6213195D01*
X6247841Y-6216700D01*
X6248857Y-6221120D01*
X6248857Y-6255156D01*
X6365494Y-6255156D01*
X6365494Y-6219342D01*
X6364681Y-6207556D01*
X6362242Y-6196330D01*
X6358229Y-6185560D01*
X6352692Y-6175451D01*
X6345834Y-6166307D01*
X6336842Y-6157417D01*
X6334810Y-6154521D01*
X6333896Y-6151067D01*
X6334201Y-6147562D01*
X6335674Y-6144361D01*
X6340297Y-6137757D01*
X6348831Y-6122365D01*
X6355689Y-6106160D01*
X6360769Y-6089243D01*
X6364020Y-6071971D01*
X6365443Y-6054394D01*
X6364986Y-6036767D01*
X6362649Y-6019342D01*
X6358432Y-6002223D01*
X6352489Y-5985662D01*
X6344767Y-5969812D01*
X6335420Y-5954877D01*
X6324549Y-5941009D01*
X6313830Y-5929985D01*
X6311646Y-5926632D01*
X6310934Y-5922670D01*
X6311849Y-5918708D01*
X6314236Y-5915456D01*
X6318554Y-5911443D01*
X6330188Y-5898184D01*
X6340297Y-5883757D01*
X6348831Y-5868365D01*
X6355689Y-5852160D01*
X6360769Y-5835243D01*
X6364020Y-5817971D01*
X6365443Y-5800394D01*
X6364986Y-5782767D01*
X6362649Y-5765342D01*
X6358432Y-5748223D01*
X6352489Y-5731662D01*
X6344767Y-5715812D01*
X6335420Y-5700877D01*
X6324549Y-5687009D01*
X6312255Y-5674360D01*
X6298692Y-5663133D01*
X6284010Y-5653379D01*
X6268364Y-5645302D01*
X6251956Y-5638850D01*
X6234988Y-5634228D01*
X6217564Y-5631434D01*
X6199987Y-5630468D01*
X6182410Y-5631434D01*
X6164986Y-5634228D01*
X6148019Y-5638850D01*
X6131610Y-5645302D01*
X6115964Y-5653379D01*
X6101283Y-5663133D01*
X6087719Y-5674360D01*
X6075426Y-5687009D01*
X6064554Y-5700877D01*
X6055207Y-5715812D01*
X6047486Y-5731662D01*
X6041542Y-5748223D01*
X6037326Y-5765342D01*
X6034989Y-5782767D01*
X6034532Y-5800394D01*
X6035954Y-5817971D01*
X6039205Y-5835243D01*
X6044285Y-5852160D01*
X6051143Y-5868365D01*
X6059678Y-5883757D01*
X6069787Y-5898184D01*
X6081420Y-5911443D01*
X6085738Y-5915456D01*
X6088126Y-5918708D01*
X6089040Y-5922670D01*
X6088329Y-5926632D01*
X6086144Y-5929985D01*
X6075426Y-5941009D01*
X6064554Y-5954877D01*
X6055207Y-5969812D01*
X6047486Y-5985662D01*
X6041542Y-6002223D01*
X6037326Y-6019342D01*
X6034989Y-6036767D01*
X6034532Y-6054394D01*
X6035954Y-6071971D01*
X6039205Y-6089243D01*
X6044285Y-6106160D01*
X6051143Y-6122365D01*
X6059678Y-6137757D01*
X6064300Y-6144361D01*
X6065774Y-6147562D01*
X6066078Y-6151067D01*
X6065164Y-6154521D01*
X6063132Y-6157417D01*
X6054140Y-6166307D01*
X6047282Y-6175451D01*
X6041745Y-6185560D01*
X6037732Y-6196330D01*
X6035294Y-6207556D01*
X6034481Y-6219342D01*
G37*
G36*
X3909466Y-6255156D02*
G01*
X4026154Y-6255156D01*
X4026154Y-6221120D01*
X4027119Y-6216700D01*
X4029913Y-6213195D01*
X4033977Y-6211214D01*
X4038447Y-6211163D01*
X4048658Y-6213398D01*
X4066184Y-6215278D01*
X4083812Y-6215278D01*
X4101337Y-6213398D01*
X4111548Y-6211163D01*
X4116019Y-6211214D01*
X4120083Y-6213195D01*
X4122826Y-6216700D01*
X4123842Y-6221120D01*
X4123842Y-6255156D01*
X4240530Y-6255156D01*
X4240530Y-6219342D01*
X4239666Y-6207556D01*
X4237228Y-6196330D01*
X4233214Y-6185560D01*
X4227728Y-6175451D01*
X4220819Y-6166307D01*
X4211828Y-6157417D01*
X4209796Y-6154521D01*
X4208881Y-6151067D01*
X4209186Y-6147562D01*
X4210710Y-6144361D01*
X4215282Y-6137757D01*
X4223816Y-6122365D01*
X4230674Y-6106109D01*
X4235754Y-6089243D01*
X4239056Y-6071971D01*
X4240428Y-6054394D01*
X4239971Y-6036767D01*
X4237634Y-6019342D01*
X4233468Y-6002223D01*
X4227474Y-5985611D01*
X4219752Y-5969812D01*
X4210405Y-5954877D01*
X4199534Y-5941009D01*
X4188866Y-5929985D01*
X4186682Y-5926632D01*
X4185970Y-5922670D01*
X4186885Y-5918708D01*
X4189222Y-5915456D01*
X4193590Y-5911443D01*
X4205173Y-5898184D01*
X4215282Y-5883757D01*
X4223816Y-5868365D01*
X4230674Y-5852109D01*
X4235754Y-5835243D01*
X4239056Y-5817971D01*
X4240428Y-5800394D01*
X4239971Y-5782767D01*
X4237634Y-5765342D01*
X4233468Y-5748223D01*
X4227474Y-5731611D01*
X4219752Y-5715812D01*
X4210405Y-5700877D01*
X4199534Y-5687009D01*
X4187240Y-5674360D01*
X4173677Y-5663133D01*
X4158996Y-5653379D01*
X4143400Y-5645251D01*
X4126992Y-5638850D01*
X4109974Y-5634228D01*
X4092600Y-5631434D01*
X4074972Y-5630468D01*
X4057396Y-5631434D01*
X4040022Y-5634228D01*
X4023004Y-5638850D01*
X4006596Y-5645251D01*
X3990949Y-5653379D01*
X3976268Y-5663133D01*
X3962755Y-5674360D01*
X3950462Y-5687009D01*
X3939540Y-5700877D01*
X3930192Y-5715812D01*
X3922522Y-5731611D01*
X3916527Y-5748223D01*
X3912362Y-5765342D01*
X3910025Y-5782767D01*
X3909568Y-5800394D01*
X3910939Y-5817971D01*
X3914241Y-5835243D01*
X3919321Y-5852109D01*
X3926128Y-5868365D01*
X3934714Y-5883757D01*
X3944823Y-5898184D01*
X3956405Y-5911443D01*
X3960774Y-5915456D01*
X3963111Y-5918708D01*
X3964025Y-5922670D01*
X3963314Y-5926632D01*
X3961129Y-5929985D01*
X3950462Y-5941009D01*
X3939540Y-5954877D01*
X3930192Y-5969812D01*
X3922522Y-5985611D01*
X3916527Y-6002223D01*
X3912362Y-6019342D01*
X3910025Y-6036767D01*
X3909568Y-6054394D01*
X3910939Y-6071971D01*
X3914241Y-6089243D01*
X3919321Y-6106109D01*
X3926128Y-6122365D01*
X3934714Y-6137757D01*
X3939286Y-6144361D01*
X3940810Y-6147562D01*
X3941114Y-6151067D01*
X3940200Y-6154521D01*
X3938117Y-6157417D01*
X3929126Y-6166307D01*
X3922268Y-6175451D01*
X3916781Y-6185560D01*
X3912768Y-6196330D01*
X3910329Y-6207556D01*
X3909466Y-6219342D01*
G37*
G36*
X6434480Y-6255156D02*
G01*
X6551117Y-6255156D01*
X6551117Y-6221120D01*
X6552133Y-6216700D01*
X6554927Y-6213195D01*
X6558940Y-6211214D01*
X6563461Y-6211163D01*
X6573672Y-6213398D01*
X6591198Y-6215278D01*
X6608775Y-6215278D01*
X6626301Y-6213398D01*
X6636512Y-6211163D01*
X6641033Y-6211214D01*
X6645046Y-6213195D01*
X6647840Y-6216700D01*
X6648856Y-6221120D01*
X6648856Y-6255156D01*
X6765493Y-6255156D01*
X6765493Y-6219342D01*
X6764680Y-6207556D01*
X6762242Y-6196330D01*
X6758228Y-6185560D01*
X6752691Y-6175451D01*
X6745833Y-6166307D01*
X6736842Y-6157417D01*
X6734809Y-6154521D01*
X6733895Y-6151067D01*
X6734200Y-6147562D01*
X6735673Y-6144361D01*
X6740296Y-6137757D01*
X6748830Y-6122365D01*
X6755688Y-6106160D01*
X6760768Y-6089243D01*
X6764020Y-6071971D01*
X6765442Y-6054394D01*
X6764985Y-6036767D01*
X6762648Y-6019342D01*
X6758431Y-6002223D01*
X6752488Y-5985662D01*
X6744766Y-5969812D01*
X6735419Y-5954877D01*
X6724548Y-5941009D01*
X6713829Y-5929985D01*
X6711645Y-5926632D01*
X6710934Y-5922670D01*
X6711848Y-5918708D01*
X6714236Y-5915456D01*
X6718553Y-5911443D01*
X6730187Y-5898184D01*
X6740296Y-5883757D01*
X6748830Y-5868365D01*
X6755688Y-5852160D01*
X6760768Y-5835243D01*
X6764020Y-5817971D01*
X6765442Y-5800394D01*
X6764985Y-5782767D01*
X6762648Y-5765342D01*
X6758431Y-5748223D01*
X6752488Y-5731662D01*
X6744766Y-5715812D01*
X6735419Y-5700877D01*
X6724548Y-5687009D01*
X6712254Y-5674360D01*
X6698691Y-5663133D01*
X6684009Y-5653379D01*
X6668363Y-5645302D01*
X6651955Y-5638850D01*
X6634988Y-5634228D01*
X6617563Y-5631434D01*
X6599986Y-5630468D01*
X6582409Y-5631434D01*
X6564985Y-5634228D01*
X6548018Y-5638850D01*
X6531609Y-5645302D01*
X6515963Y-5653379D01*
X6501282Y-5663133D01*
X6487718Y-5674360D01*
X6475425Y-5687009D01*
X6464554Y-5700877D01*
X6455206Y-5715812D01*
X6447485Y-5731662D01*
X6441541Y-5748223D01*
X6437325Y-5765342D01*
X6434988Y-5782767D01*
X6434531Y-5800394D01*
X6435953Y-5817971D01*
X6439204Y-5835243D01*
X6444284Y-5852160D01*
X6451142Y-5868365D01*
X6459677Y-5883757D01*
X6469786Y-5898184D01*
X6481419Y-5911443D01*
X6485737Y-5915456D01*
X6488125Y-5918708D01*
X6489039Y-5922670D01*
X6488328Y-5926632D01*
X6486144Y-5929985D01*
X6475425Y-5941009D01*
X6464554Y-5954877D01*
X6455206Y-5969812D01*
X6447485Y-5985662D01*
X6441541Y-6002223D01*
X6437325Y-6019342D01*
X6434988Y-6036767D01*
X6434531Y-6054394D01*
X6435953Y-6071971D01*
X6439204Y-6089243D01*
X6444284Y-6106160D01*
X6451142Y-6122365D01*
X6459677Y-6137757D01*
X6464300Y-6144361D01*
X6465773Y-6147562D01*
X6466078Y-6151067D01*
X6465163Y-6154521D01*
X6463131Y-6157417D01*
X6454140Y-6166307D01*
X6447282Y-6175451D01*
X6441744Y-6185560D01*
X6437731Y-6196330D01*
X6435293Y-6207556D01*
X6434480Y-6219342D01*
G37*
G36*
X5634482Y-6255156D02*
G01*
X5751118Y-6255156D01*
X5751118Y-6221120D01*
X5752134Y-6216700D01*
X5754928Y-6213195D01*
X5758942Y-6211214D01*
X5763463Y-6211163D01*
X5773674Y-6213398D01*
X5791200Y-6215278D01*
X5808776Y-6215278D01*
X5826302Y-6213398D01*
X5836513Y-6211163D01*
X5841034Y-6211214D01*
X5845048Y-6213195D01*
X5847842Y-6216700D01*
X5848858Y-6221120D01*
X5848858Y-6255156D01*
X5965494Y-6255156D01*
X5965494Y-6219342D01*
X5964682Y-6207556D01*
X5962243Y-6196330D01*
X5958230Y-6185560D01*
X5952693Y-6175451D01*
X5945835Y-6166307D01*
X5936843Y-6157417D01*
X5934811Y-6154521D01*
X5933897Y-6151067D01*
X5934202Y-6147562D01*
X5935675Y-6144361D01*
X5940298Y-6137757D01*
X5948832Y-6122365D01*
X5955690Y-6106160D01*
X5960770Y-6089243D01*
X5964021Y-6071971D01*
X5965444Y-6054394D01*
X5964986Y-6036767D01*
X5962650Y-6019342D01*
X5958433Y-6002223D01*
X5952490Y-5985662D01*
X5944768Y-5969812D01*
X5935421Y-5954877D01*
X5924550Y-5941009D01*
X5913831Y-5929985D01*
X5911646Y-5926632D01*
X5910935Y-5922670D01*
X5911850Y-5918708D01*
X5914237Y-5915456D01*
X5918555Y-5911443D01*
X5930188Y-5898184D01*
X5940298Y-5883757D01*
X5948832Y-5868365D01*
X5955690Y-5852160D01*
X5960770Y-5835243D01*
X5964021Y-5817971D01*
X5965444Y-5800394D01*
X5964986Y-5782767D01*
X5962650Y-5765342D01*
X5958433Y-5748223D01*
X5952490Y-5731662D01*
X5944768Y-5715812D01*
X5935421Y-5700877D01*
X5924550Y-5687009D01*
X5912256Y-5674360D01*
X5898692Y-5663133D01*
X5884011Y-5653379D01*
X5868365Y-5645302D01*
X5851956Y-5638850D01*
X5834989Y-5634228D01*
X5817565Y-5631434D01*
X5799988Y-5630468D01*
X5782411Y-5631434D01*
X5764987Y-5634228D01*
X5748020Y-5638850D01*
X5731611Y-5645302D01*
X5715965Y-5653379D01*
X5701284Y-5663133D01*
X5687720Y-5674360D01*
X5675426Y-5687009D01*
X5664555Y-5700877D01*
X5655208Y-5715812D01*
X5647486Y-5731662D01*
X5641543Y-5748223D01*
X5637326Y-5765342D01*
X5634990Y-5782767D01*
X5634532Y-5800394D01*
X5635955Y-5817971D01*
X5639206Y-5835243D01*
X5644286Y-5852160D01*
X5651144Y-5868365D01*
X5659678Y-5883757D01*
X5669788Y-5898184D01*
X5681421Y-5911443D01*
X5685739Y-5915456D01*
X5688126Y-5918708D01*
X5689041Y-5922670D01*
X5688330Y-5926632D01*
X5686145Y-5929985D01*
X5675426Y-5941009D01*
X5664555Y-5954877D01*
X5655208Y-5969812D01*
X5647486Y-5985662D01*
X5641543Y-6002223D01*
X5637326Y-6019342D01*
X5634990Y-6036767D01*
X5634532Y-6054394D01*
X5635955Y-6071971D01*
X5639206Y-6089243D01*
X5644286Y-6106160D01*
X5651144Y-6122365D01*
X5659678Y-6137757D01*
X5664301Y-6144361D01*
X5665774Y-6147562D01*
X5666079Y-6151067D01*
X5665165Y-6154521D01*
X5663133Y-6157417D01*
X5654141Y-6166307D01*
X5647283Y-6175451D01*
X5641746Y-6185560D01*
X5637733Y-6196330D01*
X5635294Y-6207556D01*
X5634482Y-6219342D01*
G37*
G36*
X5234482Y-6255156D02*
G01*
X5351119Y-6255156D01*
X5351119Y-6221120D01*
X5352135Y-6216700D01*
X5354929Y-6213195D01*
X5358942Y-6211214D01*
X5363464Y-6211163D01*
X5373674Y-6213398D01*
X5391200Y-6215278D01*
X5408777Y-6215278D01*
X5426303Y-6213398D01*
X5436514Y-6211163D01*
X5441035Y-6211214D01*
X5445048Y-6213195D01*
X5447842Y-6216700D01*
X5448858Y-6221120D01*
X5448858Y-6255156D01*
X5565495Y-6255156D01*
X5565495Y-6219342D01*
X5564682Y-6207556D01*
X5562244Y-6196330D01*
X5558231Y-6185560D01*
X5552694Y-6175451D01*
X5545836Y-6166307D01*
X5536844Y-6157417D01*
X5534812Y-6154521D01*
X5533898Y-6151067D01*
X5534202Y-6147562D01*
X5535676Y-6144361D01*
X5540298Y-6137757D01*
X5548833Y-6122365D01*
X5555691Y-6106160D01*
X5560771Y-6089243D01*
X5564022Y-6071971D01*
X5565444Y-6054394D01*
X5564987Y-6036767D01*
X5562650Y-6019342D01*
X5558434Y-6002223D01*
X5552490Y-5985662D01*
X5544769Y-5969812D01*
X5535422Y-5954877D01*
X5524550Y-5941009D01*
X5513832Y-5929985D01*
X5511647Y-5926632D01*
X5510936Y-5922670D01*
X5511850Y-5918708D01*
X5514238Y-5915456D01*
X5518556Y-5911443D01*
X5530189Y-5898184D01*
X5540298Y-5883757D01*
X5548833Y-5868365D01*
X5555691Y-5852160D01*
X5560771Y-5835243D01*
X5564022Y-5817971D01*
X5565444Y-5800394D01*
X5564987Y-5782767D01*
X5562650Y-5765342D01*
X5558434Y-5748223D01*
X5552490Y-5731662D01*
X5544769Y-5715812D01*
X5535422Y-5700877D01*
X5524550Y-5687009D01*
X5512257Y-5674360D01*
X5498693Y-5663133D01*
X5484012Y-5653379D01*
X5468366Y-5645302D01*
X5451957Y-5638850D01*
X5434990Y-5634228D01*
X5417566Y-5631434D01*
X5399989Y-5630468D01*
X5382412Y-5631434D01*
X5364988Y-5634228D01*
X5348020Y-5638850D01*
X5331612Y-5645302D01*
X5315966Y-5653379D01*
X5301284Y-5663133D01*
X5287721Y-5674360D01*
X5275427Y-5687009D01*
X5264556Y-5700877D01*
X5255209Y-5715812D01*
X5247487Y-5731662D01*
X5241544Y-5748223D01*
X5237327Y-5765342D01*
X5234990Y-5782767D01*
X5234533Y-5800394D01*
X5235956Y-5817971D01*
X5239207Y-5835243D01*
X5244287Y-5852160D01*
X5251145Y-5868365D01*
X5259679Y-5883757D01*
X5269788Y-5898184D01*
X5281422Y-5911443D01*
X5285740Y-5915456D01*
X5288127Y-5918708D01*
X5289042Y-5922670D01*
X5288330Y-5926632D01*
X5286146Y-5929985D01*
X5275427Y-5941009D01*
X5264556Y-5954877D01*
X5255209Y-5969812D01*
X5247487Y-5985662D01*
X5241544Y-6002223D01*
X5237327Y-6019342D01*
X5234990Y-6036767D01*
X5234533Y-6054394D01*
X5235956Y-6071971D01*
X5239207Y-6089243D01*
X5244287Y-6106160D01*
X5251145Y-6122365D01*
X5259679Y-6137757D01*
X5264302Y-6144361D01*
X5265775Y-6147562D01*
X5266080Y-6151067D01*
X5265166Y-6154521D01*
X5263134Y-6157417D01*
X5254142Y-6166307D01*
X5247284Y-6175451D01*
X5241747Y-6185560D01*
X5237734Y-6196330D01*
X5235295Y-6207556D01*
X5234482Y-6219342D01*
G37*
G36*
X4709464Y-6255156D02*
G01*
X4826152Y-6255156D01*
X4826152Y-6221120D01*
X4827117Y-6216700D01*
X4829911Y-6213195D01*
X4833975Y-6211214D01*
X4838446Y-6211163D01*
X4848656Y-6213398D01*
X4866182Y-6215278D01*
X4883810Y-6215278D01*
X4901336Y-6213398D01*
X4911547Y-6211163D01*
X4916017Y-6211214D01*
X4920081Y-6213195D01*
X4922824Y-6216700D01*
X4923840Y-6221120D01*
X4923840Y-6255156D01*
X5040528Y-6255156D01*
X5040528Y-6219342D01*
X5039664Y-6207556D01*
X5037226Y-6196330D01*
X5033213Y-6185560D01*
X5027726Y-6175451D01*
X5020818Y-6166307D01*
X5011826Y-6157417D01*
X5009794Y-6154521D01*
X5008880Y-6151067D01*
X5009184Y-6147562D01*
X5010708Y-6144361D01*
X5015280Y-6137757D01*
X5023815Y-6122365D01*
X5030673Y-6106109D01*
X5035753Y-6089243D01*
X5039055Y-6071971D01*
X5040426Y-6054394D01*
X5039969Y-6036767D01*
X5037632Y-6019342D01*
X5033467Y-6002223D01*
X5027472Y-5985611D01*
X5019751Y-5969812D01*
X5010404Y-5954877D01*
X4999532Y-5941009D01*
X4988864Y-5929985D01*
X4986680Y-5926632D01*
X4985969Y-5922670D01*
X4986883Y-5918708D01*
X4989220Y-5915456D01*
X4993589Y-5911443D01*
X5005171Y-5898184D01*
X5015280Y-5883757D01*
X5023815Y-5868365D01*
X5030673Y-5852109D01*
X5035753Y-5835243D01*
X5039055Y-5817971D01*
X5040426Y-5800394D01*
X5039969Y-5782767D01*
X5037632Y-5765342D01*
X5033467Y-5748223D01*
X5027472Y-5731611D01*
X5019751Y-5715812D01*
X5010404Y-5700877D01*
X4999532Y-5687009D01*
X4987239Y-5674360D01*
X4973675Y-5663133D01*
X4958994Y-5653379D01*
X4943398Y-5645251D01*
X4926990Y-5638850D01*
X4909972Y-5634228D01*
X4892598Y-5631434D01*
X4874971Y-5630468D01*
X4857394Y-5631434D01*
X4840020Y-5634228D01*
X4823002Y-5638850D01*
X4806594Y-5645251D01*
X4790948Y-5653379D01*
X4776266Y-5663133D01*
X4762754Y-5674360D01*
X4750460Y-5687009D01*
X4739538Y-5700877D01*
X4730191Y-5715812D01*
X4722520Y-5731611D01*
X4716526Y-5748223D01*
X4712360Y-5765342D01*
X4710023Y-5782767D01*
X4709566Y-5800394D01*
X4710938Y-5817971D01*
X4714240Y-5835243D01*
X4719320Y-5852109D01*
X4726127Y-5868365D01*
X4734712Y-5883757D01*
X4744821Y-5898184D01*
X4756404Y-5911443D01*
X4760772Y-5915456D01*
X4763109Y-5918708D01*
X4764024Y-5922670D01*
X4763312Y-5926632D01*
X4761128Y-5929985D01*
X4750460Y-5941009D01*
X4739538Y-5954877D01*
X4730191Y-5969812D01*
X4722520Y-5985611D01*
X4716526Y-6002223D01*
X4712360Y-6019342D01*
X4710023Y-6036767D01*
X4709566Y-6054394D01*
X4710938Y-6071971D01*
X4714240Y-6089243D01*
X4719320Y-6106109D01*
X4726127Y-6122365D01*
X4734712Y-6137757D01*
X4739284Y-6144361D01*
X4740808Y-6147562D01*
X4741113Y-6151067D01*
X4740198Y-6154521D01*
X4738116Y-6157417D01*
X4729124Y-6166307D01*
X4722266Y-6175451D01*
X4716780Y-6185560D01*
X4712766Y-6196330D01*
X4710328Y-6207556D01*
X4709464Y-6219342D01*
G37*
G36*
X4309465Y-6255156D02*
G01*
X4426153Y-6255156D01*
X4426153Y-6221120D01*
X4427118Y-6216700D01*
X4429912Y-6213195D01*
X4433976Y-6211214D01*
X4438446Y-6211163D01*
X4448657Y-6213398D01*
X4466183Y-6215278D01*
X4483811Y-6215278D01*
X4501337Y-6213398D01*
X4511548Y-6211163D01*
X4516018Y-6211214D01*
X4520082Y-6213195D01*
X4522825Y-6216700D01*
X4523841Y-6221120D01*
X4523841Y-6255156D01*
X4640529Y-6255156D01*
X4640529Y-6219342D01*
X4639665Y-6207556D01*
X4637227Y-6196330D01*
X4633214Y-6185560D01*
X4627727Y-6175451D01*
X4620818Y-6166307D01*
X4611827Y-6157417D01*
X4609795Y-6154521D01*
X4608880Y-6151067D01*
X4609185Y-6147562D01*
X4610709Y-6144361D01*
X4615281Y-6137757D01*
X4623816Y-6122365D01*
X4630674Y-6106109D01*
X4635754Y-6089243D01*
X4639056Y-6071971D01*
X4640427Y-6054394D01*
X4639970Y-6036767D01*
X4637633Y-6019342D01*
X4633468Y-6002223D01*
X4627473Y-5985611D01*
X4619752Y-5969812D01*
X4610404Y-5954877D01*
X4599533Y-5941009D01*
X4588865Y-5929985D01*
X4586681Y-5926632D01*
X4585970Y-5922670D01*
X4586884Y-5918708D01*
X4589221Y-5915456D01*
X4593590Y-5911443D01*
X4605172Y-5898184D01*
X4615281Y-5883757D01*
X4623816Y-5868365D01*
X4630674Y-5852109D01*
X4635754Y-5835243D01*
X4639056Y-5817971D01*
X4640427Y-5800394D01*
X4639970Y-5782767D01*
X4637633Y-5765342D01*
X4633468Y-5748223D01*
X4627473Y-5731611D01*
X4619752Y-5715812D01*
X4610404Y-5700877D01*
X4599533Y-5687009D01*
X4587240Y-5674360D01*
X4573676Y-5663133D01*
X4558995Y-5653379D01*
X4543399Y-5645251D01*
X4526991Y-5638850D01*
X4509973Y-5634228D01*
X4492599Y-5631434D01*
X4474972Y-5630468D01*
X4457395Y-5631434D01*
X4440021Y-5634228D01*
X4423003Y-5638850D01*
X4406595Y-5645251D01*
X4390948Y-5653379D01*
X4376267Y-5663133D01*
X4362754Y-5674360D01*
X4350461Y-5687009D01*
X4339539Y-5700877D01*
X4330192Y-5715812D01*
X4322521Y-5731611D01*
X4316526Y-5748223D01*
X4312361Y-5765342D01*
X4310024Y-5782767D01*
X4309567Y-5800394D01*
X4310938Y-5817971D01*
X4314240Y-5835243D01*
X4319320Y-5852109D01*
X4326128Y-5868365D01*
X4334713Y-5883757D01*
X4344822Y-5898184D01*
X4356404Y-5911443D01*
X4360773Y-5915456D01*
X4363110Y-5918708D01*
X4364024Y-5922670D01*
X4363313Y-5926632D01*
X4361129Y-5929985D01*
X4350461Y-5941009D01*
X4339539Y-5954877D01*
X4330192Y-5969812D01*
X4322521Y-5985611D01*
X4316526Y-6002223D01*
X4312361Y-6019342D01*
X4310024Y-6036767D01*
X4309567Y-6054394D01*
X4310938Y-6071971D01*
X4314240Y-6089243D01*
X4319320Y-6106109D01*
X4326128Y-6122365D01*
X4334713Y-6137757D01*
X4339285Y-6144361D01*
X4340809Y-6147562D01*
X4341114Y-6151067D01*
X4340199Y-6154521D01*
X4338116Y-6157417D01*
X4329125Y-6166307D01*
X4322267Y-6175451D01*
X4316780Y-6185560D01*
X4312767Y-6196330D01*
X4310329Y-6207556D01*
X4309465Y-6219342D01*
G37*
G36*
X2709468Y-6255156D02*
G01*
X2826156Y-6255156D01*
X2826156Y-6221120D01*
X2827121Y-6216700D01*
X2829915Y-6213195D01*
X2833979Y-6211214D01*
X2838450Y-6211163D01*
X2848660Y-6213398D01*
X2866186Y-6215278D01*
X2883814Y-6215278D01*
X2901340Y-6213398D01*
X2911551Y-6211163D01*
X2916021Y-6211214D01*
X2920085Y-6213195D01*
X2922828Y-6216700D01*
X2923844Y-6221120D01*
X2923844Y-6255156D01*
X3040532Y-6255156D01*
X3040532Y-6219342D01*
X3039668Y-6207556D01*
X3037230Y-6196330D01*
X3033217Y-6185560D01*
X3027730Y-6175451D01*
X3020822Y-6166307D01*
X3011830Y-6157417D01*
X3009798Y-6154521D01*
X3008884Y-6151067D01*
X3009188Y-6147562D01*
X3010712Y-6144361D01*
X3015284Y-6137757D01*
X3023819Y-6122365D01*
X3030677Y-6106160D01*
X3035757Y-6089243D01*
X3039059Y-6071971D01*
X3040430Y-6054394D01*
X3039973Y-6036767D01*
X3037636Y-6019342D01*
X3033471Y-6002223D01*
X3027476Y-5985662D01*
X3019755Y-5969812D01*
X3010408Y-5954877D01*
X2999536Y-5941009D01*
X2988868Y-5929985D01*
X2986684Y-5926632D01*
X2985973Y-5922670D01*
X2986887Y-5918708D01*
X2989224Y-5915456D01*
X2993593Y-5911443D01*
X3005175Y-5898184D01*
X3015284Y-5883757D01*
X3023819Y-5868365D01*
X3030677Y-5852160D01*
X3035757Y-5835243D01*
X3039059Y-5817971D01*
X3040430Y-5800394D01*
X3039973Y-5782767D01*
X3037636Y-5765342D01*
X3033471Y-5748223D01*
X3027476Y-5731662D01*
X3019755Y-5715812D01*
X3010408Y-5700877D01*
X2999536Y-5687009D01*
X2987243Y-5674360D01*
X2973679Y-5663133D01*
X2958998Y-5653379D01*
X2943402Y-5645302D01*
X2926994Y-5638850D01*
X2909976Y-5634228D01*
X2892602Y-5631434D01*
X2874975Y-5630468D01*
X2857398Y-5631434D01*
X2840024Y-5634228D01*
X2823006Y-5638850D01*
X2806598Y-5645302D01*
X2790952Y-5653379D01*
X2776270Y-5663133D01*
X2762758Y-5674360D01*
X2750464Y-5687009D01*
X2739542Y-5700877D01*
X2730195Y-5715812D01*
X2722524Y-5731662D01*
X2716530Y-5748223D01*
X2712364Y-5765342D01*
X2710027Y-5782767D01*
X2709570Y-5800394D01*
X2710942Y-5817971D01*
X2714244Y-5835243D01*
X2719324Y-5852160D01*
X2726131Y-5868365D01*
X2734716Y-5883757D01*
X2744825Y-5898184D01*
X2756408Y-5911443D01*
X2760776Y-5915456D01*
X2763113Y-5918708D01*
X2764028Y-5922670D01*
X2763316Y-5926632D01*
X2761132Y-5929985D01*
X2750464Y-5941009D01*
X2739542Y-5954877D01*
X2730195Y-5969812D01*
X2722524Y-5985662D01*
X2716530Y-6002223D01*
X2712364Y-6019342D01*
X2710027Y-6036767D01*
X2709570Y-6054394D01*
X2710942Y-6071971D01*
X2714244Y-6089243D01*
X2719324Y-6106160D01*
X2726131Y-6122365D01*
X2734716Y-6137757D01*
X2739288Y-6144361D01*
X2740812Y-6147562D01*
X2741117Y-6151067D01*
X2740202Y-6154521D01*
X2738120Y-6157417D01*
X2729128Y-6166307D01*
X2722270Y-6175451D01*
X2716784Y-6185560D01*
X2712770Y-6196330D01*
X2710332Y-6207556D01*
X2709468Y-6219342D01*
G37*
G36*
X1469085Y-6251143D02*
G01*
X1578152Y-6251143D01*
X1578152Y-6142075D01*
X1570837Y-6144310D01*
X1554632Y-6151168D01*
X1539189Y-6159703D01*
X1524812Y-6169812D01*
X1511554Y-6181394D01*
X1499565Y-6194348D01*
X1489100Y-6208522D01*
X1480159Y-6223660D01*
X1472844Y-6239713D01*
G37*
G36*
X2169058Y-6251143D02*
G01*
X2278126Y-6251143D01*
X2278126Y-6142075D01*
X2270861Y-6144310D01*
X2254605Y-6151168D01*
X2239213Y-6159703D01*
X2224786Y-6169812D01*
X2211527Y-6181394D01*
X2199589Y-6194348D01*
X2189073Y-6208522D01*
X2180132Y-6223660D01*
X2172868Y-6239713D01*
G37*
G36*
X2375865Y-6251143D02*
G01*
X2484983Y-6251143D01*
X2484120Y-6247993D01*
X2477719Y-6231585D01*
X2469591Y-6215989D01*
X2459837Y-6201308D01*
X2448610Y-6187744D01*
X2435961Y-6175451D01*
X2422144Y-6164580D01*
X2407208Y-6155232D01*
X2391359Y-6147511D01*
X2375865Y-6141923D01*
G37*
G36*
X1675841Y-6251143D02*
G01*
X1784959Y-6251143D01*
X1784146Y-6247993D01*
X1777695Y-6231585D01*
X1769567Y-6215989D01*
X1759864Y-6201308D01*
X1748586Y-6187744D01*
X1735988Y-6175451D01*
X1722120Y-6164580D01*
X1707184Y-6155232D01*
X1691335Y-6147511D01*
X1675841Y-6141923D01*
G37*
G36*
X720598Y-6165443D02*
G01*
X738225Y-6164986D01*
X755650Y-6162649D01*
X772769Y-6158433D01*
X789381Y-6152489D01*
X805180Y-6144768D01*
X820115Y-6135420D01*
X833983Y-6124549D01*
X846632Y-6112256D01*
X857859Y-6098692D01*
X867613Y-6084011D01*
X875741Y-6068364D01*
X882142Y-6051956D01*
X886764Y-6034989D01*
X889558Y-6017564D01*
X890524Y-5999988D01*
X889558Y-5982411D01*
X886764Y-5964986D01*
X882142Y-5948019D01*
X875741Y-5931611D01*
X867613Y-5915964D01*
X857859Y-5901283D01*
X846632Y-5887720D01*
X833983Y-5875426D01*
X820115Y-5864555D01*
X805180Y-5855208D01*
X789381Y-5847486D01*
X772769Y-5841542D01*
X755650Y-5837326D01*
X738225Y-5834989D01*
X720598Y-5834532D01*
X703021Y-5835954D01*
X685749Y-5839206D01*
X668883Y-5844286D01*
X652627Y-5851144D01*
X637235Y-5859678D01*
X622808Y-5869787D01*
X609549Y-5881420D01*
X607415Y-5883706D01*
X604164Y-5886043D01*
X600252Y-5886958D01*
X596290Y-5886297D01*
X592886Y-5884113D01*
X583996Y-5875426D01*
X570128Y-5864555D01*
X555193Y-5855208D01*
X539343Y-5847486D01*
X523849Y-5841898D01*
X523849Y-5951118D01*
X553872Y-5951118D01*
X558292Y-5952134D01*
X561797Y-5954928D01*
X563778Y-5958941D01*
X563829Y-5963462D01*
X561594Y-5973673D01*
X559714Y-5991199D01*
X559714Y-6008776D01*
X561594Y-6026302D01*
X563829Y-6036513D01*
X563778Y-6041034D01*
X561797Y-6045047D01*
X558292Y-6047841D01*
X553872Y-6048857D01*
X523849Y-6048857D01*
X523849Y-6158077D01*
X539343Y-6152489D01*
X555193Y-6144768D01*
X570128Y-6135420D01*
X583996Y-6124549D01*
X592886Y-6115862D01*
X596290Y-6113678D01*
X600252Y-6113018D01*
X604164Y-6113932D01*
X607415Y-6116269D01*
X609549Y-6118555D01*
X622808Y-6130188D01*
X637235Y-6140297D01*
X652627Y-6148832D01*
X668883Y-6155690D01*
X685749Y-6160770D01*
X703021Y-6164021D01*
G37*
G36*
X426161Y-6157874D02*
G01*
X426161Y-6048857D01*
X317093Y-6048857D01*
X320852Y-6060236D01*
X328168Y-6076289D01*
X337108Y-6091478D01*
X347573Y-6105601D01*
X359562Y-6118555D01*
X372821Y-6130188D01*
X387197Y-6140297D01*
X402640Y-6148832D01*
X418846Y-6155690D01*
G37*
G36*
X317093Y-5951118D02*
G01*
X426161Y-5951118D01*
X426161Y-5842101D01*
X418846Y-5844286D01*
X402640Y-5851144D01*
X387197Y-5859678D01*
X372821Y-5869787D01*
X359562Y-5881420D01*
X347573Y-5894374D01*
X337108Y-5908497D01*
X328168Y-5923686D01*
X320852Y-5939739D01*
G37*
G36*
X2500020Y-5225491D02*
G01*
X2516835Y-5224576D01*
X2533497Y-5221732D01*
X2549702Y-5217058D01*
X2565298Y-5210606D01*
X2580081Y-5202428D01*
X2594102Y-5192471D01*
X2597912Y-5190794D01*
X2602077Y-5190794D01*
X2605887Y-5192471D01*
X2619908Y-5202428D01*
X2634691Y-5210606D01*
X2650286Y-5217058D01*
X2666492Y-5221732D01*
X2683154Y-5224526D01*
X2700020Y-5225491D01*
X2716834Y-5224526D01*
X2733497Y-5221732D01*
X2749702Y-5217058D01*
X2765298Y-5210606D01*
X2780080Y-5202428D01*
X2794101Y-5192471D01*
X2797911Y-5190794D01*
X2802077Y-5190794D01*
X2805887Y-5192471D01*
X2819908Y-5202428D01*
X2834690Y-5210606D01*
X2850286Y-5217058D01*
X2866491Y-5221732D01*
X2883154Y-5224526D01*
X2900019Y-5225491D01*
X2916834Y-5224526D01*
X2933496Y-5221732D01*
X2949702Y-5217058D01*
X2965297Y-5210606D01*
X2980080Y-5202428D01*
X2994101Y-5192471D01*
X2997911Y-5190794D01*
X3002076Y-5190794D01*
X3005886Y-5192471D01*
X3019907Y-5202428D01*
X3034690Y-5210606D01*
X3050286Y-5217058D01*
X3066491Y-5221732D01*
X3083153Y-5224526D01*
X3099968Y-5225491D01*
X3116834Y-5224526D01*
X3133496Y-5221732D01*
X3149701Y-5217058D01*
X3165297Y-5210606D01*
X3180080Y-5202428D01*
X3193846Y-5192674D01*
X3206394Y-5181396D01*
X3217672Y-5168849D01*
X3227425Y-5155082D01*
X3235604Y-5140299D01*
X3242056Y-5124704D01*
X3246729Y-5108498D01*
X3249574Y-5091836D01*
X3250488Y-5074970D01*
X3249574Y-5058156D01*
X3246729Y-5041493D01*
X3242056Y-5025288D01*
X3235604Y-5009692D01*
X3227425Y-4994910D01*
X3217672Y-4981143D01*
X3206394Y-4968595D01*
X3193846Y-4957318D01*
X3180080Y-4947564D01*
X3165297Y-4939385D01*
X3149701Y-4932934D01*
X3133496Y-4928260D01*
X3116834Y-4925415D01*
X3099968Y-4924501D01*
X3083153Y-4925415D01*
X3066491Y-4928260D01*
X3050286Y-4932934D01*
X3034690Y-4939385D01*
X3019907Y-4947564D01*
X3005886Y-4957521D01*
X3002076Y-4959197D01*
X2997911Y-4959197D01*
X2994101Y-4957521D01*
X2980080Y-4947564D01*
X2965297Y-4939385D01*
X2949702Y-4932934D01*
X2933496Y-4928260D01*
X2916834Y-4925415D01*
X2900019Y-4924501D01*
X2883154Y-4925415D01*
X2866491Y-4928260D01*
X2850286Y-4932934D01*
X2834690Y-4939385D01*
X2819908Y-4947564D01*
X2805887Y-4957521D01*
X2802077Y-4959197D01*
X2797911Y-4959197D01*
X2794101Y-4957521D01*
X2780080Y-4947564D01*
X2765298Y-4939385D01*
X2749702Y-4932934D01*
X2733497Y-4928260D01*
X2716834Y-4925415D01*
X2700020Y-4924501D01*
X2683154Y-4925415D01*
X2666492Y-4928260D01*
X2650286Y-4932934D01*
X2634691Y-4939385D01*
X2619908Y-4947564D01*
X2605887Y-4957521D01*
X2602077Y-4959197D01*
X2597912Y-4959197D01*
X2594102Y-4957521D01*
X2580081Y-4947564D01*
X2565298Y-4939385D01*
X2549702Y-4932934D01*
X2533497Y-4928260D01*
X2516835Y-4925415D01*
X2500020Y-4924501D01*
X2483154Y-4925415D01*
X2466492Y-4928260D01*
X2450287Y-4932934D01*
X2434691Y-4939385D01*
X2419908Y-4947564D01*
X2406142Y-4957318D01*
X2393594Y-4968595D01*
X2382316Y-4981143D01*
X2372563Y-4994910D01*
X2364384Y-5009692D01*
X2357932Y-5025288D01*
X2353259Y-5041493D01*
X2350414Y-5058156D01*
X2349500Y-5075021D01*
X2350414Y-5091836D01*
X2353259Y-5108498D01*
X2357932Y-5124704D01*
X2364384Y-5140299D01*
X2372563Y-5155082D01*
X2382316Y-5168849D01*
X2393594Y-5181396D01*
X2406142Y-5192674D01*
X2419908Y-5202428D01*
X2434691Y-5210606D01*
X2450287Y-5217058D01*
X2466492Y-5221732D01*
X2483154Y-5224576D01*
G37*
G36*
X4299966Y-5225440D02*
G01*
X4316831Y-5224475D01*
X4333443Y-5221630D01*
X4349648Y-5216956D01*
X4365244Y-5210505D01*
X4380026Y-5202377D01*
X4394098Y-5192369D01*
X4397908Y-5190744D01*
X4402023Y-5190744D01*
X4405833Y-5192369D01*
X4419904Y-5202377D01*
X4434687Y-5210505D01*
X4450283Y-5216956D01*
X4466488Y-5221630D01*
X4483100Y-5224475D01*
X4499965Y-5225440D01*
X4516831Y-5224475D01*
X4533442Y-5221630D01*
X4549648Y-5216956D01*
X4565243Y-5210505D01*
X4580026Y-5202377D01*
X4594098Y-5192369D01*
X4597908Y-5190744D01*
X4602022Y-5190744D01*
X4605832Y-5192369D01*
X4619904Y-5202377D01*
X4634687Y-5210505D01*
X4650282Y-5216956D01*
X4666488Y-5221630D01*
X4683099Y-5224475D01*
X4699965Y-5225440D01*
X4716830Y-5224475D01*
X4733442Y-5221630D01*
X4749647Y-5216956D01*
X4765243Y-5210505D01*
X4780026Y-5202377D01*
X4794097Y-5192369D01*
X4797907Y-5190744D01*
X4802022Y-5190744D01*
X4805832Y-5192369D01*
X4819904Y-5202377D01*
X4834686Y-5210505D01*
X4850282Y-5216956D01*
X4866487Y-5221630D01*
X4883099Y-5224475D01*
X4899964Y-5225440D01*
X4916830Y-5224475D01*
X4933442Y-5221630D01*
X4949647Y-5216956D01*
X4965242Y-5210505D01*
X4980025Y-5202377D01*
X4993792Y-5192572D01*
X5006390Y-5181346D01*
X5017617Y-5168747D01*
X5027422Y-5154980D01*
X5035550Y-5140198D01*
X5042001Y-5124602D01*
X5046675Y-5108397D01*
X5049520Y-5091785D01*
X5050485Y-5074920D01*
X5049520Y-5058054D01*
X5046675Y-5041442D01*
X5042001Y-5025237D01*
X5035550Y-5009642D01*
X5027422Y-4994859D01*
X5017617Y-4981092D01*
X5006390Y-4968494D01*
X4993792Y-4957267D01*
X4980025Y-4947462D01*
X4965242Y-4939334D01*
X4949647Y-4932883D01*
X4933442Y-4928209D01*
X4916830Y-4925364D01*
X4899964Y-4924399D01*
X4883099Y-4925364D01*
X4866487Y-4928209D01*
X4850282Y-4932883D01*
X4834686Y-4939334D01*
X4819904Y-4947462D01*
X4805832Y-4957470D01*
X4802022Y-4959096D01*
X4797907Y-4959096D01*
X4794097Y-4957470D01*
X4780026Y-4947462D01*
X4765243Y-4939334D01*
X4749647Y-4932883D01*
X4733442Y-4928209D01*
X4716830Y-4925364D01*
X4699965Y-4924399D01*
X4683099Y-4925364D01*
X4666488Y-4928209D01*
X4650282Y-4932883D01*
X4634687Y-4939334D01*
X4619904Y-4947462D01*
X4605832Y-4957470D01*
X4602022Y-4959096D01*
X4597908Y-4959096D01*
X4594098Y-4957470D01*
X4580026Y-4947462D01*
X4565243Y-4939334D01*
X4549648Y-4932883D01*
X4533442Y-4928209D01*
X4516831Y-4925364D01*
X4499965Y-4924399D01*
X4483100Y-4925364D01*
X4466488Y-4928209D01*
X4450283Y-4932883D01*
X4434687Y-4939334D01*
X4419904Y-4947462D01*
X4405833Y-4957470D01*
X4402023Y-4959096D01*
X4397908Y-4959096D01*
X4394098Y-4957470D01*
X4380026Y-4947462D01*
X4365244Y-4939334D01*
X4349648Y-4932883D01*
X4333443Y-4928209D01*
X4316831Y-4925364D01*
X4299966Y-4924399D01*
X4283100Y-4925364D01*
X4266488Y-4928209D01*
X4250283Y-4932883D01*
X4234688Y-4939334D01*
X4219905Y-4947462D01*
X4206138Y-4957267D01*
X4193540Y-4968494D01*
X4182313Y-4981092D01*
X4172508Y-4994859D01*
X4164380Y-5009642D01*
X4157929Y-5025237D01*
X4153255Y-5041442D01*
X4150410Y-5058054D01*
X4149445Y-5074920D01*
X4150410Y-5091785D01*
X4153255Y-5108397D01*
X4157929Y-5124602D01*
X4164380Y-5140198D01*
X4172508Y-5154980D01*
X4182313Y-5168747D01*
X4193540Y-5181346D01*
X4206138Y-5192572D01*
X4219905Y-5202377D01*
X4234688Y-5210505D01*
X4250283Y-5216956D01*
X4266488Y-5221630D01*
X4283100Y-5224475D01*
G37*
G36*
X-99822Y-5180533D02*
G01*
X1002334Y-5180482D01*
X1012190Y-5179568D01*
X1014323Y-5179212D01*
X1023924Y-5176875D01*
X1025956Y-5176215D01*
X1035151Y-5172456D01*
X1045514Y-5166410D01*
X1975561Y-4487672D01*
X1981707Y-4482134D01*
X1984349Y-4479391D01*
X1989582Y-4473041D01*
X1991766Y-4469942D01*
X1996033Y-4462881D01*
X1997760Y-4459528D01*
X2000910Y-4451858D01*
X2002078Y-4448302D01*
X2004060Y-4440275D01*
X2004669Y-4436516D01*
X2005431Y-4428286D01*
X2005533Y-4424273D01*
X1981200Y-1090726D01*
X1981911Y-1086815D01*
X1984146Y-1083513D01*
X1987448Y-1081278D01*
X1991360Y-1080516D01*
X3299815Y-1080516D01*
X3306013Y-1080262D01*
X3312007Y-1079601D01*
X3317900Y-1078484D01*
X3323742Y-1076909D01*
X3329432Y-1074928D01*
X3334918Y-1072540D01*
X3340252Y-1069746D01*
X3345332Y-1066495D01*
X3350209Y-1062939D01*
X3354730Y-1059027D01*
X3358997Y-1054760D01*
X3362960Y-1050188D01*
X3366515Y-1045362D01*
X3369716Y-1040231D01*
X3372510Y-1034948D01*
X3374948Y-1029411D01*
X3376929Y-1023721D01*
X3378504Y-1017930D01*
X3379622Y-1011986D01*
X3380282Y-1005992D01*
X3380536Y-999794D01*
X3380536Y-200202D01*
X3380282Y-194005D01*
X3379622Y-188010D01*
X3378504Y-182067D01*
X3376929Y-176276D01*
X3374948Y-170586D01*
X3372510Y-165049D01*
X3369716Y-159766D01*
X3366515Y-154635D01*
X3362960Y-149809D01*
X3358997Y-145237D01*
X3354730Y-140970D01*
X3350209Y-137058D01*
X3345332Y-133502D01*
X3340252Y-130251D01*
X3334918Y-127457D01*
X3329432Y-125069D01*
X3323742Y-123088D01*
X3317900Y-121513D01*
X3312007Y-120396D01*
X3306013Y-119735D01*
X3299815Y-119481D01*
X700379Y-119481D01*
X687984Y-120396D01*
X676249Y-123088D01*
X665073Y-127457D01*
X654608Y-133553D01*
X646734Y-139598D01*
X-152806Y-839216D01*
X-159105Y-845362D01*
X-161340Y-847852D01*
X-166624Y-854760D01*
X-168452Y-857605D01*
X-172618Y-865174D01*
X-173990Y-868273D01*
X-176987Y-876401D01*
X-177901Y-879652D01*
X-179628Y-888136D01*
X-180086Y-891489D01*
X-180492Y-900277D01*
X-180492Y-5099812D01*
X-180289Y-5106009D01*
X-179628Y-5112004D01*
X-178511Y-5117896D01*
X-176936Y-5123738D01*
X-174955Y-5129428D01*
X-172516Y-5134914D01*
X-169722Y-5140248D01*
X-166522Y-5145328D01*
X-162966Y-5150205D01*
X-159004Y-5154726D01*
X-154736Y-5158994D01*
X-150215Y-5162956D01*
X-145338Y-5166512D01*
X-140258Y-5169712D01*
X-134924Y-5172506D01*
X-129438Y-5174945D01*
X-123748Y-5176926D01*
X-117906Y-5178501D01*
X-112014Y-5179618D01*
X-106019Y-5180279D01*
G37*
G36*
X3399993Y-4650486D02*
G01*
X3416858Y-4649571D01*
X3433470Y-4646726D01*
X3449675Y-4642053D01*
X3465271Y-4635601D01*
X3480054Y-4627422D01*
X3494125Y-4617466D01*
X3497935Y-4615789D01*
X3502050Y-4615789D01*
X3505860Y-4617466D01*
X3519932Y-4627422D01*
X3534714Y-4635601D01*
X3550310Y-4642053D01*
X3566515Y-4646726D01*
X3583127Y-4649571D01*
X3599992Y-4650486D01*
X3616858Y-4649571D01*
X3633470Y-4646726D01*
X3649675Y-4642053D01*
X3665270Y-4635601D01*
X3680053Y-4627422D01*
X3694125Y-4617466D01*
X3697935Y-4615789D01*
X3702050Y-4615789D01*
X3705860Y-4617466D01*
X3719931Y-4627422D01*
X3734714Y-4635601D01*
X3750310Y-4642053D01*
X3766515Y-4646726D01*
X3783126Y-4649571D01*
X3799992Y-4650486D01*
X3816858Y-4649571D01*
X3833469Y-4646726D01*
X3849674Y-4642053D01*
X3865270Y-4635601D01*
X3880053Y-4627422D01*
X3894124Y-4617466D01*
X3897934Y-4615789D01*
X3902049Y-4615789D01*
X3905859Y-4617466D01*
X3919931Y-4627422D01*
X3934714Y-4635601D01*
X3950309Y-4642053D01*
X3966514Y-4646726D01*
X3983126Y-4649571D01*
X3999992Y-4650486D01*
X4016857Y-4649571D01*
X4033469Y-4646726D01*
X4049674Y-4642053D01*
X4065270Y-4635601D01*
X4080052Y-4627422D01*
X4093819Y-4617669D01*
X4106418Y-4606391D01*
X4117644Y-4593844D01*
X4127449Y-4580077D01*
X4135577Y-4565294D01*
X4142028Y-4549698D01*
X4146702Y-4533493D01*
X4149547Y-4516831D01*
X4150512Y-4500016D01*
X4149547Y-4483150D01*
X4146702Y-4466488D01*
X4142028Y-4450283D01*
X4135577Y-4434687D01*
X4127449Y-4419904D01*
X4117644Y-4406138D01*
X4106418Y-4393590D01*
X4093819Y-4382312D01*
X4080052Y-4372559D01*
X4065270Y-4364380D01*
X4049674Y-4357928D01*
X4033469Y-4353255D01*
X4016857Y-4350410D01*
X3999992Y-4349496D01*
X3983126Y-4350410D01*
X3966514Y-4353255D01*
X3950309Y-4357928D01*
X3934714Y-4364380D01*
X3919931Y-4372559D01*
X3905859Y-4382516D01*
X3902049Y-4384192D01*
X3897934Y-4384192D01*
X3894124Y-4382516D01*
X3880053Y-4372559D01*
X3865270Y-4364380D01*
X3849674Y-4357928D01*
X3833469Y-4353255D01*
X3816858Y-4350410D01*
X3799992Y-4349496D01*
X3783126Y-4350410D01*
X3766515Y-4353255D01*
X3750310Y-4357928D01*
X3734714Y-4364380D01*
X3719931Y-4372559D01*
X3705860Y-4382516D01*
X3702050Y-4384192D01*
X3697935Y-4384192D01*
X3694125Y-4382516D01*
X3680053Y-4372559D01*
X3665270Y-4364380D01*
X3649675Y-4357928D01*
X3633470Y-4353255D01*
X3616858Y-4350410D01*
X3599992Y-4349496D01*
X3583127Y-4350410D01*
X3566515Y-4353255D01*
X3550310Y-4357928D01*
X3534714Y-4364380D01*
X3519932Y-4372559D01*
X3505860Y-4382516D01*
X3502050Y-4384192D01*
X3497935Y-4384192D01*
X3494125Y-4382516D01*
X3480054Y-4372559D01*
X3465271Y-4364380D01*
X3449675Y-4357928D01*
X3433470Y-4353255D01*
X3416858Y-4350410D01*
X3399993Y-4349496D01*
X3383127Y-4350410D01*
X3366515Y-4353255D01*
X3350310Y-4357928D01*
X3334715Y-4364380D01*
X3319932Y-4372559D01*
X3306165Y-4382312D01*
X3293567Y-4393590D01*
X3282340Y-4406138D01*
X3272536Y-4419904D01*
X3264408Y-4434687D01*
X3257956Y-4450283D01*
X3253282Y-4466488D01*
X3250438Y-4483150D01*
X3249472Y-4500016D01*
X3250438Y-4516831D01*
X3253282Y-4533493D01*
X3257956Y-4549698D01*
X3264408Y-4565294D01*
X3272536Y-4580077D01*
X3282340Y-4593844D01*
X3293567Y-4606391D01*
X3306165Y-4617669D01*
X3319932Y-4627422D01*
X3334715Y-4635601D01*
X3350310Y-4642053D01*
X3366515Y-4646726D01*
X3383127Y-4649571D01*
G37*
G36*
X2728569Y-4610912D02*
G01*
X2742692Y-4609541D01*
X2756560Y-4606391D01*
X2769920Y-4601464D01*
X2782519Y-4594910D01*
X2794203Y-4586782D01*
X2804718Y-4577232D01*
X2813964Y-4566361D01*
X2821686Y-4554474D01*
X2827883Y-4541621D01*
X2832354Y-4528159D01*
X2835097Y-4514189D01*
X2836011Y-4500016D01*
X2835097Y-4485792D01*
X2832354Y-4471822D01*
X2827883Y-4458360D01*
X2821686Y-4445508D01*
X2813964Y-4433620D01*
X2804718Y-4422749D01*
X2794203Y-4413199D01*
X2782519Y-4405071D01*
X2769920Y-4398518D01*
X2756560Y-4393590D01*
X2742692Y-4390440D01*
X2728569Y-4389069D01*
X2715209Y-4389475D01*
X2599994Y-4389475D01*
X2596083Y-4388713D01*
X2592781Y-4386478D01*
X2433878Y-4227576D01*
X2429764Y-4222750D01*
X2419197Y-4213199D01*
X2407564Y-4205071D01*
X2394915Y-4198518D01*
X2381605Y-4193590D01*
X2367737Y-4190441D01*
X2353564Y-4189069D01*
X2339340Y-4189526D01*
X2325319Y-4191762D01*
X2311654Y-4195826D01*
X2298649Y-4201566D01*
X2286508Y-4208932D01*
X2275382Y-4217822D01*
X2265476Y-4228033D01*
X2256993Y-4239463D01*
X2249982Y-4251807D01*
X2244648Y-4265015D01*
X2241042Y-4278782D01*
X2239213Y-4292904D01*
X2239213Y-4307078D01*
X2241042Y-4321200D01*
X2244648Y-4334967D01*
X2249982Y-4348175D01*
X2256993Y-4360519D01*
X2265476Y-4371949D01*
X2275382Y-4382160D01*
X2278176Y-4384446D01*
X2474214Y-4580432D01*
X2484882Y-4589322D01*
X2493873Y-4595215D01*
X2506268Y-4601464D01*
X2509164Y-4602683D01*
X2522372Y-4607001D01*
X2532888Y-4609185D01*
X2546705Y-4610455D01*
X2715564Y-4610506D01*
G37*
G36*
X3103575Y-4210913D02*
G01*
X3117697Y-4209542D01*
X3131566Y-4206392D01*
X3144926Y-4201464D01*
X3157524Y-4194911D01*
X3169208Y-4186783D01*
X3179724Y-4177233D01*
X3188970Y-4166362D01*
X3196691Y-4154474D01*
X3202889Y-4141622D01*
X3207359Y-4128160D01*
X3210102Y-4114190D01*
X3210966Y-4100017D01*
X3210102Y-4085793D01*
X3207359Y-4071823D01*
X3202889Y-4058361D01*
X3196691Y-4045508D01*
X3188970Y-4033621D01*
X3179724Y-4022750D01*
X3169208Y-4013200D01*
X3157524Y-4005072D01*
X3144926Y-3998518D01*
X3131566Y-3993591D01*
X3117697Y-3990441D01*
X3103575Y-3989070D01*
X3089351Y-3989527D01*
X3075279Y-3991762D01*
X3067608Y-3994048D01*
X3064713Y-3994454D01*
X2997911Y-3994454D01*
X2994050Y-3993692D01*
X2990748Y-3991508D01*
X2849727Y-3850487D01*
X2847746Y-3847744D01*
X2846730Y-3845509D01*
X2838958Y-3833622D01*
X2829712Y-3822750D01*
X2819196Y-3813200D01*
X2807512Y-3805072D01*
X2794914Y-3798519D01*
X2781554Y-3793591D01*
X2767685Y-3790442D01*
X2753563Y-3789070D01*
X2739339Y-3789527D01*
X2725318Y-3791762D01*
X2711653Y-3795826D01*
X2698648Y-3801567D01*
X2686507Y-3808933D01*
X2675382Y-3817823D01*
X2665476Y-3828034D01*
X2656992Y-3839464D01*
X2649982Y-3851808D01*
X2644648Y-3865016D01*
X2641041Y-3878783D01*
X2639212Y-3892905D01*
X2639212Y-3907078D01*
X2641041Y-3921201D01*
X2644648Y-3934968D01*
X2649982Y-3948176D01*
X2656992Y-3960520D01*
X2665476Y-3971950D01*
X2675382Y-3982161D01*
X2686507Y-3991051D01*
X2698953Y-3998620D01*
X2700883Y-4000093D01*
X2875178Y-4174388D01*
X2885795Y-4183684D01*
X2897276Y-4191355D01*
X2909620Y-4197451D01*
X2922727Y-4201871D01*
X2936240Y-4204563D01*
X2950362Y-4205528D01*
X3064713Y-4205528D01*
X3067608Y-4205935D01*
X3075279Y-4208221D01*
X3089351Y-4210456D01*
G37*
G36*
X6940600Y-335280D02*
G01*
X6959396Y-335280D01*
X6978091Y-333400D01*
X6996480Y-329590D01*
X7014413Y-323951D01*
X7031685Y-316585D01*
X7048144Y-307441D01*
X7063536Y-296722D01*
X7077811Y-284480D01*
X7090765Y-270865D01*
X7102246Y-255981D01*
X7112203Y-240029D01*
X7120483Y-223164D01*
X7126986Y-205536D01*
X7131710Y-187350D01*
X7134555Y-168757D01*
X7135520Y-150012D01*
X7134555Y-131267D01*
X7131710Y-112674D01*
X7126986Y-94488D01*
X7120483Y-76860D01*
X7112203Y-59994D01*
X7102246Y-44043D01*
X7090765Y-29159D01*
X7077811Y-15544D01*
X7063536Y-3302D01*
X7048144Y7416D01*
X7031685Y16560D01*
X7014413Y23926D01*
X6996480Y29565D01*
X6978091Y33375D01*
X6959396Y35255D01*
X6940600Y35255D01*
X6921906Y33375D01*
X6903516Y29565D01*
X6885584Y23926D01*
X6868312Y16560D01*
X6851853Y7416D01*
X6836460Y-3302D01*
X6822186Y-15544D01*
X6809231Y-29159D01*
X6797751Y-44043D01*
X6787794Y-59994D01*
X6779514Y-76860D01*
X6773011Y-94488D01*
X6768287Y-112674D01*
X6765442Y-131267D01*
X6764477Y-150012D01*
X6765442Y-168757D01*
X6768287Y-187350D01*
X6773011Y-205536D01*
X6779514Y-223164D01*
X6787794Y-240029D01*
X6797751Y-255981D01*
X6809231Y-270865D01*
X6822186Y-284480D01*
X6836460Y-296722D01*
X6851853Y-307441D01*
X6868312Y-316585D01*
X6885584Y-323951D01*
X6903516Y-329590D01*
X6921906Y-333400D01*
G37*
G36*
X90627Y-335280D02*
G01*
X109372Y-335280D01*
X128066Y-333400D01*
X146507Y-329590D01*
X164439Y-323951D01*
X181711Y-316585D01*
X198120Y-307441D01*
X213563Y-296722D01*
X227787Y-284480D01*
X240741Y-270865D01*
X252272Y-255981D01*
X262178Y-240029D01*
X270459Y-223164D01*
X277012Y-205536D01*
X281686Y-187350D01*
X284530Y-168757D01*
X285496Y-150012D01*
X284530Y-131267D01*
X281686Y-112674D01*
X277012Y-94488D01*
X270459Y-76860D01*
X262178Y-59994D01*
X252272Y-44043D01*
X240741Y-29159D01*
X227787Y-15544D01*
X213563Y-3302D01*
X198120Y7416D01*
X181711Y16560D01*
X164439Y23926D01*
X146507Y29565D01*
X128066Y33375D01*
X109372Y35255D01*
X90627Y35255D01*
X71932Y33375D01*
X53492Y29565D01*
X35560Y23926D01*
X18288Y16560D01*
X1879Y7416D01*
X-13563Y-3302D01*
X-27787Y-15544D01*
X-40741Y-29159D01*
X-52273Y-44043D01*
X-62179Y-59994D01*
X-70459Y-76860D01*
X-77012Y-94488D01*
X-81686Y-112674D01*
X-84531Y-131267D01*
X-85496Y-150012D01*
X-84531Y-168757D01*
X-81686Y-187350D01*
X-77012Y-205536D01*
X-70459Y-223164D01*
X-62179Y-240029D01*
X-52273Y-255981D01*
X-40741Y-270865D01*
X-27787Y-284480D01*
X-13563Y-296722D01*
X1879Y-307441D01*
X18288Y-316585D01*
X35560Y-323951D01*
X53492Y-329590D01*
X71932Y-333400D01*
G37*

%LPD*%
G36*
X-89814Y-5100015D02*
G01*
X-93726Y-5099202D01*
X-97028Y-5097018D01*
X-99212Y-5093716D01*
X-99974Y-5089855D01*
X-99974Y-904595D01*
X-99110Y-900430D01*
X-96520Y-896975D01*
X697128Y-202488D01*
X700227Y-200660D01*
X703834Y-199999D01*
X3289808Y-199999D01*
X3293719Y-200761D01*
X3297021Y-202996D01*
X3299206Y-206248D01*
X3300018Y-210159D01*
X3300018Y-989837D01*
X3299206Y-993749D01*
X3297021Y-997000D01*
X3293719Y-999236D01*
X3289808Y-999998D01*
X1901037Y-999998D01*
X1900021Y-1001014D01*
X1924964Y-4419803D01*
X1924456Y-4422952D01*
X1923034Y-4425797D01*
X1920798Y-4428083D01*
X1002690Y-5098034D01*
X999845Y-5099507D01*
X996696Y-5100015D01*
G37*

%LPD*%
D10*
X2724988Y-4499990D02*
G01*
X2549994Y-4499990D01*
X2349995Y-4299991D01*
D11*
X3099991Y-4099991D02*
G01*
X2950006Y-4099991D01*
X2750007Y-3899992D01*
D12*
G01*
X4299965Y-5074920D03*
G01*
X4499965Y-5074920D03*
G01*
X4699965Y-5074920D03*
G01*
X4899964Y-5074920D03*
D13*
G01*
X2875000Y-5796000D03*
G01*
X2875000Y-6050000D03*
D14*
G01*
X2875000Y-6304000D03*
D13*
G01*
X3274999Y-5796000D03*
G01*
X3274999Y-6050000D03*
D14*
G01*
X3274999Y-6304000D03*
D13*
G01*
X4474997Y-5796000D03*
G01*
X4474997Y-6050000D03*
D14*
G01*
X4474997Y-6304000D03*
D13*
G01*
X4874996Y-5796000D03*
G01*
X4874996Y-6050000D03*
D14*
G01*
X4874996Y-6304000D03*
D13*
G01*
X3674999Y-5796000D03*
G01*
X3674999Y-6050000D03*
D14*
G01*
X3674999Y-6304000D03*
D13*
G01*
X4074998Y-5796000D03*
G01*
X4074998Y-6050000D03*
D14*
G01*
X4074998Y-6304000D03*
D13*
G01*
X1626996Y-6299987D03*
D12*
G01*
X3399993Y-4499990D03*
G01*
X3599992Y-4499990D03*
G01*
X3799992Y-4499990D03*
G01*
X3999991Y-4499990D03*
D13*
G01*
X724992Y-5999987D03*
G01*
X474979Y-5999987D03*
D12*
G01*
X2499995Y-5074996D03*
G01*
X2699994Y-5074996D03*
G01*
X2899994Y-5074996D03*
G01*
X3099993Y-5074996D03*
D13*
G01*
X2326995Y-6299987D03*
G01*
X5399989Y-5796000D03*
G01*
X5399989Y-6050000D03*
D14*
G01*
X5399989Y-6304000D03*
D13*
G01*
X5799988Y-5796000D03*
G01*
X5799988Y-6050000D03*
D14*
G01*
X5799988Y-6304000D03*
D13*
G01*
X6199987Y-5796000D03*
G01*
X6199987Y-6050000D03*
D14*
G01*
X6199987Y-6304000D03*
D13*
G01*
X6599986Y-5796000D03*
G01*
X6599986Y-6050000D03*
D14*
G01*
X6599986Y-6304000D03*
D15*
G01*
X3981399Y-3192906D03*
G01*
X3981399Y-3292906D03*
G01*
X3981399Y-3092907D03*
G01*
X4056405Y-2992907D03*
G01*
X2556383Y-3167887D03*
G01*
X3899992Y-399999D03*
G01*
X4099991Y-399999D03*
G01*
X4299991Y-399999D03*
G01*
X4299991Y-599998D03*
G01*
X4099991Y-599998D03*
G01*
X3899992Y-599998D03*
G01*
X3899992Y-799998D03*
G01*
X4099991Y-799998D03*
G01*
X4299991Y-799998D03*
G01*
X2750007Y-3899992D03*
G01*
X3099993Y-4099991D03*
G01*
X2350008Y-4299991D03*
G01*
X2724988Y-4499990D03*
G01*
X3350006Y-1699996D03*
G01*
X3350006Y-1799996D03*
G01*
X3999991Y-1624990D03*
G01*
X3999991Y-1775002D03*
G01*
X3999991Y-1924989D03*
G01*
X2699994Y-399999D03*
G01*
X2899994Y-399999D03*
G01*
X3099993Y-399999D03*
G01*
X3099993Y-599998D03*
G01*
X2899994Y-599998D03*
G01*
X2699994Y-599998D03*
G01*
X2699994Y-799998D03*
G01*
X2899994Y-799998D03*
G01*
X3099993Y-799998D03*
G01*
X250012Y-950010D03*
G01*
X550011Y-950010D03*
G01*
X250012Y-1250010D03*
G01*
X550011Y-1250010D03*
G01*
X399999Y-1099997D03*
G01*
X399999Y-2299995D03*
G01*
X550011Y-2450007D03*
G01*
X250012Y-2450007D03*
G01*
X550011Y-2150008D03*
G01*
X250012Y-2150008D03*
G01*
X399999Y-3499993D03*
G01*
X550011Y-3650005D03*
G01*
X250012Y-3650005D03*
G01*
X550011Y-3350005D03*
G01*
X250012Y-3350005D03*
G01*
X399999Y-4699990D03*
G01*
X550011Y-4850003D03*
G01*
X250012Y-4850003D03*
G01*
X550011Y-4550003D03*
G01*
X250012Y-4550003D03*
G01*
X6549999Y-950010D03*
G01*
X6849999Y-950010D03*
G01*
X6849999Y-1250010D03*
G01*
X6549999Y-1250010D03*
G01*
X6699986Y-1099997D03*
G01*
X6699986Y-2299995D03*
G01*
X6549999Y-2450007D03*
G01*
X6849999Y-2450007D03*
G01*
X6849999Y-2150008D03*
G01*
X6549999Y-2150008D03*
G01*
X6699986Y-3499993D03*
G01*
X6549999Y-3650005D03*
G01*
X6849999Y-3650005D03*
G01*
X6849999Y-3350005D03*
G01*
X6549999Y-3350005D03*
G01*
X6699986Y-4699990D03*
G01*
X6549999Y-4850003D03*
G01*
X6849999Y-4850003D03*
G01*
X6849999Y-4550003D03*
G01*
X6549999Y-4550003D03*
G01*
X4681296Y-281304D03*
G01*
X4681296Y-581304D03*
G01*
X4681296Y-881303D03*
G01*
X4681296Y-1181303D03*
G01*
X4981295Y-281304D03*
G01*
X4981295Y-581304D03*
G01*
X4981295Y-881303D03*
G01*
X4981295Y-1181303D03*
G01*
X4981295Y-1481302D03*
G01*
X5281295Y-281304D03*
G01*
X5281295Y-581304D03*
G01*
X5281295Y-881303D03*
G01*
X5281295Y-1181303D03*
G01*
X5281295Y-1481302D03*
G01*
X5281295Y-1781302D03*
G01*
X5281295Y-2081301D03*
G01*
X5281295Y-2381300D03*
G01*
X5281295Y-2681300D03*
G01*
X5281295Y-2981299D03*
G01*
X5281295Y-3281298D03*
G01*
X5281295Y-3581298D03*
G01*
X5281295Y-3881297D03*
G01*
X5281295Y-4181297D03*
G01*
X5281295Y-4481296D03*
G01*
X5581294Y-281304D03*
G01*
X5581294Y-581304D03*
G01*
X5581294Y-881303D03*
G01*
X5581294Y-1181303D03*
G01*
X5581294Y-1481302D03*
G01*
X5581294Y-1781302D03*
G01*
X5581294Y-2081301D03*
G01*
X5581294Y-2381300D03*
G01*
X5581294Y-2681300D03*
G01*
X5581294Y-2981299D03*
G01*
X5581294Y-3281298D03*
G01*
X5581294Y-3581298D03*
G01*
X5581294Y-3881297D03*
G01*
X5581294Y-4181297D03*
G01*
X5581294Y-4481296D03*
G01*
X5581294Y-4781295D03*
G01*
X5881293Y-281304D03*
G01*
X5881293Y-581304D03*
G01*
X5881293Y-881303D03*
G01*
X5881293Y-1181303D03*
G01*
X5881293Y-1481302D03*
G01*
X5881293Y-1781302D03*
G01*
X5881293Y-2081301D03*
G01*
X5881293Y-2381300D03*
G01*
X5881293Y-2681300D03*
G01*
X5881293Y-2981299D03*
G01*
X5881293Y-3281298D03*
G01*
X5881293Y-3581298D03*
G01*
X5881293Y-3881297D03*
G01*
X5881293Y-4181297D03*
G01*
X5881293Y-4481296D03*
G01*
X5881293Y-4781295D03*
G01*
X6181293Y-281304D03*
G01*
X6181293Y-581304D03*
G01*
X6181293Y-881303D03*
G01*
X6181293Y-1181303D03*
G01*
X6181293Y-1481302D03*
G01*
X6181293Y-1781302D03*
G01*
X6181293Y-2081301D03*
G01*
X6181293Y-2381300D03*
G01*
X6181293Y-2681300D03*
G01*
X6181293Y-2981299D03*
G01*
X6181293Y-3281298D03*
G01*
X6181293Y-3581298D03*
G01*
X6181293Y-3881297D03*
G01*
X6181293Y-4181297D03*
G01*
X6181293Y-4481296D03*
G01*
X6181293Y-4781295D03*
G01*
X6481292Y-281304D03*
G01*
X6481292Y-581304D03*
G01*
X6481292Y-1481302D03*
G01*
X6481292Y-1781302D03*
G01*
X6481292Y-2681300D03*
G01*
X6481292Y-2981299D03*
G01*
X6481292Y-3881297D03*
G01*
X6481292Y-4181297D03*
G01*
X6781291Y-581304D03*
G01*
X6781291Y-1481302D03*
G01*
X6781291Y-1781302D03*
G01*
X6781291Y-2681300D03*
G01*
X6781291Y-2981299D03*
G01*
X6781291Y-3881297D03*
G01*
X6781291Y-4181297D03*
G01*
X7081291Y-881303D03*
G01*
X7081291Y-1181303D03*
G01*
X7081291Y-1481302D03*
G01*
X7081291Y-1781302D03*
G01*
X7081291Y-2081301D03*
G01*
X7081291Y-2381300D03*
G01*
X7081291Y-2681300D03*
G01*
X7081291Y-2981299D03*
G01*
X7081291Y-3281298D03*
G01*
X7081291Y-3581298D03*
G01*
X7081291Y-3881297D03*
G01*
X7081291Y-4181297D03*
G01*
X7081291Y-4481296D03*
G01*
X7081291Y-4781295D03*
G01*
X-18694Y-1181303D03*
G01*
X-18694Y-1481302D03*
G01*
X-18694Y-1781302D03*
G01*
X-18694Y-2081301D03*
G01*
X-18694Y-2381300D03*
G01*
X-18694Y-2681300D03*
G01*
X-18694Y-2981299D03*
G01*
X-18694Y-3281298D03*
G01*
X-18694Y-3581298D03*
G01*
X-18694Y-3881297D03*
G01*
X-18694Y-4181297D03*
G01*
X-18694Y-4481296D03*
G01*
X-18694Y-4781295D03*
G01*
X281304Y-1481302D03*
G01*
X281304Y-1781302D03*
G01*
X281304Y-2681300D03*
G01*
X281304Y-2981299D03*
G01*
X281304Y-3881297D03*
G01*
X281304Y-4181297D03*
G01*
X581304Y-581304D03*
G01*
X581304Y-1481302D03*
G01*
X581304Y-1781302D03*
G01*
X581304Y-2681300D03*
G01*
X581304Y-2981299D03*
G01*
X581304Y-3881297D03*
G01*
X581304Y-4181297D03*
G01*
X881303Y-281304D03*
G01*
X881303Y-581304D03*
G01*
X881303Y-881303D03*
G01*
X881303Y-1181303D03*
G01*
X881303Y-1481302D03*
G01*
X881303Y-1781302D03*
G01*
X881303Y-2081301D03*
G01*
X881303Y-2381300D03*
G01*
X881303Y-2681300D03*
G01*
X881303Y-2981299D03*
G01*
X881303Y-3281298D03*
G01*
X881303Y-3581298D03*
G01*
X881303Y-3881297D03*
G01*
X881303Y-4181297D03*
G01*
X881303Y-4481296D03*
G01*
X881303Y-4781295D03*
G01*
X1181303Y-281304D03*
G01*
X1181303Y-581304D03*
G01*
X1181303Y-881303D03*
G01*
X1181303Y-1181303D03*
G01*
X1181303Y-1481302D03*
G01*
X1181303Y-1781302D03*
G01*
X1181303Y-2081301D03*
G01*
X1181303Y-2381300D03*
G01*
X1181303Y-2681300D03*
G01*
X1181303Y-2981299D03*
G01*
X1181303Y-3281298D03*
G01*
X1181303Y-3581298D03*
G01*
X1181303Y-3881297D03*
G01*
X1181303Y-4181297D03*
G01*
X1181303Y-4481296D03*
G01*
X1181303Y-4781295D03*
G01*
X1481302Y-281304D03*
G01*
X1481302Y-581304D03*
G01*
X1481302Y-881303D03*
G01*
X1481302Y-1181303D03*
G01*
X1481302Y-1481302D03*
G01*
X1481302Y-1781302D03*
G01*
X1481302Y-2081301D03*
G01*
X1481302Y-2381300D03*
G01*
X1481302Y-2681300D03*
G01*
X1481302Y-2981299D03*
G01*
X1481302Y-3281298D03*
G01*
X1481302Y-3581298D03*
G01*
X1481302Y-3881297D03*
G01*
X1481302Y-4181297D03*
G01*
X1481302Y-4481296D03*
G01*
X1781302Y-281304D03*
G01*
X1781302Y-581304D03*
G01*
X1781302Y-881303D03*
G01*
X1781302Y-1181303D03*
G01*
X1781302Y-1481302D03*
G01*
X1781302Y-1781302D03*
G01*
X1781302Y-2081301D03*
G01*
X1781302Y-2381300D03*
G01*
X1781302Y-2681300D03*
G01*
X1781302Y-2981299D03*
G01*
X1781302Y-3281298D03*
G01*
X1781302Y-3581298D03*
G01*
X1781302Y-3881297D03*
G01*
X1781302Y-4181297D03*
G01*
X2081301Y-281304D03*
G01*
X2081301Y-581304D03*
G01*
X2081301Y-881303D03*
G01*
X2381300Y-281304D03*
G01*
X2381300Y-581304D03*
G01*
X2381300Y-881303D03*
G01*
X1850009Y-5099989D03*
G01*
X1850009Y-5274995D03*
G01*
X1850009Y-5474995D03*
G01*
X1850009Y-5674995D03*
G01*
X1850009Y-5874994D03*
M02*
