G04 Layer: TopSilkscreenLayer*
G04 EasyEDA v6.5.40, 2024-05-01 13:46:42*
G04 7703e67730494ffebf129c6139567d94,10*
G04 Gerber Generator version 0.2*
G04 Scale: 100 percent, Rotated: No, Reflected: No *
G04 Dimensions in millimeters *
G04 leading zeros omitted , absolute positions ,4 integer and 5 decimal *
%FSLAX45Y45*%
%MOMM*%

%ADD10C,0.2032*%
%ADD11C,0.2000*%
%ADD12C,0.4000*%
%ADD13C,0.4100*%
%ADD14C,0.1524*%
%ADD15C,0.1500*%
%ADD16C,0.2540*%
%ADD17C,0.2030*%
%ADD18C,0.0101*%

%LPD*%
D10*
X2438112Y-6501876D02*
G01*
X2433540Y-6492732D01*
X2424650Y-6483588D01*
X2415506Y-6479016D01*
X2397218Y-6479016D01*
X2388074Y-6483588D01*
X2379184Y-6492732D01*
X2374612Y-6501876D01*
X2370040Y-6515338D01*
X2370040Y-6538198D01*
X2374612Y-6551914D01*
X2379184Y-6560804D01*
X2388074Y-6569948D01*
X2397218Y-6574520D01*
X2415506Y-6574520D01*
X2424650Y-6569948D01*
X2433540Y-6560804D01*
X2438112Y-6551914D01*
X2438112Y-6538198D01*
X2415506Y-6538198D02*
G01*
X2438112Y-6538198D01*
X2468084Y-6479016D02*
G01*
X2468084Y-6574520D01*
X2468084Y-6479016D02*
G01*
X2531838Y-6574520D01*
X2531838Y-6479016D02*
G01*
X2531838Y-6574520D01*
X2561810Y-6479016D02*
G01*
X2561810Y-6574520D01*
X2561810Y-6479016D02*
G01*
X2593560Y-6479016D01*
X2607276Y-6483588D01*
X2616420Y-6492732D01*
X2620992Y-6501876D01*
X2625564Y-6515338D01*
X2625564Y-6538198D01*
X2620992Y-6551914D01*
X2616420Y-6560804D01*
X2607276Y-6569948D01*
X2593560Y-6574520D01*
X2561810Y-6574520D01*
D11*
X1960890Y-6482661D02*
G01*
X1960890Y-6564449D01*
X1919996Y-6523555D02*
G01*
X2001784Y-6523555D01*
X2086366Y-6469199D02*
G01*
X2040900Y-6469199D01*
X2036328Y-6510093D01*
X2040900Y-6505521D01*
X2054616Y-6500949D01*
X2068078Y-6500949D01*
X2081794Y-6505521D01*
X2090938Y-6514411D01*
X2095510Y-6528127D01*
X2095510Y-6537271D01*
X2090938Y-6550987D01*
X2081794Y-6559877D01*
X2068078Y-6564449D01*
X2054616Y-6564449D01*
X2040900Y-6559877D01*
X2036328Y-6555559D01*
X2031756Y-6546415D01*
X2125482Y-6469199D02*
G01*
X2161804Y-6564449D01*
X2198126Y-6469199D02*
G01*
X2161804Y-6564449D01*
X599998Y-5498972D02*
G01*
X599998Y-5594477D01*
X599998Y-5498972D02*
G01*
X640892Y-5498972D01*
X654608Y-5503545D01*
X659180Y-5508117D01*
X663752Y-5517261D01*
X663752Y-5526404D01*
X659180Y-5535548D01*
X654608Y-5539867D01*
X640892Y-5544438D01*
X599998Y-5544438D02*
G01*
X640892Y-5544438D01*
X654608Y-5549011D01*
X659180Y-5553582D01*
X663752Y-5562727D01*
X663752Y-5576443D01*
X659180Y-5585332D01*
X654608Y-5589904D01*
X640892Y-5594477D01*
X599998Y-5594477D01*
X730046Y-5498972D02*
G01*
X693724Y-5594477D01*
X730046Y-5498972D02*
G01*
X766368Y-5594477D01*
X707186Y-5562727D02*
G01*
X752652Y-5562727D01*
X828090Y-5498972D02*
G01*
X828090Y-5594477D01*
X796340Y-5498972D02*
G01*
X860094Y-5498972D01*
X930960Y-5512688D02*
G01*
X930960Y-5594477D01*
X890066Y-5553582D02*
G01*
X971854Y-5553582D01*
X268122Y-5521883D02*
G01*
X263550Y-5512739D01*
X254660Y-5503595D01*
X245516Y-5499023D01*
X227228Y-5499023D01*
X218084Y-5503595D01*
X209194Y-5512739D01*
X204622Y-5521883D01*
X200050Y-5535345D01*
X200050Y-5558205D01*
X204622Y-5571921D01*
X209194Y-5580811D01*
X218084Y-5589955D01*
X227228Y-5594527D01*
X245516Y-5594527D01*
X254660Y-5589955D01*
X263550Y-5580811D01*
X268122Y-5571921D01*
X268122Y-5558205D01*
X245516Y-5558205D02*
G01*
X268122Y-5558205D01*
X298094Y-5499023D02*
G01*
X298094Y-5594527D01*
X298094Y-5499023D02*
G01*
X361848Y-5594527D01*
X361848Y-5499023D02*
G01*
X361848Y-5594527D01*
X391820Y-5499023D02*
G01*
X391820Y-5594527D01*
X391820Y-5499023D02*
G01*
X423570Y-5499023D01*
X437286Y-5503595D01*
X446430Y-5512739D01*
X451002Y-5521883D01*
X455574Y-5535345D01*
X455574Y-5558205D01*
X451002Y-5571921D01*
X446430Y-5580811D01*
X437286Y-5589955D01*
X423570Y-5594527D01*
X391820Y-5594527D01*
X1090071Y-6459034D02*
G01*
X1090071Y-6554538D01*
X1090071Y-6459034D02*
G01*
X1130965Y-6459034D01*
X1144427Y-6463606D01*
X1148999Y-6468178D01*
X1153571Y-6477322D01*
X1153571Y-6486212D01*
X1148999Y-6495356D01*
X1144427Y-6499928D01*
X1130965Y-6504500D01*
X1090071Y-6504500D02*
G01*
X1130965Y-6504500D01*
X1144427Y-6509072D01*
X1148999Y-6513644D01*
X1153571Y-6522788D01*
X1153571Y-6536250D01*
X1148999Y-6545394D01*
X1144427Y-6549966D01*
X1130965Y-6554538D01*
X1090071Y-6554538D01*
X1219865Y-6459034D02*
G01*
X1183543Y-6554538D01*
X1219865Y-6459034D02*
G01*
X1256441Y-6554538D01*
X1197259Y-6522788D02*
G01*
X1242725Y-6522788D01*
X1318163Y-6459034D02*
G01*
X1318163Y-6554538D01*
X1286413Y-6459034D02*
G01*
X1349913Y-6459034D01*
X1420779Y-6472750D02*
G01*
X1420779Y-6554538D01*
X1379885Y-6513644D02*
G01*
X1461927Y-6513644D01*
D10*
X1638129Y-6491874D02*
G01*
X1633557Y-6482725D01*
X1624665Y-6473583D01*
X1615523Y-6469009D01*
X1597233Y-6469009D01*
X1588089Y-6473583D01*
X1579199Y-6482725D01*
X1574629Y-6491874D01*
X1570057Y-6505333D01*
X1570057Y-6528191D01*
X1574629Y-6541907D01*
X1579199Y-6550799D01*
X1588089Y-6559941D01*
X1597233Y-6564515D01*
X1615523Y-6564515D01*
X1624665Y-6559941D01*
X1633557Y-6550799D01*
X1638129Y-6541907D01*
X1638129Y-6528191D01*
X1615523Y-6528191D02*
G01*
X1638129Y-6528191D01*
X1668099Y-6469009D02*
G01*
X1668099Y-6564515D01*
X1668099Y-6469009D02*
G01*
X1731855Y-6564515D01*
X1731855Y-6469009D02*
G01*
X1731855Y-6564515D01*
X1761825Y-6469009D02*
G01*
X1761825Y-6564515D01*
X1761825Y-6469009D02*
G01*
X1793575Y-6469009D01*
X1807291Y-6473583D01*
X1816437Y-6482725D01*
X1821007Y-6491874D01*
X1825581Y-6505333D01*
X1825581Y-6528191D01*
X1821007Y-6541907D01*
X1816437Y-6550799D01*
X1807291Y-6559941D01*
X1793575Y-6564515D01*
X1761825Y-6564515D01*
D12*
X6099942Y-2207348D02*
G01*
X6263518Y-2207348D01*
X6099942Y-4607344D02*
G01*
X6263513Y-4607344D01*
X6099942Y-1007351D02*
G01*
X6263510Y-1007351D01*
X6099942Y-3407346D02*
G01*
X6263523Y-3407346D01*
X1031727Y-925418D02*
G01*
X1031727Y-1088994D01*
X949939Y-1007206D02*
G01*
X1113515Y-1007206D01*
X1031747Y-2175405D02*
G01*
X1031747Y-2338981D01*
X949960Y-2257191D02*
G01*
X1113536Y-2257191D01*
X1031727Y-3325413D02*
G01*
X1031727Y-3488989D01*
X949939Y-3407201D02*
G01*
X1113515Y-3407201D01*
D13*
X1031727Y-4575411D02*
G01*
X1031727Y-4738987D01*
X949939Y-4657199D02*
G01*
X1113515Y-4657199D01*
D12*
X3249942Y-1301783D02*
G01*
X3249942Y-1111029D01*
X3249942Y-1301783D02*
G01*
X3168154Y-1301783D01*
X3140976Y-1292639D01*
X3131832Y-1283749D01*
X3122688Y-1265461D01*
X3122688Y-1247173D01*
X3131832Y-1229139D01*
X3140976Y-1219995D01*
X3168154Y-1210851D01*
X3249942Y-1210851D02*
G01*
X3168154Y-1210851D01*
X3140976Y-1201707D01*
X3131832Y-1192817D01*
X3122688Y-1174529D01*
X3122688Y-1147351D01*
X3131832Y-1129063D01*
X3140976Y-1119919D01*
X3168154Y-1111029D01*
X3249942Y-1111029D01*
X2990100Y-1301783D02*
G01*
X3062744Y-1111029D01*
X2990100Y-1301783D02*
G01*
X2917202Y-1111029D01*
X3035566Y-1174529D02*
G01*
X2944634Y-1174529D01*
X2793504Y-1301783D02*
G01*
X2793504Y-1111029D01*
X2857258Y-1301783D02*
G01*
X2730004Y-1301783D01*
X2588272Y-1274605D02*
G01*
X2588272Y-1111029D01*
X2670060Y-1192817D02*
G01*
X2506484Y-1192817D01*
X4300042Y-1301750D02*
G01*
X4300042Y-1110995D01*
X4300042Y-1301750D02*
G01*
X4218254Y-1301750D01*
X4190822Y-1292605D01*
X4181932Y-1283715D01*
X4172788Y-1265428D01*
X4172788Y-1247394D01*
X4181932Y-1229105D01*
X4190822Y-1219962D01*
X4218254Y-1210818D01*
X4300042Y-1210818D02*
G01*
X4218254Y-1210818D01*
X4190822Y-1201928D01*
X4181932Y-1192784D01*
X4172788Y-1174495D01*
X4172788Y-1147318D01*
X4181932Y-1129029D01*
X4190822Y-1119886D01*
X4218254Y-1110995D01*
X4300042Y-1110995D01*
X4039946Y-1301750D02*
G01*
X4112844Y-1110995D01*
X4039946Y-1301750D02*
G01*
X3967302Y-1110995D01*
X4085412Y-1174495D02*
G01*
X3994480Y-1174495D01*
X3843604Y-1301750D02*
G01*
X3843604Y-1110995D01*
X3907358Y-1301750D02*
G01*
X3780104Y-1301750D01*
X3719906Y-1192784D02*
G01*
X3556330Y-1192784D01*
D11*
X2443708Y-2679981D02*
G01*
X2539212Y-2679981D01*
X2539212Y-2679981D02*
G01*
X2539212Y-2625371D01*
X2457424Y-2531645D02*
G01*
X2448280Y-2540789D01*
X2443708Y-2554505D01*
X2443708Y-2572539D01*
X2448280Y-2586255D01*
X2457424Y-2595399D01*
X2466314Y-2595399D01*
X2475458Y-2590827D01*
X2480030Y-2586255D01*
X2484602Y-2577111D01*
X2493746Y-2549933D01*
X2498318Y-2540789D01*
X2502890Y-2536217D01*
X2511780Y-2531645D01*
X2525496Y-2531645D01*
X2534640Y-2540789D01*
X2539212Y-2554505D01*
X2539212Y-2572539D01*
X2534640Y-2586255D01*
X2525496Y-2595399D01*
X2443708Y-2501673D02*
G01*
X2539212Y-2479067D01*
X2443708Y-2456207D02*
G01*
X2539212Y-2479067D01*
X2443708Y-2456207D02*
G01*
X2539212Y-2433601D01*
X2443708Y-2410741D02*
G01*
X2539212Y-2433601D01*
X2443708Y-2380769D02*
G01*
X2539212Y-2380769D01*
X2443708Y-2380769D02*
G01*
X2443708Y-2339875D01*
X2448280Y-2326159D01*
X2452852Y-2321587D01*
X2461742Y-2317269D01*
X2470886Y-2317269D01*
X2480030Y-2321587D01*
X2484602Y-2326159D01*
X2489174Y-2339875D01*
X2489174Y-2380769D01*
X2489174Y-2349019D02*
G01*
X2539212Y-2317269D01*
X1638185Y-4861702D02*
G01*
X1633613Y-4852812D01*
X1624469Y-4843668D01*
X1615325Y-4839096D01*
X1597291Y-4839096D01*
X1588147Y-4843668D01*
X1579003Y-4852812D01*
X1574431Y-4861702D01*
X1570113Y-4875418D01*
X1570113Y-4898278D01*
X1574431Y-4911740D01*
X1579003Y-4920884D01*
X1588147Y-4930028D01*
X1597291Y-4934600D01*
X1615325Y-4934600D01*
X1624469Y-4930028D01*
X1633613Y-4920884D01*
X1638185Y-4911740D01*
X1713623Y-4839096D02*
G01*
X1668157Y-4902850D01*
X1736229Y-4902850D01*
X1713623Y-4839096D02*
G01*
X1713623Y-4934600D01*
X1834527Y-4861702D02*
G01*
X1829955Y-4852812D01*
X1820811Y-4843668D01*
X1811921Y-4839096D01*
X1793633Y-4839096D01*
X1784489Y-4843668D01*
X1775345Y-4852812D01*
X1770773Y-4861702D01*
X1766455Y-4875418D01*
X1766455Y-4898278D01*
X1770773Y-4911740D01*
X1775345Y-4920884D01*
X1784489Y-4930028D01*
X1793633Y-4934600D01*
X1811921Y-4934600D01*
X1820811Y-4930028D01*
X1829955Y-4920884D01*
X1834527Y-4911740D01*
X1864499Y-4839096D02*
G01*
X1864499Y-4934600D01*
X1864499Y-4839096D02*
G01*
X1900821Y-4934600D01*
X1937143Y-4839096D02*
G01*
X1900821Y-4934600D01*
X1937143Y-4839096D02*
G01*
X1937143Y-4934600D01*
X1967369Y-4839096D02*
G01*
X1967369Y-4934600D01*
X1967369Y-4839096D02*
G01*
X2008263Y-4839096D01*
X2021725Y-4843668D01*
X2026297Y-4848240D01*
X2030869Y-4857384D01*
X2030869Y-4866274D01*
X2026297Y-4875418D01*
X2021725Y-4879990D01*
X2008263Y-4884562D01*
X1967369Y-4884562D01*
X1999119Y-4884562D02*
G01*
X2030869Y-4934600D01*
X2299047Y-3549937D02*
G01*
X2394551Y-3549937D01*
X2394551Y-3549937D02*
G01*
X2394551Y-3495327D01*
X2299047Y-3465355D02*
G01*
X2394551Y-3465355D01*
X2299047Y-3465355D02*
G01*
X2299047Y-3406427D01*
X2344513Y-3465355D02*
G01*
X2344513Y-3429033D01*
X2394551Y-3465355D02*
G01*
X2394551Y-3406427D01*
X2299047Y-3376455D02*
G01*
X2394551Y-3376455D01*
X2299047Y-3376455D02*
G01*
X2299047Y-3344451D01*
X2303619Y-3330989D01*
X2312763Y-3321845D01*
X2321907Y-3317273D01*
X2335369Y-3312701D01*
X2358229Y-3312701D01*
X2371691Y-3317273D01*
X2380835Y-3321845D01*
X2389979Y-3330989D01*
X2394551Y-3344451D01*
X2394551Y-3376455D01*
X4275068Y-4624077D02*
G01*
X4275068Y-4719581D01*
X4275068Y-4624077D02*
G01*
X4333996Y-4624077D01*
X4275068Y-4669543D02*
G01*
X4311390Y-4669543D01*
X4275068Y-4719581D02*
G01*
X4333996Y-4719581D01*
X4427722Y-4637793D02*
G01*
X4418578Y-4628649D01*
X4405116Y-4624077D01*
X4386828Y-4624077D01*
X4373112Y-4628649D01*
X4363968Y-4637793D01*
X4363968Y-4646683D01*
X4368540Y-4655827D01*
X4373112Y-4660399D01*
X4382256Y-4664971D01*
X4409434Y-4674115D01*
X4418578Y-4678687D01*
X4423150Y-4683259D01*
X4427722Y-4692149D01*
X4427722Y-4705865D01*
X4418578Y-4715009D01*
X4405116Y-4719581D01*
X4386828Y-4719581D01*
X4373112Y-4715009D01*
X4363968Y-4705865D01*
X4457694Y-4624077D02*
G01*
X4457694Y-4719581D01*
X4457694Y-4624077D02*
G01*
X4498588Y-4624077D01*
X4512304Y-4628649D01*
X4516876Y-4633221D01*
X4521448Y-4642365D01*
X4521448Y-4651255D01*
X4516876Y-4660399D01*
X4512304Y-4664971D01*
X4498588Y-4669543D01*
X4457694Y-4669543D01*
X4489444Y-4669543D02*
G01*
X4521448Y-4719581D01*
X4551420Y-4624077D02*
G01*
X4587742Y-4719581D01*
X4624064Y-4624077D02*
G01*
X4587742Y-4719581D01*
X4654036Y-4751331D02*
G01*
X4735824Y-4751331D01*
X4765796Y-4624077D02*
G01*
X4765796Y-4719581D01*
X4765796Y-4624077D02*
G01*
X4806690Y-4624077D01*
X4820406Y-4628649D01*
X4824978Y-4633221D01*
X4829550Y-4642365D01*
X4829550Y-4655827D01*
X4824978Y-4664971D01*
X4820406Y-4669543D01*
X4806690Y-4674115D01*
X4765796Y-4674115D01*
X4859522Y-4624077D02*
G01*
X4882382Y-4719581D01*
X4904988Y-4624077D02*
G01*
X4882382Y-4719581D01*
X4904988Y-4624077D02*
G01*
X4927594Y-4719581D01*
X4950454Y-4624077D02*
G01*
X4927594Y-4719581D01*
X4980426Y-4624077D02*
G01*
X4980426Y-4719581D01*
X4980426Y-4624077D02*
G01*
X5016748Y-4719581D01*
X5053070Y-4624077D02*
G01*
X5016748Y-4719581D01*
X5053070Y-4624077D02*
G01*
X5053070Y-4719581D01*
X2038095Y-5841674D02*
G01*
X2033524Y-5832784D01*
X2024634Y-5823640D01*
X2015490Y-5819068D01*
X1997202Y-5819068D01*
X1988058Y-5823640D01*
X1979168Y-5832784D01*
X1974595Y-5841674D01*
X1970024Y-5855390D01*
X1970024Y-5878250D01*
X1974595Y-5891712D01*
X1979168Y-5900856D01*
X1988058Y-5910000D01*
X1997202Y-5914572D01*
X2015490Y-5914572D01*
X2024634Y-5910000D01*
X2033524Y-5900856D01*
X2038095Y-5891712D01*
X2068068Y-5837356D02*
G01*
X2077211Y-5832784D01*
X2090927Y-5819068D01*
X2090927Y-5914572D01*
X2188972Y-5841674D02*
G01*
X2184654Y-5832784D01*
X2175509Y-5823640D01*
X2166365Y-5819068D01*
X2148077Y-5819068D01*
X2139188Y-5823640D01*
X2130043Y-5832784D01*
X2125472Y-5841674D01*
X2120900Y-5855390D01*
X2120900Y-5878250D01*
X2125472Y-5891712D01*
X2130043Y-5900856D01*
X2139188Y-5910000D01*
X2148077Y-5914572D01*
X2166365Y-5914572D01*
X2175509Y-5910000D01*
X2184654Y-5900856D01*
X2188972Y-5891712D01*
X2219197Y-5819068D02*
G01*
X2219197Y-5914572D01*
X2219197Y-5819068D02*
G01*
X2255520Y-5914572D01*
X2291841Y-5819068D02*
G01*
X2255520Y-5914572D01*
X2291841Y-5819068D02*
G01*
X2291841Y-5914572D01*
X2321813Y-5819068D02*
G01*
X2321813Y-5914572D01*
X2321813Y-5819068D02*
G01*
X2362708Y-5819068D01*
X2376424Y-5823640D01*
X2380995Y-5828212D01*
X2385568Y-5837356D01*
X2385568Y-5846246D01*
X2380995Y-5855390D01*
X2376424Y-5859962D01*
X2362708Y-5864534D01*
X2321813Y-5864534D01*
X2353563Y-5864534D02*
G01*
X2385568Y-5914572D01*
X2038083Y-5571688D02*
G01*
X2033511Y-5562798D01*
X2024621Y-5553654D01*
X2015477Y-5549082D01*
X1997189Y-5549082D01*
X1988045Y-5553654D01*
X1979155Y-5562798D01*
X1974583Y-5571688D01*
X1970011Y-5585404D01*
X1970011Y-5608264D01*
X1974583Y-5621726D01*
X1979155Y-5630870D01*
X1988045Y-5640014D01*
X1997189Y-5644586D01*
X2015477Y-5644586D01*
X2024621Y-5640014D01*
X2033511Y-5630870D01*
X2038083Y-5621726D01*
X2072627Y-5571688D02*
G01*
X2072627Y-5567370D01*
X2077199Y-5558226D01*
X2081771Y-5553654D01*
X2090915Y-5549082D01*
X2109203Y-5549082D01*
X2118093Y-5553654D01*
X2122665Y-5558226D01*
X2127237Y-5567370D01*
X2127237Y-5576260D01*
X2122665Y-5585404D01*
X2113521Y-5599120D01*
X2068055Y-5644586D01*
X2131809Y-5644586D01*
X2230107Y-5571688D02*
G01*
X2225535Y-5562798D01*
X2216391Y-5553654D01*
X2207247Y-5549082D01*
X2188959Y-5549082D01*
X2180069Y-5553654D01*
X2170925Y-5562798D01*
X2166353Y-5571688D01*
X2161781Y-5585404D01*
X2161781Y-5608264D01*
X2166353Y-5621726D01*
X2170925Y-5630870D01*
X2180069Y-5640014D01*
X2188959Y-5644586D01*
X2207247Y-5644586D01*
X2216391Y-5640014D01*
X2225535Y-5630870D01*
X2230107Y-5621726D01*
X2260079Y-5549082D02*
G01*
X2260079Y-5644586D01*
X2260079Y-5549082D02*
G01*
X2296401Y-5644586D01*
X2332723Y-5549082D02*
G01*
X2296401Y-5644586D01*
X2332723Y-5549082D02*
G01*
X2332723Y-5644586D01*
X2362695Y-5549082D02*
G01*
X2362695Y-5644586D01*
X2362695Y-5549082D02*
G01*
X2403589Y-5549082D01*
X2417305Y-5553654D01*
X2421877Y-5558226D01*
X2426449Y-5567370D01*
X2426449Y-5576260D01*
X2421877Y-5585404D01*
X2417305Y-5589976D01*
X2403589Y-5594548D01*
X2362695Y-5594548D01*
X2394445Y-5594548D02*
G01*
X2426449Y-5644586D01*
X2008083Y-5341711D02*
G01*
X2003511Y-5332821D01*
X1994621Y-5323677D01*
X1985477Y-5319105D01*
X1967189Y-5319105D01*
X1958045Y-5323677D01*
X1949155Y-5332821D01*
X1944583Y-5341711D01*
X1940011Y-5355427D01*
X1940011Y-5378033D01*
X1944583Y-5391749D01*
X1949155Y-5400893D01*
X1958045Y-5410037D01*
X1967189Y-5414609D01*
X1985477Y-5414609D01*
X1994621Y-5410037D01*
X2003511Y-5400893D01*
X2008083Y-5391749D01*
X2047199Y-5319105D02*
G01*
X2097237Y-5319105D01*
X2070059Y-5355427D01*
X2083521Y-5355427D01*
X2092665Y-5359999D01*
X2097237Y-5364571D01*
X2101809Y-5378033D01*
X2101809Y-5387177D01*
X2097237Y-5400893D01*
X2088093Y-5410037D01*
X2074631Y-5414609D01*
X2060915Y-5414609D01*
X2047199Y-5410037D01*
X2042627Y-5405465D01*
X2038055Y-5396321D01*
X2200107Y-5341711D02*
G01*
X2195535Y-5332821D01*
X2186391Y-5323677D01*
X2177247Y-5319105D01*
X2158959Y-5319105D01*
X2150069Y-5323677D01*
X2140925Y-5332821D01*
X2136353Y-5341711D01*
X2131781Y-5355427D01*
X2131781Y-5378033D01*
X2136353Y-5391749D01*
X2140925Y-5400893D01*
X2150069Y-5410037D01*
X2158959Y-5414609D01*
X2177247Y-5414609D01*
X2186391Y-5410037D01*
X2195535Y-5400893D01*
X2200107Y-5391749D01*
X2230079Y-5319105D02*
G01*
X2230079Y-5414609D01*
X2230079Y-5319105D02*
G01*
X2266401Y-5414609D01*
X2302723Y-5319105D02*
G01*
X2266401Y-5414609D01*
X2302723Y-5319105D02*
G01*
X2302723Y-5414609D01*
X2332695Y-5319105D02*
G01*
X2332695Y-5414609D01*
X2332695Y-5319105D02*
G01*
X2373589Y-5319105D01*
X2387305Y-5323677D01*
X2391877Y-5328249D01*
X2396449Y-5337139D01*
X2396449Y-5346283D01*
X2391877Y-5355427D01*
X2387305Y-5359999D01*
X2373589Y-5364571D01*
X2332695Y-5364571D01*
X2364445Y-5364571D02*
G01*
X2396449Y-5414609D01*
X3053087Y-2449647D02*
G01*
X3044197Y-2454219D01*
X3035053Y-2463363D01*
X3030481Y-2472507D01*
X3030481Y-2490541D01*
X3035053Y-2499685D01*
X3044197Y-2508829D01*
X3053087Y-2513401D01*
X3066803Y-2517973D01*
X3089663Y-2517973D01*
X3103125Y-2513401D01*
X3112269Y-2508829D01*
X3121413Y-2499685D01*
X3125985Y-2490541D01*
X3125985Y-2472507D01*
X3121413Y-2463363D01*
X3112269Y-2454219D01*
X3103125Y-2449647D01*
X3053087Y-2415103D02*
G01*
X3048769Y-2415103D01*
X3039625Y-2410531D01*
X3035053Y-2405959D01*
X3030481Y-2397069D01*
X3030481Y-2378781D01*
X3035053Y-2369637D01*
X3039625Y-2365065D01*
X3048769Y-2360747D01*
X3057659Y-2360747D01*
X3066803Y-2365065D01*
X3080519Y-2374209D01*
X3125985Y-2419675D01*
X3125985Y-2356175D01*
X3044197Y-2262449D02*
G01*
X3035053Y-2271593D01*
X3030481Y-2285055D01*
X3030481Y-2303343D01*
X3035053Y-2317059D01*
X3044197Y-2326203D01*
X3053087Y-2326203D01*
X3062231Y-2321631D01*
X3066803Y-2317059D01*
X3071375Y-2307915D01*
X3080519Y-2280737D01*
X3085091Y-2271593D01*
X3089663Y-2267021D01*
X3098553Y-2262449D01*
X3112269Y-2262449D01*
X3121413Y-2271593D01*
X3125985Y-2285055D01*
X3125985Y-2303343D01*
X3121413Y-2317059D01*
X3112269Y-2326203D01*
X3030481Y-2232477D02*
G01*
X3125985Y-2209617D01*
X3030481Y-2187011D02*
G01*
X3125985Y-2209617D01*
X3030481Y-2187011D02*
G01*
X3125985Y-2164151D01*
X3030481Y-2141545D02*
G01*
X3125985Y-2164151D01*
X3030481Y-2111573D02*
G01*
X3125985Y-2111573D01*
X3030481Y-2111573D02*
G01*
X3030481Y-2070679D01*
X3035053Y-2056963D01*
X3039625Y-2052391D01*
X3048769Y-2047819D01*
X3057659Y-2047819D01*
X3066803Y-2052391D01*
X3071375Y-2056963D01*
X3075947Y-2070679D01*
X3075947Y-2111573D01*
X3075947Y-2079823D02*
G01*
X3125985Y-2047819D01*
X3368159Y-3646690D02*
G01*
X3363587Y-3637800D01*
X3354443Y-3628656D01*
X3345553Y-3624084D01*
X3327265Y-3624084D01*
X3318121Y-3628656D01*
X3308977Y-3637800D01*
X3304405Y-3646690D01*
X3300087Y-3660406D01*
X3300087Y-3683266D01*
X3304405Y-3696728D01*
X3308977Y-3705872D01*
X3318121Y-3715016D01*
X3327265Y-3719588D01*
X3345553Y-3719588D01*
X3354443Y-3715016D01*
X3363587Y-3705872D01*
X3368159Y-3696728D01*
X3407275Y-3624084D02*
G01*
X3457313Y-3624084D01*
X3429881Y-3660406D01*
X3443597Y-3660406D01*
X3452741Y-3664978D01*
X3457313Y-3669550D01*
X3461885Y-3683266D01*
X3461885Y-3692156D01*
X3457313Y-3705872D01*
X3448169Y-3715016D01*
X3434453Y-3719588D01*
X3420991Y-3719588D01*
X3407275Y-3715016D01*
X3402703Y-3710444D01*
X3398131Y-3701300D01*
X3555357Y-3637800D02*
G01*
X3546467Y-3628656D01*
X3532751Y-3624084D01*
X3514463Y-3624084D01*
X3501001Y-3628656D01*
X3491857Y-3637800D01*
X3491857Y-3646690D01*
X3496429Y-3655834D01*
X3501001Y-3660406D01*
X3509891Y-3664978D01*
X3537323Y-3674122D01*
X3546467Y-3678694D01*
X3550785Y-3683266D01*
X3555357Y-3692156D01*
X3555357Y-3705872D01*
X3546467Y-3715016D01*
X3532751Y-3719588D01*
X3514463Y-3719588D01*
X3501001Y-3715016D01*
X3491857Y-3705872D01*
X3585329Y-3624084D02*
G01*
X3608189Y-3719588D01*
X3630795Y-3624084D02*
G01*
X3608189Y-3719588D01*
X3630795Y-3624084D02*
G01*
X3653655Y-3719588D01*
X3676261Y-3624084D02*
G01*
X3653655Y-3719588D01*
X3706233Y-3624084D02*
G01*
X3706233Y-3719588D01*
X3706233Y-3624084D02*
G01*
X3747381Y-3624084D01*
X3760843Y-3628656D01*
X3765415Y-3633228D01*
X3769987Y-3642372D01*
X3769987Y-3651262D01*
X3765415Y-3660406D01*
X3760843Y-3664978D01*
X3747381Y-3669550D01*
X3706233Y-3669550D01*
X3738237Y-3669550D02*
G01*
X3769987Y-3719588D01*
X2806420Y-1442059D02*
G01*
X2806420Y-1537563D01*
X2806420Y-1442059D02*
G01*
X2838170Y-1442059D01*
X2851886Y-1446631D01*
X2861030Y-1455521D01*
X2865602Y-1464665D01*
X2869920Y-1478381D01*
X2869920Y-1500987D01*
X2865602Y-1514703D01*
X2861030Y-1523847D01*
X2851886Y-1532991D01*
X2838170Y-1537563D01*
X2806420Y-1537563D01*
X2963646Y-1455521D02*
G01*
X2954502Y-1446631D01*
X2941040Y-1442059D01*
X2922752Y-1442059D01*
X2909036Y-1446631D01*
X2900146Y-1455521D01*
X2900146Y-1464665D01*
X2904464Y-1473809D01*
X2909036Y-1478381D01*
X2918180Y-1482953D01*
X2945612Y-1492097D01*
X2954502Y-1496415D01*
X2959074Y-1500987D01*
X2963646Y-1510131D01*
X2963646Y-1523847D01*
X2954502Y-1532991D01*
X2941040Y-1537563D01*
X2922752Y-1537563D01*
X2909036Y-1532991D01*
X2900146Y-1523847D01*
X2993618Y-1442059D02*
G01*
X3016478Y-1537563D01*
X3039084Y-1442059D02*
G01*
X3016478Y-1537563D01*
X3039084Y-1442059D02*
G01*
X3061944Y-1537563D01*
X3084550Y-1442059D02*
G01*
X3061944Y-1537563D01*
X3114522Y-1442059D02*
G01*
X3114522Y-1537563D01*
X3114522Y-1442059D02*
G01*
X3155416Y-1442059D01*
X3169132Y-1446631D01*
X3173704Y-1451203D01*
X3178276Y-1460093D01*
X3178276Y-1469237D01*
X3173704Y-1478381D01*
X3169132Y-1482953D01*
X3155416Y-1487525D01*
X3114522Y-1487525D01*
X3146272Y-1487525D02*
G01*
X3178276Y-1537563D01*
X2982175Y-3367874D02*
G01*
X2886925Y-3367874D01*
X2982175Y-3367874D02*
G01*
X2982175Y-3408768D01*
X2977857Y-3422484D01*
X2973285Y-3427056D01*
X2964141Y-3431628D01*
X2954997Y-3431628D01*
X2945853Y-3427056D01*
X2941281Y-3422484D01*
X2936963Y-3408768D01*
X2936963Y-3367874D01*
X2936963Y-3399624D02*
G01*
X2886925Y-3431628D01*
X2982175Y-3461600D02*
G01*
X2886925Y-3461600D01*
X2886925Y-3461600D02*
G01*
X2886925Y-3515956D01*
X2200071Y-3849027D02*
G01*
X2200071Y-3944531D01*
X2200071Y-3849027D02*
G01*
X2236393Y-3944531D01*
X2272715Y-3849027D02*
G01*
X2236393Y-3944531D01*
X2272715Y-3849027D02*
G01*
X2272715Y-3944531D01*
X2302687Y-3867315D02*
G01*
X2311831Y-3862743D01*
X2325547Y-3849027D01*
X2325547Y-3944531D01*
X2150097Y-1599031D02*
G01*
X2150097Y-1694535D01*
X2150097Y-1599031D02*
G01*
X2186419Y-1694535D01*
X2222741Y-1599031D02*
G01*
X2186419Y-1694535D01*
X2222741Y-1599031D02*
G01*
X2222741Y-1694535D01*
X2257285Y-1621891D02*
G01*
X2257285Y-1617319D01*
X2261857Y-1608175D01*
X2266429Y-1603603D01*
X2275573Y-1599031D01*
X2293607Y-1599031D01*
X2302751Y-1603603D01*
X2307323Y-1608175D01*
X2311895Y-1617319D01*
X2311895Y-1626463D01*
X2307323Y-1635353D01*
X2298179Y-1649069D01*
X2252713Y-1694535D01*
X2316467Y-1694535D01*
X4400044Y-1649084D02*
G01*
X4400044Y-1744588D01*
X4400044Y-1649084D02*
G01*
X4436366Y-1744588D01*
X4472688Y-1649084D02*
G01*
X4436366Y-1744588D01*
X4472688Y-1649084D02*
G01*
X4472688Y-1744588D01*
X4511804Y-1649084D02*
G01*
X4561842Y-1649084D01*
X4534410Y-1685406D01*
X4548126Y-1685406D01*
X4557270Y-1689978D01*
X4561842Y-1694550D01*
X4566414Y-1708266D01*
X4566414Y-1717156D01*
X4561842Y-1730872D01*
X4552698Y-1740016D01*
X4538982Y-1744588D01*
X4525520Y-1744588D01*
X4511804Y-1740016D01*
X4507232Y-1735444D01*
X4502660Y-1726300D01*
X4575083Y-3974017D02*
G01*
X4575083Y-4069521D01*
X4575083Y-3974017D02*
G01*
X4611405Y-4069521D01*
X4647727Y-3974017D02*
G01*
X4611405Y-4069521D01*
X4647727Y-3974017D02*
G01*
X4647727Y-4069521D01*
X4723165Y-3974017D02*
G01*
X4677699Y-4037771D01*
X4745771Y-4037771D01*
X4723165Y-3974017D02*
G01*
X4723165Y-4069521D01*
X2838648Y-5552729D02*
G01*
X2829504Y-5543585D01*
X2815788Y-5539013D01*
X2797754Y-5539013D01*
X2784038Y-5543585D01*
X2774894Y-5552729D01*
X2774894Y-5561873D01*
X2779466Y-5570763D01*
X2784038Y-5575335D01*
X2793182Y-5579907D01*
X2820360Y-5589051D01*
X2829504Y-5593623D01*
X2834076Y-5598195D01*
X2838648Y-5607339D01*
X2838648Y-5620801D01*
X2829504Y-5629945D01*
X2815788Y-5634517D01*
X2797754Y-5634517D01*
X2784038Y-5629945D01*
X2774894Y-5620801D01*
X2868620Y-5557301D02*
G01*
X2877764Y-5552729D01*
X2891480Y-5539013D01*
X2891480Y-5634517D01*
X3238698Y-5552727D02*
G01*
X3229554Y-5543583D01*
X3215838Y-5539011D01*
X3197804Y-5539011D01*
X3184088Y-5543583D01*
X3174944Y-5552727D01*
X3174944Y-5561871D01*
X3179516Y-5570761D01*
X3184088Y-5575333D01*
X3193232Y-5579905D01*
X3220410Y-5589049D01*
X3229554Y-5593621D01*
X3234126Y-5598193D01*
X3238698Y-5607337D01*
X3238698Y-5620799D01*
X3229554Y-5629943D01*
X3215838Y-5634515D01*
X3197804Y-5634515D01*
X3184088Y-5629943D01*
X3174944Y-5620799D01*
X3273242Y-5561871D02*
G01*
X3273242Y-5557299D01*
X3277814Y-5548155D01*
X3282386Y-5543583D01*
X3291276Y-5539011D01*
X3309564Y-5539011D01*
X3318708Y-5543583D01*
X3323280Y-5548155D01*
X3327598Y-5557299D01*
X3327598Y-5566443D01*
X3323280Y-5575333D01*
X3314136Y-5589049D01*
X3268670Y-5634515D01*
X3332170Y-5634515D01*
X4438746Y-5552727D02*
G01*
X4429602Y-5543583D01*
X4415886Y-5539011D01*
X4397598Y-5539011D01*
X4384136Y-5543583D01*
X4374992Y-5552727D01*
X4374992Y-5561871D01*
X4379564Y-5570761D01*
X4384136Y-5575333D01*
X4393280Y-5579905D01*
X4420458Y-5589049D01*
X4429602Y-5593621D01*
X4434174Y-5598193D01*
X4438746Y-5607337D01*
X4438746Y-5620799D01*
X4429602Y-5629943D01*
X4415886Y-5634515D01*
X4397598Y-5634515D01*
X4384136Y-5629943D01*
X4374992Y-5620799D01*
X4477608Y-5539011D02*
G01*
X4527646Y-5539011D01*
X4500468Y-5575333D01*
X4514184Y-5575333D01*
X4523074Y-5579905D01*
X4527646Y-5584477D01*
X4532218Y-5598193D01*
X4532218Y-5607337D01*
X4527646Y-5620799D01*
X4518502Y-5629943D01*
X4505040Y-5634515D01*
X4491324Y-5634515D01*
X4477608Y-5629943D01*
X4473290Y-5625371D01*
X4468718Y-5616227D01*
X4838517Y-5552727D02*
G01*
X4829627Y-5543583D01*
X4815911Y-5539011D01*
X4797623Y-5539011D01*
X4784161Y-5543583D01*
X4775017Y-5552727D01*
X4775017Y-5561871D01*
X4779589Y-5570761D01*
X4784161Y-5575333D01*
X4793051Y-5579905D01*
X4820483Y-5589049D01*
X4829627Y-5593621D01*
X4834199Y-5598193D01*
X4838517Y-5607337D01*
X4838517Y-5620799D01*
X4829627Y-5629943D01*
X4815911Y-5634515D01*
X4797623Y-5634515D01*
X4784161Y-5629943D01*
X4775017Y-5620799D01*
X4914209Y-5539011D02*
G01*
X4868743Y-5602765D01*
X4936815Y-5602765D01*
X4914209Y-5539011D02*
G01*
X4914209Y-5634515D01*
X3638646Y-5552727D02*
G01*
X3629502Y-5543583D01*
X3615786Y-5539011D01*
X3597752Y-5539011D01*
X3584036Y-5543583D01*
X3574892Y-5552727D01*
X3574892Y-5561871D01*
X3579464Y-5570761D01*
X3584036Y-5575333D01*
X3593180Y-5579905D01*
X3620358Y-5589049D01*
X3629502Y-5593621D01*
X3634074Y-5598193D01*
X3638646Y-5607337D01*
X3638646Y-5620799D01*
X3629502Y-5629943D01*
X3615786Y-5634515D01*
X3597752Y-5634515D01*
X3584036Y-5629943D01*
X3574892Y-5620799D01*
X3723228Y-5539011D02*
G01*
X3677762Y-5539011D01*
X3673190Y-5579905D01*
X3677762Y-5575333D01*
X3691478Y-5570761D01*
X3704940Y-5570761D01*
X3718656Y-5575333D01*
X3727800Y-5584477D01*
X3732372Y-5598193D01*
X3732372Y-5607337D01*
X3727800Y-5620799D01*
X3718656Y-5629943D01*
X3704940Y-5634515D01*
X3691478Y-5634515D01*
X3677762Y-5629943D01*
X3673190Y-5625371D01*
X3668618Y-5616227D01*
X4038518Y-5552727D02*
G01*
X4029628Y-5543583D01*
X4015912Y-5539011D01*
X3997624Y-5539011D01*
X3984162Y-5543583D01*
X3975018Y-5552727D01*
X3975018Y-5561871D01*
X3979590Y-5570761D01*
X3984162Y-5575333D01*
X3993052Y-5579905D01*
X4020484Y-5589049D01*
X4029628Y-5593621D01*
X4034200Y-5598193D01*
X4038518Y-5607337D01*
X4038518Y-5620799D01*
X4029628Y-5629943D01*
X4015912Y-5634515D01*
X3997624Y-5634515D01*
X3984162Y-5629943D01*
X3975018Y-5620799D01*
X4123100Y-5552727D02*
G01*
X4118528Y-5543583D01*
X4105066Y-5539011D01*
X4095922Y-5539011D01*
X4082206Y-5543583D01*
X4073062Y-5557299D01*
X4068744Y-5579905D01*
X4068744Y-5602765D01*
X4073062Y-5620799D01*
X4082206Y-5629943D01*
X4095922Y-5634515D01*
X4100494Y-5634515D01*
X4114210Y-5629943D01*
X4123100Y-5620799D01*
X4127672Y-5607337D01*
X4127672Y-5602765D01*
X4123100Y-5589049D01*
X4114210Y-5579905D01*
X4100494Y-5575333D01*
X4095922Y-5575333D01*
X4082206Y-5579905D01*
X4073062Y-5589049D01*
X4068744Y-5602765D01*
X1418196Y-6071730D02*
G01*
X1413624Y-6062840D01*
X1404480Y-6053696D01*
X1395336Y-6049124D01*
X1377302Y-6049124D01*
X1368158Y-6053696D01*
X1359014Y-6062840D01*
X1354442Y-6071730D01*
X1350124Y-6085446D01*
X1350124Y-6108052D01*
X1354442Y-6121768D01*
X1359014Y-6130912D01*
X1368158Y-6140056D01*
X1377302Y-6144628D01*
X1395336Y-6144628D01*
X1404480Y-6140056D01*
X1413624Y-6130912D01*
X1418196Y-6121768D01*
X1448168Y-6049124D02*
G01*
X1448168Y-6144628D01*
X1448168Y-6049124D02*
G01*
X1484490Y-6144628D01*
X1520812Y-6049124D02*
G01*
X1484490Y-6144628D01*
X1520812Y-6049124D02*
G01*
X1520812Y-6144628D01*
X1550784Y-6049124D02*
G01*
X1550784Y-6144628D01*
X1550784Y-6049124D02*
G01*
X1591932Y-6049124D01*
X1605394Y-6053696D01*
X1609966Y-6058268D01*
X1614538Y-6067158D01*
X1614538Y-6076302D01*
X1609966Y-6085446D01*
X1605394Y-6090018D01*
X1591932Y-6094590D01*
X1550784Y-6094590D01*
X1582788Y-6094590D02*
G01*
X1614538Y-6144628D01*
X3350018Y-4049026D02*
G01*
X3350018Y-4144530D01*
X3350018Y-4049026D02*
G01*
X3386340Y-4144530D01*
X3422662Y-4049026D02*
G01*
X3386340Y-4144530D01*
X3422662Y-4049026D02*
G01*
X3422662Y-4144530D01*
X3484638Y-4049026D02*
G01*
X3484638Y-4144530D01*
X3452634Y-4049026D02*
G01*
X3516388Y-4049026D01*
X3546360Y-4049026D02*
G01*
X3546360Y-4144530D01*
X3546360Y-4049026D02*
G01*
X3587254Y-4049026D01*
X3600970Y-4053598D01*
X3605542Y-4058170D01*
X3610114Y-4067314D01*
X3610114Y-4076458D01*
X3605542Y-4085348D01*
X3600970Y-4089920D01*
X3587254Y-4094492D01*
X3546360Y-4094492D01*
X3578110Y-4094492D02*
G01*
X3610114Y-4144530D01*
X3640086Y-4176280D02*
G01*
X3721874Y-4176280D01*
X3751846Y-4049026D02*
G01*
X3751846Y-4144530D01*
X3751846Y-4049026D02*
G01*
X3792740Y-4049026D01*
X3806456Y-4053598D01*
X3810774Y-4058170D01*
X3815346Y-4067314D01*
X3815346Y-4080776D01*
X3810774Y-4089920D01*
X3806456Y-4094492D01*
X3792740Y-4099064D01*
X3751846Y-4099064D01*
X3845572Y-4049026D02*
G01*
X3868178Y-4144530D01*
X3890784Y-4049026D02*
G01*
X3868178Y-4144530D01*
X3890784Y-4049026D02*
G01*
X3913644Y-4144530D01*
X3936250Y-4049026D02*
G01*
X3913644Y-4144530D01*
X3966476Y-4049026D02*
G01*
X3966476Y-4144530D01*
X3966476Y-4049026D02*
G01*
X4002798Y-4144530D01*
X4039120Y-4049026D02*
G01*
X4002798Y-4144530D01*
X4039120Y-4049026D02*
G01*
X4039120Y-4144530D01*
X99136Y-6100089D02*
G01*
X194640Y-6100089D01*
X99136Y-6100089D02*
G01*
X99136Y-6059195D01*
X103708Y-6045479D01*
X108280Y-6040907D01*
X117170Y-6036335D01*
X130886Y-6036335D01*
X140030Y-6040907D01*
X144602Y-6045479D01*
X149174Y-6059195D01*
X149174Y-6100089D01*
X99136Y-6006363D02*
G01*
X194640Y-5983503D01*
X99136Y-5960897D02*
G01*
X194640Y-5983503D01*
X99136Y-5960897D02*
G01*
X194640Y-5938291D01*
X99136Y-5915431D02*
G01*
X194640Y-5938291D01*
X99136Y-5885459D02*
G01*
X194640Y-5885459D01*
X99136Y-5885459D02*
G01*
X99136Y-5844565D01*
X103708Y-5830849D01*
X108280Y-5826277D01*
X117170Y-5821705D01*
X126314Y-5821705D01*
X135458Y-5826277D01*
X140030Y-5830849D01*
X144602Y-5844565D01*
X144602Y-5885459D01*
X144602Y-5853709D02*
G01*
X194640Y-5821705D01*
X2463647Y-4637793D02*
G01*
X2454503Y-4628649D01*
X2440787Y-4624077D01*
X2422753Y-4624077D01*
X2409037Y-4628649D01*
X2399893Y-4637793D01*
X2399893Y-4646683D01*
X2404465Y-4655827D01*
X2409037Y-4660399D01*
X2418181Y-4664971D01*
X2445359Y-4674115D01*
X2454503Y-4678687D01*
X2459075Y-4683259D01*
X2463647Y-4692149D01*
X2463647Y-4705865D01*
X2454503Y-4715009D01*
X2440787Y-4719581D01*
X2422753Y-4719581D01*
X2409037Y-4715009D01*
X2399893Y-4705865D01*
X2493619Y-4624077D02*
G01*
X2493619Y-4719581D01*
X2493619Y-4624077D02*
G01*
X2534513Y-4624077D01*
X2548229Y-4628649D01*
X2552801Y-4633221D01*
X2557373Y-4642365D01*
X2557373Y-4651255D01*
X2552801Y-4660399D01*
X2548229Y-4664971D01*
X2534513Y-4669543D01*
X2493619Y-4669543D01*
X2525369Y-4669543D02*
G01*
X2557373Y-4719581D01*
X2587345Y-4624077D02*
G01*
X2623667Y-4719581D01*
X2659989Y-4624077D02*
G01*
X2623667Y-4719581D01*
X2689961Y-4751331D02*
G01*
X2771749Y-4751331D01*
X2801721Y-4624077D02*
G01*
X2801721Y-4719581D01*
X2801721Y-4624077D02*
G01*
X2842615Y-4624077D01*
X2856331Y-4628649D01*
X2860903Y-4633221D01*
X2865475Y-4642365D01*
X2865475Y-4655827D01*
X2860903Y-4664971D01*
X2856331Y-4669543D01*
X2842615Y-4674115D01*
X2801721Y-4674115D01*
X2895447Y-4624077D02*
G01*
X2918053Y-4719581D01*
X2940913Y-4624077D02*
G01*
X2918053Y-4719581D01*
X2940913Y-4624077D02*
G01*
X2963519Y-4719581D01*
X2986379Y-4624077D02*
G01*
X2963519Y-4719581D01*
X3016351Y-4624077D02*
G01*
X3016351Y-4719581D01*
X3016351Y-4624077D02*
G01*
X3052673Y-4719581D01*
X3088995Y-4624077D02*
G01*
X3052673Y-4719581D01*
X3088995Y-4624077D02*
G01*
X3088995Y-4719581D01*
X3968267Y-2046714D02*
G01*
X3963695Y-2037824D01*
X3954551Y-2028680D01*
X3945407Y-2024108D01*
X3927373Y-2024108D01*
X3918229Y-2028680D01*
X3909085Y-2037824D01*
X3904513Y-2046714D01*
X3899941Y-2060430D01*
X3899941Y-2083290D01*
X3904513Y-2096752D01*
X3909085Y-2105896D01*
X3918229Y-2115040D01*
X3927373Y-2119612D01*
X3945407Y-2119612D01*
X3954551Y-2115040D01*
X3963695Y-2105896D01*
X3968267Y-2096752D01*
X3998239Y-2042396D02*
G01*
X4007383Y-2037824D01*
X4020845Y-2024108D01*
X4020845Y-2119612D01*
X4114571Y-2037824D02*
G01*
X4105427Y-2028680D01*
X4091711Y-2024108D01*
X4073677Y-2024108D01*
X4059961Y-2028680D01*
X4050817Y-2037824D01*
X4050817Y-2046714D01*
X4055389Y-2055858D01*
X4059961Y-2060430D01*
X4069105Y-2065002D01*
X4096283Y-2074146D01*
X4105427Y-2078718D01*
X4109999Y-2083290D01*
X4114571Y-2092180D01*
X4114571Y-2105896D01*
X4105427Y-2115040D01*
X4091711Y-2119612D01*
X4073677Y-2119612D01*
X4059961Y-2115040D01*
X4050817Y-2105896D01*
X4144543Y-2024108D02*
G01*
X4167149Y-2119612D01*
X4190009Y-2024108D02*
G01*
X4167149Y-2119612D01*
X4190009Y-2024108D02*
G01*
X4212615Y-2119612D01*
X4235475Y-2024108D02*
G01*
X4212615Y-2119612D01*
X4265447Y-2024108D02*
G01*
X4265447Y-2119612D01*
X4265447Y-2024108D02*
G01*
X4306341Y-2024108D01*
X4320057Y-2028680D01*
X4324629Y-2033252D01*
X4329201Y-2042396D01*
X4329201Y-2051286D01*
X4324629Y-2060430D01*
X4320057Y-2065002D01*
X4306341Y-2069574D01*
X4265447Y-2069574D01*
X4297197Y-2069574D02*
G01*
X4329201Y-2119612D01*
X3893306Y-1421884D02*
G01*
X3888734Y-1412740D01*
X3879590Y-1403596D01*
X3870446Y-1399024D01*
X3852158Y-1399024D01*
X3843268Y-1403596D01*
X3834124Y-1412740D01*
X3829552Y-1421884D01*
X3824980Y-1435346D01*
X3824980Y-1458206D01*
X3829552Y-1471922D01*
X3834124Y-1480812D01*
X3843268Y-1489956D01*
X3852158Y-1494528D01*
X3870446Y-1494528D01*
X3879590Y-1489956D01*
X3888734Y-1480812D01*
X3893306Y-1471922D01*
X3968744Y-1399024D02*
G01*
X3923278Y-1462778D01*
X3991350Y-1462778D01*
X3968744Y-1399024D02*
G01*
X3968744Y-1494528D01*
X4085076Y-1412740D02*
G01*
X4075932Y-1403596D01*
X4062216Y-1399024D01*
X4044182Y-1399024D01*
X4030466Y-1403596D01*
X4021322Y-1412740D01*
X4021322Y-1421884D01*
X4025894Y-1430774D01*
X4030466Y-1435346D01*
X4039610Y-1439918D01*
X4066788Y-1449062D01*
X4075932Y-1453634D01*
X4080504Y-1458206D01*
X4085076Y-1467350D01*
X4085076Y-1480812D01*
X4075932Y-1489956D01*
X4062216Y-1494528D01*
X4044182Y-1494528D01*
X4030466Y-1489956D01*
X4021322Y-1480812D01*
X4115048Y-1399024D02*
G01*
X4137654Y-1494528D01*
X4160514Y-1399024D02*
G01*
X4137654Y-1494528D01*
X4160514Y-1399024D02*
G01*
X4183120Y-1494528D01*
X4205980Y-1399024D02*
G01*
X4183120Y-1494528D01*
X4235952Y-1399024D02*
G01*
X4235952Y-1494528D01*
X4235952Y-1399024D02*
G01*
X4276846Y-1399024D01*
X4290562Y-1403596D01*
X4294880Y-1408168D01*
X4299452Y-1417312D01*
X4299452Y-1426456D01*
X4294880Y-1435346D01*
X4290562Y-1439918D01*
X4276846Y-1444490D01*
X4235952Y-1444490D01*
X4267702Y-1444490D02*
G01*
X4299452Y-1494528D01*
X4209478Y-2615171D02*
G01*
X4304982Y-2615171D01*
X4209478Y-2615171D02*
G01*
X4209478Y-2574277D01*
X4214050Y-2560561D01*
X4218622Y-2555989D01*
X4227766Y-2551417D01*
X4236656Y-2551417D01*
X4245800Y-2555989D01*
X4250372Y-2560561D01*
X4254944Y-2574277D01*
X4254944Y-2615171D01*
X4254944Y-2583167D02*
G01*
X4304982Y-2551417D01*
X4227766Y-2521445D02*
G01*
X4223194Y-2512301D01*
X4209478Y-2498839D01*
X4304982Y-2498839D01*
X4223194Y-2405113D02*
G01*
X4214050Y-2414257D01*
X4209478Y-2427719D01*
X4209478Y-2446007D01*
X4214050Y-2459723D01*
X4223194Y-2468613D01*
X4232084Y-2468613D01*
X4241228Y-2464295D01*
X4245800Y-2459723D01*
X4250372Y-2450579D01*
X4259516Y-2423401D01*
X4264088Y-2414257D01*
X4268660Y-2409685D01*
X4277550Y-2405113D01*
X4291266Y-2405113D01*
X4300410Y-2414257D01*
X4304982Y-2427719D01*
X4304982Y-2446007D01*
X4300410Y-2459723D01*
X4291266Y-2468613D01*
X4209478Y-2375141D02*
G01*
X4304982Y-2352281D01*
X4209478Y-2329675D02*
G01*
X4304982Y-2352281D01*
X4209478Y-2329675D02*
G01*
X4304982Y-2306815D01*
X4209478Y-2284209D02*
G01*
X4304982Y-2306815D01*
X4209478Y-2254237D02*
G01*
X4304982Y-2254237D01*
X4209478Y-2254237D02*
G01*
X4209478Y-2213343D01*
X4214050Y-2199627D01*
X4218622Y-2195055D01*
X4227766Y-2190483D01*
X4236656Y-2190483D01*
X4245800Y-2195055D01*
X4250372Y-2199627D01*
X4254944Y-2213343D01*
X4254944Y-2254237D01*
X4254944Y-2222487D02*
G01*
X4304982Y-2190483D01*
X4018978Y-2615171D02*
G01*
X4114482Y-2615171D01*
X4018978Y-2615171D02*
G01*
X4018978Y-2574277D01*
X4023550Y-2560561D01*
X4028122Y-2555989D01*
X4037266Y-2551417D01*
X4046156Y-2551417D01*
X4055300Y-2555989D01*
X4059872Y-2560561D01*
X4064444Y-2574277D01*
X4064444Y-2615171D01*
X4064444Y-2583167D02*
G01*
X4114482Y-2551417D01*
X4041584Y-2516873D02*
G01*
X4037266Y-2516873D01*
X4028122Y-2512301D01*
X4023550Y-2507729D01*
X4018978Y-2498839D01*
X4018978Y-2480551D01*
X4023550Y-2471407D01*
X4028122Y-2466835D01*
X4037266Y-2462263D01*
X4046156Y-2462263D01*
X4055300Y-2466835D01*
X4069016Y-2475979D01*
X4114482Y-2521445D01*
X4114482Y-2457945D01*
X4032694Y-2364219D02*
G01*
X4023550Y-2373363D01*
X4018978Y-2386825D01*
X4018978Y-2405113D01*
X4023550Y-2418829D01*
X4032694Y-2427719D01*
X4041584Y-2427719D01*
X4050728Y-2423401D01*
X4055300Y-2418829D01*
X4059872Y-2409685D01*
X4069016Y-2382253D01*
X4073588Y-2373363D01*
X4078160Y-2368791D01*
X4087050Y-2364219D01*
X4100766Y-2364219D01*
X4109910Y-2373363D01*
X4114482Y-2386825D01*
X4114482Y-2405113D01*
X4109910Y-2418829D01*
X4100766Y-2427719D01*
X4018978Y-2334247D02*
G01*
X4114482Y-2311387D01*
X4018978Y-2288781D02*
G01*
X4114482Y-2311387D01*
X4018978Y-2288781D02*
G01*
X4114482Y-2265921D01*
X4018978Y-2243315D02*
G01*
X4114482Y-2265921D01*
X4018978Y-2213343D02*
G01*
X4114482Y-2213343D01*
X4018978Y-2213343D02*
G01*
X4018978Y-2172449D01*
X4023550Y-2158733D01*
X4028122Y-2154161D01*
X4037266Y-2149589D01*
X4046156Y-2149589D01*
X4055300Y-2154161D01*
X4059872Y-2158733D01*
X4064444Y-2172449D01*
X4064444Y-2213343D01*
X4064444Y-2181339D02*
G01*
X4114482Y-2149589D01*
X5299887Y-5539013D02*
G01*
X5299887Y-5634517D01*
X5299887Y-5539013D02*
G01*
X5359069Y-5539013D01*
X5299887Y-5584479D02*
G01*
X5336463Y-5584479D01*
X5299887Y-5634517D02*
G01*
X5359069Y-5634517D01*
X5452795Y-5552729D02*
G01*
X5443651Y-5543585D01*
X5429935Y-5539013D01*
X5411901Y-5539013D01*
X5398185Y-5543585D01*
X5389041Y-5552729D01*
X5389041Y-5561873D01*
X5393613Y-5570763D01*
X5398185Y-5575335D01*
X5407329Y-5579907D01*
X5434507Y-5589051D01*
X5443651Y-5593623D01*
X5448223Y-5598195D01*
X5452795Y-5607339D01*
X5452795Y-5620801D01*
X5443651Y-5629945D01*
X5429935Y-5634517D01*
X5411901Y-5634517D01*
X5398185Y-5629945D01*
X5389041Y-5620801D01*
X5482767Y-5557301D02*
G01*
X5491911Y-5552729D01*
X5505373Y-5539013D01*
X5505373Y-5634517D01*
X5699886Y-5539013D02*
G01*
X5699886Y-5634517D01*
X5699886Y-5539013D02*
G01*
X5759068Y-5539013D01*
X5699886Y-5584479D02*
G01*
X5736463Y-5584479D01*
X5699886Y-5634517D02*
G01*
X5759068Y-5634517D01*
X5852795Y-5552729D02*
G01*
X5843650Y-5543585D01*
X5829934Y-5539013D01*
X5811900Y-5539013D01*
X5798184Y-5543585D01*
X5789040Y-5552729D01*
X5789040Y-5561873D01*
X5793613Y-5570763D01*
X5798184Y-5575335D01*
X5807329Y-5579907D01*
X5834506Y-5589051D01*
X5843650Y-5593623D01*
X5848222Y-5598195D01*
X5852795Y-5607339D01*
X5852795Y-5620801D01*
X5843650Y-5629945D01*
X5829934Y-5634517D01*
X5811900Y-5634517D01*
X5798184Y-5629945D01*
X5789040Y-5620801D01*
X5887338Y-5561873D02*
G01*
X5887338Y-5557301D01*
X5891911Y-5548157D01*
X5896229Y-5543585D01*
X5905372Y-5539013D01*
X5923661Y-5539013D01*
X5932804Y-5543585D01*
X5937377Y-5548157D01*
X5941695Y-5557301D01*
X5941695Y-5566445D01*
X5937377Y-5575335D01*
X5928233Y-5589051D01*
X5882766Y-5634517D01*
X5946266Y-5634517D01*
X6100013Y-5539013D02*
G01*
X6100013Y-5634517D01*
X6100013Y-5539013D02*
G01*
X6159195Y-5539013D01*
X6100013Y-5584479D02*
G01*
X6136335Y-5584479D01*
X6100013Y-5634517D02*
G01*
X6159195Y-5634517D01*
X6252667Y-5552729D02*
G01*
X6243523Y-5543585D01*
X6230061Y-5539013D01*
X6211773Y-5539013D01*
X6198057Y-5543585D01*
X6189167Y-5552729D01*
X6189167Y-5561873D01*
X6193739Y-5570763D01*
X6198057Y-5575335D01*
X6207201Y-5579907D01*
X6234633Y-5589051D01*
X6243523Y-5593623D01*
X6248095Y-5598195D01*
X6252667Y-5607339D01*
X6252667Y-5620801D01*
X6243523Y-5629945D01*
X6230061Y-5634517D01*
X6211773Y-5634517D01*
X6198057Y-5629945D01*
X6189167Y-5620801D01*
X6291783Y-5539013D02*
G01*
X6341821Y-5539013D01*
X6314643Y-5575335D01*
X6328105Y-5575335D01*
X6337249Y-5579907D01*
X6341821Y-5584479D01*
X6346393Y-5598195D01*
X6346393Y-5607339D01*
X6341821Y-5620801D01*
X6332677Y-5629945D01*
X6318961Y-5634517D01*
X6305499Y-5634517D01*
X6291783Y-5629945D01*
X6287211Y-5625373D01*
X6282639Y-5616229D01*
X6500012Y-5539013D02*
G01*
X6500012Y-5634517D01*
X6500012Y-5539013D02*
G01*
X6559194Y-5539013D01*
X6500012Y-5584479D02*
G01*
X6536334Y-5584479D01*
X6500012Y-5634517D02*
G01*
X6559194Y-5634517D01*
X6652666Y-5552729D02*
G01*
X6643522Y-5543585D01*
X6630060Y-5539013D01*
X6611772Y-5539013D01*
X6598056Y-5543585D01*
X6589166Y-5552729D01*
X6589166Y-5561873D01*
X6593738Y-5570763D01*
X6598056Y-5575335D01*
X6607200Y-5579907D01*
X6634632Y-5589051D01*
X6643522Y-5593623D01*
X6648094Y-5598195D01*
X6652666Y-5607339D01*
X6652666Y-5620801D01*
X6643522Y-5629945D01*
X6630060Y-5634517D01*
X6611772Y-5634517D01*
X6598056Y-5629945D01*
X6589166Y-5620801D01*
X6728104Y-5539013D02*
G01*
X6682638Y-5602767D01*
X6750964Y-5602767D01*
X6728104Y-5539013D02*
G01*
X6728104Y-5634517D01*
G36*
X2524963Y-3436010D02*
G01*
X2488996Y-3461004D01*
X2560980Y-3462020D01*
G37*
G36*
X3668776Y-2996031D02*
G01*
X3668776Y-3173831D01*
X3783431Y-3173831D01*
X3788867Y-3168396D01*
X3788867Y-3128822D01*
X3738829Y-3059531D01*
X3732276Y-3046831D01*
G37*
G36*
X3670249Y-3300831D02*
G01*
X3670249Y-3478631D01*
X3738829Y-3427831D01*
X3743909Y-3404971D01*
X3795420Y-3345840D01*
X3795420Y-3306267D01*
X3789984Y-3300831D01*
G37*
G36*
X2659481Y-1877517D02*
G01*
X2659126Y-1917700D01*
X2705100Y-1918157D01*
X2705201Y-1877517D01*
G37*
G36*
X2658668Y-1617675D02*
G01*
X2658313Y-1657857D01*
X2704236Y-1658315D01*
X2704388Y-1617675D01*
G37*
D14*
X1706118Y-4984630D02*
G01*
X1565117Y-4984630D01*
X1565117Y-5165351D02*
G01*
X1706118Y-5165351D01*
X1721357Y-5150111D02*
G01*
X1721357Y-4999870D01*
X1343878Y-4984630D02*
G01*
X1484878Y-4984630D01*
X1484878Y-5165351D02*
G01*
X1343878Y-5165351D01*
X1328638Y-5150111D02*
G01*
X1328638Y-4999870D01*
D15*
X2451996Y-3412992D02*
G01*
X2451996Y-3297994D01*
X2596995Y-3297994D01*
X2596995Y-3417994D01*
X2597995Y-3479993D02*
G01*
X2597995Y-3603993D01*
X2452997Y-3603993D01*
X2452997Y-3479993D01*
X2451996Y-3297994D02*
G01*
X2451996Y-3294992D01*
X2471996Y-3274992D01*
X2573995Y-3274992D01*
X2576995Y-3277994D01*
X2596995Y-3297994D01*
D16*
X4902225Y-5254922D02*
G01*
X4902225Y-5199921D01*
X5044965Y-5199921D01*
X5044965Y-4829921D01*
X4164967Y-4829921D01*
X4164967Y-5199921D01*
X4299965Y-5199921D01*
X4299965Y-5254919D01*
X4099966Y-5254919D02*
G01*
X5099964Y-5254922D01*
X5099964Y-4784923D02*
G01*
X4099966Y-4784928D01*
X5099964Y-5254922D02*
G01*
X5099964Y-4784923D01*
X4099966Y-4784920D02*
G01*
X4099966Y-5242085D01*
D14*
X1706118Y-5809627D02*
G01*
X1565117Y-5809627D01*
X1565117Y-5990348D02*
G01*
X1706118Y-5990348D01*
X1721357Y-5975108D02*
G01*
X1721357Y-5824867D01*
X1343878Y-5809627D02*
G01*
X1484878Y-5809627D01*
X1484878Y-5990348D02*
G01*
X1343878Y-5990348D01*
X1328638Y-5975108D02*
G01*
X1328638Y-5824867D01*
X1706118Y-5534629D02*
G01*
X1565117Y-5534629D01*
X1565117Y-5715350D02*
G01*
X1706118Y-5715350D01*
X1721357Y-5700110D02*
G01*
X1721357Y-5549869D01*
X1343878Y-5534629D02*
G01*
X1484878Y-5534629D01*
X1484878Y-5715350D02*
G01*
X1343878Y-5715350D01*
X1328638Y-5700110D02*
G01*
X1328638Y-5549869D01*
X1706118Y-5259628D02*
G01*
X1565117Y-5259628D01*
X1565117Y-5440349D02*
G01*
X1706118Y-5440349D01*
X1721357Y-5425109D02*
G01*
X1721357Y-5274868D01*
X1343878Y-5259628D02*
G01*
X1484878Y-5259628D01*
X1484878Y-5440349D02*
G01*
X1343878Y-5440349D01*
X1328638Y-5425109D02*
G01*
X1328638Y-5274868D01*
X3346577Y-2465938D02*
G01*
X3346577Y-2324938D01*
X3165856Y-2324938D02*
G01*
X3165856Y-2465938D01*
X3181095Y-2481178D02*
G01*
X3331336Y-2481178D01*
X3346577Y-2103699D02*
G01*
X3346577Y-2244699D01*
X3165856Y-2244699D02*
G01*
X3165856Y-2103699D01*
X3181095Y-2088459D02*
G01*
X3331336Y-2088459D01*
D16*
X3821366Y-3173818D02*
G01*
X3821366Y-2894418D01*
X3294316Y-2894418D01*
X3141916Y-3046818D01*
X3141916Y-3173818D01*
X3821366Y-3300818D02*
G01*
X3821366Y-3580218D01*
X3294316Y-3580218D01*
X3141916Y-3427818D01*
X3141916Y-3300818D01*
D14*
X2868002Y-1625277D02*
G01*
X2868002Y-1910519D01*
X2696776Y-1625277D02*
G01*
X3216013Y-1625277D01*
X3215723Y-1885459D02*
G01*
X3216391Y-1909381D01*
X3216013Y-1625277D02*
G01*
X3216681Y-1649199D01*
X2696776Y-1910519D02*
G01*
X3216013Y-1910519D01*
X2846755Y-3624013D02*
G01*
X2846755Y-3483013D01*
X2666034Y-3483013D02*
G01*
X2666034Y-3624013D01*
X2681274Y-3639253D02*
G01*
X2831515Y-3639253D01*
X2846755Y-3261774D02*
G01*
X2846755Y-3402774D01*
X2666034Y-3402774D02*
G01*
X2666034Y-3261774D01*
X2681274Y-3246534D02*
G01*
X2831515Y-3246534D01*
D10*
X2376995Y-4226991D02*
G01*
X2122995Y-4226991D01*
X2122995Y-3972991D01*
X2376995Y-3972991D01*
X2376995Y-4163491D01*
D17*
X2376995Y-4226991D02*
G01*
X2376995Y-4163491D01*
D10*
X2376995Y-2026996D02*
G01*
X2122995Y-2026996D01*
X2122995Y-1772996D01*
X2376995Y-1772996D01*
X2376995Y-1963496D01*
D17*
X2376995Y-2026996D02*
G01*
X2376995Y-1963496D01*
D10*
X4601989Y-2051997D02*
G01*
X4347989Y-2051997D01*
X4347989Y-1797997D01*
X4601989Y-1797997D01*
X4601989Y-1988497D01*
D17*
X4601989Y-2051997D02*
G01*
X4601989Y-1988497D01*
D10*
X4776990Y-4376991D02*
G01*
X4522990Y-4376991D01*
X4522990Y-4122991D01*
X4776990Y-4122991D01*
X4776990Y-4313491D01*
D17*
X4776990Y-4376991D02*
G01*
X4776990Y-4313491D01*
D10*
X2747995Y-6240490D02*
G01*
X2747995Y-6430990D01*
X3001995Y-6430990D01*
X3001995Y-5668990D01*
X2747995Y-5668990D01*
D17*
X2747995Y-5668990D02*
G01*
X2747995Y-6240490D01*
D10*
X3147994Y-6240487D02*
G01*
X3147994Y-6430987D01*
X3401994Y-6430987D01*
X3401994Y-5668987D01*
X3147994Y-5668987D01*
D17*
X3147994Y-5668987D02*
G01*
X3147994Y-6240487D01*
D10*
X4347992Y-6240487D02*
G01*
X4347992Y-6430987D01*
X4601992Y-6430987D01*
X4601992Y-5668987D01*
X4347992Y-5668987D01*
D17*
X4347992Y-5668987D02*
G01*
X4347992Y-6240487D01*
D10*
X4747991Y-6240487D02*
G01*
X4747991Y-6430987D01*
X5001991Y-6430987D01*
X5001991Y-5668987D01*
X4747991Y-5668987D01*
D17*
X4747991Y-5668987D02*
G01*
X4747991Y-6240487D01*
D10*
X3547993Y-6240487D02*
G01*
X3547993Y-6430987D01*
X3801993Y-6430987D01*
X3801993Y-5668987D01*
X3547993Y-5668987D01*
D17*
X3547993Y-5668987D02*
G01*
X3547993Y-6240487D01*
D10*
X3947993Y-6240487D02*
G01*
X3947993Y-6430987D01*
X4201993Y-6430987D01*
X4201993Y-5668987D01*
X3947993Y-5668987D01*
D17*
X3947993Y-5668987D02*
G01*
X3947993Y-6240487D01*
D16*
X3893606Y-2654998D02*
G01*
X3904970Y-2654998D01*
X3766606Y-2654998D02*
G01*
X3787378Y-2654998D01*
X3639606Y-2654998D02*
G01*
X3660378Y-2654998D01*
X3512606Y-2654998D02*
G01*
X3533378Y-2654998D01*
X3394989Y-2654998D02*
G01*
X3406378Y-2654998D01*
X3893606Y-2244991D02*
G01*
X3904970Y-2244991D01*
X3766606Y-2244991D02*
G01*
X3787378Y-2244991D01*
X3639606Y-2244991D02*
G01*
X3660378Y-2244991D01*
X3512606Y-2244991D02*
G01*
X3533378Y-2244991D01*
X3394989Y-2244991D02*
G01*
X3406378Y-2244991D01*
X3394989Y-2369985D02*
G01*
X3394989Y-2244991D01*
X3904970Y-2244991D02*
G01*
X3904970Y-2654998D01*
X3394989Y-2530005D02*
G01*
X3394989Y-2654998D01*
D17*
X1753996Y-6172987D02*
G01*
X1436496Y-6172987D01*
D10*
X1753996Y-6172987D02*
G01*
X1753996Y-6426987D01*
X1245996Y-6426987D01*
X1245996Y-6172987D01*
X1436496Y-6172987D01*
D16*
X4002252Y-4679993D02*
G01*
X4002252Y-4624992D01*
X4144992Y-4624992D01*
X4144992Y-4254992D01*
X3264994Y-4254992D01*
X3264994Y-4624992D01*
X3399993Y-4624992D01*
X3399993Y-4679990D01*
X3199993Y-4679990D02*
G01*
X4199991Y-4679993D01*
X4199991Y-4209994D02*
G01*
X3199993Y-4209999D01*
X4199991Y-4679993D02*
G01*
X4199991Y-4209994D01*
X3199993Y-4209991D02*
G01*
X3199993Y-4667156D01*
X752403Y-6228587D02*
G01*
X752403Y-6165087D01*
X447603Y-6165087D01*
X447603Y-6237485D01*
X975004Y-5657491D02*
G01*
X225003Y-5657491D01*
X975004Y-5657491D02*
G01*
X975004Y-6237485D01*
X225003Y-6237485D01*
X225003Y-5657491D01*
X658837Y-6237478D02*
G01*
X682713Y-6237478D01*
X3102254Y-5254993D02*
G01*
X3102254Y-5199992D01*
X3244994Y-5199992D01*
X3244994Y-4829992D01*
X2364996Y-4829992D01*
X2364996Y-5199992D01*
X2499995Y-5199992D01*
X2499995Y-5254990D01*
X2299995Y-5254990D02*
G01*
X3299993Y-5254993D01*
X3299993Y-4784994D02*
G01*
X2299995Y-4784999D01*
X3299993Y-5254993D02*
G01*
X3299993Y-4784994D01*
X2299995Y-4784991D02*
G01*
X2299995Y-5242156D01*
D17*
X2453995Y-6172987D02*
G01*
X2136495Y-6172987D01*
D10*
X2453995Y-6172987D02*
G01*
X2453995Y-6426987D01*
X1945995Y-6426987D01*
X1945995Y-6172987D01*
X2136495Y-6172987D01*
D14*
X3532372Y-1994255D02*
G01*
X3673373Y-1994255D01*
X3673373Y-1813534D02*
G01*
X3532372Y-1813534D01*
X3517132Y-1828774D02*
G01*
X3517132Y-1979015D01*
X3894612Y-1994255D02*
G01*
X3753611Y-1994255D01*
X3753611Y-1813534D02*
G01*
X3894612Y-1813534D01*
X3909852Y-1828774D02*
G01*
X3909852Y-1979015D01*
X3532372Y-1727555D02*
G01*
X3673373Y-1727555D01*
X3673373Y-1546834D02*
G01*
X3532372Y-1546834D01*
X3517132Y-1562074D02*
G01*
X3517132Y-1712315D01*
X3894612Y-1727555D02*
G01*
X3753611Y-1727555D01*
X3753611Y-1546834D02*
G01*
X3894612Y-1546834D01*
X3909852Y-1562074D02*
G01*
X3909852Y-1712315D01*
X4180832Y-2835516D02*
G01*
X4180832Y-2931403D01*
X4312953Y-2931403D01*
X4312953Y-2835516D01*
X4180832Y-2750273D02*
G01*
X4180832Y-2654386D01*
X4312953Y-2654386D01*
X4312953Y-2750273D01*
X4122453Y-2750273D02*
G01*
X4122453Y-2654386D01*
X3990332Y-2654386D01*
X3990332Y-2750273D01*
X4122453Y-2835516D02*
G01*
X4122453Y-2931403D01*
X3990332Y-2931403D01*
X3990332Y-2835516D01*
D10*
X5272989Y-6240490D02*
G01*
X5272989Y-6430990D01*
X5526989Y-6430990D01*
X5526989Y-5668990D01*
X5272989Y-5668990D01*
D17*
X5272989Y-5668990D02*
G01*
X5272989Y-6240490D01*
D10*
X5672988Y-6240490D02*
G01*
X5672988Y-6430990D01*
X5926988Y-6430990D01*
X5926988Y-5668990D01*
X5672988Y-5668990D01*
D17*
X5672988Y-5668990D02*
G01*
X5672988Y-6240490D01*
D10*
X6072987Y-6240490D02*
G01*
X6072987Y-6430990D01*
X6326987Y-6430990D01*
X6326987Y-5668990D01*
X6072987Y-5668990D01*
D17*
X6072987Y-5668990D02*
G01*
X6072987Y-6240490D01*
D10*
X6472986Y-6240490D02*
G01*
X6472986Y-6430990D01*
X6726986Y-6430990D01*
X6726986Y-5668990D01*
X6472986Y-5668990D01*
D17*
X6472986Y-5668990D02*
G01*
X6472986Y-6240490D01*
D14*
G75*
G01*
X1706118Y-5165352D02*
G03*
X1721358Y-5150112I0J15240D01*
G75*
G01*
X1721358Y-4999871D02*
G03*
X1706118Y-4984631I-15240J0D01*
G75*
G01*
X1343878Y-5165352D02*
G02*
X1328638Y-5150112I0J15240D01*
G75*
G01*
X1328638Y-4999871D02*
G02*
X1343878Y-4984631I15240J0D01*
G75*
G01*
X1706118Y-5990349D02*
G03*
X1721358Y-5975109I0J15240D01*
G75*
G01*
X1721358Y-5824868D02*
G03*
X1706118Y-5809628I-15240J0D01*
G75*
G01*
X1343878Y-5990349D02*
G02*
X1328638Y-5975109I0J15240D01*
G75*
G01*
X1328638Y-5824868D02*
G02*
X1343878Y-5809628I15240J0D01*
G75*
G01*
X1706118Y-5715351D02*
G03*
X1721358Y-5700111I0J15240D01*
G75*
G01*
X1721358Y-5549870D02*
G03*
X1706118Y-5534630I-15240J0D01*
G75*
G01*
X1343878Y-5715351D02*
G02*
X1328638Y-5700111I0J15240D01*
G75*
G01*
X1328638Y-5549870D02*
G02*
X1343878Y-5534630I15240J0D01*
G75*
G01*
X1706118Y-5440350D02*
G03*
X1721358Y-5425110I0J15240D01*
G75*
G01*
X1721358Y-5274869D02*
G03*
X1706118Y-5259629I-15240J0D01*
G75*
G01*
X1343878Y-5440350D02*
G02*
X1328638Y-5425110I0J15240D01*
G75*
G01*
X1328638Y-5274869D02*
G02*
X1343878Y-5259629I15240J0D01*
G75*
G01*
X3165856Y-2465939D02*
G03*
X3181096Y-2481179I15240J0D01*
G75*
G01*
X3331337Y-2481179D02*
G03*
X3346577Y-2465939I0J15240D01*
G75*
G01*
X3165856Y-2103699D02*
G02*
X3181096Y-2088459I15240J0D01*
G75*
G01*
X3331337Y-2088459D02*
G02*
X3346577Y-2103699I0J-15240D01*
D16*
G75*
G01*
X3789617Y-3173819D02*
G03*
X3174174Y-3168485I-308305J-64603D01*
G75*
G01*
X3180017Y-3300819D02*
G03*
X3795458Y-3306153I308304J64603D01*
D14*
G75*
G01*
X2666035Y-3624014D02*
G03*
X2681275Y-3639254I15240J0D01*
G75*
G01*
X2831516Y-3639254D02*
G03*
X2846756Y-3624014I0J15240D01*
G75*
G01*
X2666035Y-3261774D02*
G02*
X2681275Y-3246534I15240J0D01*
G75*
G01*
X2831516Y-3246534D02*
G02*
X2846756Y-3261774I0J-15240D01*
D16*
G75*
G01*
X3399993Y-2369985D02*
G02*
X3399993Y-2530005I-37528J-80010D01*
D14*
G75*
G01*
X3532373Y-1813535D02*
G03*
X3517133Y-1828775I0J-15240D01*
G75*
G01*
X3517133Y-1979016D02*
G03*
X3532373Y-1994256I15240J0D01*
G75*
G01*
X3894612Y-1813535D02*
G02*
X3909852Y-1828775I0J-15240D01*
G75*
G01*
X3909852Y-1979016D02*
G02*
X3894612Y-1994256I-15240J0D01*
G75*
G01*
X3532373Y-1546835D02*
G03*
X3517133Y-1562075I0J-15240D01*
G75*
G01*
X3517133Y-1712316D02*
G03*
X3532373Y-1727556I15240J0D01*
G75*
G01*
X3894612Y-1546835D02*
G02*
X3909852Y-1562075I0J-15240D01*
G75*
G01*
X3909852Y-1712316D02*
G02*
X3894612Y-1727556I-15240J0D01*
D16*
G75*
G01
X3364027Y-2699995D02*
G03X3364027Y-2699995I-17018J0D01*
M02*
