G04 Layer: TopSolderMaskLayer*
G04 EasyEDA v6.5.40, 2024-05-01 13:46:42*
G04 7703e67730494ffebf129c6139567d94,10*
G04 Gerber Generator version 0.2*
G04 Scale: 100 percent, Rotated: No, Reflected: No *
G04 Dimensions in millimeters *
G04 leading zeros omitted , absolute positions ,4 integer and 5 decimal *
%FSLAX45Y45*%
%MOMM*%

%AMMACRO1*1,1,$1,$2,$3*1,1,$1,$4,$5*1,1,$1,0-$2,0-$3*1,1,$1,0-$4,0-$5*20,1,$1,$2,$3,$4,$5,0*20,1,$1,$4,$5,0-$2,0-$3,0*20,1,$1,0-$2,0-$3,0-$4,0-$5,0*20,1,$1,0-$4,0-$5,$2,$3,0*4,1,4,$2,$3,$4,$5,0-$2,0-$3,0-$4,0-$5,$2,$3,0*%
%ADD10MACRO1,0.1016X-3.5X4X3.5X4*%
%ADD11MACRO1,0.1016X-3X3X3X3*%
%ADD12R,3.6016X2.4516*%
%ADD13MACRO1,0.1016X-0.705X-0.675X-0.705X0.675*%
%ADD14MACRO1,0.1016X0.705X-0.675X0.705X0.675*%
%ADD15MACRO1,0.1016X-0.5X0.45X0.5X0.45*%
%ADD16C,1.5000*%
%ADD17MACRO1,0.1016X-0.675X0.705X0.675X0.705*%
%ADD18MACRO1,0.1016X-0.675X-0.705X0.675X-0.705*%
%ADD19MACRO1,0.2032X1.4X-0.4X-1.4X-0.4*%
%ADD20MACRO1,0.1016X1X-1X-1X-1*%
%ADD21MACRO1,0.1016X1X1X1X-1*%
%ADD22C,1.8016*%
%ADD23R,1.8016X1.8016*%
%ADD24R,0.7016X1.4016*%
%ADD25R,3.6016X2.6016*%
%ADD26MACRO1,0.1016X-0.85X0.85X0.85X0.85*%
%ADD27C,1.8000*%
%ADD28MACRO1,0.1016X0.705X0.675X0.705X-0.675*%
%ADD29MACRO1,0.1016X-0.705X0.675X-0.705X-0.675*%
%ADD30MACRO1,0.1016X-0.432X0.4032X0.432X0.4032*%
%ADD31MACRO1,0.1016X-0.432X-0.4032X0.432X-0.4032*%
%ADD32R,0.9656X0.9081*%

%LPD*%
D10*
G01*
X2899994Y-599998D03*
G01*
X4099991Y-599998D03*
D11*
G01*
X6699986Y-1099997D03*
G01*
X6699986Y-2299995D03*
G01*
X6699986Y-3499993D03*
G01*
X6699986Y-4699990D03*
G01*
X399999Y-4699990D03*
G01*
X399999Y-3499993D03*
G01*
X399999Y-2299995D03*
G01*
X399999Y-1099997D03*
D12*
G01*
X2799994Y-2802509D03*
G01*
X2799994Y-2197506D03*
D13*
G01*
X1625000Y-5074991D03*
D14*
G01*
X1424995Y-5074991D03*
D15*
G01*
X2524996Y-3365002D03*
G01*
X2524996Y-3535001D03*
D16*
G01*
X4299965Y-5074920D03*
G01*
X4499965Y-5074920D03*
G01*
X4699965Y-5074920D03*
G01*
X4899964Y-5074920D03*
D13*
G01*
X1625000Y-5899988D03*
D14*
G01*
X1424995Y-5899988D03*
D13*
G01*
X1625000Y-5624990D03*
D14*
G01*
X1424995Y-5624990D03*
D13*
G01*
X1625000Y-5349989D03*
D14*
G01*
X1424995Y-5349989D03*
D17*
G01*
X3256216Y-2384821D03*
D18*
G01*
X3256216Y-2184816D03*
D19*
G01*
X3738816Y-3237318D03*
G01*
X3230816Y-3237318D03*
D20*
G01*
X2736395Y-1767898D03*
G01*
X3176394Y-1767898D03*
D17*
G01*
X2756395Y-3542896D03*
D18*
G01*
X2756395Y-3342891D03*
D21*
G01*
X2249995Y-4099991D03*
G01*
X2249995Y-1899996D03*
G01*
X4474989Y-1924997D03*
G01*
X4649990Y-4249991D03*
D22*
G01*
X2875000Y-5796000D03*
G01*
X2875000Y-6050000D03*
D23*
G01*
X2875000Y-6304000D03*
D22*
G01*
X3274999Y-5796000D03*
G01*
X3274999Y-6050000D03*
D23*
G01*
X3274999Y-6304000D03*
D22*
G01*
X4474997Y-5796000D03*
G01*
X4474997Y-6050000D03*
D23*
G01*
X4474997Y-6304000D03*
D22*
G01*
X4874996Y-5796000D03*
G01*
X4874996Y-6050000D03*
D23*
G01*
X4874996Y-6304000D03*
D22*
G01*
X3674999Y-5796000D03*
G01*
X3674999Y-6050000D03*
D23*
G01*
X3674999Y-6304000D03*
D22*
G01*
X4074998Y-5796000D03*
G01*
X4074998Y-6050000D03*
D23*
G01*
X4074998Y-6304000D03*
D24*
G01*
X3459505Y-2719984D03*
G01*
X3586505Y-2719984D03*
G01*
X3713505Y-2719984D03*
G01*
X3840505Y-2719984D03*
G01*
X3840505Y-2180005D03*
G01*
X3713505Y-2180005D03*
G01*
X3586505Y-2180005D03*
G01*
X3459505Y-2180005D03*
D25*
G01*
X3649979Y-2450007D03*
D26*
G01*
X1372998Y-6299988D03*
D22*
G01*
X1626996Y-6299987D03*
D16*
G01*
X3399993Y-4499990D03*
G01*
X3599992Y-4499990D03*
G01*
X3799992Y-4499990D03*
G01*
X3999991Y-4499990D03*
D27*
G01*
X724992Y-5999987D03*
G01*
X474979Y-5999987D03*
D16*
G01*
X2499995Y-5074996D03*
G01*
X2699994Y-5074996D03*
G01*
X2899994Y-5074996D03*
G01*
X3099993Y-5074996D03*
D26*
G01*
X2072994Y-6299988D03*
D22*
G01*
X2326995Y-6299987D03*
D28*
G01*
X3613490Y-1903895D03*
D29*
G01*
X3813495Y-1903895D03*
D28*
G01*
X3613490Y-1637195D03*
D29*
G01*
X3813495Y-1637195D03*
D30*
G01*
X4246892Y-2868220D03*
D31*
G01*
X4246892Y-2717570D03*
D32*
G01*
X4056405Y-2717571D03*
G01*
X4056405Y-2868218D03*
D22*
G01*
X5399989Y-5796000D03*
G01*
X5399989Y-6050000D03*
D23*
G01*
X5399989Y-6304000D03*
D22*
G01*
X5799988Y-5796000D03*
G01*
X5799988Y-6050000D03*
D23*
G01*
X5799988Y-6304000D03*
D22*
G01*
X6199987Y-5796000D03*
G01*
X6199987Y-6050000D03*
D23*
G01*
X6199987Y-6304000D03*
D22*
G01*
X6599986Y-5796000D03*
G01*
X6599986Y-6050000D03*
D23*
G01*
X6599986Y-6304000D03*
M02*
