G04 Layer: TopLayer*
G04 EasyEDA v6.5.40, 2024-05-01 13:46:42*
G04 7703e67730494ffebf129c6139567d94,10*
G04 Gerber Generator version 0.2*
G04 Scale: 100 percent, Rotated: No, Reflected: No *
G04 Dimensions in millimeters *
G04 leading zeros omitted , absolute positions ,4 integer and 5 decimal *
%FSLAX45Y45*%
%MOMM*%

%AMMACRO1*21,1,$1,$2,0,0,$3*%
%ADD10C,1.0000*%
%ADD11C,0.3000*%
%ADD12C,0.6000*%
%ADD13C,0.5000*%
%ADD14C,1.5000*%
%ADD15C,0.7000*%
%ADD16R,7.0000X8.0000*%
%ADD17R,6.0000X6.0000*%
%ADD18R,3.5000X2.3500*%
%ADD19MACRO1,1.35X1.41X90.0000*%
%ADD20R,1.0000X0.8999*%
%ADD21MACRO1,1.35X1.41X0.0000*%
%ADD22R,1.3500X1.4100*%
%ADD23R,2.8000X0.8000*%
%ADD24R,2.0000X2.0000*%
%ADD25R,0.6000X1.3000*%
%ADD26R,3.5000X2.5000*%
%ADD27R,1.7000X1.7000*%
%ADD28MACRO1,1.35X1.41X-90.0000*%
%ADD29MACRO1,0.864X0.8065X0.0000*%
%ADD30R,0.8640X0.8065*%
%ADD31C,1.4000*%
%ADD32C,1.7000*%
%ADD33C,0.6100*%
%ADD34C,0.0112*%

%LPD*%
G36*
X3066542Y-1892909D02*
G01*
X3062681Y-1892147D01*
X3059379Y-1889912D01*
X3057144Y-1886610D01*
X3056382Y-1882749D01*
X3056382Y-1653082D01*
X3057144Y-1649171D01*
X3059379Y-1645869D01*
X3062681Y-1643684D01*
X3066542Y-1642922D01*
X3396234Y-1642922D01*
X3400145Y-1643684D01*
X3403396Y-1645869D01*
X3405632Y-1649171D01*
X3406394Y-1653082D01*
X3406394Y-1882749D01*
X3405632Y-1886610D01*
X3403396Y-1889912D01*
X3400145Y-1892147D01*
X3396234Y-1892909D01*
G37*

%LPD*%
G36*
X2635605Y-2317902D02*
G01*
X2631694Y-2317140D01*
X2628442Y-2314905D01*
X2609392Y-2295855D01*
X2607157Y-2292553D01*
X2606395Y-2288692D01*
X2606395Y-2069134D01*
X2606700Y-2066696D01*
X2631236Y-1968500D01*
X2631389Y-1967280D01*
X2631389Y-1653082D01*
X2632151Y-1649171D01*
X2634386Y-1645869D01*
X2637688Y-1643684D01*
X2641549Y-1642922D01*
X2846222Y-1642922D01*
X2850134Y-1643684D01*
X2853436Y-1645869D01*
X2855620Y-1649171D01*
X2856382Y-1653082D01*
X2856382Y-2041906D01*
X2857398Y-2042922D01*
X3002178Y-2042922D01*
X3006090Y-2043684D01*
X3009392Y-2045868D01*
X3055670Y-2092198D01*
X3057398Y-2092909D01*
X3496259Y-2092909D01*
X3500120Y-2093671D01*
X3503422Y-2095855D01*
X3505606Y-2099157D01*
X3506368Y-2103069D01*
X3506368Y-2232761D01*
X3505606Y-2236622D01*
X3503422Y-2239924D01*
X3500120Y-2242108D01*
X3496259Y-2242921D01*
X3357372Y-2242921D01*
X3355695Y-2243582D01*
X3334359Y-2264918D01*
X3331057Y-2267102D01*
X3327196Y-2267915D01*
X3032404Y-2267915D01*
X3030677Y-2268626D01*
X2984347Y-2314905D01*
X2981096Y-2317140D01*
X2977184Y-2317902D01*
G37*

%LPD*%
G36*
X3485591Y-2592882D02*
G01*
X3481730Y-2592120D01*
X3478428Y-2589936D01*
X3459378Y-2570886D01*
X3457143Y-2567584D01*
X3456381Y-2563672D01*
X3456381Y-2328062D01*
X3457143Y-2324150D01*
X3459378Y-2320848D01*
X3462680Y-2318664D01*
X3466541Y-2317902D01*
X3680409Y-2317902D01*
X3681374Y-2316886D01*
X3681374Y-2122119D01*
X3682187Y-2118207D01*
X3684371Y-2114905D01*
X3705555Y-2093722D01*
X3706774Y-2091791D01*
X3731158Y-2018690D01*
X3731412Y-2017064D01*
X3731412Y-1578051D01*
X3732174Y-1574190D01*
X3734358Y-1570888D01*
X3737660Y-1568653D01*
X3741572Y-1567891D01*
X4046220Y-1567891D01*
X4050131Y-1568653D01*
X4053433Y-1570888D01*
X4055618Y-1574190D01*
X4056379Y-1578051D01*
X4056379Y-1982724D01*
X4055618Y-1986635D01*
X4053433Y-1989937D01*
X4050131Y-1992122D01*
X4046220Y-1992884D01*
X3932783Y-1992884D01*
X3930192Y-1993595D01*
X3806951Y-2067560D01*
X3805936Y-2068322D01*
X3757117Y-2117191D01*
X3756406Y-2118918D01*
X3756406Y-2316886D01*
X3757371Y-2317902D01*
X3821226Y-2317902D01*
X3825138Y-2318664D01*
X3828440Y-2320848D01*
X3830624Y-2324150D01*
X3831386Y-2328062D01*
X3831386Y-2582722D01*
X3830624Y-2586634D01*
X3828440Y-2589936D01*
X3825138Y-2592120D01*
X3821226Y-2592882D01*
G37*

%LPD*%
G36*
X3085592Y-3292906D02*
G01*
X3081731Y-3292144D01*
X3078429Y-3289909D01*
X2732125Y-2943606D01*
X2730398Y-2942894D01*
X2616555Y-2942894D01*
X2612644Y-2942132D01*
X2609392Y-2939897D01*
X2607157Y-2936646D01*
X2606395Y-2932734D01*
X2606395Y-2678074D01*
X2607157Y-2674162D01*
X2609392Y-2670860D01*
X2612644Y-2668676D01*
X2616555Y-2667914D01*
X3021228Y-2667914D01*
X3025140Y-2668676D01*
X3028442Y-2670860D01*
X3030626Y-2674162D01*
X3031388Y-2678074D01*
X3031388Y-2916885D01*
X3032099Y-2918612D01*
X3280664Y-3167176D01*
X3282391Y-3167888D01*
X3377184Y-3167888D01*
X3381095Y-3168650D01*
X3384346Y-3170885D01*
X3403396Y-3189935D01*
X3405632Y-3193237D01*
X3406394Y-3197098D01*
X3406394Y-3282746D01*
X3405632Y-3286607D01*
X3403396Y-3289909D01*
X3400145Y-3292144D01*
X3396234Y-3292906D01*
G37*

%LPD*%
G36*
X3941572Y-3342894D02*
G01*
X3937660Y-3342132D01*
X3934358Y-3339896D01*
X3932174Y-3336645D01*
X3931412Y-3332734D01*
X3931412Y-3293872D01*
X3930396Y-3292906D01*
X3591560Y-3292906D01*
X3587648Y-3292144D01*
X3584346Y-3289909D01*
X3582162Y-3286607D01*
X3581400Y-3282746D01*
X3581400Y-3178048D01*
X3582162Y-3174187D01*
X3584346Y-3170885D01*
X3587648Y-3168650D01*
X3591560Y-3167888D01*
X3855415Y-3167888D01*
X3856380Y-3166872D01*
X3856380Y-2972104D01*
X3857142Y-2968193D01*
X3859377Y-2964942D01*
X3878427Y-2945892D01*
X3881729Y-2943656D01*
X3885590Y-2942894D01*
X3980383Y-2942894D01*
X3981399Y-2941878D01*
X3981399Y-2828036D01*
X3982161Y-2824175D01*
X3984345Y-2820873D01*
X3987647Y-2818688D01*
X3991559Y-2817876D01*
X4096258Y-2817876D01*
X4100118Y-2818688D01*
X4103420Y-2820873D01*
X4105605Y-2824175D01*
X4106418Y-2828036D01*
X4106418Y-3032760D01*
X4105605Y-3036620D01*
X4103420Y-3039922D01*
X4100118Y-3042107D01*
X4096258Y-3042920D01*
X4032402Y-3042920D01*
X4031386Y-3043885D01*
X4031386Y-3332734D01*
X4030624Y-3336645D01*
X4028440Y-3339896D01*
X4025137Y-3342132D01*
X4021226Y-3342894D01*
G37*

%LPD*%
G36*
X5505856Y-5100015D02*
G01*
X5502351Y-5099354D01*
X5499303Y-5097627D01*
X5497068Y-5094935D01*
X5051348Y-4327347D01*
X5050332Y-4324908D01*
X5049977Y-4322267D01*
X5049977Y-1725980D01*
X5049520Y-1724406D01*
X4725060Y-1325067D01*
X4450791Y-1000912D01*
X4449013Y-999998D01*
X3710178Y-999998D01*
X3706266Y-999236D01*
X3702964Y-997000D01*
X3700779Y-993749D01*
X3700018Y-989837D01*
X3700018Y-210159D01*
X3700779Y-206248D01*
X3702964Y-202996D01*
X3706266Y-200761D01*
X3710178Y-199999D01*
X6595770Y-199999D01*
X6599681Y-200761D01*
X6602984Y-202996D01*
X7196988Y-797001D01*
X7199223Y-800303D01*
X7199985Y-804214D01*
X7199985Y-4995773D01*
X7199223Y-4999685D01*
X7196988Y-5002987D01*
X7102957Y-5097018D01*
X7099655Y-5099202D01*
X7095794Y-5100015D01*
G37*

%LPD*%
G36*
X1560169Y-5974994D02*
G01*
X1556258Y-5974232D01*
X1552956Y-5971997D01*
X1550771Y-5968695D01*
X1550009Y-5964834D01*
X1550009Y-5010150D01*
X1550771Y-5006238D01*
X1552956Y-5002987D01*
X1556258Y-5000752D01*
X1560169Y-4999990D01*
X1889861Y-4999990D01*
X1893722Y-5000752D01*
X1897024Y-5002987D01*
X1899208Y-5006238D01*
X1900021Y-5010150D01*
X1900021Y-5964834D01*
X1899208Y-5968695D01*
X1897024Y-5971997D01*
X1893722Y-5974232D01*
X1889861Y-5974994D01*
G37*

%LPD*%
G36*
X904189Y-6399987D02*
G01*
X900328Y-6399225D01*
X897026Y-6396990D01*
X651154Y-6151168D01*
X649274Y-6148527D01*
X625856Y-6101740D01*
X624840Y-6098032D01*
X620014Y-6039612D01*
X610057Y-5103926D01*
X610870Y-5100015D01*
X-89814Y-5100015D01*
X-93726Y-5099202D01*
X-97028Y-5097018D01*
X-99212Y-5093716D01*
X-99974Y-5089855D01*
X-99974Y-904595D01*
X-99110Y-900430D01*
X-96520Y-896975D01*
X697128Y-202488D01*
X700227Y-200660D01*
X703834Y-199999D01*
X3289808Y-199999D01*
X3293719Y-200761D01*
X3297021Y-202996D01*
X3299206Y-206248D01*
X3300018Y-210159D01*
X3300018Y-989837D01*
X3299206Y-993749D01*
X3297021Y-997000D01*
X3293719Y-999236D01*
X3289808Y-999998D01*
X1901037Y-999998D01*
X1900021Y-1001014D01*
X1924964Y-4419803D01*
X1924456Y-4422952D01*
X1923034Y-4425797D01*
X1920798Y-4428083D01*
X1500022Y-4735118D01*
X1500022Y-6345783D01*
X1499209Y-6349644D01*
X1497025Y-6352946D01*
X1452981Y-6396990D01*
X1449679Y-6399225D01*
X1445768Y-6399987D01*
G37*

%LPD*%
D10*
X2874995Y-6049987D02*
G01*
X6599984Y-6049987D01*
X2072995Y-6299987D02*
G01*
X2072995Y-6151989D01*
X2174996Y-6049987D01*
X2874995Y-6049987D01*
X3230816Y-3237318D02*
G01*
X3230816Y-3694170D01*
X2072995Y-4851991D01*
X2072995Y-6299987D01*
D11*
X3099993Y-5074991D02*
G01*
X3353996Y-5074991D01*
X4074993Y-5795987D01*
X2899994Y-5074991D02*
G01*
X3620990Y-5795987D01*
X3674993Y-5795987D01*
X2699994Y-5074991D02*
G01*
X2699994Y-5220987D01*
X3274994Y-5795987D01*
X2499995Y-5074991D02*
G01*
X2499995Y-5420987D01*
X2874995Y-5795987D01*
D12*
X2349995Y-4299991D02*
G01*
X2250008Y-4200004D01*
X2250008Y-4099991D01*
X3399990Y-4499990D02*
G01*
X2724988Y-4499990D01*
X2724988Y-4499990D01*
D13*
X3599990Y-4499990D02*
G01*
X3599990Y-4349986D01*
X3349998Y-4099991D01*
X3099993Y-4099991D01*
D14*
X3613492Y-1903897D02*
G01*
X3613492Y-1637197D01*
D13*
X3840416Y-2719920D02*
G01*
X4246816Y-2717634D01*
X3256216Y-2384897D02*
G01*
X3256216Y-2520020D01*
X3456365Y-2719920D01*
D15*
X3586492Y-2179993D02*
G01*
X3586492Y-2062797D01*
X3613492Y-2035797D01*
X3613492Y-1903897D01*
D13*
X2756377Y-3542903D02*
G01*
X2741371Y-3527897D01*
X2531399Y-3527897D01*
X2531399Y-3357897D02*
G01*
X2531399Y-3192891D01*
X2556390Y-3167895D01*
X2756377Y-3342878D02*
G01*
X2861947Y-3237316D01*
X3230816Y-3237316D01*
X3800091Y-4500115D02*
G01*
X3800091Y-4175000D01*
X3949948Y-4024884D01*
X4474977Y-4024884D01*
X4474977Y-1924989D01*
X4474997Y-1924989D01*
X2750007Y-3899992D02*
G01*
X2549984Y-3899992D01*
X2225042Y-3575050D01*
X2225042Y-1899920D01*
X2249934Y-1899920D01*
X3230879Y-3237229D02*
G01*
X3230879Y-3380994D01*
X3674872Y-3824986D01*
X4246879Y-3824986D01*
X4246879Y-2868168D01*
D14*
X3613505Y-1637207D02*
G01*
X3199891Y-1223594D01*
X3199891Y-599950D01*
X2899915Y-599950D01*
D11*
X4700015Y-5074920D02*
G01*
X4975097Y-5350002D01*
X6199886Y-5350002D01*
X6199886Y-5846063D01*
X4500118Y-5074920D02*
G01*
X4875275Y-5450078D01*
X5800090Y-5450078D01*
X5800090Y-5796026D01*
X4299965Y-5074920D02*
G01*
X4774945Y-5549900D01*
X5400040Y-5549900D01*
X5400040Y-5796026D01*
X3999991Y-4500118D02*
G01*
X3999991Y-5100065D01*
X4400041Y-5499862D01*
X4474972Y-5499862D01*
X4774945Y-5800089D01*
X4870958Y-5800089D01*
X4875022Y-5796026D01*
D13*
X3999991Y-4499990D02*
G01*
X4249978Y-4250004D01*
X4650003Y-4250004D01*
D11*
X3800093Y-4500118D02*
G01*
X3800093Y-5199887D01*
X4395977Y-5796026D01*
X4474972Y-5796026D01*
X4899913Y-5074920D02*
G01*
X5074920Y-5249926D01*
X6299961Y-5249926D01*
X6599936Y-5549900D01*
X6599936Y-5796026D01*
D16*
G01*
X2899994Y-599998D03*
G01*
X4099991Y-599998D03*
D17*
G01*
X6699986Y-1099997D03*
G01*
X6699986Y-2299995D03*
G01*
X6699986Y-3499993D03*
G01*
X6699986Y-4699990D03*
G01*
X399999Y-4699990D03*
G01*
X399999Y-3499993D03*
G01*
X399999Y-2299995D03*
G01*
X399999Y-1099997D03*
D18*
G01*
X2799994Y-2802509D03*
G01*
X2799994Y-2197506D03*
D19*
G01*
X1625000Y-5074991D03*
G01*
X1424995Y-5074991D03*
D20*
G01*
X2524988Y-3364992D03*
G01*
X2524988Y-3534994D03*
D19*
G01*
X1625000Y-5899988D03*
G01*
X1424995Y-5899988D03*
G01*
X1625000Y-5624990D03*
G01*
X1424995Y-5624990D03*
G01*
X1625000Y-5349989D03*
G01*
X1424995Y-5349989D03*
D21*
G01*
X3256216Y-2384821D03*
D22*
G01*
X3256229Y-2184806D03*
D23*
G01*
X3738829Y-3237331D03*
G01*
X3230829Y-3237331D03*
D24*
G01*
X2736392Y-1767890D03*
G01*
X3176397Y-1767890D03*
D21*
G01*
X2756395Y-3542896D03*
D22*
G01*
X2756408Y-3342894D03*
D24*
G01*
X2250008Y-4099991D03*
G01*
X2250008Y-1899996D03*
G01*
X4474997Y-1924989D03*
G01*
X4650003Y-4250004D03*
D25*
G01*
X3459505Y-2719984D03*
G01*
X3586505Y-2719984D03*
G01*
X3713505Y-2719984D03*
G01*
X3840505Y-2719984D03*
G01*
X3840505Y-2180005D03*
G01*
X3713505Y-2180005D03*
G01*
X3586505Y-2180005D03*
G01*
X3459505Y-2180005D03*
D26*
G01*
X3649979Y-2450007D03*
D27*
G01*
X1372996Y-6299987D03*
G01*
X2072995Y-6299987D03*
D28*
G01*
X3613490Y-1903895D03*
G01*
X3813495Y-1903895D03*
G01*
X3613490Y-1637195D03*
G01*
X3813495Y-1637195D03*
D29*
G01*
X4246892Y-2868220D03*
D30*
G01*
X4246905Y-2717571D03*
D29*
G01*
X4056392Y-2717570D03*
D30*
G01*
X4056405Y-2868218D03*
D31*
G01*
X4299965Y-5074920D03*
G01*
X4499965Y-5074920D03*
G01*
X4699965Y-5074920D03*
G01*
X4899964Y-5074920D03*
D32*
G01*
X2875000Y-5796000D03*
G01*
X2875000Y-6050000D03*
D27*
G01*
X2875000Y-6304000D03*
D32*
G01*
X3274999Y-5796000D03*
G01*
X3274999Y-6050000D03*
D27*
G01*
X3274999Y-6304000D03*
D32*
G01*
X4474997Y-5796000D03*
G01*
X4474997Y-6050000D03*
D27*
G01*
X4474997Y-6304000D03*
D32*
G01*
X4874996Y-5796000D03*
G01*
X4874996Y-6050000D03*
D27*
G01*
X4874996Y-6304000D03*
D32*
G01*
X3674999Y-5796000D03*
G01*
X3674999Y-6050000D03*
D27*
G01*
X3674999Y-6304000D03*
D32*
G01*
X4074998Y-5796000D03*
G01*
X4074998Y-6050000D03*
D27*
G01*
X4074998Y-6304000D03*
D32*
G01*
X1626996Y-6299987D03*
D31*
G01*
X3399993Y-4499990D03*
G01*
X3599992Y-4499990D03*
G01*
X3799992Y-4499990D03*
G01*
X3999991Y-4499990D03*
D32*
G01*
X724992Y-5999987D03*
G01*
X474979Y-5999987D03*
D31*
G01*
X2499995Y-5074996D03*
G01*
X2699994Y-5074996D03*
G01*
X2899994Y-5074996D03*
G01*
X3099993Y-5074996D03*
D32*
G01*
X2326995Y-6299987D03*
G01*
X5399989Y-5796000D03*
G01*
X5399989Y-6050000D03*
D27*
G01*
X5399989Y-6304000D03*
D32*
G01*
X5799988Y-5796000D03*
G01*
X5799988Y-6050000D03*
D27*
G01*
X5799988Y-6304000D03*
D32*
G01*
X6199987Y-5796000D03*
G01*
X6199987Y-6050000D03*
D27*
G01*
X6199987Y-6304000D03*
D32*
G01*
X6599986Y-5796000D03*
G01*
X6599986Y-6050000D03*
D27*
G01*
X6599986Y-6304000D03*
D33*
G01*
X3981399Y-3192906D03*
G01*
X3981399Y-3292906D03*
G01*
X3981399Y-3092907D03*
G01*
X4056405Y-2992907D03*
G01*
X2556383Y-3167887D03*
G01*
X3899992Y-399999D03*
G01*
X4099991Y-399999D03*
G01*
X4299991Y-399999D03*
G01*
X4299991Y-599998D03*
G01*
X4099991Y-599998D03*
G01*
X3899992Y-599998D03*
G01*
X3899992Y-799998D03*
G01*
X4099991Y-799998D03*
G01*
X4299991Y-799998D03*
G01*
X2750007Y-3899992D03*
G01*
X3099993Y-4099991D03*
G01*
X2350008Y-4299991D03*
G01*
X2724988Y-4499990D03*
G01*
X3350006Y-1699996D03*
G01*
X3350006Y-1799996D03*
G01*
X3999991Y-1624990D03*
G01*
X3999991Y-1775002D03*
G01*
X3999991Y-1924989D03*
G01*
X2699994Y-399999D03*
G01*
X2899994Y-399999D03*
G01*
X3099993Y-399999D03*
G01*
X3099993Y-599998D03*
G01*
X2899994Y-599998D03*
G01*
X2699994Y-599998D03*
G01*
X2699994Y-799998D03*
G01*
X2899994Y-799998D03*
G01*
X3099993Y-799998D03*
G01*
X250012Y-950010D03*
G01*
X550011Y-950010D03*
G01*
X250012Y-1250010D03*
G01*
X550011Y-1250010D03*
G01*
X399999Y-1099997D03*
G01*
X399999Y-2299995D03*
G01*
X550011Y-2450007D03*
G01*
X250012Y-2450007D03*
G01*
X550011Y-2150008D03*
G01*
X250012Y-2150008D03*
G01*
X399999Y-3499993D03*
G01*
X550011Y-3650005D03*
G01*
X250012Y-3650005D03*
G01*
X550011Y-3350005D03*
G01*
X250012Y-3350005D03*
G01*
X399999Y-4699990D03*
G01*
X550011Y-4850003D03*
G01*
X250012Y-4850003D03*
G01*
X550011Y-4550003D03*
G01*
X250012Y-4550003D03*
G01*
X6549999Y-950010D03*
G01*
X6849999Y-950010D03*
G01*
X6849999Y-1250010D03*
G01*
X6549999Y-1250010D03*
G01*
X6699986Y-1099997D03*
G01*
X6699986Y-2299995D03*
G01*
X6549999Y-2450007D03*
G01*
X6849999Y-2450007D03*
G01*
X6849999Y-2150008D03*
G01*
X6549999Y-2150008D03*
G01*
X6699986Y-3499993D03*
G01*
X6549999Y-3650005D03*
G01*
X6849999Y-3650005D03*
G01*
X6849999Y-3350005D03*
G01*
X6549999Y-3350005D03*
G01*
X6699986Y-4699990D03*
G01*
X6549999Y-4850003D03*
G01*
X6849999Y-4850003D03*
G01*
X6849999Y-4550003D03*
G01*
X6549999Y-4550003D03*
G01*
X4681296Y-281304D03*
G01*
X4681296Y-581304D03*
G01*
X4681296Y-881303D03*
G01*
X4681296Y-1181303D03*
G01*
X4981295Y-281304D03*
G01*
X4981295Y-581304D03*
G01*
X4981295Y-881303D03*
G01*
X4981295Y-1181303D03*
G01*
X4981295Y-1481302D03*
G01*
X5281295Y-281304D03*
G01*
X5281295Y-581304D03*
G01*
X5281295Y-881303D03*
G01*
X5281295Y-1181303D03*
G01*
X5281295Y-1481302D03*
G01*
X5281295Y-1781302D03*
G01*
X5281295Y-2081301D03*
G01*
X5281295Y-2381300D03*
G01*
X5281295Y-2681300D03*
G01*
X5281295Y-2981299D03*
G01*
X5281295Y-3281298D03*
G01*
X5281295Y-3581298D03*
G01*
X5281295Y-3881297D03*
G01*
X5281295Y-4181297D03*
G01*
X5281295Y-4481296D03*
G01*
X5581294Y-281304D03*
G01*
X5581294Y-581304D03*
G01*
X5581294Y-881303D03*
G01*
X5581294Y-1181303D03*
G01*
X5581294Y-1481302D03*
G01*
X5581294Y-1781302D03*
G01*
X5581294Y-2081301D03*
G01*
X5581294Y-2381300D03*
G01*
X5581294Y-2681300D03*
G01*
X5581294Y-2981299D03*
G01*
X5581294Y-3281298D03*
G01*
X5581294Y-3581298D03*
G01*
X5581294Y-3881297D03*
G01*
X5581294Y-4181297D03*
G01*
X5581294Y-4481296D03*
G01*
X5581294Y-4781295D03*
G01*
X5881293Y-281304D03*
G01*
X5881293Y-581304D03*
G01*
X5881293Y-881303D03*
G01*
X5881293Y-1181303D03*
G01*
X5881293Y-1481302D03*
G01*
X5881293Y-1781302D03*
G01*
X5881293Y-2081301D03*
G01*
X5881293Y-2381300D03*
G01*
X5881293Y-2681300D03*
G01*
X5881293Y-2981299D03*
G01*
X5881293Y-3281298D03*
G01*
X5881293Y-3581298D03*
G01*
X5881293Y-3881297D03*
G01*
X5881293Y-4181297D03*
G01*
X5881293Y-4481296D03*
G01*
X5881293Y-4781295D03*
G01*
X6181293Y-281304D03*
G01*
X6181293Y-581304D03*
G01*
X6181293Y-881303D03*
G01*
X6181293Y-1181303D03*
G01*
X6181293Y-1481302D03*
G01*
X6181293Y-1781302D03*
G01*
X6181293Y-2081301D03*
G01*
X6181293Y-2381300D03*
G01*
X6181293Y-2681300D03*
G01*
X6181293Y-2981299D03*
G01*
X6181293Y-3281298D03*
G01*
X6181293Y-3581298D03*
G01*
X6181293Y-3881297D03*
G01*
X6181293Y-4181297D03*
G01*
X6181293Y-4481296D03*
G01*
X6181293Y-4781295D03*
G01*
X6481292Y-281304D03*
G01*
X6481292Y-581304D03*
G01*
X6481292Y-1481302D03*
G01*
X6481292Y-1781302D03*
G01*
X6481292Y-2681300D03*
G01*
X6481292Y-2981299D03*
G01*
X6481292Y-3881297D03*
G01*
X6481292Y-4181297D03*
G01*
X6781291Y-581304D03*
G01*
X6781291Y-1481302D03*
G01*
X6781291Y-1781302D03*
G01*
X6781291Y-2681300D03*
G01*
X6781291Y-2981299D03*
G01*
X6781291Y-3881297D03*
G01*
X6781291Y-4181297D03*
G01*
X7081291Y-881303D03*
G01*
X7081291Y-1181303D03*
G01*
X7081291Y-1481302D03*
G01*
X7081291Y-1781302D03*
G01*
X7081291Y-2081301D03*
G01*
X7081291Y-2381300D03*
G01*
X7081291Y-2681300D03*
G01*
X7081291Y-2981299D03*
G01*
X7081291Y-3281298D03*
G01*
X7081291Y-3581298D03*
G01*
X7081291Y-3881297D03*
G01*
X7081291Y-4181297D03*
G01*
X7081291Y-4481296D03*
G01*
X7081291Y-4781295D03*
G01*
X-18694Y-1181303D03*
G01*
X-18694Y-1481302D03*
G01*
X-18694Y-1781302D03*
G01*
X-18694Y-2081301D03*
G01*
X-18694Y-2381300D03*
G01*
X-18694Y-2681300D03*
G01*
X-18694Y-2981299D03*
G01*
X-18694Y-3281298D03*
G01*
X-18694Y-3581298D03*
G01*
X-18694Y-3881297D03*
G01*
X-18694Y-4181297D03*
G01*
X-18694Y-4481296D03*
G01*
X-18694Y-4781295D03*
G01*
X281304Y-1481302D03*
G01*
X281304Y-1781302D03*
G01*
X281304Y-2681300D03*
G01*
X281304Y-2981299D03*
G01*
X281304Y-3881297D03*
G01*
X281304Y-4181297D03*
G01*
X581304Y-581304D03*
G01*
X581304Y-1481302D03*
G01*
X581304Y-1781302D03*
G01*
X581304Y-2681300D03*
G01*
X581304Y-2981299D03*
G01*
X581304Y-3881297D03*
G01*
X581304Y-4181297D03*
G01*
X881303Y-281304D03*
G01*
X881303Y-581304D03*
G01*
X881303Y-881303D03*
G01*
X881303Y-1181303D03*
G01*
X881303Y-1481302D03*
G01*
X881303Y-1781302D03*
G01*
X881303Y-2081301D03*
G01*
X881303Y-2381300D03*
G01*
X881303Y-2681300D03*
G01*
X881303Y-2981299D03*
G01*
X881303Y-3281298D03*
G01*
X881303Y-3581298D03*
G01*
X881303Y-3881297D03*
G01*
X881303Y-4181297D03*
G01*
X881303Y-4481296D03*
G01*
X881303Y-4781295D03*
G01*
X1181303Y-281304D03*
G01*
X1181303Y-581304D03*
G01*
X1181303Y-881303D03*
G01*
X1181303Y-1181303D03*
G01*
X1181303Y-1481302D03*
G01*
X1181303Y-1781302D03*
G01*
X1181303Y-2081301D03*
G01*
X1181303Y-2381300D03*
G01*
X1181303Y-2681300D03*
G01*
X1181303Y-2981299D03*
G01*
X1181303Y-3281298D03*
G01*
X1181303Y-3581298D03*
G01*
X1181303Y-3881297D03*
G01*
X1181303Y-4181297D03*
G01*
X1181303Y-4481296D03*
G01*
X1181303Y-4781295D03*
G01*
X1481302Y-281304D03*
G01*
X1481302Y-581304D03*
G01*
X1481302Y-881303D03*
G01*
X1481302Y-1181303D03*
G01*
X1481302Y-1481302D03*
G01*
X1481302Y-1781302D03*
G01*
X1481302Y-2081301D03*
G01*
X1481302Y-2381300D03*
G01*
X1481302Y-2681300D03*
G01*
X1481302Y-2981299D03*
G01*
X1481302Y-3281298D03*
G01*
X1481302Y-3581298D03*
G01*
X1481302Y-3881297D03*
G01*
X1481302Y-4181297D03*
G01*
X1481302Y-4481296D03*
G01*
X1781302Y-281304D03*
G01*
X1781302Y-581304D03*
G01*
X1781302Y-881303D03*
G01*
X1781302Y-1181303D03*
G01*
X1781302Y-1481302D03*
G01*
X1781302Y-1781302D03*
G01*
X1781302Y-2081301D03*
G01*
X1781302Y-2381300D03*
G01*
X1781302Y-2681300D03*
G01*
X1781302Y-2981299D03*
G01*
X1781302Y-3281298D03*
G01*
X1781302Y-3581298D03*
G01*
X1781302Y-3881297D03*
G01*
X1781302Y-4181297D03*
G01*
X2081301Y-281304D03*
G01*
X2081301Y-581304D03*
G01*
X2081301Y-881303D03*
G01*
X2381300Y-281304D03*
G01*
X2381300Y-581304D03*
G01*
X2381300Y-881303D03*
G01*
X1850009Y-5099989D03*
G01*
X1850009Y-5274995D03*
G01*
X1850009Y-5474995D03*
G01*
X1850009Y-5674995D03*
G01*
X1850009Y-5874994D03*
M02*
