G04 Layer: TopPasteMaskLayer*
G04 EasyEDA v6.5.40, 2024-05-01 13:46:42*
G04 7703e67730494ffebf129c6139567d94,10*
G04 Gerber Generator version 0.2*
G04 Scale: 100 percent, Rotated: No, Reflected: No *
G04 Dimensions in millimeters *
G04 leading zeros omitted , absolute positions ,4 integer and 5 decimal *
%FSLAX45Y45*%
%MOMM*%

%ADD10R,7.0000X8.0000*%
%ADD11R,3.5000X2.3500*%
%ADD12R,1.0000X0.8999*%
%ADD13R,2.8000X0.8000*%
%ADD14R,2.0000X2.0000*%
%ADD15R,0.6000X1.3000*%
%ADD16R,3.5000X2.5000*%
%ADD17R,1.7000X1.7000*%

%LPD*%
G36*
X1362506Y-5004003D02*
G01*
X1357477Y-5008981D01*
X1357477Y-5136997D01*
X1362506Y-5141976D01*
X1477518Y-5141976D01*
X1482496Y-5136997D01*
X1481988Y-5094986D01*
X1437995Y-5094986D01*
X1437995Y-5049977D01*
X1483004Y-5049977D01*
X1482496Y-5008981D01*
X1477518Y-5004003D01*
G37*
G36*
X1577492Y-5004003D02*
G01*
X1572514Y-5008981D01*
X1573022Y-5049977D01*
X1617014Y-5049977D01*
X1617014Y-5094986D01*
X1572514Y-5094986D01*
X1572514Y-5136997D01*
X1577492Y-5141976D01*
X1692503Y-5141976D01*
X1697482Y-5136997D01*
X1697482Y-5008981D01*
X1692503Y-5004003D01*
G37*
G36*
X1362506Y-5828995D02*
G01*
X1357477Y-5833973D01*
X1357477Y-5961989D01*
X1362506Y-5966968D01*
X1477518Y-5966968D01*
X1482496Y-5961989D01*
X1481988Y-5919978D01*
X1437995Y-5919978D01*
X1437995Y-5874969D01*
X1483004Y-5874969D01*
X1482496Y-5833973D01*
X1477518Y-5828995D01*
G37*
G36*
X1577492Y-5828995D02*
G01*
X1572514Y-5833973D01*
X1573022Y-5874969D01*
X1617014Y-5874969D01*
X1617014Y-5919978D01*
X1572514Y-5919978D01*
X1572514Y-5961989D01*
X1577492Y-5966968D01*
X1692503Y-5966968D01*
X1697482Y-5961989D01*
X1697482Y-5833973D01*
X1692503Y-5828995D01*
G37*
G36*
X1362506Y-5553964D02*
G01*
X1357477Y-5558993D01*
X1357477Y-5687009D01*
X1362506Y-5691987D01*
X1477518Y-5691987D01*
X1482496Y-5687009D01*
X1481988Y-5644997D01*
X1437995Y-5644997D01*
X1437995Y-5599988D01*
X1483004Y-5599988D01*
X1482496Y-5558993D01*
X1477518Y-5553964D01*
G37*
G36*
X1577492Y-5553964D02*
G01*
X1572514Y-5558993D01*
X1573022Y-5599988D01*
X1617014Y-5599988D01*
X1617014Y-5644997D01*
X1572514Y-5644997D01*
X1572514Y-5687009D01*
X1577492Y-5691987D01*
X1692503Y-5691987D01*
X1697482Y-5687009D01*
X1697482Y-5558993D01*
X1692503Y-5553964D01*
G37*
G36*
X1362506Y-5278983D02*
G01*
X1357477Y-5283962D01*
X1357477Y-5411978D01*
X1362506Y-5417007D01*
X1477518Y-5417007D01*
X1482496Y-5411978D01*
X1481988Y-5369966D01*
X1437995Y-5369966D01*
X1437995Y-5325008D01*
X1483004Y-5325008D01*
X1482496Y-5283962D01*
X1477518Y-5278983D01*
G37*
G36*
X1577492Y-5278983D02*
G01*
X1572514Y-5283962D01*
X1573022Y-5325008D01*
X1617014Y-5325008D01*
X1617014Y-5369966D01*
X1572514Y-5369966D01*
X1572514Y-5411978D01*
X1577492Y-5417007D01*
X1692503Y-5417007D01*
X1697482Y-5411978D01*
X1697482Y-5283962D01*
X1692503Y-5278983D01*
G37*
G36*
X3194202Y-2117293D02*
G01*
X3189224Y-2122322D01*
X3189224Y-2237333D01*
X3194202Y-2242312D01*
X3236214Y-2241804D01*
X3236214Y-2197811D01*
X3281222Y-2197811D01*
X3281222Y-2242820D01*
X3322218Y-2242312D01*
X3327196Y-2237333D01*
X3327196Y-2122322D01*
X3322218Y-2117293D01*
G37*
G36*
X3194202Y-2332329D02*
G01*
X3189224Y-2337308D01*
X3189224Y-2452319D01*
X3194202Y-2457297D01*
X3322218Y-2457297D01*
X3327196Y-2452319D01*
X3327196Y-2337308D01*
X3322218Y-2332329D01*
X3281222Y-2332837D01*
X3281222Y-2376830D01*
X3236214Y-2376830D01*
X3236214Y-2332329D01*
G37*
G36*
X2694381Y-3275380D02*
G01*
X2689402Y-3280410D01*
X2689402Y-3395370D01*
X2694381Y-3400399D01*
X2736392Y-3399891D01*
X2736392Y-3355898D01*
X2781401Y-3355898D01*
X2781401Y-3400907D01*
X2822397Y-3400399D01*
X2827375Y-3395370D01*
X2827375Y-3280410D01*
X2822397Y-3275380D01*
G37*
G36*
X2694381Y-3490366D02*
G01*
X2689402Y-3495395D01*
X2689402Y-3610406D01*
X2694381Y-3615385D01*
X2822397Y-3615385D01*
X2827375Y-3610406D01*
X2827375Y-3495395D01*
X2822397Y-3490366D01*
X2781401Y-3490874D01*
X2781401Y-3534867D01*
X2736392Y-3534867D01*
X2736392Y-3490417D01*
G37*
G36*
X3760978Y-1836877D02*
G01*
X3755999Y-1841906D01*
X3756507Y-1883918D01*
X3800500Y-1883918D01*
X3800500Y-1928875D01*
X3755491Y-1928875D01*
X3755999Y-1969871D01*
X3760978Y-1974900D01*
X3875989Y-1974900D01*
X3881018Y-1969871D01*
X3881018Y-1841906D01*
X3875989Y-1836877D01*
G37*
G36*
X3545992Y-1836877D02*
G01*
X3541014Y-1841906D01*
X3541014Y-1969871D01*
X3545992Y-1974900D01*
X3661003Y-1974900D01*
X3665982Y-1969871D01*
X3665474Y-1928875D01*
X3621481Y-1928875D01*
X3621481Y-1883918D01*
X3665982Y-1883918D01*
X3665982Y-1841906D01*
X3661003Y-1836877D01*
G37*
G36*
X3760978Y-1570177D02*
G01*
X3755999Y-1575206D01*
X3756507Y-1617218D01*
X3800500Y-1617218D01*
X3800500Y-1662175D01*
X3755491Y-1662175D01*
X3755999Y-1703171D01*
X3760978Y-1708200D01*
X3875989Y-1708200D01*
X3881018Y-1703171D01*
X3881018Y-1575206D01*
X3875989Y-1570177D01*
G37*
G36*
X3545992Y-1570177D02*
G01*
X3541014Y-1575206D01*
X3541014Y-1703171D01*
X3545992Y-1708200D01*
X3661003Y-1708200D01*
X3665982Y-1703171D01*
X3665474Y-1662175D01*
X3621481Y-1662175D01*
X3621481Y-1617218D01*
X3665982Y-1617218D01*
X3665982Y-1575206D01*
X3661003Y-1570177D01*
G37*
G36*
X4206900Y-2827375D02*
G01*
X4201871Y-2832404D01*
X4201871Y-2912414D01*
X4206900Y-2917393D01*
X4286910Y-2917393D01*
X4291888Y-2912414D01*
X4291888Y-2832404D01*
X4286910Y-2827375D01*
X4264101Y-2827375D01*
X4264101Y-2864408D01*
X4231081Y-2864408D01*
X4231081Y-2827375D01*
G37*
G36*
X4206900Y-2668371D02*
G01*
X4201871Y-2673400D01*
X4201871Y-2752394D01*
X4206900Y-2757373D01*
X4231081Y-2757373D01*
X4231081Y-2719374D01*
X4264101Y-2719374D01*
X4264101Y-2757373D01*
X4286910Y-2757373D01*
X4291888Y-2752394D01*
X4291888Y-2673400D01*
X4286910Y-2668371D01*
G37*
G36*
X4016400Y-2668371D02*
G01*
X4011371Y-2673400D01*
X4011371Y-2753410D01*
X4016400Y-2758389D01*
X4039209Y-2758389D01*
X4039209Y-2721406D01*
X4072178Y-2721406D01*
X4072178Y-2758389D01*
X4096410Y-2758389D01*
X4101388Y-2753410D01*
X4101388Y-2673400D01*
X4096410Y-2668371D01*
G37*
G36*
X4016400Y-2828391D02*
G01*
X4011371Y-2833370D01*
X4011371Y-2912414D01*
X4016400Y-2917393D01*
X4096410Y-2917393D01*
X4101388Y-2912414D01*
X4101388Y-2833370D01*
X4096410Y-2828391D01*
X4072178Y-2828391D01*
X4072178Y-2866390D01*
X4039209Y-2866390D01*
X4039209Y-2828391D01*
G37*
D10*
G01*
X2899994Y-599998D03*
G01*
X4099991Y-599998D03*
D11*
G01*
X2799994Y-2802509D03*
G01*
X2799994Y-2197506D03*
D12*
G01*
X2524988Y-3364992D03*
G01*
X2524988Y-3534994D03*
D13*
G01*
X3738829Y-3237331D03*
G01*
X3230829Y-3237331D03*
D14*
G01*
X2736392Y-1767890D03*
G01*
X3176397Y-1767890D03*
G01*
X2250008Y-4099991D03*
G01*
X2250008Y-1899996D03*
G01*
X4474997Y-1924989D03*
G01*
X4650003Y-4250004D03*
D15*
G01*
X3459505Y-2719984D03*
G01*
X3586505Y-2719984D03*
G01*
X3713505Y-2719984D03*
G01*
X3840505Y-2719984D03*
G01*
X3840505Y-2180005D03*
G01*
X3713505Y-2180005D03*
G01*
X3586505Y-2180005D03*
G01*
X3459505Y-2180005D03*
D16*
G01*
X3649979Y-2450007D03*
D17*
G01*
X1372996Y-6299987D03*
G01*
X2072995Y-6299987D03*
M02*
