  0
SECTION
  2
HEADER
  9
$ACADVER
  1
AC1009
  9
$DWGCODEPAGE
  3
ansi_1251
  9
$INSBASE
 10
0.0
 20
0.0
 30
0.0
  9
$EXTMIN
 10
0.0329686
 20
-7.3493067347
 30
0.0
  9
$EXTMAX
 10
250.1304772721
 20
24.6966973504
 30
0.0
  9
$LIMMIN
 10
0.0
 20
0.0
  9
$LIMMAX
 10
420.0
 20
297.0
  9
$ORTHOMODE
 70
     0
  9
$REGENMODE
 70
     1
  9
$FILLMODE
 70
     1
  9
$QTEXTMODE
 70
     0
  9
$MIRRTEXT
 70
     1
  9
$DRAGMODE
 70
     2
  9
$LTSCALE
 40
1.0
  9
$OSMODE
 70
    37
  9
$ATTMODE
 70
     1
  9
$TEXTSIZE
 40
6.35
  9
$TRACEWID
 40
1.0
  9
$TEXTSTYLE
  7
STANDARD
  9
$CLAYER
  8
0
  9
$CELTYPE
  6
BYLAYER
  9
$CECOLOR
 62
   256
  9
$DIMSCALE
 40
1.0
  9
$DIMASZ
 40
5.9944
  9
$DIMEXO
 40
0.0
  9
$DIMDLI
 40
3.75
  9
$DIMRND
 40
0.0
  9
$DIMDLE
 40
0.0
  9
$DIMEXE
 40
0.9906
  9
$DIMTP
 40
0.0
  9
$DIMTM
 40
0.0
  9
$DIMTXT
 40
6.35
  9
$DIMCEN
 40
2.5
  9
$DIMTSZ
 40
0.0
  9
$DIMTOL
 70
     0
  9
$DIMLIM
 70
     0
  9
$DIMTIH
 70
     1
  9
$DIMTOH
 70
     1
  9
$DIMSE1
 70
     0
  9
$DIMSE2
 70
     0
  9
$DIMTAD
 70
     1
  9
$DIMZIN
 70
     0
  9
$DIMBLK
  1

  9
$DIMASO
 70
     1
  9
$DIMSHO
 70
     1
  9
$DIMPOST
  1

  9
$DIMAPOST
  1

  9
$DIMALT
 70
     0
  9
$DIMALTD
 70
     3
  9
$DIMALTF
 40
0.0393700787
  9
$DIMLFAC
 40
1.0
  9
$DIMTOFL
 70
     1
  9
$DIMTVP
 40
0.0
  9
$DIMTIX
 70
     0
  9
$DIMSOXD
 70
     0
  9
$DIMSAH
 70
     0
  9
$DIMBLK1
  1

  9
$DIMBLK2
  1

  9
$DIMSTYLE
  2
ISO-25
  9
$DIMCLRD
 70
     0
  9
$DIMCLRE
 70
     0
  9
$DIMCLRT
 70
     0
  9
$DIMTFAC
 40
1.0
  9
$DIMGAP
 40
1.524
  9
$LUNITS
 70
     2
  9
$LUPREC
 70
     2
  9
$SKETCHINC
 40
1.0
  9
$FILLETRAD
 40
10.0
  9
$AUNITS
 70
     0
  9
$AUPREC
 70
     2
  9
$MENU
  1
.
  9
$ELEVATION
 40
0.0
  9
$PELEVATION
 40
0.0
  9
$THICKNESS
 40
0.0
  9
$LIMCHECK
 70
     0
  9
$CHAMFERA
 40
0.0
  9
$CHAMFERB
 40
0.0
  9
$SKPOLY
 70
     0
  9
$TDCREATE
 40
2460500.590211285
  9
$TDUPDATE
 40
2460500.590332153
  9
$TDINDWG
 40
0.0000000116
  9
$TDUSRTIMER
 40
0.0000000116
  9
$USRTIMER
 70
     1
  9
$ANGBASE
 50
0.0
  9
$ANGDIR
 70
     0
  9
$PDMODE
 70
     0
  9
$PDSIZE
 40
-1.0
  9
$PLINEWID
 40
0.0
  9
$COORDS
 70
     1
  9
$SPLFRAME
 70
     0
  9
$SPLINETYPE
 70
     6
  9
$SPLINESEGS
 70
     8
  9
$ATTDIA
 70
     0
  9
$ATTREQ
 70
     1
  9
$HANDLING
 70
     1
  9
$HANDSEED
  5
116
  9
$SURFTAB1
 70
     6
  9
$SURFTAB2
 70
     6
  9
$SURFTYPE
 70
     6
  9
$SURFU
 70
     6
  9
$SURFV
 70
     6
  9
$UCSNAME
  2

  9
$UCSORG
 10
0.0
 20
0.0
 30
0.0
  9
$UCSXDIR
 10
1.0
 20
0.0
 30
0.0
  9
$UCSYDIR
 10
0.0
 20
1.0
 30
0.0
  9
$PUCSNAME
  2

  9
$PUCSORG
 10
0.0
 20
0.0
 30
0.0
  9
$PUCSXDIR
 10
1.0
 20
0.0
 30
0.0
  9
$PUCSYDIR
 10
0.0
 20
1.0
 30
0.0
  9
$USERI1
 70
     0
  9
$USERI2
 70
     0
  9
$USERI3
 70
     0
  9
$USERI4
 70
     0
  9
$USERI5
 70
     0
  9
$USERR1
 40
0.0
  9
$USERR2
 40
0.0
  9
$USERR3
 40
0.0
  9
$USERR4
 40
0.0
  9
$USERR5
 40
0.0
  9
$WORLDVIEW
 70
     1
  9
$SHADEDGE
 70
     3
  9
$SHADEDIF
 70
    70
  9
$TILEMODE
 70
     1
  9
$MAXACTVP
 70
    64
  9
$PLIMCHECK
 70
     0
  9
$PEXTMIN
 10
1.0000000000E+20
 20
1.0000000000E+20
 30
1.0000000000E+20
  9
$PEXTMAX
 10
-1.0000000000E+20
 20
-1.0000000000E+20
 30
-1.0000000000E+20
  9
$PLIMMIN
 10
0.0
 20
0.0
  9
$PLIMMAX
 10
420.0
 20
297.0
  9
$UNITMODE
 70
     0
  9
$VISRETAIN
 70
     1
  9
$PLINEGEN
 70
     0
  9
$PSLTSCALE
 70
     1
  0
ENDSEC
  0
SECTION
  2
TABLES
  0
TABLE
  2
VPORT
 70
     1
  0
VPORT
  2
*ACTIVE
 70
     0
 10
0.0
 20
0.0
 11
1.0
 21
1.0
 12
125.0817229361
 22
8.6736953078
 13
0.0
 23
0.0
 14
10.0
 24
10.0
 15
10.0
 25
10.0
 16
0.0
 26
0.0
 36
1.0
 17
0.0
 27
0.0
 37
0.0
 40
32.6869241668
 41
7.804327429
 42
50.0
 43
0.0
 44
0.0
 50
0.0
 51
0.0
 71
     0
 72
   100
 73
     1
 74
     3
 75
     0
 76
     0
 77
     0
 78
     0
  0
ENDTAB
  0
TABLE
  2
LTYPE
 70
     6
  0
LTYPE
  2
CONTINUOUS
 70
     0
  3
Solid line
 72
    65
 73
     0
 40
0.0
  0
LTYPE
  2
HIDDEN
 70
     0
  3
Hidden __ __ __ __ __ __ __ __ __ __ __ __ __ __
 72
    65
 73
     2
 40
1.905
 49
1.27
 49
-0.635
  0
LTYPE
  2
PHANTOM
 70
     0
  3
Phantom ______  __  __  ______  __  __  ______
 72
    65
 73
     6
 40
12.7
 49
6.35
 49
-1.27
 49
1.27
 49
-1.27
 49
1.27
 49
-1.27
  0
LTYPE
  2
CENTER
 70
     0
  3
Center ____ _ ____ _ ____ _ ____ _ ____ _ ____
 72
    65
 73
     4
 40
10.16
 49
6.35
 49
-1.27
 49
1.27
 49
-1.27
  0
LTYPE
  2
CENTERX2
 70
     0
  3
Center (2x) ________  __  ________  __  _____
 72
    65
 73
     4
 40
20.32
 49
12.7
 49
-2.54
 49
2.54
 49
-2.54
  0
LTYPE
  2
DOT2
 70
     0
  3
Dot (.5x) ........................................
 72
    65
 73
     2
 40
0.635
 49
0.0
 49
-0.635
  0
ENDTAB
  0
TABLE
  2
LAYER
 70
     1
  0
LAYER
  2
0
 70
     0
 62
     7
  6
CONTINUOUS
  0
ENDTAB
  0
TABLE
  2
STYLE
 70
     1
  0
STYLE
  2
STANDARD
 70
     0
 40
0.0
 41
1.0
 50
0.0
 71
     0
 42
6.35
  3
txt
  4

  0
ENDTAB
  0
TABLE
  2
VIEW
 70
     0
  0
ENDTAB
  0
TABLE
  2
UCS
 70
     0
  0
ENDTAB
  0
TABLE
  2
APPID
 70
     1
  0
APPID
  2
ACAD
 70
     0
  0
ENDTAB
  0
TABLE
  2
DIMSTYLE
 70
     1
  0
DIMSTYLE
  2
ISO-25
 70
     0
  3

  4

  5

  6

  7

 40
1.0
 41
2.5
 42
0.625
 43
3.75
 44
1.25
 45
0.0
 46
0.0
 47
0.0
 48
0.0
140
2.5
141
2.5
142
0.0
143
0.0393700787
144
1.0
145
0.0
146
1.0
147
0.625
 71
     0
 72
     0
 73
     0
 74
     0
 75
     0
 76
     0
 77
     1
 78
     8
170
     0
171
     3
172
     1
173
     0
174
     0
175
     0
176
     0
177
     0
178
     0
  0
ENDTAB
  0
ENDSEC
  0
SECTION
  2
BLOCKS
  0
BLOCK
  8
0
  2
$MODEL_SPACE
 70
     0
 10
0.0
 20
0.0
 30
0.0
  3
$MODEL_SPACE
  1

  0
ENDBLK
  5
21
  8
0
  0
BLOCK
 67
     1
  8
0
  2
$PAPER_SPACE
 70
     0
 10
0.0
 20
0.0
 30
0.0
  3
$PAPER_SPACE
  1

  0
ENDBLK
  5
1D
 67
     1
  8
0
  0
ENDSEC
  0
SECTION
  2
ENTITIES
  0
CIRCLE
  5
73
  8
0
  6
CONTINUOUS
 62
     7
 10
175.0913340905
 20
7.4939103566
 30
0.0
 40
1.000000000004917
  0
CIRCLE
  5
77
  8
0
  6
CONTINUOUS
 62
     7
 10
62.532619318
 20
8.5961972077
 30
0.0
 40
8.099999999999994
  0
CIRCLE
  5
78
  8
0
  6
CONTINUOUS
 62
     7
 10
142.532619318
 20
8.5961972077
 30
0.0
 40
4.099999999999937
  0
POLYLINE
  5
7F
  8
0
  6
CONTINUOUS
 62
     7
 66
     1
 10
0.0
 20
0.0
 30
0.0
 70
   128
  0
VERTEX
  5
DA
  8
0
  6
CONTINUOUS
 62
     7
 10
53.932619318
 20
-6.6706772632
 30
0.0
  0
VERTEX
  5
DB
  8
0
  6
CONTINUOUS
 62
     7
 10
75.5434679523
 20
-5.6021252877
 30
0.0
  0
VERTEX
  5
DC
  8
0
  6
CONTINUOUS
 62
     7
 10
97.158204703
 20
-4.6171382148
 30
0.0
  0
VERTEX
  5
DD
  8
0
  6
CONTINUOUS
 62
     7
 10
131.132619318
 20
-3.2627350908
 30
0.0
  0
SEQEND
  5
110
  8
0
  6
CONTINUOUS
 62
     7
  0
POLYLINE
  5
83
  8
0
  6
CONTINUOUS
 62
     7
 66
     1
 10
0.0
 20
0.0
 30
0.0
 70
   128
  0
VERTEX
  5
DE
  8
0
  6
CONTINUOUS
 62
     7
 10
0.0479750008
 20
0.6214249952
 30
0.0
  0
VERTEX
  5
DF
  8
0
  6
CONTINUOUS
 62
     7
 10
0.0329686
 20
-0.5108761841
 30
0.0
  0
VERTEX
  5
E0
  8
0
  6
CONTINUOUS
 62
     7
 10
0.3624496606
 20
-1.5948276905
 30
0.0
  0
VERTEX
  5
E1
  8
0
  6
CONTINUOUS
 62
     7
 10
0.9946562102
 20
-2.5353536814
 30
0.0
  0
VERTEX
  5
E2
  8
0
  6
CONTINUOUS
 62
     7
 10
2.2911986874
 20
-3.6331471545
 30
0.0
  0
VERTEX
  5
E3
  8
0
  6
CONTINUOUS
 62
     7
 10
3.7885917168
 20
-4.4407322775
 30
0.0
  0
VERTEX
  5
E4
  8
0
  6
CONTINUOUS
 62
     7
 10
5.9168440663
 20
-5.226831179
 30
0.0
  0
VERTEX
  5
E5
  8
0
  6
CONTINUOUS
 62
     7
 10
8.1130510602
 20
-5.7986697315
 30
0.0
  0
VERTEX
  5
E6
  8
0
  6
CONTINUOUS
 62
     7
 10
10.3418057081
 20
-6.2275139874
 30
0.0
  0
VERTEX
  5
E7
  8
0
  6
CONTINUOUS
 62
     7
 10
14.8437598914
 20
-6.8042159217
 30
0.0
  0
VERTEX
  5
E8
  8
0
  6
CONTINUOUS
 62
     7
 10
19.3707841363
 20
-7.1360986842
 30
0.0
  0
VERTEX
  5
E9
  8
0
  6
CONTINUOUS
 62
     7
 10
23.9067667712
 20
-7.3085123533
 30
0.0
  0
VERTEX
  5
EA
  8
0
  6
CONTINUOUS
 62
     7
 10
32.9848380505
 20
-7.3493067347
 30
0.0
  0
VERTEX
  5
EB
  8
0
  6
CONTINUOUS
 62
     7
 10
42.0608361139
 20
-7.1423503357
 30
0.0
  0
VERTEX
  5
EC
  8
0
  6
CONTINUOUS
 62
     7
 10
51.132619318
 20
-6.7953606269
 30
0.0
  0
SEQEND
  5
111
  8
0
  6
CONTINUOUS
 62
     7
  0
POLYLINE
  5
84
  8
0
  6
CONTINUOUS
 62
     7
 66
     1
 10
0.0
 20
0.0
 30
0.0
 70
   128
  0
VERTEX
  5
ED
  8
0
  6
CONTINUOUS
 62
     7
 10
71.132619318
 20
24.1574694859
 30
0.0
  0
VERTEX
  5
EE
  8
0
  6
CONTINUOUS
 62
     7
 10
61.5162903161
 20
23.3461906648
 30
0.0
  0
VERTEX
  5
EF
  8
0
  6
CONTINUOUS
 62
     7
 10
51.9414644704
 20
22.1407543513
 30
0.0
  0
VERTEX
  5
F0
  8
0
  6
CONTINUOUS
 62
     7
 10
42.431326282
 20
20.5020584863
 30
0.0
  0
VERTEX
  5
F1
  8
0
  6
CONTINUOUS
 62
     7
 10
33.0184138834
 20
18.3758193828
 30
0.0
  0
VERTEX
  5
F2
  8
0
  6
CONTINUOUS
 62
     7
 10
26.8209996988
 20
16.6479294417
 30
0.0
  0
VERTEX
  5
F3
  8
0
  6
CONTINUOUS
 62
     7
 10
20.7126337784
 20
14.6280827987
 30
0.0
  0
VERTEX
  5
F4
  8
0
  6
CONTINUOUS
 62
     7
 10
14.7338914202
 20
12.252800326
 30
0.0
  0
VERTEX
  5
F5
  8
0
  6
CONTINUOUS
 62
     7
 10
11.4696893919
 20
10.7274378129
 30
0.0
  0
VERTEX
  5
F6
  8
0
  6
CONTINUOUS
 62
     7
 10
8.297123049
 20
9.0200703991
 30
0.0
  0
VERTEX
  5
F7
  8
0
  6
CONTINUOUS
 62
     7
 10
5.2685603727
 20
7.0698117426
 30
0.0
  0
VERTEX
  5
F8
  8
0
  6
CONTINUOUS
 62
     7
 10
3.9203751087
 20
6.0365903915
 30
0.0
  0
VERTEX
  5
F9
  8
0
  6
CONTINUOUS
 62
     7
 10
2.6533958547
 20
4.905471742
 30
0.0
  0
VERTEX
  5
FA
  8
0
  6
CONTINUOUS
 62
     7
 10
1.5122475752
 20
3.6479535852
 30
0.0
  0
VERTEX
  5
FB
  8
0
  6
CONTINUOUS
 62
     7
 10
0.585242591
 20
2.2269611974
 30
0.0
  0
VERTEX
  5
FC
  8
0
  6
CONTINUOUS
 62
     7
 10
0.0479750008
 20
0.6214249952
 30
0.0
  0
SEQEND
  5
112
  8
0
  6
CONTINUOUS
 62
     7
  0
POLYLINE
  5
88
  8
0
  6
CONTINUOUS
 62
     7
 66
     1
 10
0.0
 20
0.0
 30
0.0
 70
   128
  0
VERTEX
  5
FD
  8
0
  6
CONTINUOUS
 62
     7
 10
151.132619318
 20
20.1529257535
 30
0.0
  0
VERTEX
  5
FE
  8
0
  6
CONTINUOUS
 62
     7
 10
136.7806799984
 20
21.832333097
 30
0.0
  0
VERTEX
  5
FF
  8
0
  6
CONTINUOUS
 62
     7
 10
122.3932513126
 20
23.1736649025
 30
0.0
  0
VERTEX
  5
100
  8
0
  6
CONTINUOUS
 62
     7
 10
107.9761335939
 20
24.1442338595
 30
0.0
  0
VERTEX
  5
101
  8
0
  6
CONTINUOUS
 62
     7
 10
96.6324232481
 20
24.6138065693
 30
0.0
  0
VERTEX
  5
102
  8
0
  6
CONTINUOUS
 62
     7
 10
85.2795754841
 20
24.6966973504
 30
0.0
  0
VERTEX
  5
103
  8
0
  6
CONTINUOUS
 62
     7
 10
73.932619318
 20
24.3238715343
 30
0.0
  0
SEQEND
  5
113
  8
0
  6
CONTINUOUS
 62
     7
  0
POLYLINE
  5
8C
  8
0
  6
CONTINUOUS
 62
     7
 66
     1
 10
0.0
 20
0.0
 30
0.0
 70
   128
  0
VERTEX
  5
104
  8
0
  6
CONTINUOUS
 62
     7
 10
250.0
 20
0.315
 30
0.0
  0
VERTEX
  5
105
  8
0
  6
CONTINUOUS
 62
     7
 10
232.2783587603
 20
4.9207692683
 30
0.0
  0
VERTEX
  5
106
  8
0
  6
CONTINUOUS
 62
     7
 10
214.4466556394
 20
9.0803073002
 30
0.0
  0
VERTEX
  5
107
  8
0
  6
CONTINUOUS
 62
     7
 10
196.5180157823
 20
12.7999272663
 30
0.0
  0
VERTEX
  5
108
  8
0
  6
CONTINUOUS
 62
     7
 10
182.37026919
 20
15.4122217318
 30
0.0
  0
VERTEX
  5
109
  8
0
  6
CONTINUOUS
 62
     7
 10
168.1737807209
 20
17.7450829586
 30
0.0
  0
VERTEX
  5
10A
  8
0
  6
CONTINUOUS
 62
     7
 10
153.932619318
 20
19.7874707586
 30
0.0
  0
SEQEND
  5
114
  8
0
  6
CONTINUOUS
 62
     7
  0
POLYLINE
  5
8E
  8
0
  6
CONTINUOUS
 62
     7
 66
     1
 10
0.0
 20
0.0
 30
0.0
 70
   128
  0
VERTEX
  5
10B
  8
0
  6
CONTINUOUS
 62
     7
 10
133.932619318
 20
-3.149352186
 30
0.0
  0
VERTEX
  5
10C
  8
0
  6
CONTINUOUS
 62
     7
 10
166.4202115514
 20
-1.934349692
 30
0.0
  0
VERTEX
  5
10D
  8
0
  6
CONTINUOUS
 62
     7
 10
198.9177319769
 20
-1.0261271247
 30
0.0
  0
VERTEX
  5
10E
  8
0
  6
CONTINUOUS
 62
     7
 10
224.4574650668
 20
-0.5710502497
 30
0.0
  0
VERTEX
  5
10F
  8
0
  6
CONTINUOUS
 62
     7
 10
250.0
 20
-0.315
 30
0.0
  0
SEQEND
  5
115
  8
0
  6
CONTINUOUS
 62
     7
  0
LINE
  5
AA
  8
0
  6
CONTINUOUS
 62
     7
 10
133.932619318
 20
0.850647814
 30
0.0
 11
133.932619318
 21
-3.149352186
 31
0.0
  0
LINE
  5
AB
  8
0
  6
CONTINUOUS
 62
     7
 10
107.26658781
 20
5.0689608432
 30
0.0
 11
119.0427113538
 21
19.6404696991
 31
0.0
  0
LINE
  5
AC
  8
0
  6
CONTINUOUS
 62
     7
 10
94.3283760301
 20
20.5844475287
 30
0.0
 11
111.8442855905
 21
20.7050059004
 31
0.0
  0
LINE
  5
AD
  8
0
  6
CONTINUOUS
 62
     7
 10
17.4887080885
 20
7.8680028971
 30
0.0
 11
21.725441093
 21
-1.0732666184
 31
0.0
  0
LINE
  5
AE
  8
0
  6
CONTINUOUS
 62
     7
 10
31.2778572253
 20
-4.3284535953
 30
0.0
 11
39.3667770649
 21
-4.2210121423
 31
0.0
  0
LINE
  5
AF
  8
0
  6
CONTINUOUS
 62
     7
 10
131.132619318
 20
0.850647814
 30
0.0
 11
133.932619318
 21
0.850647814
 31
0.0
  0
LINE
  5
B0
  8
0
  6
CONTINUOUS
 62
     7
 10
131.132619318
 20
-3.2627350908
 30
0.0
 11
131.132619318
 21
0.850647814
 31
0.0
  0
LINE
  5
B1
  8
0
  6
CONTINUOUS
 62
     7
 10
53.932619318
 20
-2.6706772632
 30
0.0
 11
53.932619318
 21
-6.6706772632
 31
0.0
  0
LINE
  5
B2
  8
0
  6
CONTINUOUS
 62
     7
 10
51.132619318
 20
-2.6706772632
 30
0.0
 11
53.932619318
 21
-2.6706772632
 31
0.0
  0
LINE
  5
B3
  8
0
  6
CONTINUOUS
 62
     7
 10
51.132619318
 20
-6.7953606269
 30
0.0
 11
51.132619318
 21
-2.6706772632
 31
0.0
  0
LINE
  5
B4
  8
0
  6
CONTINUOUS
 62
     7
 10
71.132619318
 20
24.1574694859
 30
0.0
 11
71.132619318
 21
20.1574694859
 31
0.0
  0
LINE
  5
B5
  8
0
  6
CONTINUOUS
 62
     7
 10
71.132619318
 20
20.1574694859
 30
0.0
 11
73.932619318
 21
20.1574694859
 31
0.0
  0
LINE
  5
B6
  8
0
  6
CONTINUOUS
 62
     7
 10
73.932619318
 20
20.1574694859
 30
0.0
 11
73.932619318
 21
24.3238715343
 31
0.0
  0
LINE
  5
B7
  8
0
  6
CONTINUOUS
 62
     7
 10
151.132619318
 20
20.1529257535
 30
0.0
 11
151.132619318
 21
15.7874707586
 31
0.0
  0
LINE
  5
B8
  8
0
  6
CONTINUOUS
 62
     7
 10
151.132619318
 20
15.7874707586
 30
0.0
 11
153.932619318
 21
15.7874707586
 31
0.0
  0
LINE
  5
B9
  8
0
  6
CONTINUOUS
 62
     7
 10
153.932619318
 20
15.7874707586
 30
0.0
 11
153.932619318
 21
19.7874707586
 31
0.0
  0
LINE
  5
BA
  8
0
  6
CONTINUOUS
 62
     7
 10
27.4700640234
 20
1.6227824568
 30
0.0
 11
31.4610089622
 21
11.3265288672
 31
0.0
  0
LINE
  5
BB
  8
0
  6
CONTINUOUS
 62
     7
 10
21.5420977692
 20
11.6138034039
 30
0.0
 11
29.0038230347
 21
13.9927591567
 31
0.0
  0
LINE
  5
BC
  8
0
  6
CONTINUOUS
 62
     7
 10
20.3422446284
 20
8.8519011897
 30
0.0
 11
23.8130249551
 21
1.527110532
 31
0.0
  0
LINE
  5
BD
  8
0
  6
CONTINUOUS
 62
     7
 10
86.9284949778
 20
-0.2346640587
 30
0.0
 11
97.2058945043
 21
0.6983211679
 31
0.0
  0
LINE
  5
BE
  8
0
  6
CONTINUOUS
 62
     7
 10
87.4969426288
 20
19.5968351197
 30
0.0
 11
98.6569573594
 21
3.846404038
 31
0.0
  0
LINE
  5
BF
  8
0
  6
CONTINUOUS
 62
     7
 10
108.6238427392
 20
1.8216976824
 30
0.0
 11
119.6038762826
 21
0.7277975055
 31
0.0
  0
LINE
  5
C0
  8
0
  6
CONTINUOUS
 62
     7
 10
92.7102614033
 20
17.4282215591
 30
0.0
 11
100.8475346036
 21
5.9438674765
 31
0.0
  0
LINE
  5
C1
  8
0
  6
CONTINUOUS
 62
     7
 10
104.0349404992
 20
5.843025535
 30
0.0
 11
113.4135768594
 21
17.4479379894
 31
0.0
  0
LINE
  5
C2
  8
0
  6
CONTINUOUS
 62
     7
 10
6.5801357055
 20
4.3110428755
 30
0.0
 11
14.7212403912
 21
8.7660815874
 31
0.0
  0
LINE
  5
C3
  8
0
  6
CONTINUOUS
 62
     7
 10
7.9993913484
 20
-2.6903708526
 30
0.0
 11
19.709418924
 21
-3.9187555092
 31
0.0
  0
LINE
  5
C4
  8
0
  6
CONTINUOUS
 62
     7
 10
29.4016219925
 20
-1.5678989645
 30
0.0
 11
36.2887237903
 21
15.1776814363
 31
0.0
  0
ARC
  5
C5
  8
0
  6
CONTINUOUS
 62
     7
 10
25.6203915403
 20
2.3835134902
 30
0.0
 40
1.999999999999988
 50
205.3534755263
 51
337.6436745619
  0
ARC
  5
C6
  8
0
  6
CONTINUOUS
 62
     7
 10
85.8650627431
 20
18.440561779
 30
0.0
 40
2.000000000000139
 50
35.3195923969
 51
90.8695672488
  0
ARC
  5
C7
  8
0
  6
CONTINUOUS
 62
     7
 10
249.685
 20
0.0
 30
0.0
 40
0.4454772721476233
 50
315.0
 51
45.0
  0
ARC
  5
C8
  8
0
  6
CONTINUOUS
 62
     7
 10
29.6113364791
 20
12.0872599006
 30
0.0
 40
1.999999999999999
 50
337.6436745619
 51
107.6833809695
  0
ARC
  5
C9
  8
0
  6
CONTINUOUS
 62
     7
 10
22.1496112136
 20
9.7083041478
 30
0.0
 40
2.000000000000012
 50
107.6833809695
 51
205.3534755263
  0
ARC
  5
CA
  8
0
  6
CONTINUOUS
 62
     7
 10
85.9919254873
 20
10.0822183143
 30
0.0
 40
10.35930616921612
 50
90.8695672488
 51
275.187109106
  0
ARC
  5
CB
  8
0
  6
CONTINUOUS
 62
     7
 10
97.0250774736
 20
2.6901306973
 30
0.0
 40
1.999999999999994
 50
275.187109106
 51
35.3195923969
  0
ARC
  5
CC
  8
0
  6
CONTINUOUS
 62
     7
 10
108.8221138198
 20
3.811845561
 30
0.0
 40
2.000000000000005
 50
141.0562121006
 51
264.3106067689
  0
ARC
  5
CD
  8
0
  6
CONTINUOUS
 62
     7
 10
120.5805650099
 20
10.531319996
 30
0.0
 40
9.852054308178966
 50
264.3106067689
 51
89.8710462127
  0
ARC
  5
CE
  8
0
  6
CONTINUOUS
 62
     7
 10
120.5982373637
 20
18.3833544169
 30
0.0
 40
2.000000000000076
 50
89.8710462127
 51
141.0562121006
  0
ARC
  5
CF
  8
0
  6
CONTINUOUS
 62
     7
 10
94.3421412891
 20
18.5844948998
 30
0.0
 40
1.999999999999996
 50
90.394348737
 51
215.3195923969
  0
ARC
  5
D0
  8
0
  6
CONTINUOUS
 62
     7
 10
102.4794144894
 20
7.1001408172
 30
0.0
 40
1.999999999999956
 50
215.3195923969
 51
321.0562121006
  0
ARC
  5
D1
  8
0
  6
CONTINUOUS
 62
     7
 10
111.8580508495
 20
18.7050532715
 30
0.0
 40
1.999999999999935
 50
321.0562121005
 51
90.394348737
  0
ARC
  5
D2
  8
0
  6
CONTINUOUS
 62
     7
 10
15.6813415033
 20
7.011599939
 30
0.0
 40
2.000000000000015
 50
25.3534755263
 51
118.6887039625
  0
ARC
  5
D3
  8
0
  6
CONTINUOUS
 62
     7
 10
8.9557775476
 20
1.1480534913
 30
0.0
 40
3.955777547601312
 50
126.9092920619
 51
256.0090011518
  0
ARC
  5
D4
  8
0
  6
CONTINUOUS
 62
     7
 10
19.9180745078
 20
-1.9296695766
 30
0.0
 40
2.000000000000007
 50
264.0115608319
 51
25.3534755263
  0
ARC
  5
D5
  8
0
  6
CONTINUOUS
 62
     7
 10
39.0848059267
 20
6.1229587713
 30
0.0
 40
10.34781339137848
 50
271.5614657484
 51
96.5097427499
  0
ARC
  5
D6
  8
0
  6
CONTINUOUS
 62
     7
 10
38.1383962734
 20
14.4169504029
 30
0.0
 40
1.999999999999998
 50
96.5097427498
 51
157.6436745618
  0
ARC
  5
D7
  8
0
  6
CONTINUOUS
 62
     7
 10
31.2512944756
 20
-2.328629998
 30
0.0
 40
1.999999999999411
 50
157.6436745618
 51
270.7609890986
  0
TEXT
  5
D8
  8
0
  6
CONTINUOUS
 62
     7
 10
0.0329686
 20
-12.8922118342
 30
0.0
 40
4.83362
  1
SOLIDWORKS дл€ учебных заведений.
 41
0.6681818182
 11
0.0329686
 21
-14.5997367347
 31
0.0
 73
     1
  0
TEXT
  5
D9
  8
0
  6
CONTINUOUS
 62
     7
 10
0.0329686
 20
-20.1426418342
 30
0.0
 40
4.83362
  1
“олько дл€ обучающих целей.
 41
0.6611111111
 11
0.0329686
 21
-21.8501667347
 31
0.0
 73
     1
  0
ENDSEC
  0
EOF
