  0
SECTION
  2
HEADER
  9
$ACADVER
  1
AC1009
  9
$DWGCODEPAGE
  3
ansi_1251
  9
$INSBASE
 10
0.0
 20
0.0
 30
0.0
  9
$EXTMIN
 10
0.0
 20
-14.2436674688
 30
0.0
  9
$EXTMAX
 10
200.0
 20
13.3145544979
 30
0.0
  9
$LIMMIN
 10
0.0
 20
0.0
  9
$LIMMAX
 10
420.0
 20
297.0
  9
$ORTHOMODE
 70
     0
  9
$REGENMODE
 70
     1
  9
$FILLMODE
 70
     1
  9
$QTEXTMODE
 70
     0
  9
$MIRRTEXT
 70
     1
  9
$DRAGMODE
 70
     2
  9
$LTSCALE
 40
1.0
  9
$OSMODE
 70
    37
  9
$ATTMODE
 70
     1
  9
$TEXTSIZE
 40
4.0
  9
$TRACEWID
 40
1.0
  9
$TEXTSTYLE
  7
STANDARD
  9
$CLAYER
  8
0
  9
$CELTYPE
  6
BYLAYER
  9
$CECOLOR
 62
   256
  9
$DIMSCALE
 40
1.0
  9
$DIMASZ
 40
6.0
  9
$DIMEXO
 40
0.0
  9
$DIMDLI
 40
3.75
  9
$DIMRND
 40
0.0
  9
$DIMDLE
 40
0.0
  9
$DIMEXE
 40
1.0
  9
$DIMTP
 40
0.0
  9
$DIMTM
 40
0.0
  9
$DIMTXT
 40
4.0
  9
$DIMCEN
 40
2.5
  9
$DIMTSZ
 40
0.0
  9
$DIMTOL
 70
     0
  9
$DIMLIM
 70
     0
  9
$DIMTIH
 70
     1
  9
$DIMTOH
 70
     1
  9
$DIMSE1
 70
     0
  9
$DIMSE2
 70
     0
  9
$DIMTAD
 70
     1
  9
$DIMZIN
 70
     0
  9
$DIMBLK
  1

  9
$DIMASO
 70
     1
  9
$DIMSHO
 70
     1
  9
$DIMPOST
  1

  9
$DIMAPOST
  1

  9
$DIMALT
 70
     0
  9
$DIMALTD
 70
     3
  9
$DIMALTF
 40
0.0393700787
  9
$DIMLFAC
 40
1.0
  9
$DIMTOFL
 70
     1
  9
$DIMTVP
 40
0.0
  9
$DIMTIX
 70
     0
  9
$DIMSOXD
 70
     0
  9
$DIMSAH
 70
     0
  9
$DIMBLK1
  1

  9
$DIMBLK2
  1

  9
$DIMSTYLE
  2
ISO-25
  9
$DIMCLRD
 70
     0
  9
$DIMCLRE
 70
     0
  9
$DIMCLRT
 70
     0
  9
$DIMTFAC
 40
1.0
  9
$DIMGAP
 40
3.0
  9
$LUNITS
 70
     2
  9
$LUPREC
 70
     2
  9
$SKETCHINC
 40
1.0
  9
$FILLETRAD
 40
10.0
  9
$AUNITS
 70
     0
  9
$AUPREC
 70
     2
  9
$MENU
  1
.
  9
$ELEVATION
 40
0.0
  9
$PELEVATION
 40
0.0
  9
$THICKNESS
 40
0.0
  9
$LIMCHECK
 70
     0
  9
$CHAMFERA
 40
0.0
  9
$CHAMFERB
 40
0.0
  9
$SKPOLY
 70
     0
  9
$TDCREATE
 40
2460497.695370602
  9
$TDUPDATE
 40
2460497.695401378
  9
$TDINDWG
 40
0.0000000116
  9
$TDUSRTIMER
 40
0.0000000116
  9
$USRTIMER
 70
     1
  9
$ANGBASE
 50
0.0
  9
$ANGDIR
 70
     0
  9
$PDMODE
 70
     0
  9
$PDSIZE
 40
-1.0
  9
$PLINEWID
 40
0.0
  9
$COORDS
 70
     1
  9
$SPLFRAME
 70
     0
  9
$SPLINETYPE
 70
     6
  9
$SPLINESEGS
 70
     8
  9
$ATTDIA
 70
     0
  9
$ATTREQ
 70
     1
  9
$HANDLING
 70
     1
  9
$HANDSEED
  5
FD
  9
$SURFTAB1
 70
     6
  9
$SURFTAB2
 70
     6
  9
$SURFTYPE
 70
     6
  9
$SURFU
 70
     6
  9
$SURFV
 70
     6
  9
$UCSNAME
  2

  9
$UCSORG
 10
0.0
 20
0.0
 30
0.0
  9
$UCSXDIR
 10
1.0
 20
0.0
 30
0.0
  9
$UCSYDIR
 10
0.0
 20
1.0
 30
0.0
  9
$PUCSNAME
  2

  9
$PUCSORG
 10
0.0
 20
0.0
 30
0.0
  9
$PUCSXDIR
 10
1.0
 20
0.0
 30
0.0
  9
$PUCSYDIR
 10
0.0
 20
1.0
 30
0.0
  9
$USERI1
 70
     0
  9
$USERI2
 70
     0
  9
$USERI3
 70
     0
  9
$USERI4
 70
     0
  9
$USERI5
 70
     0
  9
$USERR1
 40
0.0
  9
$USERR2
 40
0.0
  9
$USERR3
 40
0.0
  9
$USERR4
 40
0.0
  9
$USERR5
 40
0.0
  9
$WORLDVIEW
 70
     1
  9
$SHADEDGE
 70
     3
  9
$SHADEDIF
 70
    70
  9
$TILEMODE
 70
     1
  9
$MAXACTVP
 70
    64
  9
$PLIMCHECK
 70
     0
  9
$PEXTMIN
 10
1.0000000000E+20
 20
1.0000000000E+20
 30
1.0000000000E+20
  9
$PEXTMAX
 10
-1.0000000000E+20
 20
-1.0000000000E+20
 30
-1.0000000000E+20
  9
$PLIMMIN
 10
0.0
 20
0.0
  9
$PLIMMAX
 10
420.0
 20
297.0
  9
$UNITMODE
 70
     0
  9
$VISRETAIN
 70
     1
  9
$PLINEGEN
 70
     0
  9
$PSLTSCALE
 70
     1
  0
ENDSEC
  0
SECTION
  2
TABLES
  0
TABLE
  2
VPORT
 70
     1
  0
VPORT
  2
*ACTIVE
 70
     0
 10
0.0
 20
0.0
 11
1.0
 21
1.0
 12
100.0
 22
-0.4645564854
 13
0.0
 23
0.0
 14
10.0
 24
10.0
 15
10.0
 25
10.0
 16
0.0
 26
0.0
 36
1.0
 17
0.0
 27
0.0
 37
0.0
 40
28.109386406
 41
7.2573622581
 42
50.0
 43
0.0
 44
0.0
 50
0.0
 51
0.0
 71
     0
 72
   100
 73
     1
 74
     3
 75
     0
 76
     0
 77
     0
 78
     0
  0
ENDTAB
  0
TABLE
  2
LTYPE
 70
     6
  0
LTYPE
  2
CONTINUOUS
 70
     0
  3
Solid line
 72
    65
 73
     0
 40
0.0
  0
LTYPE
  2
HIDDEN
 70
     0
  3
Hidden __ __ __ __ __ __ __ __ __ __ __ __ __ __
 72
    65
 73
     2
 40
1.905
 49
1.27
 49
-0.635
  0
LTYPE
  2
PHANTOM
 70
     0
  3
Phantom ______  __  __  ______  __  __  ______
 72
    65
 73
     6
 40
12.7
 49
6.35
 49
-1.27
 49
1.27
 49
-1.27
 49
1.27
 49
-1.27
  0
LTYPE
  2
CENTER
 70
     0
  3
Center ____ _ ____ _ ____ _ ____ _ ____ _ ____
 72
    65
 73
     4
 40
10.16
 49
6.35
 49
-1.27
 49
1.27
 49
-1.27
  0
LTYPE
  2
CENTERX2
 70
     0
  3
Center (2x) ________  __  ________  __  _____
 72
    65
 73
     4
 40
20.32
 49
12.7
 49
-2.54
 49
2.54
 49
-2.54
  0
LTYPE
  2
DOT2
 70
     0
  3
Dot (.5x) ........................................
 72
    65
 73
     2
 40
0.635
 49
0.0
 49
-0.635
  0
ENDTAB
  0
TABLE
  2
LAYER
 70
     1
  0
LAYER
  2
0
 70
     0
 62
     7
  6
CONTINUOUS
  0
ENDTAB
  0
TABLE
  2
STYLE
 70
     1
  0
STYLE
  2
STANDARD
 70
     0
 40
0.0
 41
1.0
 50
0.0
 71
     0
 42
4.0
  3
txt
  4

  0
ENDTAB
  0
TABLE
  2
VIEW
 70
     0
  0
ENDTAB
  0
TABLE
  2
UCS
 70
     0
  0
ENDTAB
  0
TABLE
  2
APPID
 70
     1
  0
APPID
  2
ACAD
 70
     0
  0
ENDTAB
  0
TABLE
  2
DIMSTYLE
 70
     1
  0
DIMSTYLE
  2
ISO-25
 70
     0
  3

  4

  5

  6

  7

 40
1.0
 41
2.5
 42
0.625
 43
3.75
 44
1.25
 45
0.0
 46
0.0
 47
0.0
 48
0.0
140
2.5
141
2.5
142
0.0
143
0.0393700787
144
1.0
145
0.0
146
1.0
147
0.625
 71
     0
 72
     0
 73
     0
 74
     0
 75
     0
 76
     0
 77
     1
 78
     8
170
     0
171
     3
172
     1
173
     0
174
     0
175
     0
176
     0
177
     0
178
     0
  0
ENDTAB
  0
ENDSEC
  0
SECTION
  2
BLOCKS
  0
BLOCK
  8
0
  2
$MODEL_SPACE
 70
     0
 10
0.0
 20
0.0
 30
0.0
  3
$MODEL_SPACE
  1

  0
ENDBLK
  5
21
  8
0
  0
BLOCK
 67
     1
  8
0
  2
$PAPER_SPACE
 70
     0
 10
0.0
 20
0.0
 30
0.0
  3
$PAPER_SPACE
  1

  0
ENDBLK
  5
1D
 67
     1
  8
0
  0
ENDSEC
  0
SECTION
  2
ENTITIES
  0
CIRCLE
  5
73
  8
0
  6
CONTINUOUS
 62
     7
 10
149.9999999998
 20
0.0
 30
0.0
 40
1.5
  0
CIRCLE
  5
75
  8
0
  6
CONTINUOUS
 62
     7
 10
109.0
 20
0.0
 30
0.0
 40
4.0
  0
CIRCLE
  5
76
  8
0
  6
CONTINUOUS
 62
     7
 10
55.0
 20
0.0
 30
0.0
 40
4.0
  0
CIRCLE
  5
79
  8
0
  6
CONTINUOUS
 62
     7
 10
68.565
 20
0.0
 30
0.0
 40
1.5
  0
CIRCLE
  5
7A
  8
0
  6
CONTINUOUS
 62
     7
 10
95.435
 20
0.0
 30
0.0
 40
1.5
  0
CIRCLE
  5
7B
  8
0
  6
CONTINUOUS
 62
     7
 10
23.7468720165
 20
10.2843766892
 30
0.0
 40
1.500000004093788
  0
CIRCLE
  5
7C
  8
0
  6
CONTINUOUS
 62
     7
 10
11.5706203637
 20
-8.2999999909
 30
0.0
 40
1.499999999099089
  0
CIRCLE
  5
7D
  8
0
  6
CONTINUOUS
 62
     7
 10
44.3517975209
 20
-11.7436674688
 30
0.0
 40
1.499999999080408
  0
CIRCLE
  5
7E
  8
0
  6
CONTINUOUS
 62
     7
 10
91.6678516176
 20
-11.2285124781
 30
0.0
 40
1.5
  0
CIRCLE
  5
7F
  8
0
  6
CONTINUOUS
 62
     7
 10
99.9923674405
 20
10.8145639004
 30
0.0
 40
1.500000000000014
  0
POLYLINE
  5
80
  8
0
  6
CONTINUOUS
 62
     7
 66
     1
 10
0.0
 20
0.0
 30
0.0
 70
   128
  0
VERTEX
  5
CD
  8
0
  6
CONTINUOUS
 62
     7
 10
124.0
 20
7.3262947972
 30
0.0
  0
VERTEX
  5
CE
  8
0
  6
CONTINUOUS
 62
     7
 10
113.0744898795
 20
8.0626093031
 30
0.0
  0
VERTEX
  5
CF
  8
0
  6
CONTINUOUS
 62
     7
 10
104.4861602377
 20
8.5784671555
 30
0.0
  0
SEQEND
  5
F5
  8
0
  6
CONTINUOUS
 62
     7
  0
POLYLINE
  5
8E
  8
0
  6
CONTINUOUS
 62
     7
 66
     1
 10
0.0
 20
0.0
 30
0.0
 70
   128
  0
VERTEX
  5
D0
  8
0
  6
CONTINUOUS
 62
     7
 10
200.0
 20
0.21
 30
0.0
  0
VERTEX
  5
D1
  8
0
  6
CONTINUOUS
 62
     7
 10
175.6335133149
 20
2.8602489388
 30
0.0
  0
VERTEX
  5
D2
  8
0
  6
CONTINUOUS
 62
     7
 10
151.2313829598
 20
5.1599347362
 30
0.0
  0
VERTEX
  5
D3
  8
0
  6
CONTINUOUS
 62
     7
 10
126.8
 20
7.1244121052
 30
0.0
  0
SEQEND
  5
F6
  8
0
  6
CONTINUOUS
 62
     7
  0
POLYLINE
  5
92
  8
0
  6
CONTINUOUS
 62
     7
 66
     1
 10
0.0
 20
0.0
 30
0.0
 70
   128
  0
VERTEX
  5
D4
  8
0
  6
CONTINUOUS
 62
     7
 10
100.4
 20
-8.8022639996
 30
0.0
  0
VERTEX
  5
D5
  8
0
  6
CONTINUOUS
 62
     7
 10
121.0101604512
 20
-7.5361009697
 30
0.0
  0
VERTEX
  5
D6
  8
0
  6
CONTINUOUS
 62
     7
 10
141.6002372767
 20
-5.9760366075
 30
0.0
  0
VERTEX
  5
D7
  8
0
  6
CONTINUOUS
 62
     7
 10
162.1702448057
 20
-4.1702448059
 30
0.0
  0
SEQEND
  5
F7
  8
0
  6
CONTINUOUS
 62
     7
  0
POLYLINE
  5
96
  8
0
  6
CONTINUOUS
 62
     7
 66
     1
 10
0.0
 20
0.0
 30
0.0
 70
   128
  0
VERTEX
  5
D8
  8
0
  6
CONTINUOUS
 62
     7
 10
96.1629403798
 20
-9.018329177
 30
0.0
  0
VERTEX
  5
D9
  8
0
  6
CONTINUOUS
 62
     7
 10
96.9677058496
 20
-8.9785934721
 30
0.0
  0
VERTEX
  5
DA
  8
0
  6
CONTINUOUS
 62
     7
 10
97.6
 20
-8.946938935
 30
0.0
  0
SEQEND
  5
F8
  8
0
  6
CONTINUOUS
 62
     7
  0
POLYLINE
  5
98
  8
0
  6
CONTINUOUS
 62
     7
 66
     1
 10
0.0
 20
0.0
 30
0.0
 70
   128
  0
VERTEX
  5
DB
  8
0
  6
CONTINUOUS
 62
     7
 10
48.8498422882
 20
-9.8763070986
 30
0.0
  0
VERTEX
  5
DC
  8
0
  6
CONTINUOUS
 62
     7
 10
59.5815621608
 20
-10.0027497806
 30
0.0
  0
VERTEX
  5
DD
  8
0
  6
CONTINUOUS
 62
     7
 10
70.3136915298
 20
-9.9089372096
 30
0.0
  0
VERTEX
  5
DE
  8
0
  6
CONTINUOUS
 62
     7
 10
87.1718293198
 20
-9.4176777434
 30
0.0
  0
SEQEND
  5
F9
  8
0
  6
CONTINUOUS
 62
     7
  0
POLYLINE
  5
9C
  8
0
  6
CONTINUOUS
 62
     7
 66
     1
 10
0.0
 20
0.0
 30
0.0
 70
   128
  0
VERTEX
  5
DF
  8
0
  6
CONTINUOUS
 62
     7
 10
0.0
 20
0.0
 30
0.0
  0
VERTEX
  5
E0
  8
0
  6
CONTINUOUS
 62
     7
 10
0.235264162
 20
-1.0133377702
 30
0.0
  0
VERTEX
  5
E1
  8
0
  6
CONTINUOUS
 62
     7
 10
0.8401268128
 20
-1.8692021839
 30
0.0
  0
VERTEX
  5
E2
  8
0
  6
CONTINUOUS
 62
     7
 10
1.6168313167
 20
-2.565855834
 30
0.0
  0
VERTEX
  5
E3
  8
0
  6
CONTINUOUS
 62
     7
 10
2.4855007398
 20
-3.1478100693
 30
0.0
  0
VERTEX
  5
E4
  8
0
  6
CONTINUOUS
 62
     7
 10
3.4028554723
 20
-3.648353332
 30
0.0
  0
VERTEX
  5
E5
  8
0
  6
CONTINUOUS
 62
     7
 10
5.2835706803
 20
-4.4688077874
 30
0.0
  0
VERTEX
  5
E6
  8
0
  6
CONTINUOUS
 62
     7
 10
7.2220618819
 20
-5.1423993983
 30
0.0
  0
SEQEND
  5
FA
  8
0
  6
CONTINUOUS
 62
     7
  0
POLYLINE
  5
9D
  8
0
  6
CONTINUOUS
 62
     7
 66
     1
 10
0.0
 20
0.0
 30
0.0
 70
   128
  0
VERTEX
  5
E7
  8
0
  6
CONTINUOUS
 62
     7
 10
19.2846947909
 20
7.7021616141
 30
0.0
  0
VERTEX
  5
E8
  8
0
  6
CONTINUOUS
 62
     7
 10
15.7185632425
 20
7.1293967069
 30
0.0
  0
VERTEX
  5
E9
  8
0
  6
CONTINUOUS
 62
     7
 10
12.1743309636
 20
6.4341770739
 30
0.0
  0
VERTEX
  5
EA
  8
0
  6
CONTINUOUS
 62
     7
 10
8.6673832288
 20
5.5709622039
 30
0.0
  0
VERTEX
  5
EB
  8
0
  6
CONTINUOUS
 62
     7
 10
6.0821009408
 20
4.7626746436
 30
0.0
  0
VERTEX
  5
EC
  8
0
  6
CONTINUOUS
 62
     7
 10
3.5769443991
 20
3.7341366964
 30
0.0
  0
VERTEX
  5
ED
  8
0
  6
CONTINUOUS
 62
     7
 10
2.6193669249
 20
3.2267255608
 30
0.0
  0
VERTEX
  5
EE
  8
0
  6
CONTINUOUS
 62
     7
 10
1.7100380044
 20
2.6356811123
 30
0.0
  0
VERTEX
  5
EF
  8
0
  6
CONTINUOUS
 62
     7
 10
0.8933811239
 20
1.9258745397
 30
0.0
  0
VERTEX
  5
F0
  8
0
  6
CONTINUOUS
 62
     7
 10
0.2520285688
 20
1.0482967637
 30
0.0
  0
VERTEX
  5
F1
  8
0
  6
CONTINUOUS
 62
     7
 10
0.0
 20
0.0
 30
0.0
  0
SEQEND
  5
FB
  8
0
  6
CONTINUOUS
 62
     7
  0
POLYLINE
  5
A3
  8
0
  6
CONTINUOUS
 62
     7
 66
     1
 10
0.0
 20
0.0
 30
0.0
 70
   128
  0
VERTEX
  5
F2
  8
0
  6
CONTINUOUS
 62
     7
 10
95.4985746432
 20
9.0506606454
 30
0.0
  0
VERTEX
  5
F3
  8
0
  6
CONTINUOUS
 62
     7
 10
79.2074042009
 20
9.6958760742
 30
0.0
  0
VERTEX
  5
F4
  8
0
  6
CONTINUOUS
 62
     7
 10
66.4
 20
9.9655959371
 30
0.0
  0
SEQEND
  5
FC
  8
0
  6
CONTINUOUS
 62
     7
  0
LINE
  5
A8
  8
0
  6
CONTINUOUS
 62
     7
 10
70.2
 20
6.3
 30
0.0
 11
70.2
 21
-6.3
 31
0.0
  0
LINE
  5
A9
  8
0
  6
CONTINUOUS
 62
     7
 10
19.3
 20
5.0
 30
0.0
 11
42.3
 21
5.0
 31
0.0
  0
LINE
  5
AA
  8
0
  6
CONTINUOUS
 62
     7
 10
119.3434533603
 20
1.992816182
 30
0.0
 11
134.3268014847
 21
2.6994129427
 31
0.0
  0
LINE
  5
AB
  8
0
  6
CONTINUOUS
 62
     7
 10
161.9999999998
 20
1.4
 30
0.0
 11
161.9999999998
 21
-1.4
 31
0.0
  0
LINE
  5
AC
  8
0
  6
CONTINUOUS
 62
     7
 10
70.2
 20
-6.3
 30
0.0
 11
93.8
 21
-6.3
 31
0.0
  0
LINE
  5
AD
  8
0
  6
CONTINUOUS
 62
     7
 10
93.8
 20
6.3
 30
0.0
 11
93.8
 21
-6.3
 31
0.0
  0
LINE
  5
AE
  8
0
  6
CONTINUOUS
 62
     7
 10
70.2
 20
6.3
 30
0.0
 11
93.8
 21
6.3
 31
0.0
  0
LINE
  5
AF
  8
0
  6
CONTINUOUS
 62
     7
 10
19.3
 20
-5.0
 30
0.0
 11
42.3
 21
-5.0
 31
0.0
  0
LINE
  5
B0
  8
0
  6
CONTINUOUS
 62
     7
 10
119.6731985153
 20
-4.9994129427
 30
0.0
 11
134.6565466397
 21
-4.292816182
 31
0.0
  0
LINE
  5
B1
  8
0
  6
CONTINUOUS
 62
     7
 10
124.0
 20
7.3262947972
 30
0.0
 11
124.0
 21
4.1244121052
 31
0.0
  0
LINE
  5
B2
  8
0
  6
CONTINUOUS
 62
     7
 10
124.0
 20
4.1244121052
 30
0.0
 11
126.8
 21
4.1244121052
 31
0.0
  0
LINE
  5
B3
  8
0
  6
CONTINUOUS
 62
     7
 10
126.8
 20
4.1244121052
 30
0.0
 11
126.8
 21
7.1244121052
 31
0.0
  0
LINE
  5
B4
  8
0
  6
CONTINUOUS
 62
     7
 10
200.0
 20
0.21
 30
0.0
 11
200.0
 21
-0.21
 31
0.0
  0
LINE
  5
B5
  8
0
  6
CONTINUOUS
 62
     7
 10
173.839461144
 20
-3.0408012026
 30
0.0
 11
200.0
 21
-0.21
 31
0.0
  0
LINE
  5
B6
  8
0
  6
CONTINUOUS
 62
     7
 10
162.1702448057
 20
-4.1702448059
 30
0.0
 11
173.839461144
 21
-3.0408012026
 31
0.0
  0
LINE
  5
B7
  8
0
  6
CONTINUOUS
 62
     7
 10
100.4
 20
-5.8022639996
 30
0.0
 11
100.4
 21
-8.8022639996
 31
0.0
  0
LINE
  5
B8
  8
0
  6
CONTINUOUS
 62
     7
 10
97.6
 20
-5.8022639996
 30
0.0
 11
100.4
 21
-5.8022639996
 31
0.0
  0
LINE
  5
B9
  8
0
  6
CONTINUOUS
 62
     7
 10
97.6
 20
-8.946938935
 30
0.0
 11
97.6
 21
-5.8022639996
 31
0.0
  0
LINE
  5
BA
  8
0
  6
CONTINUOUS
 62
     7
 10
63.6
 20
9.9907514469
 30
0.0
 11
63.6
 21
6.9655959371
 31
0.0
  0
LINE
  5
BB
  8
0
  6
CONTINUOUS
 62
     7
 10
63.6
 20
6.9655959371
 30
0.0
 11
66.4
 21
6.9655959371
 31
0.0
  0
LINE
  5
BC
  8
0
  6
CONTINUOUS
 62
     7
 10
66.4
 20
6.9655959371
 30
0.0
 11
66.4
 21
9.9655959371
 31
0.0
  0
LINE
  5
BD
  8
0
  6
CONTINUOUS
 62
     7
 10
161.9999999998
 20
-1.4
 30
0.0
 11
165.9999999998
 21
-1.4
 31
0.0
  0
LINE
  5
BE
  8
0
  6
CONTINUOUS
 62
     7
 10
165.9999999998
 20
1.4
 30
0.0
 11
165.9999999998
 21
-1.4
 31
0.0
  0
LINE
  5
BF
  8
0
  6
CONTINUOUS
 62
     7
 10
161.9999999998
 20
1.4
 30
0.0
 11
165.9999999998
 21
1.4
 31
0.0
  0
ARC
  5
C0
  8
0
  6
CONTINUOUS
 62
     7
 10
19.3
 20
0.0
 30
0.0
 40
5.000000000000001
 50
90.0
 51
270.0
  0
ARC
  5
C1
  8
0
  6
CONTINUOUS
 62
     7
 10
42.3
 20
0.0
 30
0.0
 40
5.000000000000001
 50
270.0
 51
90.0
  0
ARC
  5
C2
  8
0
  6
CONTINUOUS
 62
     7
 10
119.5083259378
 20
-1.5032983803
 30
0.0
 40
3.499999999999999
 50
92.7
 51
272.7
  0
ARC
  5
C3
  8
0
  6
CONTINUOUS
 62
     7
 10
134.4916740622
 20
-0.7967016197
 30
0.0
 40
3.500000000000001
 50
272.7
 51
92.7
  0
ARC
  5
C4
  8
0
  6
CONTINUOUS
 62
     7
 10
91.6678516176
 20
-9.2285124781
 30
0.0
 40
4.500000000000012
 50
182.4092368734
 51
2.6771108973
  0
ARC
  5
C5
  8
0
  6
CONTINUOUS
 62
     7
 10
44.3517975209
 20
-9.7436674688
 30
0.0
 40
4.500000000000017
 50
177.6046575459
 51
358.3109351433
  0
ARC
  5
C6
  8
0
  6
CONTINUOUS
 62
     7
 10
47.4128130131
 20
187.1808555178
 30
0.0
 40
196.8815367013606
 50
260.8145532924
 51
267.8002234654
  0
ARC
  5
C7
  8
0
  6
CONTINUOUS
 62
     7
 10
11.5706203636
 20
-6.2999999909
 30
0.0
 40
4.499999999995519
 50
165.0933723617
 51
348.7742492038
  0
ARC
  5
C8
  8
0
  6
CONTINUOUS
 62
     7
 10
23.7468720165
 20
8.2843766892
 30
0.0
 40
4.499999998517739
 50
5.9488256505
 51
187.4338315368
  0
ARC
  5
C9
  8
0
  6
CONTINUOUS
 62
     7
 10
58.645500626
 20
-353.938827855
 30
0.0
 40
363.9633027584954
 50
89.2200294112
 51
94.7948180178
  0
ARC
  5
CA
  8
0
  6
CONTINUOUS
 62
     7
 10
99.9923674405
 20
8.8145639004
 30
0.0
 40
4.499990597458294
 50
356.9925357529
 51
176.9925357529
  0
TEXT
  5
CB
  8
0
  6
CONTINUOUS
 62
     7
 10
0.0
 20
-19.7865725683
 30
0.0
 40
4.83362
  1
SOLIDWORKS дл€ учебных заведений.
 41
0.6681818182
 11
0.0
 21
-21.4940974688
 31
0.0
 73
     1
  0
TEXT
  5
CC
  8
0
  6
CONTINUOUS
 62
     7
 10
0.0
 20
-27.0370025683
 30
0.0
 40
4.83362
  1
“олько дл€ обучающих целей.
 41
0.6611111111
 11
0.0
 21
-28.7445274688
 31
0.0
 73
     1
  0
ENDSEC
  0
EOF
