  0
SECTION
  2
HEADER
  9
$ACADVER
  1
AC1009
  9
$DWGCODEPAGE
  3
ansi_1251
  9
$INSBASE
 10
0.0
 20
0.0
 30
0.0
  9
$EXTMIN
 10
110.0
 20
-12.7
 30
0.0
  9
$EXTMAX
 10
217.7476341189
 20
11.5
 30
0.0
  9
$LIMMIN
 10
0.0
 20
0.0
  9
$LIMMAX
 10
420.0
 20
297.0
  9
$ORTHOMODE
 70
     0
  9
$REGENMODE
 70
     1
  9
$FILLMODE
 70
     1
  9
$QTEXTMODE
 70
     0
  9
$MIRRTEXT
 70
     1
  9
$DRAGMODE
 70
     2
  9
$LTSCALE
 40
1.0
  9
$OSMODE
 70
    37
  9
$ATTMODE
 70
     1
  9
$TEXTSIZE
 40
3.5
  9
$TRACEWID
 40
1.0
  9
$TEXTSTYLE
  7
STANDARD
  9
$CLAYER
  8
0
  9
$CELTYPE
  6
BYLAYER
  9
$CECOLOR
 62
   256
  9
$DIMSCALE
 40
1.0
  9
$DIMASZ
 40
3.302
  9
$DIMEXO
 40
0.0
  9
$DIMDLI
 40
3.75
  9
$DIMRND
 40
0.0
  9
$DIMDLE
 40
0.0
  9
$DIMEXE
 40
1.0
  9
$DIMTP
 40
0.0
  9
$DIMTM
 40
0.0
  9
$DIMTXT
 40
3.5
  9
$DIMCEN
 40
2.5
  9
$DIMTSZ
 40
0.0
  9
$DIMTOL
 70
     0
  9
$DIMLIM
 70
     0
  9
$DIMTIH
 70
     1
  9
$DIMTOH
 70
     1
  9
$DIMSE1
 70
     0
  9
$DIMSE2
 70
     0
  9
$DIMTAD
 70
     1
  9
$DIMZIN
 70
     1
  9
$DIMBLK
  1

  9
$DIMASO
 70
     1
  9
$DIMSHO
 70
     1
  9
$DIMPOST
  1

  9
$DIMAPOST
  1

  9
$DIMALT
 70
     0
  9
$DIMALTD
 70
     3
  9
$DIMALTF
 40
0.0393700787
  9
$DIMLFAC
 40
1.0
  9
$DIMTOFL
 70
     1
  9
$DIMTVP
 40
0.0
  9
$DIMTIX
 70
     0
  9
$DIMSOXD
 70
     0
  9
$DIMSAH
 70
     0
  9
$DIMBLK1
  1

  9
$DIMBLK2
  1

  9
$DIMSTYLE
  2
ISO-25
  9
$DIMCLRD
 70
     0
  9
$DIMCLRE
 70
     0
  9
$DIMCLRT
 70
     0
  9
$DIMTFAC
 40
1.0
  9
$DIMGAP
 40
1.524
  9
$LUNITS
 70
     2
  9
$LUPREC
 70
     2
  9
$SKETCHINC
 40
1.0
  9
$FILLETRAD
 40
10.0
  9
$AUNITS
 70
     0
  9
$AUPREC
 70
     2
  9
$MENU
  1
.
  9
$ELEVATION
 40
0.0
  9
$PELEVATION
 40
0.0
  9
$THICKNESS
 40
0.0
  9
$LIMCHECK
 70
     0
  9
$CHAMFERA
 40
0.0
  9
$CHAMFERB
 40
0.0
  9
$SKPOLY
 70
     0
  9
$TDCREATE
 40
2460500.597305463
  9
$TDUPDATE
 40
2460500.597332755
  9
$TDINDWG
 40
0.0000000116
  9
$TDUSRTIMER
 40
0.0000000116
  9
$USRTIMER
 70
     1
  9
$ANGBASE
 50
0.0
  9
$ANGDIR
 70
     0
  9
$PDMODE
 70
     0
  9
$PDSIZE
 40
-1.0
  9
$PLINEWID
 40
0.0
  9
$COORDS
 70
     1
  9
$SPLFRAME
 70
     0
  9
$SPLINETYPE
 70
     6
  9
$SPLINESEGS
 70
     8
  9
$ATTDIA
 70
     0
  9
$ATTREQ
 70
     1
  9
$HANDLING
 70
     1
  9
$HANDSEED
  5
E0
  9
$SURFTAB1
 70
     6
  9
$SURFTAB2
 70
     6
  9
$SURFTYPE
 70
     6
  9
$SURFU
 70
     6
  9
$SURFV
 70
     6
  9
$UCSNAME
  2

  9
$UCSORG
 10
0.0
 20
0.0
 30
0.0
  9
$UCSXDIR
 10
1.0
 20
0.0
 30
0.0
  9
$UCSYDIR
 10
0.0
 20
1.0
 30
0.0
  9
$PUCSNAME
  2

  9
$PUCSORG
 10
0.0
 20
0.0
 30
0.0
  9
$PUCSXDIR
 10
1.0
 20
0.0
 30
0.0
  9
$PUCSYDIR
 10
0.0
 20
1.0
 30
0.0
  9
$USERI1
 70
     0
  9
$USERI2
 70
     0
  9
$USERI3
 70
     0
  9
$USERI4
 70
     0
  9
$USERI5
 70
     0
  9
$USERR1
 40
0.0
  9
$USERR2
 40
0.0
  9
$USERR3
 40
0.0
  9
$USERR4
 40
0.0
  9
$USERR5
 40
0.0
  9
$WORLDVIEW
 70
     1
  9
$SHADEDGE
 70
     3
  9
$SHADEDIF
 70
    70
  9
$TILEMODE
 70
     1
  9
$MAXACTVP
 70
    64
  9
$PLIMCHECK
 70
     0
  9
$PEXTMIN
 10
1.0000000000E+20
 20
1.0000000000E+20
 30
1.0000000000E+20
  9
$PEXTMAX
 10
-1.0000000000E+20
 20
-1.0000000000E+20
 30
-1.0000000000E+20
  9
$PLIMMIN
 10
0.0
 20
0.0
  9
$PLIMMAX
 10
420.0
 20
297.0
  9
$UNITMODE
 70
     0
  9
$VISRETAIN
 70
     1
  9
$PLINEGEN
 70
     0
  9
$PSLTSCALE
 70
     1
  0
ENDSEC
  0
SECTION
  2
TABLES
  0
TABLE
  2
VPORT
 70
     1
  0
VPORT
  2
*ACTIVE
 70
     0
 10
0.0
 20
0.0
 11
1.0
 21
1.0
 12
163.8738170595
 22
-0.6
 13
0.0
 23
0.0
 14
10.0
 24
10.0
 15
10.0
 25
10.0
 16
0.0
 26
0.0
 36
1.0
 17
0.0
 27
0.0
 37
0.0
 40
24.684
 41
4.4523815752
 42
50.0
 43
0.0
 44
0.0
 50
0.0
 51
0.0
 71
     0
 72
   100
 73
     1
 74
     3
 75
     0
 76
     0
 77
     0
 78
     0
  0
ENDTAB
  0
TABLE
  2
LTYPE
 70
     6
  0
LTYPE
  2
CONTINUOUS
 70
     0
  3
Solid line
 72
    65
 73
     0
 40
0.0
  0
LTYPE
  2
HIDDEN
 70
     0
  3
Hidden __ __ __ __ __ __ __ __ __ __ __ __ __ __
 72
    65
 73
     2
 40
1.905
 49
1.27
 49
-0.635
  0
LTYPE
  2
PHANTOM
 70
     0
  3
Phantom ______  __  __  ______  __  __  ______
 72
    65
 73
     6
 40
12.7
 49
6.35
 49
-1.27
 49
1.27
 49
-1.27
 49
1.27
 49
-1.27
  0
LTYPE
  2
CENTER
 70
     0
  3
Center ____ _ ____ _ ____ _ ____ _ ____ _ ____
 72
    65
 73
     4
 40
10.16
 49
6.35
 49
-1.27
 49
1.27
 49
-1.27
  0
LTYPE
  2
CENTERX2
 70
     0
  3
Center (2x) ________  __  ________  __  _____
 72
    65
 73
     4
 40
20.32
 49
12.7
 49
-2.54
 49
2.54
 49
-2.54
  0
LTYPE
  2
DOT2
 70
     0
  3
Dot (.5x) ........................................
 72
    65
 73
     2
 40
0.635
 49
0.0
 49
-0.635
  0
ENDTAB
  0
TABLE
  2
LAYER
 70
     1
  0
LAYER
  2
0
 70
     0
 62
     7
  6
CONTINUOUS
  0
ENDTAB
  0
TABLE
  2
STYLE
 70
     1
  0
STYLE
  2
STANDARD
 70
     0
 40
0.0
 41
1.0
 50
0.0
 71
     0
 42
3.5
  3
txt
  4

  0
ENDTAB
  0
TABLE
  2
VIEW
 70
     0
  0
ENDTAB
  0
TABLE
  2
UCS
 70
     0
  0
ENDTAB
  0
TABLE
  2
APPID
 70
     1
  0
APPID
  2
ACAD
 70
     0
  0
ENDTAB
  0
TABLE
  2
DIMSTYLE
 70
     1
  0
DIMSTYLE
  2
ISO-25
 70
     0
  3

  4

  5

  6

  7

 40
1.0
 41
2.5
 42
0.625
 43
3.75
 44
1.25
 45
0.0
 46
0.0
 47
0.0
 48
0.0
140
2.5
141
2.5
142
0.0
143
0.0393700787
144
1.0
145
0.0
146
1.0
147
0.625
 71
     0
 72
     0
 73
     0
 74
     0
 75
     0
 76
     0
 77
     1
 78
     8
170
     0
171
     3
172
     1
173
     0
174
     0
175
     0
176
     0
177
     0
178
     0
  0
ENDTAB
  0
ENDSEC
  0
SECTION
  2
BLOCKS
  0
BLOCK
  8
0
  2
$MODEL_SPACE
 70
     0
 10
0.0
 20
0.0
 30
0.0
  3
$MODEL_SPACE
  1

  0
ENDBLK
  5
21
  8
0
  0
BLOCK
 67
     1
  8
0
  2
$PAPER_SPACE
 70
     0
 10
0.0
 20
0.0
 30
0.0
  3
$PAPER_SPACE
  1

  0
ENDBLK
  5
1D
 67
     1
  8
0
  0
ENDSEC
  0
SECTION
  2
ENTITIES
  0
POLYLINE
  5
73
  8
0
  6
CONTINUOUS
 62
     7
 66
     1
 10
0.0
 20
0.0
 30
0.0
 70
   128
  0
VERTEX
  5
AB
  8
0
  6
CONTINUOUS
 62
     7
 10
150.0846559849
 20
-8.3576515904
 30
0.0
  0
VERTEX
  5
AC
  8
0
  6
CONTINUOUS
 62
     7
 10
159.694921691
 20
-8.5006327005
 30
0.0
  0
VERTEX
  5
AD
  8
0
  6
CONTINUOUS
 62
     7
 10
169.3060794945
 20
-8.4304833468
 30
0.0
  0
VERTEX
  5
AE
  8
0
  6
CONTINUOUS
 62
     7
 10
176.8559400863
 20
-8.2554484303
 30
0.0
  0
VERTEX
  5
AF
  8
0
  6
CONTINUOUS
 62
     7
 10
184.4032698889
 20
-7.9927942509
 30
0.0
  0
SEQEND
  5
DA
  8
0
  6
CONTINUOUS
 62
     7
  0
CIRCLE
  5
76
  8
0
  6
CONTINUOUS
 62
     7
 10
152.5184842802
 20
0.0
 30
0.0
 40
4.0
  0
CIRCLE
  5
77
  8
0
  6
CONTINUOUS
 62
     7
 10
197.5184842802
 20
0.0
 30
0.0
 40
3.550000000000153
  0
CIRCLE
  5
78
  8
0
  6
CONTINUOUS
 62
     7
 10
129.8299275025
 20
8.8
 30
0.0
 40
1.499999999999972
  0
CIRCLE
  5
79
  8
0
  6
CONTINUOUS
 62
     7
 10
145.5874183909
 20
-10.0
 30
0.0
 40
1.500000000000057
  0
CIRCLE
  5
7A
  8
0
  6
CONTINUOUS
 62
     7
 10
188.8991380338
 20
-9.6
 30
0.0
 40
1.500000000000057
  0
CIRCLE
  5
7B
  8
0
  6
CONTINUOUS
 62
     7
 10
206.9472712008
 20
8.6
 30
0.0
 40
1.499999999999972
  0
POLYLINE
  5
8B
  8
0
  6
CONTINUOUS
 62
     7
 66
     1
 10
0.0
 20
0.0
 30
0.0
 70
   128
  0
VERTEX
  5
B0
  8
0
  6
CONTINUOUS
 62
     7
 10
110.0
 20
-0.0000000005
 30
0.0
  0
VERTEX
  5
B1
  8
0
  6
CONTINUOUS
 62
     7
 10
110.1761750119
 20
-0.8084355658
 30
0.0
  0
VERTEX
  5
B2
  8
0
  6
CONTINUOUS
 62
     7
 10
110.6360580094
 20
-1.5020109509
 30
0.0
  0
VERTEX
  5
B3
  8
0
  6
CONTINUOUS
 62
     7
 10
111.2369719902
 20
-2.0733697661
 30
0.0
  0
VERTEX
  5
B4
  8
0
  6
CONTINUOUS
 62
     7
 10
111.9140936689
 20
-2.5536820263
 30
0.0
  0
VERTEX
  5
B5
  8
0
  6
CONTINUOUS
 62
     7
 10
112.6336729097
 20
-2.9681685419
 30
0.0
  0
VERTEX
  5
B6
  8
0
  6
CONTINUOUS
 62
     7
 10
113.8857584669
 20
-3.5553913677
 30
0.0
  0
VERTEX
  5
B7
  8
0
  6
CONTINUOUS
 62
     7
 10
115.1772347339
 20
-4.050897455
 30
0.0
  0
VERTEX
  5
B8
  8
0
  6
CONTINUOUS
 62
     7
 10
116.4920219875
 20
-4.4804382611
 30
0.0
  0
VERTEX
  5
B9
  8
0
  6
CONTINUOUS
 62
     7
 10
119.1631832001
 20
-5.1986807487
 30
0.0
  0
VERTEX
  5
BA
  8
0
  6
CONTINUOUS
 62
     7
 10
121.8670552172
 20
-5.7824674202
 30
0.0
  0
VERTEX
  5
BB
  8
0
  6
CONTINUOUS
 62
     7
 10
124.5902008331
 20
-6.2687360364
 30
0.0
  0
VERTEX
  5
BC
  8
0
  6
CONTINUOUS
 62
     7
 10
130.0699399391
 20
-7.0283089491
 30
0.0
  0
VERTEX
  5
BD
  8
0
  6
CONTINUOUS
 62
     7
 10
135.5748156875
 20
-7.5786513816
 30
0.0
  0
VERTEX
  5
BE
  8
0
  6
CONTINUOUS
 62
     7
 10
141.0931758885
 20
-7.972438296
 30
0.0
  0
SEQEND
  5
DB
  8
0
  6
CONTINUOUS
 62
     7
  0
POLYLINE
  5
8C
  8
0
  6
CONTINUOUS
 62
     7
 66
     1
 10
0.0
 20
0.0
 30
0.0
 70
   128
  0
VERTEX
  5
BF
  8
0
  6
CONTINUOUS
 62
     7
 10
125.3710421839
 20
6.3930883792
 30
0.0
  0
VERTEX
  5
C0
  8
0
  6
CONTINUOUS
 62
     7
 10
122.5142548569
 20
5.9061431251
 30
0.0
  0
VERTEX
  5
C1
  8
0
  6
CONTINUOUS
 62
     7
 10
119.6764432669
 20
5.3188430966
 30
0.0
  0
VERTEX
  5
C2
  8
0
  6
CONTINUOUS
 62
     7
 10
116.87088335
 20
4.5934634923
 30
0.0
  0
VERTEX
  5
C3
  8
0
  6
CONTINUOUS
 62
     7
 10
115.488649419
 20
4.1585053728
 30
0.0
  0
VERTEX
  5
C4
  8
0
  6
CONTINUOUS
 62
     7
 10
114.1294826952
 20
3.6558885426
 30
0.0
  0
VERTEX
  5
C5
  8
0
  6
CONTINUOUS
 62
     7
 10
112.8092133756
 20
3.0591362618
 30
0.0
  0
VERTEX
  5
C6
  8
0
  6
CONTINUOUS
 62
     7
 10
112.0487547648
 20
2.6370903244
 30
0.0
  0
VERTEX
  5
C7
  8
0
  6
CONTINUOUS
 62
     7
 10
111.3299691649
 20
2.1469202103
 30
0.0
  0
VERTEX
  5
C8
  8
0
  6
CONTINUOUS
 62
     7
 10
110.6888525952
 20
1.5612728707
 30
0.0
  0
VERTEX
  5
C9
  8
0
  6
CONTINUOUS
 62
     7
 10
110.1921620873
 20
0.8444588012
 30
0.0
  0
VERTEX
  5
CA
  8
0
  6
CONTINUOUS
 62
     7
 10
110.0
 20
-0.0000000005
 30
0.0
  0
SEQEND
  5
DC
  8
0
  6
CONTINUOUS
 62
     7
  0
POLYLINE
  5
8E
  8
0
  6
CONTINUOUS
 62
     7
 66
     1
 10
0.0
 20
0.0
 30
0.0
 70
   128
  0
VERTEX
  5
CB
  8
0
  6
CONTINUOUS
 62
     7
 10
202.4559403428
 20
7.0791901218
 30
0.0
  0
VERTEX
  5
CC
  8
0
  6
CONTINUOUS
 62
     7
 10
192.9212198046
 20
7.6068503545
 30
0.0
  0
VERTEX
  5
CD
  8
0
  6
CONTINUOUS
 62
     7
 10
183.381435497
 20
8.0329950438
 30
0.0
  0
VERTEX
  5
CE
  8
0
  6
CONTINUOUS
 62
     7
 10
173.8369914698
 20
8.3367800156
 30
0.0
  0
VERTEX
  5
CF
  8
0
  6
CONTINUOUS
 62
     7
 10
164.2889870697
 20
8.4905763134
 30
0.0
  0
VERTEX
  5
D0
  8
0
  6
CONTINUOUS
 62
     7
 10
156.7860007053
 20
8.4823337881
 30
0.0
  0
VERTEX
  5
D1
  8
0
  6
CONTINUOUS
 62
     7
 10
149.2845052125
 20
8.3342795141
 30
0.0
  0
VERTEX
  5
D2
  8
0
  6
CONTINUOUS
 62
     7
 10
141.788508268
 20
8.0126791838
 30
0.0
  0
VERTEX
  5
D3
  8
0
  6
CONTINUOUS
 62
     7
 10
134.305602735
 20
7.4672592572
 30
0.0
  0
SEQEND
  5
DD
  8
0
  6
CONTINUOUS
 62
     7
  0
POLYLINE
  5
90
  8
0
  6
CONTINUOUS
 62
     7
 66
     1
 10
0.0
 20
0.0
 30
0.0
 70
   128
  0
VERTEX
  5
D4
  8
0
  6
CONTINUOUS
 62
     7
 10
217.7476341189
 20
6.0581130778
 30
0.0
  0
VERTEX
  5
D5
  8
0
  6
CONTINUOUS
 62
     7
 10
214.2142142
 20
6.3111999125
 30
0.0
  0
VERTEX
  5
D6
  8
0
  6
CONTINUOUS
 62
     7
 10
211.4374693176
 20
6.5031484017
 30
0.0
  0
SEQEND
  5
DE
  8
0
  6
CONTINUOUS
 62
     7
  0
POLYLINE
  5
92
  8
0
  6
CONTINUOUS
 62
     7
 66
     1
 10
0.0
 20
0.0
 30
0.0
 70
   128
  0
VERTEX
  5
D7
  8
0
  6
CONTINUOUS
 62
     7
 10
193.3939000238
 20
-7.5829408989
 30
0.0
  0
VERTEX
  5
D8
  8
0
  6
CONTINUOUS
 62
     7
 10
207.036095758
 20
-6.7942956385
 30
0.0
  0
VERTEX
  5
D9
  8
0
  6
CONTINUOUS
 62
     7
 10
217.7476341189
 20
-6.0581130778
 30
0.0
  0
SEQEND
  5
DF
  8
0
  6
CONTINUOUS
 62
     7
  0
LINE
  5
94
  8
0
  6
CONTINUOUS
 62
     7
 10
125.0184842802
 20
-1.0
 30
0.0
 11
125.0184842802
 21
1.0
 31
0.0
  0
LINE
  5
95
  8
0
  6
CONTINUOUS
 62
     7
 10
127.0184842802
 20
-3.0
 30
0.0
 11
140.0184842802
 21
-3.0
 31
0.0
  0
LINE
  5
96
  8
0
  6
CONTINUOUS
 62
     7
 10
142.0184842802
 20
-1.0
 30
0.0
 11
142.0184842802
 21
1.0
 31
0.0
  0
LINE
  5
97
  8
0
  6
CONTINUOUS
 62
     7
 10
127.0184842802
 20
3.0
 30
0.0
 11
140.0184842802
 21
3.0
 31
0.0
  0
LINE
  5
98
  8
0
  6
CONTINUOUS
 62
     7
 10
165.0184842802
 20
-4.5
 30
0.0
 11
185.0184842802
 21
-4.5
 31
0.0
  0
LINE
  5
99
  8
0
  6
CONTINUOUS
 62
     7
 10
187.0184842802
 20
-2.5
 30
0.0
 11
187.0184842802
 21
2.5
 31
0.0
  0
LINE
  5
9A
  8
0
  6
CONTINUOUS
 62
     7
 10
165.0184842802
 20
4.5
 30
0.0
 11
185.0184842802
 21
4.5
 31
0.0
  0
LINE
  5
9B
  8
0
  6
CONTINUOUS
 62
     7
 10
163.0184842802
 20
-2.5
 30
0.0
 11
163.0184842802
 21
2.5
 31
0.0
  0
LINE
  5
9C
  8
0
  6
CONTINUOUS
 62
     7
 10
217.7476341189
 20
6.0581130778
 30
0.0
 11
217.7476341189
 21
-6.0581130778
 31
0.0
  0
ARC
  5
9D
  8
0
  6
CONTINUOUS
 62
     7
 10
127.0184842802
 20
1.0
 30
0.0
 40
2.000000000000028
 50
90.0
 51
180.0
  0
ARC
  5
9E
  8
0
  6
CONTINUOUS
 62
     7
 10
165.0184842802
 20
-2.5
 30
0.0
 40
2.000000000000029
 50
180.0
 51
270.0
  0
ARC
  5
9F
  8
0
  6
CONTINUOUS
 62
     7
 10
127.0184842802
 20
-1.0
 30
0.0
 40
2.000000000000003
 50
180.0
 51
270.0
  0
ARC
  5
A0
  8
0
  6
CONTINUOUS
 62
     7
 10
140.0184842802
 20
-1.0
 30
0.0
 40
1.999999999999981
 50
270.0
 51
0.0
  0
ARC
  5
A1
  8
0
  6
CONTINUOUS
 62
     7
 10
140.0184842802
 20
1.0
 30
0.0
 40
1.999999999999981
 50
0.0
 51
90.0
  0
ARC
  5
A2
  8
0
  6
CONTINUOUS
 62
     7
 10
185.0184842802
 20
-2.5
 30
0.0
 40
2.000000000000057
 50
270.0
 51
0.0
  0
ARC
  5
A3
  8
0
  6
CONTINUOUS
 62
     7
 10
185.0184842802
 20
2.5
 30
0.0
 40
2.000000000000057
 50
0.0
 51
90.0
  0
ARC
  5
A4
  8
0
  6
CONTINUOUS
 62
     7
 10
165.0184842802
 20
2.5
 30
0.0
 40
2.000000000000028
 50
90.0
 51
180.0
  0
ARC
  5
A5
  8
0
  6
CONTINUOUS
 62
     7
 10
145.587418391
 20
-8.2
 30
0.0
 40
4.499999999998154
 50
177.1013580735
 51
357.9923067719
  0
ARC
  5
A6
  8
0
  6
CONTINUOUS
 62
     7
 10
129.8299275025
 20
7.0
 30
0.0
 40
4.500000000000004
 50
5.9600725798
 51
187.751059266
  0
ARC
  5
A7
  8
0
  6
CONTINUOUS
 62
     7
 10
206.9472712008
 20
6.8
 30
0.0
 40
4.499999999998606
 50
356.2176214082
 51
176.4429564842
  0
ARC
  5
A8
  8
0
  6
CONTINUOUS
 62
     7
 10
188.8991380338
 20
-7.8
 30
0.0
 40
4.499999999998714
 50
182.4554842226
 51
2.7647551209
  0
TEXT
  5
A9
  8
0
  6
CONTINUOUS
 62
     7
 10
110.0
 20
-18.2429050995
 30
0.0
 40
4.83362
  1
SOLIDWORKS дл€ учебных заведений.
 41
0.6681818182
 11
110.0
 21
-19.95043
 31
0.0
 73
     1
  0
TEXT
  5
AA
  8
0
  6
CONTINUOUS
 62
     7
 10
110.0
 20
-25.4933350995
 30
0.0
 40
4.83362
  1
“олько дл€ обучающих целей.
 41
0.6611111111
 11
110.0
 21
-27.20086
 31
0.0
 73
     1
  0
ENDSEC
  0
EOF
