  0
SECTION
  2
HEADER
  9
$ACADVER
  1
AC1009
  9
$DWGCODEPAGE
  3
ansi_1251
  9
$INSBASE
 10
0.0
 20
0.0
 30
0.0
  9
$EXTMIN
 10
6.5619350615
 20
105.6067611147
 30
0.0
  9
$EXTMAX
 10
255.3128816544
 20
135.5790864541
 30
0.0
  9
$LIMMIN
 10
0.0
 20
0.0
  9
$LIMMAX
 10
420.0
 20
297.0
  9
$ORTHOMODE
 70
     0
  9
$REGENMODE
 70
     1
  9
$FILLMODE
 70
     1
  9
$QTEXTMODE
 70
     0
  9
$MIRRTEXT
 70
     1
  9
$DRAGMODE
 70
     2
  9
$LTSCALE
 40
1.0
  9
$OSMODE
 70
    37
  9
$ATTMODE
 70
     1
  9
$TEXTSIZE
 40
3.5
  9
$TRACEWID
 40
1.0
  9
$TEXTSTYLE
  7
STANDARD
  9
$CLAYER
  8
0
  9
$CELTYPE
  6
BYLAYER
  9
$CECOLOR
 62
   256
  9
$DIMSCALE
 40
1.0
  9
$DIMASZ
 40
3.302
  9
$DIMEXO
 40
0.0
  9
$DIMDLI
 40
3.75
  9
$DIMRND
 40
0.0
  9
$DIMDLE
 40
0.0
  9
$DIMEXE
 40
1.0
  9
$DIMTP
 40
0.0
  9
$DIMTM
 40
0.0
  9
$DIMTXT
 40
3.5
  9
$DIMCEN
 40
2.5
  9
$DIMTSZ
 40
0.0
  9
$DIMTOL
 70
     0
  9
$DIMLIM
 70
     0
  9
$DIMTIH
 70
     1
  9
$DIMTOH
 70
     1
  9
$DIMSE1
 70
     0
  9
$DIMSE2
 70
     0
  9
$DIMTAD
 70
     1
  9
$DIMZIN
 70
     1
  9
$DIMBLK
  1

  9
$DIMASO
 70
     1
  9
$DIMSHO
 70
     1
  9
$DIMPOST
  1

  9
$DIMAPOST
  1

  9
$DIMALT
 70
     0
  9
$DIMALTD
 70
     3
  9
$DIMALTF
 40
0.0393700787
  9
$DIMLFAC
 40
1.0
  9
$DIMTOFL
 70
     1
  9
$DIMTVP
 40
0.0
  9
$DIMTIX
 70
     0
  9
$DIMSOXD
 70
     0
  9
$DIMSAH
 70
     0
  9
$DIMBLK1
  1

  9
$DIMBLK2
  1

  9
$DIMSTYLE
  2
ISO-25
  9
$DIMCLRD
 70
     0
  9
$DIMCLRE
 70
     0
  9
$DIMCLRT
 70
     0
  9
$DIMTFAC
 40
1.0
  9
$DIMGAP
 40
1.524
  9
$LUNITS
 70
     2
  9
$LUPREC
 70
     2
  9
$SKETCHINC
 40
1.0
  9
$FILLETRAD
 40
10.0
  9
$AUNITS
 70
     0
  9
$AUPREC
 70
     2
  9
$MENU
  1
.
  9
$ELEVATION
 40
0.0
  9
$PELEVATION
 40
0.0
  9
$THICKNESS
 40
0.0
  9
$LIMCHECK
 70
     0
  9
$CHAMFERA
 40
0.0
  9
$CHAMFERB
 40
0.0
  9
$SKPOLY
 70
     0
  9
$TDCREATE
 40
2460501.521642708
  9
$TDUPDATE
 40
2460501.521764849
  9
$TDINDWG
 40
0.0000000116
  9
$TDUSRTIMER
 40
0.0000000116
  9
$USRTIMER
 70
     1
  9
$ANGBASE
 50
0.0
  9
$ANGDIR
 70
     0
  9
$PDMODE
 70
     0
  9
$PDSIZE
 40
-1.0
  9
$PLINEWID
 40
0.0
  9
$COORDS
 70
     1
  9
$SPLFRAME
 70
     0
  9
$SPLINETYPE
 70
     6
  9
$SPLINESEGS
 70
     8
  9
$ATTDIA
 70
     0
  9
$ATTREQ
 70
     1
  9
$HANDLING
 70
     1
  9
$HANDSEED
  5
BF
  9
$SURFTAB1
 70
     6
  9
$SURFTAB2
 70
     6
  9
$SURFTYPE
 70
     6
  9
$SURFU
 70
     6
  9
$SURFV
 70
     6
  9
$UCSNAME
  2

  9
$UCSORG
 10
0.0
 20
0.0
 30
0.0
  9
$UCSXDIR
 10
1.0
 20
0.0
 30
0.0
  9
$UCSYDIR
 10
0.0
 20
1.0
 30
0.0
  9
$PUCSNAME
  2

  9
$PUCSORG
 10
0.0
 20
0.0
 30
0.0
  9
$PUCSXDIR
 10
1.0
 20
0.0
 30
0.0
  9
$PUCSYDIR
 10
0.0
 20
1.0
 30
0.0
  9
$USERI1
 70
     0
  9
$USERI2
 70
     0
  9
$USERI3
 70
     0
  9
$USERI4
 70
     0
  9
$USERI5
 70
     0
  9
$USERR1
 40
0.0
  9
$USERR2
 40
0.0
  9
$USERR3
 40
0.0
  9
$USERR4
 40
0.0
  9
$USERR5
 40
0.0
  9
$WORLDVIEW
 70
     1
  9
$SHADEDGE
 70
     3
  9
$SHADEDIF
 70
    70
  9
$TILEMODE
 70
     1
  9
$MAXACTVP
 70
    64
  9
$PLIMCHECK
 70
     0
  9
$PEXTMIN
 10
1.0000000000E+20
 20
1.0000000000E+20
 30
1.0000000000E+20
  9
$PEXTMAX
 10
-1.0000000000E+20
 20
-1.0000000000E+20
 30
-1.0000000000E+20
  9
$PLIMMIN
 10
0.0
 20
0.0
  9
$PLIMMAX
 10
420.0
 20
297.0
  9
$UNITMODE
 70
     0
  9
$VISRETAIN
 70
     1
  9
$PLINEGEN
 70
     0
  9
$PSLTSCALE
 70
     1
  0
ENDSEC
  0
SECTION
  2
TABLES
  0
TABLE
  2
VPORT
 70
     1
  0
VPORT
  2
*ACTIVE
 70
     0
 10
0.0
 20
0.0
 11
1.0
 21
1.0
 12
130.9374083579
 22
120.5929237844
 13
0.0
 23
0.0
 14
10.0
 24
10.0
 15
10.0
 25
10.0
 16
0.0
 26
0.0
 36
1.0
 17
0.0
 27
0.0
 37
0.0
 40
30.5717718462
 41
8.2993542802
 42
50.0
 43
0.0
 44
0.0
 50
0.0
 51
0.0
 71
     0
 72
   100
 73
     1
 74
     3
 75
     0
 76
     0
 77
     0
 78
     0
  0
ENDTAB
  0
TABLE
  2
LTYPE
 70
     6
  0
LTYPE
  2
CONTINUOUS
 70
     0
  3
Solid line
 72
    65
 73
     0
 40
0.0
  0
LTYPE
  2
HIDDEN
 70
     0
  3
Hidden __ __ __ __ __ __ __ __ __ __ __ __ __ __
 72
    65
 73
     2
 40
1.905
 49
1.27
 49
-0.635
  0
LTYPE
  2
PHANTOM
 70
     0
  3
Phantom ______  __  __  ______  __  __  ______
 72
    65
 73
     6
 40
12.7
 49
6.35
 49
-1.27
 49
1.27
 49
-1.27
 49
1.27
 49
-1.27
  0
LTYPE
  2
CENTER
 70
     0
  3
Center ____ _ ____ _ ____ _ ____ _ ____ _ ____
 72
    65
 73
     4
 40
10.16
 49
6.35
 49
-1.27
 49
1.27
 49
-1.27
  0
LTYPE
  2
CENTERX2
 70
     0
  3
Center (2x) ________  __  ________  __  _____
 72
    65
 73
     4
 40
20.32
 49
12.7
 49
-2.54
 49
2.54
 49
-2.54
  0
LTYPE
  2
DOT2
 70
     0
  3
Dot (.5x) ........................................
 72
    65
 73
     2
 40
0.635
 49
0.0
 49
-0.635
  0
ENDTAB
  0
TABLE
  2
LAYER
 70
     1
  0
LAYER
  2
0
 70
     0
 62
     7
  6
CONTINUOUS
  0
ENDTAB
  0
TABLE
  2
STYLE
 70
     1
  0
STYLE
  2
STANDARD
 70
     0
 40
0.0
 41
1.0
 50
0.0
 71
     0
 42
3.5
  3
txt
  4

  0
ENDTAB
  0
TABLE
  2
VIEW
 70
     0
  0
ENDTAB
  0
TABLE
  2
UCS
 70
     0
  0
ENDTAB
  0
TABLE
  2
APPID
 70
     1
  0
APPID
  2
ACAD
 70
     0
  0
ENDTAB
  0
TABLE
  2
DIMSTYLE
 70
     1
  0
DIMSTYLE
  2
ISO-25
 70
     0
  3

  4

  5

  6

  7

 40
1.0
 41
2.5
 42
0.625
 43
3.75
 44
1.25
 45
0.0
 46
0.0
 47
0.0
 48
0.0
140
2.5
141
2.5
142
0.0
143
0.0393700787
144
1.0
145
0.0
146
1.0
147
0.625
 71
     0
 72
     0
 73
     0
 74
     0
 75
     0
 76
     0
 77
     1
 78
     8
170
     0
171
     3
172
     1
173
     0
174
     0
175
     0
176
     0
177
     0
178
     0
  0
ENDTAB
  0
ENDSEC
  0
SECTION
  2
BLOCKS
  0
BLOCK
  8
0
  2
$MODEL_SPACE
 70
     0
 10
0.0
 20
0.0
 30
0.0
  3
$MODEL_SPACE
  1

  0
ENDBLK
  5
21
  8
0
  0
BLOCK
 67
     1
  8
0
  2
$PAPER_SPACE
 70
     0
 10
0.0
 20
0.0
 30
0.0
  3
$PAPER_SPACE
  1

  0
ENDBLK
  5
1D
 67
     1
  8
0
  0
ENDSEC
  0
SECTION
  2
ENTITIES
  0
CIRCLE
  5
74
  8
0
  6
CONTINUOUS
 62
     7
 10
148.8681087641
 20
117.8449852844
 30
0.0
 40
4.049999999999983
  0
CIRCLE
  5
75
  8
0
  6
CONTINUOUS
 62
     7
 10
109.2325739511
 20
117.8449852844
 30
0.0
 40
7.500000000000043
  0
CIRCLE
  5
76
  8
0
  6
CONTINUOUS
 62
     7
 10
68.9168426026
 20
120.6369450206
 30
0.0
 40
8.050000000000026
  0
POLYLINE
  5
77
  8
0
  6
CONTINUOUS
 62
     7
 66
     1
 10
0.0
 20
0.0
 30
0.0
 70
   128
  0
VERTEX
  5
84
  8
0
  6
CONTINUOUS
 62
     7
 10
69.8190690071
 20
106.2134102501
 30
0.0
  0
VERTEX
  5
85
  8
0
  6
CONTINUOUS
 62
     7
 10
91.4404411536
 20
106.5287841463
 30
0.0
  0
VERTEX
  5
86
  8
0
  6
CONTINUOUS
 62
     7
 10
113.0656975611
 20
106.6609072756
 30
0.0
  0
VERTEX
  5
87
  8
0
  6
CONTINUOUS
 62
     7
 10
147.042263767
 20
106.8426200899
 30
0.0
  0
SEQEND
  5
B9
  8
0
  6
CONTINUOUS
 62
     7
  0
POLYLINE
  5
79
  8
0
  6
CONTINUOUS
 62
     7
 66
     1
 10
0.0
 20
0.0
 30
0.0
 70
   128
  0
VERTEX
  5
88
  8
0
  6
CONTINUOUS
 62
     7
 10
6.5854285005
 20
114.7729022602
 30
0.0
  0
VERTEX
  5
89
  8
0
  6
CONTINUOUS
 62
     7
 10
6.5619350615
 20
113.5591047988
 30
0.0
  0
VERTEX
  5
8A
  8
0
  6
CONTINUOUS
 62
     7
 10
6.9755446464
 20
112.4332169631
 30
0.0
  0
VERTEX
  5
8B
  8
0
  6
CONTINUOUS
 62
     7
 10
7.7430105969
 20
111.4765927314
 30
0.0
  0
VERTEX
  5
8C
  8
0
  6
CONTINUOUS
 62
     7
 10
9.2901885617
 20
110.3550516202
 30
0.0
  0
VERTEX
  5
8D
  8
0
  6
CONTINUOUS
 62
     7
 10
11.0599519664
 20
109.5179762306
 30
0.0
  0
VERTEX
  5
8E
  8
0
  6
CONTINUOUS
 62
     7
 10
13.5667347685
 20
108.6876996542
 30
0.0
  0
VERTEX
  5
8F
  8
0
  6
CONTINUOUS
 62
     7
 10
16.1514758052
 20
108.0696515002
 30
0.0
  0
VERTEX
  5
90
  8
0
  6
CONTINUOUS
 62
     7
 10
18.7756510635
 20
107.5955051736
 30
0.0
  0
VERTEX
  5
91
  8
0
  6
CONTINUOUS
 62
     7
 10
24.0795630703
 20
106.9298227435
 30
0.0
  0
VERTEX
  5
92
  8
0
  6
CONTINUOUS
 62
     7
 10
29.418017891
 20
106.5108450079
 30
0.0
  0
VERTEX
  5
93
  8
0
  6
CONTINUOUS
 62
     7
 10
34.7717849891
 20
106.2528739053
 30
0.0
  0
VERTEX
  5
94
  8
0
  6
CONTINUOUS
 62
     7
 10
45.496824895
 20
106.0345451115
 30
0.0
  0
VERTEX
  5
95
  8
0
  6
CONTINUOUS
 62
     7
 10
56.2300643941
 20
106.0464931662
 30
0.0
  0
VERTEX
  5
96
  8
0
  6
CONTINUOUS
 62
     7
 10
66.9660117196
 20
106.1711593965
 30
0.0
  0
SEQEND
  5
BA
  8
0
  6
CONTINUOUS
 62
     7
  0
POLYLINE
  5
7A
  8
0
  6
CONTINUOUS
 62
     7
 66
     1
 10
0.0
 20
0.0
 30
0.0
 70
   128
  0
VERTEX
  5
97
  8
0
  6
CONTINUOUS
 62
     7
 10
68.0343243509
 20
134.9856635367
 30
0.0
  0
VERTEX
  5
98
  8
0
  6
CONTINUOUS
 62
     7
 10
59.6930600895
 20
134.2391002602
 30
0.0
  0
VERTEX
  5
99
  8
0
  6
CONTINUOUS
 62
     7
 10
51.3873136529
 20
133.1666176091
 30
0.0
  0
VERTEX
  5
9A
  8
0
  6
CONTINUOUS
 62
     7
 10
43.1387564439
 20
131.7357562696
 30
0.0
  0
VERTEX
  5
9B
  8
0
  6
CONTINUOUS
 62
     7
 10
34.974586107
 20
129.8978525989
 30
0.0
  0
VERTEX
  5
9C
  8
0
  6
CONTINUOUS
 62
     7
 10
29.6000105373
 20
128.4106667276
 30
0.0
  0
VERTEX
  5
9D
  8
0
  6
CONTINUOUS
 62
     7
 10
24.3038290426
 20
126.6755691957
 30
0.0
  0
VERTEX
  5
9E
  8
0
  6
CONTINUOUS
 62
     7
 10
19.1267846191
 20
124.6318008352
 30
0.0
  0
VERTEX
  5
9F
  8
0
  6
CONTINUOUS
 62
     7
 10
16.3050439626
 20
123.3179727704
 30
0.0
  0
VERTEX
  5
A0
  8
0
  6
CONTINUOUS
 62
     7
 10
13.5718536641
 20
121.8464988979
 30
0.0
  0
VERTEX
  5
A1
  8
0
  6
CONTINUOUS
 62
     7
 10
10.9722096344
 20
120.1649592565
 30
0.0
  0
VERTEX
  5
A2
  8
0
  6
CONTINUOUS
 62
     7
 10
9.5483754098
 20
119.0427022798
 30
0.0
  0
VERTEX
  5
A3
  8
0
  6
CONTINUOUS
 62
     7
 10
8.2678762485
 20
117.7923060006
 30
0.0
  0
VERTEX
  5
A4
  8
0
  6
CONTINUOUS
 62
     7
 10
7.2118528378
 20
116.375882261
 30
0.0
  0
VERTEX
  5
A5
  8
0
  6
CONTINUOUS
 62
     7
 10
6.5854285005
 20
114.7729022602
 30
0.0
  0
SEQEND
  5
BB
  8
0
  6
CONTINUOUS
 62
     7
  0
POLYLINE
  5
7C
  8
0
  6
CONTINUOUS
 62
     7
 66
     1
 10
0.0
 20
0.0
 30
0.0
 70
   128
  0
VERTEX
  5
A6
  8
0
  6
CONTINUOUS
 62
     7
 10
147.8304443089
 20
130.2559076306
 30
0.0
  0
VERTEX
  5
A7
  8
0
  6
CONTINUOUS
 62
     7
 10
133.5397428515
 20
132.1988898616
 30
0.0
  0
VERTEX
  5
A8
  8
0
  6
CONTINUOUS
 62
     7
 10
119.2051456078
 20
133.7887514855
 30
0.0
  0
VERTEX
  5
A9
  8
0
  6
CONTINUOUS
 62
     7
 10
104.8353554391
 20
134.9713822109
 30
0.0
  0
VERTEX
  5
AA
  8
0
  6
CONTINUOUS
 62
     7
 10
93.5237601946
 20
135.5013869
 30
0.0
  0
VERTEX
  5
AB
  8
0
  6
CONTINUOUS
 62
     7
 10
82.2009583143
 20
135.5790864541
 30
0.0
  0
VERTEX
  5
AC
  8
0
  6
CONTINUOUS
 62
     7
 10
70.8877326551
 20
135.1710404359
 30
0.0
  0
SEQEND
  5
BC
  8
0
  6
CONTINUOUS
 62
     7
  0
POLYLINE
  5
7E
  8
0
  6
CONTINUOUS
 62
     7
 66
     1
 10
0.0
 20
0.0
 30
0.0
 70
   128
  0
VERTEX
  5
AD
  8
0
  6
CONTINUOUS
 62
     7
 10
255.3128816544
 20
105.6067611147
 30
0.0
  0
VERTEX
  5
AE
  8
0
  6
CONTINUOUS
 62
     7
 10
236.0663365138
 20
111.2899250109
 30
0.0
  0
VERTEX
  5
AF
  8
0
  6
CONTINUOUS
 62
     7
 10
216.6712579443
 20
116.4453647074
 30
0.0
  0
VERTEX
  5
B0
  8
0
  6
CONTINUOUS
 62
     7
 10
197.1438851018
 20
121.0739680388
 30
0.0
  0
VERTEX
  5
B1
  8
0
  6
CONTINUOUS
 62
     7
 10
181.7174437099
 20
124.3385249363
 30
0.0
  0
VERTEX
  5
B2
  8
0
  6
CONTINUOUS
 62
     7
 10
166.2231788523
 20
127.2635210771
 30
0.0
  0
VERTEX
  5
B3
  8
0
  6
CONTINUOUS
 62
     7
 10
150.666396798
 20
129.8296203901
 30
0.0
  0
SEQEND
  5
BD
  8
0
  6
CONTINUOUS
 62
     7
  0
POLYLINE
  5
7F
  8
0
  6
CONTINUOUS
 62
     7
 66
     1
 10
0.0
 20
0.0
 30
0.0
 70
   128
  0
VERTEX
  5
B4
  8
0
  6
CONTINUOUS
 62
     7
 10
149.8946192564
 20
106.8547559899
 30
0.0
  0
VERTEX
  5
B5
  8
0
  6
CONTINUOUS
 62
     7
 10
179.414697033
 20
106.8683869864
 30
0.0
  0
VERTEX
  5
B6
  8
0
  6
CONTINUOUS
 62
     7
 10
208.9346305381
 20
106.6065223329
 30
0.0
  0
VERTEX
  5
B7
  8
0
  6
CONTINUOUS
 62
     7
 10
232.1258223299
 20
106.1874291597
 30
0.0
  0
VERTEX
  5
B8
  8
0
  6
CONTINUOUS
 62
     7
 10
255.3128816544
 20
105.6067611147
 30
0.0
  0
SEQEND
  5
BE
  8
0
  6
CONTINUOUS
 62
     7
  0
LINE
  5
80
  8
0
  6
CONTINUOUS
 62
     7
 10
147.042263767
 20
106.8426200899
 30
0.0
 11
149.8946192564
 21
106.8547559899
 31
0.0
  0
LINE
  5
81
  8
0
  6
CONTINUOUS
 62
     7
 10
66.9660117196
 20
106.1711593965
 30
0.0
 11
69.8190690071
 21
106.2134102501
 31
0.0
  0
LINE
  5
82
  8
0
  6
CONTINUOUS
 62
     7
 10
70.8877326551
 20
135.1710404359
 30
0.0
 11
68.0343243509
 21
134.9856635367
 31
0.0
  0
LINE
  5
83
  8
0
  6
CONTINUOUS
 62
     7
 10
150.666396798
 20
129.8296203901
 30
0.0
 11
147.8304443089
 21
130.2559076306
 31
0.0
  0
ENDSEC
  0
EOF
